<svg width="94" height="89" viewBox="0 0 94 89" fill="none" xmlns="http://www.w3.org/2000/svg">
<g filter="url(#filter0_b_7_9064)">
<ellipse cx="47" cy="44.0445" rx="37" ry="35.3556" fill="#015276" fill-opacity="0.26"/>
</g>
<path d="M46.8066 20.1334C60.8885 20.1334 72.3437 31.0795 72.3437 44.5356C72.3437 57.9916 60.8885 68.9378 46.8066 68.9378C32.7246 68.9378 21.2694 57.9916 21.2694 44.5356C21.2694 31.0795 32.7246 20.1334 46.8066 20.1334ZM46.8066 18.3904C31.7032 18.3904 19.4453 30.1034 19.4453 44.5356C19.4453 58.9677 31.7032 70.6808 46.8066 70.6808C61.91 70.6808 74.1678 58.9677 74.1678 44.5356C74.1678 30.1034 61.91 18.3904 46.8066 18.3904Z" fill="#FEF147"/>
<path opacity="0.3" d="M46.8059 9.67554C26.668 9.67554 10.3242 25.2755 10.3242 44.5358C10.3242 63.7961 26.6498 79.3961 46.8059 79.3961C66.962 79.3961 83.2876 63.7787 83.2876 44.5358C83.2876 25.2929 66.962 9.67554 46.8059 9.67554ZM46.8059 76.3458C28.4191 76.3458 13.5164 62.1054 13.5164 44.5358C13.5164 26.9662 28.4191 12.7258 46.8059 12.7258C65.1927 12.7258 80.0954 26.9662 80.0954 44.5358C80.0954 62.1054 65.1927 76.3458 46.8059 76.3458Z" fill="#00ADF9"/>
<path opacity="0.3" d="M34.3643 39.1149L24.3866 29.5806C24.0218 30.0687 23.7117 30.5742 23.3834 31.0797L33.6712 40.9102C33.8536 40.2827 34.0907 39.6901 34.3643 39.1149ZM52.0214 32.4566L38.5779 19.6106C37.9395 19.8023 37.3011 20.0289 36.6809 20.273L48.5192 31.5851C49.7414 31.7245 50.9087 32.0208 52.0214 32.4566ZM37.8848 34.6354L28.2172 25.3974C27.7794 25.7983 27.3416 26.1992 26.9221 26.6175L36.5897 35.8555C36.991 35.4197 37.4288 35.0014 37.8848 34.6354ZM43.2476 31.9163L32.9051 22.0334C32.3578 22.3297 31.8288 22.6434 31.3181 22.9746L41.3323 32.5438C41.9525 32.2823 42.5909 32.0731 43.2476 31.9163ZM55.8703 54.2966L65.5379 63.5346C65.9757 63.1337 66.4135 62.7153 66.8148 62.297L57.1471 53.059C56.7458 53.4948 56.3263 53.9131 55.8703 54.2966ZM19.5162 43.089L48.3185 70.6112C49.1029 70.5763 49.8873 70.4892 50.6716 70.3846L19.7352 40.8231C19.6257 41.5552 19.5528 42.3046 19.498 43.0715L19.5162 43.089ZM20.5742 51.9435L39.0704 69.6177C40.1466 69.914 41.2593 70.1405 42.3903 70.3148L19.8446 48.7712C20.027 49.8519 20.2642 50.9151 20.5742 51.9435ZM42.0802 56.8065L55.2683 69.4085C55.9067 69.2168 56.5452 68.9902 57.1654 68.7461L45.4547 57.556C44.2873 57.4514 43.1564 57.1725 42.0802 56.8065ZM45.5824 18.4602C44.7798 18.4951 43.9955 18.5474 43.2111 18.652L73.9104 47.9869C74.0199 47.2374 74.0746 46.4879 74.1111 45.721L45.5824 18.4602ZM72.9437 36.7618L54.9582 19.5758C53.8638 19.2446 52.7328 19.018 51.5837 18.8263L73.728 39.9864C73.5274 38.8883 73.272 37.8077 72.9437 36.7618ZM33.1969 45.843L21.4863 34.6528C21.2309 35.2454 21.012 35.8381 20.7931 36.4656L33.9813 49.0675C33.58 48.0391 33.3063 46.9759 33.1969 45.843ZM60.3758 42.8973L72.2141 54.2094C72.4694 53.6168 72.7066 53.0242 72.9072 52.3967L59.4637 39.5507C59.9197 40.5965 60.2298 41.7294 60.3758 42.8798V42.8973ZM59.3543 49.7648L69.3685 59.3339C69.7151 58.8458 70.0434 58.3229 70.3535 57.8175L60.0109 47.9346C59.8285 48.562 59.6279 49.1721 59.3543 49.7648ZM50.5987 57.0854L60.8865 66.916C61.4155 66.6023 61.9445 66.2885 62.4552 65.9573L52.4775 56.423C51.8755 56.6845 51.2553 56.9111 50.5987 57.0854Z" fill="#00ADF9"/>
<path d="M46.806 32.6134C53.6828 32.6134 59.2645 37.9645 59.2645 44.5182C59.2645 51.0719 53.6646 56.4229 46.806 56.4229C39.9475 56.4229 34.3475 51.0719 34.3475 44.5182C34.3475 37.9645 39.9475 32.6134 46.806 32.6134ZM46.806 30.8704C38.9078 30.8704 32.5234 36.9884 32.5234 44.5182C32.5234 52.048 38.926 58.166 46.806 58.166C54.6861 58.166 61.0886 52.048 61.0886 44.5182C61.0886 36.9884 54.6861 30.8704 46.806 30.8704Z" fill="#FEF147"/>
<path d="M20.6668 43.6643H0V45.4073H20.6668V43.6643Z" fill="#FEF147"/>
<path d="M93.0106 43.6641H72.3438V45.4071H93.0106V43.6641Z" fill="#FEF147"/>
<path d="M47.4256 0.0888672H45.6016V19.8372H47.4256V0.0888672Z" fill="#FEF147"/>
<path d="M47.4256 69.2166H45.6016V88.9649H47.4256V69.2166Z" fill="#FEF147"/>
<path opacity="0.3" d="M50.7642 44.5358C50.7642 46.6274 48.9948 48.3181 46.8059 48.3181C44.617 48.3181 42.8477 46.6274 42.8477 44.5358C42.8477 42.4442 44.617 40.7534 46.8059 40.7534C48.9948 40.7534 50.7642 42.4442 50.7642 44.5358Z" fill="#00ADF9"/>
<defs>
<filter id="filter0_b_7_9064" x="1.7" y="0.388965" width="90.6" height="87.3112" filterUnits="userSpaceOnUse" color-interpolation-filters="sRGB">
<feFlood flood-opacity="0" result="BackgroundImageFix"/>
<feGaussianBlur in="BackgroundImageFix" stdDeviation="4.15"/>
<feComposite in2="SourceAlpha" operator="in" result="effect1_backgroundBlur_7_9064"/>
<feBlend mode="normal" in="SourceGraphic" in2="effect1_backgroundBlur_7_9064" result="shape"/>
</filter>
</defs>
</svg>
