<svg width="37" height="36" viewBox="0 0 37 36" fill="none" xmlns="http://www.w3.org/2000/svg">
<path opacity="0.2" d="M18.28 0.710938C8.18337 0.710938 0 8.5306 0 18.1785C0 27.8264 8.18337 35.6461 18.28 35.6461C28.3767 35.6461 36.56 27.8264 36.56 18.1785C36.56 8.5306 28.3767 0.710938 18.28 0.710938ZM18.28 32.2869C10.137 32.2869 3.51539 25.9596 3.51539 18.1785C3.51539 10.3974 10.137 4.07009 18.28 4.07009C26.423 4.07009 33.0447 10.3974 33.0447 18.1785C33.0447 25.9596 26.423 32.2869 18.28 32.2869ZM18.28 5.58446C11.0014 5.58446 5.1002 11.2234 5.1002 18.1785C5.1002 25.1336 11.0014 30.7726 18.28 30.7726C25.5586 30.7726 31.4598 25.1336 31.4598 18.1785C31.4598 11.2234 25.5586 5.58446 18.28 5.58446ZM18.28 27.4189C12.9493 27.4189 8.61558 23.2778 8.61558 18.184C8.61558 13.0902 12.9493 8.94912 18.28 8.94912C23.6107 8.94912 27.9445 13.0902 27.9445 18.184C27.9445 23.2778 23.6107 27.4189 18.28 27.4189ZM18.28 10.458C13.8138 10.458 10.1946 13.9163 10.1946 18.184C10.1946 22.4518 13.8138 25.9101 18.28 25.9101C22.7463 25.9101 26.3654 22.4518 26.3654 18.184C26.3654 13.9163 22.7463 10.458 18.28 10.458ZM18.28 22.5509C15.7616 22.5509 13.71 20.5905 13.71 18.184C13.71 15.7776 15.7616 13.8171 18.28 13.8171C20.7984 13.8171 22.85 15.7776 22.85 18.184C22.85 20.5905 20.7984 22.5509 18.28 22.5509Z" fill="#00ADF9"/>
<path d="M18.28 1.26162C28.0424 1.26162 35.9838 8.84999 35.9838 18.1785C35.9838 27.507 28.0424 35.0954 18.28 35.0954C8.51762 35.0954 0.576293 27.507 0.576293 18.1785C0.576293 8.84999 8.51762 1.26162 18.28 1.26162ZM18.28 0.710938C8.18337 0.710938 0 8.5306 0 18.1785C0 27.8264 8.18337 35.6461 18.28 35.6461C28.3767 35.6461 36.56 27.8264 36.56 18.1785C36.56 8.5306 28.3767 0.710938 18.28 0.710938Z" fill="#00E0F7"/>
<path d="M18.2794 6.13515C25.2295 6.13515 30.883 11.5373 30.883 18.1785C30.883 24.8197 25.2295 30.2219 18.2794 30.2219C11.3293 30.2219 5.6759 24.8197 5.6759 18.1785C5.6759 11.5373 11.3293 6.13515 18.2794 6.13515ZM18.2794 5.58447C11.0009 5.58447 5.09961 11.2234 5.09961 18.1785C5.09961 25.1336 11.0009 30.7726 18.2794 30.7726C25.558 30.7726 31.4593 25.1336 31.4593 18.1785C31.4593 11.2234 25.558 5.58447 18.2794 5.58447Z" fill="#00E0F7"/>
<path d="M18.2788 11.0031C22.4165 11.0031 25.7879 14.219 25.7879 18.1784C25.7879 22.1378 22.4223 25.3538 18.2788 25.3538C14.1352 25.3538 10.7697 22.1378 10.7697 18.1784C10.7697 14.219 14.1352 11.0031 18.2788 11.0031ZM18.2788 10.4524C13.8125 10.4524 10.1934 13.9107 10.1934 18.1784C10.1934 22.4462 13.8125 25.9045 18.2788 25.9045C22.745 25.9045 26.3641 22.4462 26.3641 18.1784C26.3641 13.9107 22.745 10.4524 18.2788 10.4524Z" fill="#00E0F7"/>
<path d="M18.4007 5.58984V8.949C23.6737 9.00957 27.9498 13.1232 27.9498 18.1784C27.9498 23.2336 23.6161 27.4133 18.2854 27.4133C12.9547 27.4133 8.62095 23.2722 8.62095 18.1784C8.62095 16.7742 8.96097 15.447 9.54879 14.2576L6.37917 12.8148C5.57236 14.4448 5.11133 16.262 5.11133 18.1839C5.11133 25.139 11.0126 30.778 18.2912 30.778C25.5697 30.778 31.471 25.139 31.471 18.1839C31.471 11.2288 25.6331 5.65593 18.4064 5.59535L18.4007 5.58984Z" fill="#00E0F7"/>
<path d="M18.3608 10.458V13.8172C20.8446 13.8612 22.8501 15.7996 22.8501 18.1785C22.8501 20.5575 20.7985 22.5454 18.2801 22.5454C16.7241 22.5454 15.3468 21.7965 14.5227 20.6566L11.5605 22.4683C13.0128 24.5389 15.4793 25.9046 18.2801 25.9046C22.7464 25.9046 26.3655 22.4463 26.3655 18.1785C26.3655 13.9108 22.7867 10.4966 18.3608 10.458Z" fill="#00E0F7"/>
<path d="M18.3893 0.716553V4.0757C26.4805 4.13077 33.0444 10.4361 33.0444 18.1786C33.0444 25.9212 26.4228 32.287 18.2798 32.287C17.0984 32.287 15.9516 32.1384 14.8451 31.8851L13.9922 35.1561C15.3695 35.47 16.7987 35.6462 18.2798 35.6462C28.3765 35.6462 36.5598 27.8265 36.5598 18.1786C36.5598 8.53071 28.4341 0.771621 18.3893 0.716553Z" fill="#00E0F7"/>
</svg>
