<svg width="227" height="143" viewBox="0 0 227 143" fill="none" xmlns="http://www.w3.org/2000/svg">
<path d="M17.0916 110.279C7.69776 110.279 0 117.572 0 126.611C0 135.649 7.63252 142.943 17.0916 142.943C26.5508 142.943 34.1833 135.649 34.1833 126.611C34.1833 117.572 26.5508 110.279 17.0916 110.279ZM17.0916 140.138C9.26341 140.138 2.87034 134.029 2.87034 126.548C2.87034 119.068 9.26341 112.959 17.0916 112.959C24.9199 112.959 31.3129 119.068 31.3129 126.548C31.3129 134.029 24.9199 140.138 17.0916 140.138Z" fill="#00E0F7"/>
<path d="M25.712 126.611C25.712 122.06 21.8631 118.32 17.0357 118.32C12.2083 118.32 8.35938 121.998 8.35938 126.611C8.35938 131.224 12.2083 134.902 17.0357 134.902C21.8631 134.902 25.712 131.224 25.712 126.611Z" fill="#FFF048"/>
<path d="M226.721 0.888916H224.791V75.5605H226.721V0.888916Z" fill="#00E0F7"/>
<path d="M32.502 127.5H108.002L225.502 36.7222" stroke="#00E0F7" stroke-width="2"/>
</svg>
