<svg width="64" height="64" viewBox="0 0 64 64" fill="none" xmlns="http://www.w3.org/2000/svg">
<g clip-path="url(#clip0_3417_16780)">
<path d="M32 5.33398C36.1397 5.33383 40.1183 6.93816 43.0999 9.80989C46.0816 12.6816 47.8341 16.5972 47.9893 20.734L48 21.334H50.6667C52.0122 21.3336 53.3082 21.8417 54.2948 22.7566C55.2814 23.6715 55.8858 24.9256 55.9867 26.2673L56 26.6673V53.334C56.0004 54.6795 55.4923 55.9755 54.5773 56.9621C53.6624 57.9487 52.4084 58.5531 51.0667 58.654L50.6667 58.6673H13.3333C11.9878 58.6677 10.6918 58.1596 9.70521 57.2447C8.71859 56.3298 8.11425 55.0757 8.01333 53.734L8 53.334V26.6673C7.99957 25.3218 8.50775 24.0258 9.42266 23.0392C10.3376 22.0526 11.5916 21.4482 12.9333 21.3473L13.3333 21.334H16C16 17.0905 17.6857 13.0209 20.6863 10.0203C23.6869 7.01969 27.7565 5.33398 32 5.33398ZM50.6667 26.6673H13.3333V53.334H50.6667V26.6673ZM32 32.0006C33.1376 32.001 34.2452 32.3651 35.1612 33.0397C36.0771 33.7143 36.7534 34.6642 37.0911 35.7504C37.4289 36.8367 37.4105 38.0025 37.0386 39.0776C36.6667 40.1526 35.9608 41.0806 35.024 41.726L34.6667 41.9526V45.334C34.6659 46.0137 34.4057 46.6674 33.9391 47.1616C33.4725 47.6559 32.8348 47.9533 32.1563 47.9931C31.4778 48.0329 30.8097 47.8122 30.2884 47.3759C29.7672 46.9397 29.4323 46.3209 29.352 45.646L29.3333 45.334V41.9526C28.3166 41.3656 27.5221 40.4595 27.0728 39.3748C26.6236 38.2902 26.5448 37.0876 26.8486 35.9536C27.1525 34.8196 27.822 33.8175 28.7534 33.1028C29.6848 32.3881 30.826 32.0007 32 32.0006ZM32 10.6673C29.171 10.6673 26.4579 11.7911 24.4575 13.7915C22.4571 15.7919 21.3333 18.505 21.3333 21.334H42.6667C42.6667 18.505 41.5429 15.7919 39.5425 13.7915C37.5421 11.7911 34.829 10.6673 32 10.6673Z" fill="white"/>
</g>
<defs>
<clipPath id="clip0_3417_16780">
<rect width="64" height="64" fill="white"/>
</clipPath>
</defs>
</svg>
