<svg width="54" height="46" viewBox="0 0 54 46" fill="none" xmlns="http://www.w3.org/2000/svg">
<path d="M10.9997 11.3327C10.9997 9.91819 11.5616 8.56164 12.5618 7.56145C13.562 6.56125 14.9185 5.99935 16.333 5.99935C17.7475 5.99935 19.104 6.56125 20.1042 7.56145C21.1044 8.56164 21.6663 9.91819 21.6663 11.3327C21.6663 12.7472 21.1044 14.1037 20.1042 15.1039C19.104 16.1041 17.7475 16.666 16.333 16.666C14.9185 16.666 13.562 16.1041 12.5618 15.1039C11.5616 14.1037 10.9997 12.7472 10.9997 11.3327ZM16.333 0.666016C13.504 0.666016 10.7909 1.78982 8.79053 3.79021C6.79015 5.7906 5.66634 8.50371 5.66634 11.3327C5.66634 14.1617 6.79015 16.8748 8.79053 18.8752C10.7909 20.8755 13.504 21.9993 16.333 21.9993C19.162 21.9993 21.8751 20.8755 23.8755 18.8752C25.8759 16.8748 26.9997 14.1617 26.9997 11.3327C26.9997 8.50371 25.8759 5.7906 23.8755 3.79021C21.8751 1.78982 19.162 0.666016 16.333 0.666016ZM37.6663 13.9993C37.6663 13.2921 37.9473 12.6138 38.4474 12.1137C38.9475 11.6136 39.6258 11.3327 40.333 11.3327C41.0402 11.3327 41.7185 11.6136 42.2186 12.1137C42.7187 12.6138 42.9997 13.2921 42.9997 13.9993C42.9997 14.7066 42.7187 15.3849 42.2186 15.885C41.7185 16.3851 41.0402 16.666 40.333 16.666C39.6258 16.666 38.9475 16.3851 38.4474 15.885C37.9473 15.3849 37.6663 14.7066 37.6663 13.9993ZM40.333 5.99935C38.2113 5.99935 36.1764 6.8422 34.6762 8.34249C33.1759 9.84279 32.333 11.8776 32.333 13.9993C32.333 16.1211 33.1759 18.1559 34.6762 19.6562C36.1764 21.1565 38.2113 21.9993 40.333 21.9993C42.4547 21.9993 44.4896 21.1565 45.9899 19.6562C47.4902 18.1559 48.333 16.1211 48.333 13.9993C48.333 11.8776 47.4902 9.84279 45.9899 8.34249C44.4896 6.8422 42.4547 5.99935 40.333 5.99935ZM0.333008 33.9993C0.333008 30.3193 3.31967 27.3327 6.99967 27.3327H25.6663C29.3463 27.3327 32.333 30.3193 32.333 33.9993V34.2553C32.3294 34.4498 32.3151 34.6438 32.2903 34.8367C32.241 35.3037 32.1608 35.7669 32.0503 36.2233C31.6902 37.6983 31.0472 39.0894 30.157 40.3193C27.8957 43.4287 23.6823 45.9993 16.333 45.9993C8.98367 45.9993 4.77034 43.4287 2.50901 40.3193C1.34383 38.7026 0.609644 36.8157 0.375675 34.8367L0.333008 34.25V33.9993ZM5.66634 34.138L5.67701 34.282C5.69123 34.4349 5.73212 34.6642 5.79967 34.97C5.94367 35.5727 6.23701 36.378 6.82367 37.1833C7.89034 38.6553 10.3437 40.666 16.333 40.666C22.3223 40.666 24.7703 38.6553 25.8423 37.1833C26.4835 36.2866 26.8821 35.2394 26.9997 34.1433V33.9993C26.9997 33.6457 26.8592 33.3066 26.6091 33.0565C26.3591 32.8065 26.02 32.666 25.6663 32.666H6.99967C6.64605 32.666 6.30691 32.8065 6.05687 33.0565C5.80682 33.3066 5.66634 33.6457 5.66634 33.9993V34.138ZM40.3277 43.3327C38.4397 43.3256 36.781 43.1478 35.3517 42.7993C36.3232 41.2581 37.0147 39.5573 37.3943 37.7753C38.2192 37.9176 39.197 37.9922 40.3277 37.9993C45.0743 37.9993 46.877 36.5487 47.581 35.6687C47.9669 35.1781 48.2236 34.5987 48.3277 33.9833V33.9567C48.3166 33.6105 48.1712 33.2822 47.9224 33.0413C47.6735 32.8004 47.3407 32.6658 46.9943 32.666H37.5917C37.3808 30.7576 36.713 28.9282 35.645 27.3327H46.9997C50.6797 27.3327 53.6663 30.3193 53.6663 33.9993V34.09C53.6616 34.2558 53.6492 34.4213 53.629 34.586C53.4181 36.2002 52.7688 37.7256 51.7517 38.9967C49.7837 41.45 46.2583 43.3327 40.333 43.3327" fill="white"/>
</svg>
