<svg width="60" height="54" viewBox="0 0 60 54" fill="none" xmlns="http://www.w3.org/2000/svg">
<path d="M50.8003 53.2666L43.7337 46.3332H15.3337C11.2448 46.3332 7.7781 44.911 4.93366 42.0666C2.08921 39.2221 0.666992 35.7554 0.666992 31.6666C0.666992 28.2532 1.72477 25.2132 3.84033 22.5466C5.95588 19.8621 8.67588 18.1466 12.0003 17.3999C12.1425 17.0443 12.2759 16.6977 12.4003 16.3599C12.5781 16.0221 12.7114 15.6577 12.8003 15.2666L1.73366 4.19989L5.46699 0.466553L54.5337 49.5332M15.3337 40.9999H38.4003L16.9337 19.5332C16.8448 20.031 16.7825 20.5199 16.747 20.9999C16.6937 21.4088 16.667 21.8532 16.667 22.3332H15.3337C12.7559 22.3332 10.5603 23.2488 8.74699 25.0799C6.91588 26.8932 6.00033 29.0888 6.00033 31.6666C6.00033 34.2443 6.91588 36.4666 8.74699 38.3332C10.5603 40.111 12.7559 40.9999 15.3337 40.9999ZM55.6003 42.9999L51.7337 39.2666C52.4981 38.6443 53.067 37.9243 53.4403 37.1066C53.8137 36.2888 54.0003 35.3643 54.0003 34.3332C54.0003 32.4666 53.3514 30.8932 52.0537 29.6132C50.7737 28.3154 49.2003 27.6666 47.3337 27.6666H43.3337V22.3332C43.3337 18.6532 42.0359 15.5066 39.4403 12.8932C36.8448 10.2977 33.6981 8.99989 30.0003 8.99989C28.8092 8.99989 27.6537 9.14211 26.5337 9.42655C25.4137 9.72878 24.347 10.191 23.3337 10.8132L19.467 6.94655C21.0314 5.87989 22.6848 5.06211 24.427 4.49322C26.187 3.94211 28.0448 3.66655 30.0003 3.66655C35.2092 3.66655 39.6181 5.47989 43.227 9.10655C46.8537 12.7154 48.667 17.1243 48.667 22.3332C51.7425 22.6888 54.2848 24.0221 56.2937 26.3332C58.3203 28.6088 59.3337 31.2754 59.3337 34.3332C59.3337 36.111 59.0048 37.7199 58.347 39.1599C57.6714 40.6532 56.7559 41.9332 55.6003 42.9999Z" fill="white"/>
</svg>
