<svg width="297" height="291" viewBox="0 0 297 291" fill="none" xmlns="http://www.w3.org/2000/svg">
<g filter="url(#filter0_d_3417_16788)">
<g filter="url(#filter1_d_3417_16788)">
<g clip-path="url(#clip0_3417_16788)">
<rect x="105.469" y="85.7871" width="90.0957" height="90.0957" rx="45.0479" transform="rotate(9.24125 105.469 85.7871)" fill="#FFD72C"/>
<path fill-rule="evenodd" clip-rule="evenodd" d="M127.775 115.238C126.766 117.629 124.051 120.259 121.629 121.186C120.514 121.614 119.495 122.256 118.63 123.078C117.764 123.899 117.068 124.883 116.583 125.974C116.098 127.064 115.832 128.239 115.801 129.432C115.77 130.625 115.974 131.813 116.402 132.927C117.323 135.312 117.268 138.715 116.275 141.071C115.398 143.158 115.292 145.572 116.168 147.848C116.974 149.954 118.536 151.683 120.549 152.698C122.964 153.922 125.559 156.799 126.529 159.326C126.957 160.44 127.6 161.458 128.421 162.324C129.242 163.189 130.226 163.884 131.316 164.37C132.406 164.855 133.581 165.121 134.773 165.152C135.966 165.183 137.153 164.979 138.267 164.551C140.794 163.581 144.668 163.585 147.194 164.559C149.295 165.377 151.626 165.38 153.729 164.569C155.92 163.73 157.7 162.073 158.694 159.948C159.778 157.639 162.245 155.333 164.631 154.419C166.886 153.558 168.706 151.836 169.691 149.632C170.676 147.428 170.746 144.923 169.884 142.668C168.954 140.253 169.089 136.47 170.193 134.126C170.714 133.019 171.005 131.818 171.049 130.595C171.093 129.372 170.889 128.153 170.449 127.012C169.995 125.824 169.296 124.746 168.397 123.846C167.499 122.947 166.421 122.246 165.235 121.791C162.955 120.91 160.623 118.578 159.749 116.296C159.322 115.181 158.679 114.162 157.857 113.296C157.036 112.431 156.052 111.735 154.962 111.25C153.871 110.764 152.696 110.499 151.503 110.468C150.31 110.437 149.122 110.641 148.008 111.069C145.733 111.945 142.434 111.775 140.254 110.67C139.122 110.094 137.881 109.762 136.612 109.697C135.343 109.631 134.074 109.834 132.888 110.29C131.746 110.727 130.704 111.391 129.825 112.241C128.946 113.092 128.249 114.111 127.775 115.238ZM157.315 131.479C157.585 131.838 157.782 132.246 157.894 132.681C158.006 133.116 158.031 133.568 157.969 134.013C157.906 134.458 157.756 134.885 157.528 135.272C157.3 135.659 156.998 135.997 156.639 136.267L141.07 147.975C140.657 148.297 140.176 148.522 139.663 148.632C138.917 148.789 138.14 148.692 137.456 148.356C136.772 148.021 136.219 147.467 135.885 146.782L130.338 136.055C130.132 135.656 130.006 135.221 129.968 134.773C129.93 134.326 129.981 133.876 130.117 133.448C130.253 133.02 130.473 132.623 130.762 132.28C131.052 131.937 131.406 131.654 131.805 131.448C132.204 131.242 132.639 131.116 133.087 131.079C133.534 131.041 133.985 131.091 134.413 131.228C134.84 131.364 135.237 131.583 135.58 131.873C135.923 132.162 136.206 132.517 136.412 132.915L140.137 140.122L152.529 130.8C152.888 130.531 153.296 130.334 153.731 130.222C154.165 130.111 154.618 130.086 155.062 130.149C155.507 130.212 155.934 130.362 156.321 130.59C156.707 130.818 157.045 131.12 157.315 131.479Z" fill="black"/>
<rect opacity="0.43" x="21.5918" y="114.383" width="171.128" height="71.4368" transform="rotate(-31.2137 21.5918 114.383)" fill="#D9D9D9"/>
</g>
<rect x="106.582" y="87.3336" width="87.4006" height="87.4006" rx="43.7003" transform="rotate(9.24125 106.582 87.3336)" stroke="white" stroke-opacity="0.27" stroke-width="2.69508"/>
</g>
<path d="M183.4 93.3073C179.684 101.033 172.253 106.391 163.759 107.461C162.693 107.598 162.46 109.027 163.428 109.495C171.139 113.207 176.494 120.64 177.57 129.145C177.704 130.208 179.152 130.444 179.621 129.479C183.337 121.754 190.768 116.396 199.263 115.325C200.328 115.188 200.561 113.759 199.593 113.292C191.881 109.584 186.528 102.146 185.452 93.641C185.317 92.5779 183.87 92.3423 183.4 93.3073Z" fill="white"/>
</g>
<defs>
<filter id="filter0_d_3417_16788" x="0.175912" y="0.353175" width="296.243" height="290.433" filterUnits="userSpaceOnUse" color-interpolation-filters="sRGB">
<feFlood flood-opacity="0" result="BackgroundImageFix"/>
<feColorMatrix in="SourceAlpha" type="matrix" values="0 0 0 0 0 0 0 0 0 0 0 0 0 0 0 0 0 0 127 0" result="hardAlpha"/>
<feOffset dx="2.69508" dy="8.08523"/>
<feGaussianBlur stdDeviation="46.7596"/>
<feComposite in2="hardAlpha" operator="out"/>
<feColorMatrix type="matrix" values="0 0 0 0 0.996078 0 0 0 0 0.945098 0 0 0 0 0.278431 0 0 0 0.6 0"/>
<feBlend mode="normal" in2="BackgroundImageFix" result="effect1_dropShadow_3417_16788"/>
<feBlend mode="normal" in="SourceGraphic" in2="effect1_dropShadow_3417_16788" result="shape"/>
</filter>
<filter id="filter1_d_3417_16788" x="91" y="85.7871" width="110.859" height="109.259" filterUnits="userSpaceOnUse" color-interpolation-filters="sRGB">
<feFlood flood-opacity="0" result="BackgroundImageFix"/>
<feColorMatrix in="SourceAlpha" type="matrix" values="0 0 0 0 0 0 0 0 0 0 0 0 0 0 0 0 0 0 127 0" result="hardAlpha"/>
<feOffset dx="7.46355" dy="5.86422"/>
<feComposite in2="hardAlpha" operator="out"/>
<feColorMatrix type="matrix" values="0 0 0 0 0.734979 0 0 0 0 0.650676 0 0 0 0 0.290278 0 0 0 1 0"/>
<feBlend mode="normal" in2="BackgroundImageFix" result="effect1_dropShadow_3417_16788"/>
<feBlend mode="normal" in="SourceGraphic" in2="effect1_dropShadow_3417_16788" result="shape"/>
</filter>
<clipPath id="clip0_3417_16788">
<rect x="105.469" y="85.7871" width="90.0957" height="90.0957" rx="45.0479" transform="rotate(9.24125 105.469 85.7871)" fill="white"/>
</clipPath>
</defs>
</svg>
