<svg width="64" height="64" viewBox="0 0 64 64" fill="none" xmlns="http://www.w3.org/2000/svg">
<path d="M56 21.334V32.0007H50.6667V24.0007H37.3333V10.6673H13.3333V53.334H29.3333V58.6673H10.648C9.94617 58.6673 9.27304 58.3887 8.77652 57.8927C8.28 57.3967 8.00071 56.7238 8 56.022V7.97932C8 6.54732 9.19733 5.33398 10.672 5.33398H39.992L56 21.334ZM36.7627 40.8727C36.8667 38.934 38.3627 37.3553 40.2933 37.15L42.6133 36.9047C42.8897 36.8747 43.1499 36.7591 43.3573 36.574L45.0933 35.014C45.792 34.3844 46.6925 34.025 47.6327 34.0006C48.5729 33.9761 49.4909 34.2882 50.2213 34.8807L52.04 36.3473C52.2533 36.5207 52.52 36.622 52.7973 36.638L55.128 36.7633C57.0667 36.8673 58.6453 38.3633 58.8507 40.294L59.096 42.614C59.126 42.8904 59.2416 43.1505 59.4267 43.358L60.9867 45.094C62.2853 46.5393 62.3413 48.7127 61.12 50.222L59.6533 52.0406C59.4801 52.2568 59.3785 52.5215 59.3627 52.798L59.2373 55.1287C59.1891 56.0681 58.8068 56.9594 58.1595 57.642C57.5121 58.3245 56.6423 58.7534 55.7067 58.8513L53.3867 59.0966C53.1103 59.1266 52.8501 59.2422 52.6427 59.4273L50.9067 60.9873C50.208 61.6169 49.3075 61.9763 48.3673 62.0007C47.4271 62.0252 46.5091 61.7131 45.7787 61.1207L43.96 59.654C43.7439 59.4808 43.4792 59.3792 43.2027 59.3633L40.872 59.238C39.9325 59.1897 39.0412 58.8074 38.3587 58.1601C37.6761 57.5128 37.2472 56.6429 37.1493 55.7073L36.904 53.3873C36.874 53.1109 36.7584 52.8508 36.5733 52.6433L35.0133 50.9073C34.3838 50.2086 34.0244 49.3081 33.9999 48.3679C33.9755 47.4278 34.2876 46.5098 34.88 45.7793L36.3467 43.9607C36.5199 43.7445 36.6215 43.4798 36.6373 43.2033L36.7627 40.8727ZM56.08 45.414L53.2533 42.5873L46.6667 49.174L42.7467 45.254L39.92 48.0807L46.6667 54.8273L56.08 45.414Z" fill="white"/>
</svg>
