<svg width="64" height="64" viewBox="0 0 64 64" fill="none" xmlns="http://www.w3.org/2000/svg">
<path d="M32 8C38.1707 8 43.8827 9.088 48.1547 10.9573C50.2853 11.8907 52.1787 13.0693 53.5733 14.5147C54.8667 15.848 55.8267 17.5227 55.9787 19.464L56 20V46.6667C56 48.8373 54.984 50.6933 53.5733 52.152C52.1787 53.5973 50.2853 54.776 48.1547 55.7093C43.8827 57.576 38.1707 58.6667 32 58.6667C25.8293 58.6667 20.1173 57.5787 15.8453 55.7093C13.7147 54.776 11.8213 53.5973 10.4267 52.152C9.13333 50.8187 8.17333 49.144 8.02133 47.2027L8 46.6667V20C8 17.8293 9.016 15.9733 10.4267 14.5147C11.8213 13.0693 13.7147 11.8907 15.8453 10.9573C20.1173 9.09067 25.8293 8 32 8ZM50.6667 41.0853C49.8588 41.5706 49.0196 42.0017 48.1547 42.376C43.8827 44.2427 38.1707 45.3333 32 45.3333C25.8293 45.3333 20.1173 44.2453 15.8453 42.376C14.9804 42.0017 14.1412 41.5706 13.3333 41.0853V46.6667C13.3333 47.072 13.5093 47.6693 14.2613 48.4453C15.024 49.2347 16.256 50.0667 17.984 50.824C21.4347 52.3333 26.3867 53.3333 32 53.3333C37.6133 53.3333 42.5653 52.3333 46.016 50.824C47.744 50.0667 48.976 49.2347 49.7387 48.4453C50.4907 47.672 50.6667 47.072 50.6667 46.6667V41.0853ZM50.6667 27.752C49.8588 28.2372 49.0196 28.6684 48.1547 29.0427C43.8827 30.9093 38.1707 32 32 32C25.8293 32 20.1173 30.912 15.8453 29.0427C14.9804 28.6684 14.1412 28.2372 13.3333 27.752V33.3333C13.3333 33.7387 13.5093 34.336 14.2613 35.112C15.024 35.9013 16.256 36.7333 17.984 37.4907C21.4347 39 26.3867 40 32 40C37.6133 40 42.5653 39 46.016 37.4907C47.744 36.7333 48.976 35.9013 49.7387 35.112C50.4907 34.3387 50.6667 33.7387 50.6667 33.3333V27.752ZM32 13.3333C26.3867 13.3333 21.4347 14.3333 17.984 15.8427C16.256 16.6 15.024 17.432 14.2613 18.2213C13.5093 18.9947 13.3333 19.5947 13.3333 20C13.3333 20.4053 13.5093 21.0027 14.2613 21.7787C15.024 22.568 16.256 23.4 17.984 24.1573C21.4347 25.6667 26.3867 26.6667 32 26.6667C37.6133 26.6667 42.5653 25.6667 46.016 24.1573C47.744 23.4 48.976 22.568 49.7387 21.7787C50.4907 21.0053 50.6667 20.4053 50.6667 20C50.6667 19.5947 50.4907 18.9973 49.7387 18.2213C48.976 17.432 47.744 16.6 46.016 15.8427C42.5653 14.3333 37.6133 13.3333 32 13.3333Z" fill="white"/>
</svg>
