<svg width="509" height="325" viewBox="0 0 509 325" fill="none" xmlns="http://www.w3.org/2000/svg">
<g filter="url(#filter0_dd_3417_16734)">
<rect width="327.939" height="129.097" rx="22.8383" transform="matrix(0.996644 0.0818613 -0.102024 0.994782 97.6797 21.3867)" fill="#0B0B0B"/>
<rect x="1.34193" y="1.61496" width="324.939" height="126.097" rx="21.3383" transform="matrix(0.996644 0.0818613 -0.102024 0.994782 97.849 21.2853)" stroke="white" stroke-opacity="0.26" stroke-width="3"/>
<path d="M167.458 101.116C166.412 112.227 157.753 117.017 141.479 115.485C131.322 114.529 124.242 111.853 120.24 107.457C116.238 103.061 114.599 97.0188 115.322 89.3309L126.181 90.3528C125.679 95.6838 126.708 99.4888 129.268 101.768C131.883 104.052 136.334 105.49 142.619 106.081C147.22 106.514 150.64 106.27 152.878 105.349C155.116 104.427 156.349 102.76 156.576 100.347C156.639 99.6732 156.613 99.048 156.497 98.471C156.387 97.8378 156.131 97.2476 155.73 96.7003C155.329 96.153 154.922 95.6619 154.51 95.2268C154.159 94.7409 153.582 94.2619 152.777 93.7899C151.977 93.2617 151.31 92.831 150.776 92.4976C150.241 92.1642 149.431 91.7483 148.345 91.2498C147.26 90.7514 146.417 90.389 145.815 90.1625C145.219 89.88 144.266 89.4789 142.956 88.9593C141.652 88.3837 140.699 87.9826 140.097 87.7562C137.651 86.6768 135.751 85.8185 134.395 85.1814C133.04 84.5444 131.392 83.7099 129.451 82.678C127.566 81.6514 126.127 80.6952 125.135 79.8092C124.204 78.8724 123.233 77.7619 122.221 76.4779C121.266 75.1991 120.633 73.8091 120.321 72.3078C120.015 70.7504 119.946 69.0739 120.115 67.2781C120.575 62.396 122.808 58.8131 126.816 56.5295C130.824 54.2459 136.532 53.4526 143.939 54.1498C152.357 54.9419 158.482 57.5282 162.316 61.9086C166.155 66.2328 167.795 71.3691 167.235 77.3174L156.376 76.2955C157.089 68.7198 152.648 64.4804 143.052 63.5773C135.364 62.8538 131.33 64.5122 130.95 68.5526C130.765 70.5166 131.461 72.1391 133.039 73.4198C134.617 74.7006 137.827 76.3897 142.668 78.4871C150.062 81.7305 154.857 84.0217 157.052 85.3606C164.498 89.8544 167.967 95.1062 167.458 101.116ZM171.066 105.702C171.409 102.054 172.888 99.2775 175.501 97.3722C178.171 95.4721 182.344 94.4495 188.019 94.3042L202.831 93.9149C203.159 88.6242 200.153 85.6804 193.812 85.0836C190.838 84.8037 188.389 85.2527 186.467 86.4304C184.606 87.5574 183.551 89.4396 183.303 92.0771L173.034 91.1106C173.504 86.1163 175.736 82.2502 179.73 79.5123C183.729 76.7184 188.703 75.6013 194.652 76.1611C200.768 76.7368 205.576 78.8877 209.075 82.6138C212.579 86.2837 214.038 91.2332 213.452 97.4621L212.106 111.772L218.25 112.35L217.363 121.778L208.777 120.97C206.925 120.795 205.542 120.156 204.627 119.05C203.768 117.951 203.423 116.503 203.592 114.707L203.727 113.276L205.862 108.637L203 108.367C200.177 116.707 194.108 120.438 184.792 119.561C181.762 119.276 179.22 118.612 177.167 117.57C175.17 116.533 173.761 115.268 172.939 113.775C172.117 112.283 171.567 110.901 171.291 109.629C171.02 108.301 170.945 106.992 171.066 105.702ZM182.099 104.872C181.946 106.499 182.363 107.784 183.35 108.726C184.398 109.617 185.82 110.147 187.616 110.316C191.712 110.702 195.09 110.001 197.749 108.213C200.414 106.369 201.902 103.791 202.213 100.481L189.353 100.884C186.913 100.937 185.129 101.25 183.999 101.823C182.875 102.34 182.241 103.356 182.099 104.872ZM250.416 71.9832C248.172 71.7719 246.52 72.1826 245.46 73.2151C244.406 74.1915 243.76 75.9424 243.522 78.4676L243.229 81.5821L255.519 82.7386L254.631 92.1662L242.342 91.0096L240.14 114.41L252.429 115.567L251.542 124.994L219.892 122.016L220.779 112.588L229.365 113.396L231.567 89.9956L222.982 89.1876L223.869 79.76L232.455 80.5681L232.78 77.1169C233.794 66.3426 240.361 61.5258 252.482 62.6665L259.721 63.3478L258.834 72.7753L250.416 71.9832ZM257.666 103.746C258.289 97.1244 260.772 92.0931 265.116 88.6521C269.465 85.1551 274.837 83.7076 281.235 84.3096C287.632 84.9117 292.592 87.2468 296.116 91.3148C299.695 95.3882 301.187 100.595 300.59 106.937L300.257 110.472L267.682 107.406C267.482 110.728 268.298 113.493 270.128 115.704C272.019 117.863 275.041 119.138 279.194 119.529C285.198 120.094 288.976 118.157 290.526 113.717L301.384 114.739C300.29 118.542 297.764 121.928 293.805 124.895C289.851 127.807 284.703 128.964 278.362 128.368C270.899 127.665 265.432 124.999 261.961 120.37C258.49 115.741 257.059 110.2 257.666 103.746ZM268.3 100.841L290.606 102.94C290.844 100.415 290.113 98.2512 288.414 96.4495C286.772 94.6532 284.099 93.5807 280.395 93.2321C276.691 92.8836 273.806 93.4613 271.74 94.9652C269.679 96.413 268.532 98.3715 268.3 100.841ZM322.255 122.987L337.57 123.579L336.683 133.007L317.075 132.011C314.937 131.866 313.36 131.18 312.344 129.952C311.327 128.724 310.921 127.016 311.127 124.827L313.678 97.7232L303.914 96.8043L304.801 87.3767L314.566 88.2957L315.421 79.2048L326.596 76.8598L325.424 89.3176L338.976 90.593L338.089 100.021L324.537 98.7451L322.255 122.987ZM378.983 94.3581L391.104 95.4989L368.347 134.289L367.166 146.831C366.76 151.151 364.348 153.019 359.93 152.434L341.055 149.978L341.942 140.55L356.709 142.45L357.573 133.275L342.367 90.9121L354.489 92.0529L362.796 120.179L362.297 125.482L365.159 125.751L365.658 120.448L378.983 94.3581Z" fill="#FFD72C"/>
<mask id="mask0_3417_16734" style="mask-type:alpha" maskUnits="userSpaceOnUse" x="89" y="25" width="219" height="137">
<rect x="1.74934" y="2.10527" width="205.984" height="118.935" rx="18.5545" transform="matrix(0.996644 0.0818613 -0.102024 0.994782 100.509 24.055)" fill="#1A1919" stroke="#8F8F8F" stroke-width="3.91081"/>
</mask>
<g mask="url(#mask0_3417_16734)">
<rect opacity="0.2" x="248.029" y="-116" width="134.136" height="316.153" transform="rotate(63.134 248.029 -116)" fill="white"/>
</g>
</g>
<defs>
<filter id="filter0_dd_3417_16734" x="0.215874" y="-0.4006" width="508.596" height="324.69" filterUnits="userSpaceOnUse" color-interpolation-filters="sRGB">
<feFlood flood-opacity="0" result="BackgroundImageFix"/>
<feColorMatrix in="SourceAlpha" type="matrix" values="0 0 0 0 0 0 0 0 0 0 0 0 0 0 0 0 0 0 127 0" result="hardAlpha"/>
<feOffset dy="62.9231"/>
<feGaussianBlur stdDeviation="43.2509"/>
<feComposite in2="hardAlpha" operator="out"/>
<feColorMatrix type="matrix" values="0 0 0 0 0 0 0 0 0 0 0 0 0 0 0 0 0 0 0.3 0"/>
<feBlend mode="normal" in2="BackgroundImageFix" result="effect1_dropShadow_3417_16734"/>
<feColorMatrix in="SourceAlpha" type="matrix" values="0 0 0 0 0 0 0 0 0 0 0 0 0 0 0 0 0 0 127 0" result="hardAlpha"/>
<feOffset dx="7.83862" dy="6.0967"/>
<feColorMatrix type="matrix" values="0 0 0 0 0.195783 0 0 0 0 0.195783 0 0 0 0 0.195783 0 0 0 1 0"/>
<feBlend mode="normal" in2="effect1_dropShadow_3417_16734" result="effect2_dropShadow_3417_16734"/>
<feBlend mode="normal" in="SourceGraphic" in2="effect2_dropShadow_3417_16734" result="shape"/>
</filter>
</defs>
</svg>
