<svg width="1915" height="589" viewBox="0 0 1915 589" fill="none" xmlns="http://www.w3.org/2000/svg">
<g opacity="0.37">
<path d="M1896.58 207.067H1914.24V239.592H1896.58V207.067Z" fill="#00E0F7"/>
<path d="M1904.12 167.289H1906.73V207.067H1904.12V167.289Z" fill="#00E0F7"/>
<path d="M1904.12 239.592H1906.73V279.37H1904.12V239.592Z" fill="#00E0F7"/>
<path d="M1850.02 210.357H1867.68V294.374H1850.02V210.357Z" fill="#00E0F7"/>
<path d="M1857.53 170.579H1860.14V210.357H1857.53V170.579Z" fill="#00E0F7"/>
<path d="M1857.53 294.374H1860.14V334.152H1857.53V294.374Z" fill="#00E0F7"/>
<path d="M1800.54 200.587H1818.2V224.962H1800.54V200.587Z" fill="#00E0F7"/>
<path d="M1808.08 160.834H1810.69V200.612H1808.08V160.834Z" fill="#00E0F7"/>
<path d="M1808.08 224.962H1810.69V264.74H1808.08V224.962Z" fill="#00E0F7"/>
<path d="M1756.85 235.056H1774.51V344.695H1756.85V235.056Z" fill="#00E0F7"/>
<path d="M1764.39 195.278H1766.99V235.056H1764.39V195.278Z" fill="#00E0F7"/>
<path d="M1764.39 344.695H1766.99V384.472H1764.39V344.695Z" fill="#00E0F7"/>
<path d="M1710.28 279.37H1727.94V320.419H1710.28V279.37Z" fill="#00E0F7"/>
<path d="M1717.8 239.592H1720.4V279.37H1717.8V239.592Z" fill="#00E0F7"/>
<path d="M1717.8 320.394H1720.4V360.172H1717.8V320.394Z" fill="#00E0F7"/>
<path d="M1661.45 230.046H1679.11V307.932H1661.45V230.046Z" fill="#00E0F7"/>
<path d="M1668.99 190.293H1671.6V230.071H1668.99V190.293Z" fill="#00E0F7"/>
<path d="M1668.99 307.958H1671.6V347.735H1668.99V307.958Z" fill="#00E0F7"/>
<path d="M1617.11 108.345H1634.77V206.095H1617.11V108.345Z" fill="#00E0F7"/>
<path d="M1624.65 68.5669H1627.26V108.345H1624.65V68.5669Z" fill="#00E0F7"/>
<path d="M1624.65 206.095H1627.26V245.873H1624.65V206.095Z" fill="#00E0F7"/>
<path d="M1570.52 142.59H1588.18V166.89H1570.52V142.59Z" fill="#00E0F7"/>
<path d="M1578.06 102.812H1580.67V142.59H1578.06V102.812Z" fill="#00E0F7"/>
<path d="M1578.06 166.891H1580.67V206.669H1578.06V166.891Z" fill="#00E0F7"/>
<path d="M1523.96 102.812H1541.62V200.836H1523.96V102.812Z" fill="#00E0F7"/>
<path d="M1531.47 63.0586H1534.08V102.837H1531.47V63.0586Z" fill="#00E0F7"/>
<path d="M1531.47 200.836H1534.08V240.614H1531.47V200.836Z" fill="#00E0F7"/>
<path d="M1477.37 90.5742H1495.03V180.947H1477.37V90.5742Z" fill="#00E0F7"/>
<path d="M1484.91 50.7964H1487.52V90.5743H1484.91V50.7964Z" fill="#00E0F7"/>
<path d="M1484.91 180.947H1487.52V220.725H1484.91V180.947Z" fill="#00E0F7"/>
<path d="M1430.78 40.478H1448.44V65.576H1430.78V40.478Z" fill="#00E0F7"/>
<path d="M1438.32 0.700195H1440.93V40.4781H1438.32V0.700195Z" fill="#00E0F7"/>
<path d="M1438.32 65.5762H1440.93V105.354H1438.32V65.5762Z" fill="#00E0F7"/>
<path d="M1384.22 168.46H1401.88V226.457H1384.22V168.46Z" fill="#00E0F7"/>
<path d="M1391.73 128.683H1394.34V168.461H1391.73V128.683Z" fill="#00E0F7"/>
<path d="M1391.73 226.458H1394.34V266.236H1391.73V226.458Z" fill="#00E0F7"/>
<path d="M1337.63 147.201H1355.29V170.579H1337.63V147.201Z" fill="#00E0F7"/>
<path d="M1345.17 107.423H1347.78V147.201H1345.17V107.423Z" fill="#00E0F7"/>
<path d="M1345.17 170.579H1347.78V210.357H1345.17V170.579Z" fill="#00E0F7"/>
<path d="M1291.04 319.92H1308.7V406.505H1291.04V319.92Z" fill="#00E0F7"/>
<path d="M1298.58 280.167H1301.19V319.945H1298.58V280.167Z" fill="#00E0F7"/>
<path d="M1298.58 406.505H1301.19V446.283H1298.58V406.505Z" fill="#00E0F7"/>
<path d="M1244.45 309.752H1262.11V329.018H1244.45V309.752Z" fill="#00E0F7"/>
<path d="M1251.99 269.974H1254.6V309.752H1251.99V269.974Z" fill="#00E0F7"/>
<path d="M1251.99 329.018H1254.6V368.796H1251.99V329.018Z" fill="#00E0F7"/>
<path d="M1197.89 262.572H1215.55V292.455H1197.89V262.572Z" fill="#00E0F7"/>
<path d="M1205.4 222.794H1208.01V262.572H1205.4V222.794Z" fill="#00E0F7"/>
<path d="M1205.4 292.455H1208.01V332.233H1205.4V292.455Z" fill="#00E0F7"/>
<path d="M1151.3 302.25H1168.96V332.208H1151.3V302.25Z" fill="#00E0F7"/>
<path d="M1158.84 262.497H1161.45V302.275H1158.84V262.497Z" fill="#00E0F7"/>
<path d="M1158.84 332.208H1161.45V371.986H1158.84V332.208Z" fill="#00E0F7"/>
<path d="M1104.98 308.755H1122.64V395.339H1104.98V308.755Z" fill="#00E0F7"/>
<path d="M1112.52 268.977H1115.12V308.755H1112.52V268.977Z" fill="#00E0F7"/>
<path d="M1112.52 395.339H1115.12V435.117H1112.52V395.339Z" fill="#00E0F7"/>
<path d="M1058.15 388.336H1075.81V426.444H1058.15V388.336Z" fill="#00E0F7"/>
<path d="M1065.66 348.558H1068.27V388.336H1065.66V348.558Z" fill="#00E0F7"/>
<path d="M1065.66 426.444H1068.27V466.222H1065.66V426.444Z" fill="#00E0F7"/>
<path d="M1011.56 435.441H1029.22V468.116H1011.56V435.441Z" fill="#00E0F7"/>
<path d="M1019.1 395.663H1021.71V435.441H1019.1V395.663Z" fill="#00E0F7"/>
<path d="M1019.1 468.116H1021.71V507.894H1019.1V468.116Z" fill="#00E0F7"/>
<path d="M964.977 384.148H982.637V528.306H964.977V384.148Z" fill="#00E0F7"/>
<path d="M972.516 344.396H975.125V384.173H972.516V344.396Z" fill="#00E0F7"/>
<path d="M972.516 528.331H975.125V568.109H972.516V528.331Z" fill="#00E0F7"/>
<path d="M917.45 490.721H935.109V548.718H917.45V490.721Z" fill="#00E0F7"/>
<path d="M924.989 450.944H927.598V490.722H924.989V450.944Z" fill="#00E0F7"/>
<path d="M924.989 548.694H927.598V588.472H924.989V548.694Z" fill="#00E0F7"/>
<g opacity="0.85">
<path d="M871.827 411.016H889.486V496.728H871.827V411.016Z" fill="#00E0F7"/>
<path d="M879.339 371.238H881.947V411.016H879.339V371.238Z" fill="#00E0F7"/>
<path d="M879.339 496.728H881.947V536.506H879.339V496.728Z" fill="#00E0F7"/>
</g>
<g opacity="0.85">
<path d="M825.239 379.886H842.898V489.7H825.239V379.886Z" fill="#00E0F7"/>
<path d="M832.778 340.134H835.387V379.911H832.778V340.134Z" fill="#00E0F7"/>
<path d="M832.778 489.699H835.387V529.477H832.778V489.699Z" fill="#00E0F7"/>
</g>
<g opacity="0.85">
<path d="M778.414 363.586H796.074V394.517H778.414V363.586Z" fill="#00E0F7"/>
<path d="M785.954 323.833H788.562V363.611H785.954V323.833Z" fill="#00E0F7"/>
<path d="M785.954 394.517H788.562V434.295H785.954V394.517Z" fill="#00E0F7"/>
</g>
<g opacity="0.85">
<path d="M732.088 355.312H749.748V450.644H732.088V355.312Z" fill="#00E0F7"/>
<path d="M739.6 315.559H742.209V355.337H739.6V315.559Z" fill="#00E0F7"/>
<path d="M739.6 450.669H742.209V490.447H739.6V450.669Z" fill="#00E0F7"/>
</g>
<g opacity="0.85">
<path d="M685.5 281.414H703.16V374.229H685.5V281.414Z" fill="#00E0F7"/>
<path d="M693.04 241.661H695.648V281.439H693.04V241.661Z" fill="#00E0F7"/>
<path d="M693.04 374.229H695.648V414.007H693.04V374.229Z" fill="#00E0F7"/>
</g>
<g opacity="0.85">
<path d="M638.911 346.439H656.57V378.79H638.911V346.439Z" fill="#00E0F7"/>
<path d="M646.45 306.686H649.059V346.464H646.45V306.686Z" fill="#00E0F7"/>
<path d="M646.45 378.79H649.059V418.568H646.45V378.79Z" fill="#00E0F7"/>
</g>
<g opacity="0.85">
<path d="M592.323 377.344H609.982V404.935H592.323V377.344Z" fill="#00E0F7"/>
<path d="M599.862 337.566H602.471V377.344H599.862V337.566Z" fill="#00E0F7"/>
<path d="M599.862 404.935H602.471V444.713H599.862V404.935Z" fill="#00E0F7"/>
</g>
<g opacity="0.52">
<path d="M545.762 273.637H563.422V411.988H545.762V273.637Z" fill="#00E0F7"/>
<path d="M553.274 233.86H555.883V273.638H553.274V233.86Z" fill="#00E0F7"/>
<path d="M553.274 411.988H555.883V451.766H553.274V411.988Z" fill="#00E0F7"/>
</g>
<g opacity="0.52">
<path d="M497.791 343.149H515.451V367.475H497.791V343.149Z" fill="#00E0F7"/>
<path d="M505.331 303.372H507.939V343.149H505.331V303.372Z" fill="#00E0F7"/>
<path d="M505.331 367.475H507.939V407.253H505.331V367.475Z" fill="#00E0F7"/>
</g>
<g opacity="0.52">
<path d="M452.454 307.933H470.113V332.283H452.454V307.933Z" fill="#00E0F7"/>
<path d="M459.993 268.155H462.602V307.932H459.993V268.155Z" fill="#00E0F7"/>
<path d="M459.993 332.258H462.602V372.036H459.993V332.258Z" fill="#00E0F7"/>
</g>
<g opacity="0.52">
<path d="M406.024 215.167H423.684V363.213H406.024V215.167Z" fill="#00E0F7"/>
<path d="M413.536 175.389H416.145V215.167H413.536V175.389Z" fill="#00E0F7"/>
<path d="M413.536 363.213H416.145V402.991H413.536V363.213Z" fill="#00E0F7"/>
</g>
<g opacity="0.52">
<path d="M359.434 283.283H377.094V322.513H359.434V283.283Z" fill="#00E0F7"/>
<path d="M366.974 243.505H369.582V283.283H366.974V243.505Z" fill="#00E0F7"/>
<path d="M366.974 322.513H369.582V362.291H366.974V322.513Z" fill="#00E0F7"/>
</g>
<g opacity="0.52">
<path d="M312.846 332.632H330.506V377.145H312.846V332.632Z" fill="#00E0F7"/>
<path d="M320.386 292.854H322.994V332.632H320.386V292.854Z" fill="#00E0F7"/>
<path d="M320.386 377.145H322.994V416.923H320.386V377.145Z" fill="#00E0F7"/>
</g>
<g opacity="0.52">
<path d="M266.18 317.229H283.84V446.532H266.18V317.229Z" fill="#00E0F7"/>
<path d="M273.72 277.451H276.328V317.229H273.72V277.451Z" fill="#00E0F7"/>
<path d="M273.72 446.532H276.328V486.31H273.72V446.532Z" fill="#00E0F7"/>
</g>
<g opacity="0.52">
<path d="M219.696 229.722H237.355V261.525H219.696V229.722Z" fill="#00E0F7"/>
<path d="M227.208 189.945H229.816V229.722H227.208V189.945Z" fill="#00E0F7"/>
<path d="M227.208 261.525H229.816V301.303H227.208V261.525Z" fill="#00E0F7"/>
</g>
<g opacity="0.52">
<path d="M173.108 198.369H190.768V262.297H173.108V198.369Z" fill="#00E0F7"/>
<path d="M180.647 158.591H183.256V198.369H180.647V158.591Z" fill="#00E0F7"/>
<path d="M180.647 262.298H183.256V302.076H180.647V262.298Z" fill="#00E0F7"/>
</g>
<g opacity="0.52">
<path d="M126.52 163.151H144.18V193.159H126.52V163.151Z" fill="#00E0F7"/>
<path d="M134.059 123.374H136.668V163.151H134.059V123.374Z" fill="#00E0F7"/>
<path d="M134.059 193.159H136.668V232.937H134.059V193.159Z" fill="#00E0F7"/>
</g>
<g opacity="0.52">
<path d="M79.9574 173.943H97.6172V207.291H79.9574V173.943Z" fill="#00E0F7"/>
<path d="M87.4696 134.166H90.0781V173.943H87.4696V134.166Z" fill="#00E0F7"/>
<path d="M87.4696 207.291H90.0781V247.069H87.4696V207.291Z" fill="#00E0F7"/>
</g>
<g opacity="0.52">
<path d="M33.3697 54.3604H51.0293V174.691H33.3697V54.3604Z" fill="#00E0F7"/>
<path d="M40.9091 14.6074H43.5176V54.3854H40.9091V14.6074Z" fill="#00E0F7"/>
<path d="M40.9091 174.691H43.5176V214.469H40.9091V174.691Z" fill="#00E0F7"/>
</g>
<g opacity="0.52">
<path d="M-13.2183 116.719H4.44141V232.165H-13.2183V116.719Z" fill="#00E0F7"/>
</g>
</g>
</svg>
