<svg width="1913" height="852" viewBox="0 0 1913 852" fill="none" xmlns="http://www.w3.org/2000/svg">
<path d="M283.962 851.375C282.188 851.375 280.414 851.325 278.64 851.25L278.771 848.758C281.327 848.882 283.909 848.907 286.492 848.832L286.57 851.325C285.709 851.325 284.848 851.35 283.962 851.35V851.375ZM294.422 850.851L294.135 848.384C296.665 848.135 299.221 847.761 301.699 847.312L302.195 849.754C299.639 850.228 297.03 850.602 294.422 850.876V850.851ZM270.762 850.627C268.154 850.328 265.519 849.929 262.963 849.455L263.459 847.013C265.963 847.486 268.519 847.86 271.075 848.159L270.762 850.627ZM309.864 848.01L309.16 845.617C311.612 844.969 314.064 844.197 316.464 843.374L317.351 845.717C314.899 846.589 312.368 847.362 309.838 848.035L309.864 848.01ZM255.268 847.761C252.738 847.113 250.207 846.365 247.729 845.542L248.59 843.175C251.016 843.972 253.494 844.695 255.972 845.343L255.294 847.736L255.268 847.761ZM240.373 842.876C237.973 841.904 235.547 840.857 233.2 839.735L234.347 837.492C236.669 838.589 239.017 839.636 241.39 840.583L240.373 842.876ZM324.681 842.851L323.611 840.583C325.933 839.586 328.228 838.464 330.498 837.293L331.75 839.486C329.428 840.682 327.054 841.829 324.681 842.851ZM226.235 836.196C223.992 834.975 221.722 833.654 219.505 832.283L220.914 830.19C223.105 831.535 225.322 832.831 227.539 834.028L226.235 836.196ZM338.532 835.673L337.123 833.554C339.262 832.258 341.427 830.862 343.514 829.417L345.053 831.436C342.914 832.906 340.697 834.352 338.532 835.673ZM213.01 828.046C210.897 826.601 208.784 825.08 206.723 823.51L208.34 821.541C210.375 823.086 212.462 824.557 214.549 826.002L213.036 828.021L213.01 828.046ZM351.314 826.85L349.67 824.906C351.627 823.41 353.609 821.79 355.565 820.096L357.313 821.965C355.305 823.685 353.296 825.305 351.314 826.85ZM200.619 818.75C198.637 817.13 196.68 815.46 194.75 813.765L196.524 811.945C198.454 813.64 200.384 815.285 202.341 816.88L200.645 818.775L200.619 818.75ZM363.052 816.831L361.226 815.061C363.052 813.341 364.852 811.572 366.652 809.752L368.556 811.472C366.73 813.316 364.904 815.111 363.052 816.855V816.831ZM189.037 808.556C187.185 806.811 185.333 805.017 183.533 803.197L185.412 801.478C187.211 803.272 189.037 805.042 190.863 806.786L189.037 808.556ZM373.825 805.864L371.869 804.219C373.564 802.375 375.234 800.481 376.877 798.537L378.886 800.107C377.216 802.076 375.521 803.995 373.825 805.864ZM178.186 797.689C176.438 795.845 174.717 793.976 172.995 792.057L174.977 790.437C176.673 792.331 178.395 794.2 180.142 796.019L178.212 797.689H178.186ZM383.79 794.225L381.729 792.705C383.294 790.76 384.833 788.767 386.372 786.748L388.485 788.218C386.92 790.262 385.355 792.281 383.79 794.25V794.225ZM167.934 786.299C166.291 784.38 164.648 782.436 163.004 780.467L165.065 778.922C166.682 780.891 168.326 782.81 169.969 784.729L167.961 786.299H167.934ZM393.024 782.062L390.885 780.642C392.346 778.623 393.78 776.554 395.241 774.461L397.432 775.831C395.971 777.95 394.537 780.018 393.05 782.062H393.024ZM158.205 774.535C156.64 772.566 155.048 770.548 153.509 768.529L155.622 767.058C157.161 769.077 158.726 771.071 160.292 773.04L158.205 774.56V774.535ZM401.632 769.501L399.415 768.18C400.771 766.086 402.154 763.968 403.484 761.824L405.727 763.095C404.371 765.264 402.988 767.382 401.632 769.501ZM148.892 762.447C147.379 760.429 145.866 758.385 144.38 756.316L146.519 754.896C148.005 756.939 149.518 758.983 151.031 761.002L148.918 762.447H148.892ZM409.718 756.64L407.449 755.394C408.727 753.251 410.031 751.082 411.31 748.889L413.579 750.11C412.301 752.304 410.997 754.497 409.718 756.64ZM139.919 750.135C138.458 748.067 136.997 745.998 135.537 743.904L137.702 742.534C139.136 744.602 140.597 746.671 142.058 748.739L139.893 750.135H139.919ZM417.361 743.53L415.066 742.359C416.292 740.191 417.518 737.997 418.718 735.754L421.039 736.901C419.813 739.144 418.587 741.337 417.361 743.53ZM131.233 737.648C129.798 735.555 128.389 733.461 126.981 731.368L129.172 730.022C130.58 732.115 132.015 734.209 133.424 736.303L131.233 737.673V737.648ZM424.613 730.221L422.291 729.1C423.465 726.882 424.613 724.663 425.787 722.42L428.135 723.517C426.987 725.785 425.813 728.003 424.639 730.221H424.613ZM122.755 725.062C121.346 722.969 119.964 720.85 118.555 718.732L120.772 717.411C122.155 719.529 123.564 721.623 124.946 723.741L122.755 725.087V725.062ZM431.526 716.763L429.178 715.691C430.3 713.448 431.395 711.205 432.517 708.937L434.891 709.983C433.769 712.251 432.673 714.52 431.552 716.763H431.526ZM114.382 712.351L110.234 705.996L112.451 704.675L116.599 711.03L114.382 712.351ZM438.151 703.179L435.777 702.157C436.847 699.889 437.917 697.621 438.986 695.353L441.36 696.375C440.29 698.668 439.221 700.936 438.125 703.204L438.151 703.179ZM106.113 699.64L101.991 693.285L104.208 691.964L108.33 698.319L106.113 699.64ZM444.542 689.496L442.142 688.499C443.186 686.231 444.229 683.938 445.246 681.645L447.646 682.617C446.603 684.935 445.586 687.228 444.542 689.496ZM97.8957 686.929L93.7742 680.574L95.9914 679.253L100.139 685.608L97.9217 686.929H97.8957ZM450.724 675.738L448.325 674.766C449.342 672.474 450.333 670.181 451.35 667.863L453.75 668.81C452.759 671.128 451.742 673.421 450.724 675.714V675.738ZM89.6006 674.243C88.218 672.125 86.8094 670.006 85.4269 667.913L87.6181 666.567C89.0006 668.66 90.4092 670.779 91.7917 672.897L89.5745 674.218L89.6006 674.243ZM1098.32 665.919C1096.65 665.919 1094.98 665.919 1093.31 665.844L1093.39 663.351C1095.94 663.426 1098.58 663.451 1101.13 663.401L1101.19 665.894C1100.22 665.894 1099.26 665.919 1098.29 665.919H1098.32ZM1109.06 665.545L1108.88 663.052C1111.46 662.878 1114.05 662.629 1116.55 662.305L1116.89 664.772C1114.33 665.096 1111.7 665.345 1109.06 665.545ZM1085.46 665.445C1082.82 665.246 1080.19 664.996 1077.63 664.672L1077.97 662.205C1080.5 662.504 1083.08 662.778 1085.69 662.978L1085.48 665.47L1085.46 665.445ZM1124.64 663.576L1124.14 661.133C1126.67 660.66 1129.2 660.136 1131.68 659.538L1132.33 661.956C1129.83 662.579 1127.22 663.102 1124.66 663.576H1124.64ZM1069.83 663.526C1067.27 663.077 1064.69 662.579 1062.14 661.981L1062.74 659.563C1065.24 660.136 1067.8 660.635 1070.3 661.059L1069.83 663.501V663.526ZM456.724 661.906L454.298 660.959C455.289 658.666 456.254 656.348 457.246 654.03L459.672 654.952C458.706 657.27 457.715 659.588 456.724 661.906ZM81.2272 661.632C79.8186 659.513 78.3839 657.445 76.9753 655.351L79.1665 653.98C80.6012 656.049 82.0098 658.142 83.4444 660.261L81.2533 661.607L81.2272 661.632ZM1054.52 660.086C1052.01 659.389 1049.48 658.616 1047.03 657.794L1047.89 655.451C1050.29 656.248 1052.77 657.021 1055.25 657.719L1054.52 660.111V660.086ZM1139.87 659.912L1139.09 657.544C1141.54 656.797 1143.97 655.974 1146.37 655.102L1147.3 657.42C1144.88 658.317 1142.37 659.139 1139.87 659.912ZM1039.68 655.102C1037.25 654.155 1034.85 653.133 1032.48 652.061L1033.6 649.818C1035.92 650.865 1038.29 651.887 1040.67 652.809L1039.68 655.102ZM1154.56 654.529L1153.49 652.261C1155.83 651.239 1158.16 650.167 1160.42 649.045L1161.62 651.264C1159.3 652.41 1156.93 653.532 1154.56 654.553V654.529ZM72.6452 649.12C71.1844 647.027 69.7236 644.983 68.2628 642.939L70.4279 641.543C71.8887 643.587 73.3495 645.656 74.8102 647.749L72.6452 649.12ZM1025.46 648.647C1023.19 647.475 1020.9 646.229 1018.63 644.908L1019.98 642.765C1022.2 644.036 1024.47 645.282 1026.71 646.428L1025.49 648.622L1025.46 648.647ZM462.567 648.024L460.141 647.101C461.106 644.783 462.045 642.466 463.01 640.148L465.436 641.07C464.471 643.388 463.532 645.731 462.567 648.024ZM1168.54 647.6L1167.21 645.456C1169.4 644.21 1171.62 642.889 1173.75 641.519L1175.19 643.587C1173 644.983 1170.75 646.329 1168.51 647.6H1168.54ZM1012.03 640.895C1009.86 639.5 1007.7 638.054 1005.58 636.559L1007.12 634.565C1009.21 636.035 1011.32 637.456 1013.49 638.827L1012.03 640.895ZM1181.66 639.275L1180.12 637.281C1182.18 635.836 1184.24 634.316 1186.25 632.745L1187.89 634.689C1185.83 636.285 1183.75 637.83 1181.66 639.275ZM63.8544 636.808C62.3415 634.764 60.8286 632.72 59.3156 630.727L61.4285 629.256C62.9415 631.275 64.4805 633.294 65.9934 635.362L63.8544 636.808ZM468.306 634.091L465.88 633.194C466.819 630.876 467.758 628.558 468.697 626.215L471.123 627.113C470.184 629.456 469.245 631.773 468.306 634.091ZM999.349 631.998C997.314 630.428 995.305 628.832 993.323 627.163L995.045 625.293C997.001 626.913 998.983 628.508 1000.99 630.054L999.349 631.998ZM1193.89 629.829L1192.17 627.96C1194.1 626.34 1196.01 624.645 1197.88 622.926L1199.68 624.72C1197.78 626.465 1195.85 628.159 1193.89 629.804V629.829ZM54.6724 624.72C53.0813 622.726 51.5161 620.732 49.9249 618.813L51.9857 617.268C53.5769 619.212 55.1942 621.206 56.7593 623.225L54.6724 624.72ZM987.48 622.103C985.576 620.408 983.698 618.639 981.846 616.869L983.698 615.1C985.523 616.869 987.402 618.589 989.28 620.284L987.48 622.103ZM473.914 620.109L471.488 619.212L474.253 612.208L476.705 613.081L473.94 620.084L473.914 620.109ZM1205.24 619.411L1203.36 617.667C1205.16 615.897 1206.91 614.103 1208.66 612.233L1210.59 613.903C1208.81 615.772 1207.04 617.617 1205.21 619.386L1205.24 619.411ZM45.0209 612.981C43.3515 611.037 41.682 609.143 39.9865 607.298L41.9429 605.654C43.6384 607.523 45.3339 609.442 47.0295 611.386L45.0209 612.981ZM976.394 611.436C974.62 609.616 972.872 607.747 971.124 605.853L973.081 604.208C974.802 606.077 976.55 607.922 978.298 609.716L976.394 611.411V611.436ZM1215.78 608.246L1213.8 606.626C1215.46 604.756 1217.11 602.837 1218.73 600.868L1220.76 602.414C1219.12 604.382 1217.45 606.326 1215.78 608.221V608.246ZM479.444 606.077L476.992 605.205L479.705 598.226L482.157 599.099L479.418 606.077H479.444ZM34.7955 601.765C33.0217 599.921 31.2218 598.127 29.3959 596.407L31.2479 594.637C33.0739 596.382 34.8999 598.201 36.6997 600.071L34.7955 601.765ZM966.038 600.145C964.368 598.226 962.725 596.282 961.108 594.313L963.168 592.768C964.786 594.737 966.403 596.656 968.046 598.55L966.038 600.145ZM1225.59 596.482L1223.5 594.986C1225.04 593.017 1226.58 591.023 1228.09 588.98L1230.23 590.425C1228.69 592.494 1227.15 594.513 1225.59 596.482ZM484.896 592.095L482.444 591.223L485.157 584.219L487.609 585.092L484.896 592.095ZM23.7875 591.248C21.8312 589.528 19.8748 587.883 17.9445 586.363L19.6139 584.444C21.5703 585.989 23.5528 587.659 25.5353 589.403L23.7615 591.248H23.7875ZM956.308 588.332C954.743 586.338 953.204 584.319 951.665 582.275L953.778 580.83C955.291 582.849 956.83 584.867 958.369 586.836L956.282 588.332H956.308ZM1234.66 584.244L1232.5 582.849C1233.93 580.805 1235.37 578.736 1236.78 576.618L1238.97 577.964C1237.53 580.082 1236.1 582.176 1234.64 584.244H1234.66ZM11.8666 581.777C9.7537 580.281 7.61471 578.861 5.5279 577.565L6.9365 575.471C9.10157 576.792 11.2666 578.238 13.4317 579.758L11.8666 581.752V581.777ZM490.296 578.038L487.844 577.191L490.556 570.162L493.008 571.01L490.296 578.038ZM947.178 576.119C945.717 574.051 944.257 571.982 942.822 569.888L945.013 568.518C946.448 570.611 947.883 572.68 949.343 574.723L947.178 576.119ZM-1.12383 573.826C-3.41933 572.63 -5.74092 571.558 -8.03642 570.586L-6.99301 568.293C-4.64534 569.265 -2.2455 570.387 0.10217 571.608L-1.14992 573.801L-1.12383 573.826ZM1243.17 571.633L1240.95 570.337C1242.31 568.243 1243.64 566.1 1244.97 563.956L1247.21 565.228C1245.88 567.396 1244.52 569.539 1243.17 571.658V571.633ZM-15.1838 567.994C-17.6358 567.221 -20.1139 566.573 -22.5659 566.075L-22.0181 563.632C-19.4878 564.156 -16.9054 564.829 -14.3751 565.626L-15.1838 567.994ZM-30.0784 564.904C-32.6087 564.629 -35.165 564.505 -37.6953 564.505V562.012C-35.0607 562.012 -32.4 562.162 -29.7915 562.411L-30.0784 564.879V564.904ZM495.695 563.981L493.243 563.134L495.956 556.081L498.408 556.928L495.695 563.981ZM938.57 563.583C937.188 561.489 935.805 559.346 934.423 557.202L936.64 555.906C937.996 558.05 939.379 560.143 940.761 562.237L938.544 563.583H938.57ZM1251.15 558.698L1248.88 557.476C1250.16 555.333 1251.41 553.14 1252.66 550.946L1254.96 552.143C1253.71 554.361 1252.43 556.554 1251.15 558.698ZM930.405 550.772C929.075 548.629 927.771 546.46 926.467 544.292L928.736 543.046C930.04 545.214 931.344 547.357 932.649 549.501L930.405 550.772ZM501.095 549.875L498.643 549.027L501.33 541.999L503.782 542.846L501.095 549.875ZM1258.64 545.513L1256.31 544.367C1257.51 542.173 1258.71 539.955 1259.89 537.737L1262.21 538.858C1261.01 541.102 1259.84 543.32 1258.64 545.538V545.513ZM922.606 537.762C921.328 535.594 920.076 533.4 918.824 531.182L921.119 529.986C922.371 532.179 923.623 534.372 924.875 536.541L922.606 537.762ZM506.495 535.843L504.043 534.995L506.755 527.967L509.207 528.839L506.495 535.868V535.843ZM1265.73 532.129L1263.38 531.033C1264.53 528.814 1265.65 526.571 1266.77 524.303L1269.12 525.375C1268 527.643 1266.88 529.911 1265.73 532.129ZM915.146 524.577C913.92 522.384 912.72 520.166 911.52 517.948L913.841 516.801C915.041 519.019 916.241 521.213 917.467 523.431L915.172 524.602L915.146 524.577ZM511.92 521.786L509.468 520.914L512.181 513.885L514.633 514.757L511.92 521.761V521.786ZM1272.46 518.571L1270.09 517.524C1271.16 515.281 1272.25 513.013 1273.3 510.72L1275.67 511.742C1274.6 514.035 1273.53 516.303 1272.43 518.571H1272.46ZM907.946 511.268C906.772 509.05 905.598 506.807 904.425 504.564L906.772 503.442C907.946 505.685 909.094 507.903 910.294 510.122L907.972 511.243L907.946 511.268ZM517.372 507.754L514.92 506.882L517.659 499.878L520.111 500.75L517.372 507.754ZM1278.83 504.863L1276.43 503.866C1277.44 501.598 1278.49 499.305 1279.5 496.987L1281.9 497.959C1280.89 500.277 1279.87 502.57 1278.83 504.863ZM900.955 497.859C899.807 495.616 898.66 493.373 897.538 491.13L899.886 490.033C901.033 492.276 902.155 494.52 903.303 496.763L900.955 497.859ZM522.876 493.747L520.424 492.875L523.215 485.871L525.641 486.768L522.85 493.747H522.876ZM1284.93 491.055L1282.5 490.108C1283.49 487.815 1284.46 485.497 1285.45 483.179L1287.88 484.102C1286.91 486.419 1285.92 488.737 1284.93 491.055ZM894.121 484.376C892.999 482.133 891.878 479.865 890.756 477.621L893.104 476.55C894.225 478.818 895.347 481.061 896.469 483.304L894.121 484.376ZM528.458 479.79L526.032 478.893L528.876 471.914L531.302 472.811L528.458 479.79ZM1290.77 477.173L1288.35 476.251C1289.29 473.933 1290.25 471.615 1291.16 469.297L1293.59 470.194C1292.65 472.537 1291.71 474.855 1290.75 477.173H1290.77ZM887.417 470.817L884.104 464.013L886.478 462.966L889.791 469.746L887.417 470.792V470.817ZM534.171 465.858L531.745 464.935C532.71 462.617 533.675 460.275 534.64 457.982L537.066 458.904C536.101 461.222 535.136 463.515 534.171 465.858ZM1296.41 463.166L1293.96 462.293C1294.87 459.976 1295.78 457.633 1296.69 455.29L1299.15 456.162C1298.23 458.505 1297.32 460.848 1296.41 463.191V463.166ZM880.817 457.234L877.531 450.455L879.904 449.408L883.191 456.187L880.817 457.234ZM539.988 451.975L537.562 451.028C538.553 448.71 539.545 446.392 540.536 444.099L542.936 445.046C541.944 447.339 540.953 449.657 539.988 451.975ZM1301.83 449.134L1299.38 448.286C1300.27 445.944 1301.15 443.601 1302.02 441.258L1304.47 442.105C1303.58 444.473 1302.72 446.816 1301.81 449.159L1301.83 449.134ZM874.244 443.701L870.957 436.921L873.331 435.875L876.618 442.654L874.244 443.701ZM545.961 438.167L543.562 437.195C544.579 434.878 545.596 432.585 546.614 430.292L549.013 431.264C547.996 433.557 546.979 435.85 545.961 438.143V438.167ZM1307.1 435.027L1304.65 434.205C1305.51 431.862 1306.37 429.494 1307.21 427.151L1309.68 427.974C1308.82 430.342 1307.96 432.684 1307.1 435.052V435.027ZM867.644 430.117L864.332 423.338L866.705 422.291L870.018 429.07L867.644 430.117ZM552.065 424.41L549.666 423.413C550.709 421.12 551.752 418.827 552.822 416.559L555.222 417.556C554.178 419.824 553.135 422.117 552.092 424.41H552.065ZM1312.19 420.871L1309.71 420.073C1310.55 417.705 1311.38 415.362 1312.21 412.995L1314.69 413.792C1313.86 416.16 1313.02 418.528 1312.19 420.895V420.871ZM860.967 416.584C859.845 414.316 858.723 412.073 857.602 409.829L859.949 408.758C861.071 411.001 862.193 413.269 863.314 415.512L860.967 416.584ZM558.378 410.752L556.004 409.73C557.1 407.437 558.169 405.169 559.265 402.926L561.639 403.972C560.543 406.216 559.474 408.484 558.378 410.777V410.752ZM1317.17 406.689L1314.69 405.916C1315.5 403.549 1316.34 401.181 1317.14 398.813L1319.62 399.586C1318.81 401.954 1317.98 404.321 1317.17 406.689ZM854.211 403.1C853.063 400.857 851.915 398.614 850.793 396.371L853.141 395.274C854.289 397.517 855.436 399.76 856.584 402.003L854.237 403.1H854.211ZM564.952 397.193L562.604 396.122C563.726 393.853 564.873 391.61 565.995 389.367L568.343 390.464C567.195 392.682 566.073 394.925 564.952 397.193ZM1322.05 392.458L1319.57 391.685L1321.97 384.607L1324.45 385.379L1322.05 392.483V392.458ZM847.324 389.691C846.15 387.448 844.976 385.23 843.802 383.012L846.124 381.865C847.298 384.083 848.498 386.302 849.672 388.545L847.35 389.666L847.324 389.691ZM571.812 383.784L569.49 382.663C570.664 380.42 571.864 378.177 573.038 375.983L575.36 377.13C574.16 379.323 572.986 381.541 571.812 383.784ZM1326.82 378.251L1324.34 377.504L1326.72 370.376L1329.2 371.123L1326.82 378.251ZM840.203 376.382C838.977 374.164 837.777 371.971 836.551 369.777L838.846 368.606C840.072 370.799 841.298 372.992 842.524 375.236L840.203 376.382ZM578.985 370.525L576.69 369.354C577.942 367.135 579.168 364.942 580.446 362.774L582.716 363.97C581.463 366.139 580.211 368.307 578.985 370.525ZM1912.57 369.329C1909.91 369.254 1907.3 369.104 1904.71 368.93L1904.9 366.438C1907.45 366.612 1910.04 366.762 1912.64 366.836L1912.57 369.329ZM1896.86 368.207C1894.25 367.908 1891.65 367.534 1889.06 367.135L1889.51 364.668C1892.04 365.067 1894.62 365.441 1897.18 365.715L1896.86 368.182V368.207ZM1881.34 365.69C1878.76 365.142 1876.2 364.543 1873.7 363.895L1874.4 361.503C1876.83 362.151 1879.36 362.749 1881.92 363.272L1881.34 365.715V365.69ZM1331.52 364.02L1329.04 363.272L1331.39 356.119L1333.87 356.867L1331.52 364.02ZM832.768 363.247C831.49 361.054 830.212 358.886 828.934 356.742L831.203 355.496C832.482 357.665 833.786 359.833 835.064 362.026L832.795 363.222L832.768 363.247ZM1866.16 361.702C1863.68 360.929 1861.2 360.057 1858.75 359.135L1859.72 356.817C1862.12 357.714 1864.57 358.562 1867 359.334L1866.19 361.702H1866.16ZM586.524 357.465L584.255 356.219C585.559 354.026 586.889 351.882 588.22 349.739L590.463 351.01C589.133 353.128 587.828 355.272 586.524 357.44V357.465ZM1851.53 356.194C1849.15 355.172 1846.78 354.051 1844.46 352.904L1845.66 350.686C1847.95 351.832 1850.27 352.929 1852.6 353.926L1851.53 356.194ZM825.021 350.262C823.691 348.119 822.334 345.975 820.978 343.882L823.195 342.561C824.552 344.679 825.908 346.823 827.264 348.991L825.021 350.262ZM1336.21 349.689L1333.74 348.941L1336.06 341.763L1338.53 342.511L1336.21 349.689ZM1837.6 349.24C1835.35 347.969 1833.11 346.648 1830.92 345.253L1832.35 343.184C1834.52 344.555 1836.71 345.876 1838.9 347.097L1837.57 349.24H1837.6ZM594.532 344.654L592.315 343.333C593.697 341.19 595.106 339.072 596.541 337.003L598.732 338.374C597.323 340.442 595.941 342.536 594.558 344.654H594.532ZM1824.48 340.941C1822.39 339.47 1820.3 337.925 1818.27 336.33L1819.91 334.386C1821.92 335.956 1823.98 337.476 1826.04 338.922L1824.5 340.916L1824.48 340.941ZM816.83 337.576C815.422 335.483 813.987 333.389 812.526 331.345L814.691 329.95C816.152 331.993 817.587 334.087 819.022 336.205L816.83 337.551V337.576ZM1340.86 335.358L1338.35 334.635L1340.65 327.482L1343.15 328.205L1340.86 335.358ZM603.062 332.143L600.897 330.747C602.384 328.654 603.897 326.61 605.41 324.591L607.523 326.037C606.01 328.03 604.523 330.049 603.036 332.118L603.062 332.143ZM1812.29 331.42C1810.34 329.75 1808.41 328.03 1806.53 326.286L1808.36 324.491C1810.21 326.236 1812.11 327.906 1814.04 329.551L1812.29 331.42ZM808.092 325.214C806.579 323.17 805.04 321.177 803.475 319.208L805.562 317.712C807.127 319.681 808.692 321.7 810.231 323.769L808.118 325.214H808.092ZM1345.47 321.052L1342.97 320.329L1345.26 313.176L1347.77 313.899L1345.47 321.052ZM1801 320.952C1799.2 319.133 1797.43 317.288 1795.7 315.394L1797.66 313.749C1799.38 315.619 1801.13 317.438 1802.9 319.232L1801 320.952ZM612.192 320.105L610.131 318.584C611.748 316.566 613.366 314.597 615.009 312.678L617.044 314.248C615.426 316.142 613.809 318.086 612.218 320.08L612.192 320.105ZM798.701 313.4C797.058 311.456 795.388 309.562 793.719 307.693L795.701 306.048C797.397 307.917 799.092 309.836 800.762 311.805L798.727 313.375L798.701 313.4ZM1790.62 309.687C1788.97 307.768 1787.33 305.799 1785.74 303.805L1787.8 302.284C1789.39 304.253 1790.98 306.197 1792.63 308.117L1790.62 309.687ZM622 308.59L620.043 306.945C621.791 305.026 623.539 303.182 625.313 301.362L627.217 303.057C625.469 304.852 623.721 306.671 622 308.565V308.59ZM1350.09 306.796L1347.59 306.073L1349.88 298.92L1352.39 299.643L1350.09 306.796ZM788.502 302.185C786.702 300.365 784.876 298.571 783.076 296.901L784.902 295.107C786.754 296.826 788.606 298.621 790.406 300.49L788.502 302.185ZM632.643 297.798L630.817 296.029C632.721 294.259 634.651 292.514 636.555 290.894L638.303 292.764C636.425 294.359 634.521 296.079 632.643 297.823V297.798ZM1781.07 297.798C1779.56 295.779 1778.04 293.736 1776.58 291.642L1778.75 290.246C1780.21 292.315 1781.7 294.334 1783.21 296.353L1781.1 297.798H1781.07ZM1354.71 292.514L1352.2 291.767L1354.52 284.614L1357 285.361L1354.68 292.514H1354.71ZM777.39 291.866C775.433 290.222 773.425 288.626 771.442 287.131L773.059 285.187C775.068 286.707 777.103 288.327 779.111 290.022L777.39 291.891V291.866ZM644.198 287.978L642.555 286.034C644.642 284.439 646.755 282.894 648.815 281.498L650.328 283.517C648.294 284.913 646.207 286.408 644.172 287.978H644.198ZM1772.23 285.386C1770.82 283.293 1769.44 281.174 1768.05 279.031L1770.27 277.735C1771.63 279.853 1773.01 281.972 1774.39 284.04L1772.2 285.386H1772.23ZM765.234 282.744C763.095 281.324 760.93 279.978 758.765 278.732L760.121 276.588C762.338 277.859 764.556 279.23 766.747 280.701L765.26 282.744H765.234ZM656.745 279.43L655.363 277.311C657.606 275.965 659.902 274.719 662.171 273.548L663.397 275.741C661.18 276.862 658.937 278.109 656.745 279.43ZM1359.35 278.233L1356.85 277.486L1359.19 270.333L1361.7 271.08L1359.35 278.208V278.233ZM752.035 275.143C749.739 274.021 747.392 272.974 745.044 272.052L746.061 269.759C748.461 270.706 750.861 271.778 753.209 272.925L752.035 275.143ZM1764.06 272.576C1762.76 270.432 1761.45 268.239 1760.18 266.046L1762.45 264.824C1763.72 266.993 1765 269.161 1766.31 271.305L1764.04 272.551L1764.06 272.576ZM670.336 272.551L669.292 270.258C671.718 269.236 674.17 268.314 676.622 267.491L677.483 269.834C675.109 270.632 672.71 271.529 670.362 272.526L670.336 272.551ZM737.87 269.51C735.445 268.762 732.966 268.089 730.488 267.516L731.088 265.099C733.619 265.672 736.175 266.37 738.679 267.142L737.87 269.51ZM684.813 267.74L684.161 265.323C686.691 264.7 689.3 264.151 691.882 263.753L692.326 266.22C689.821 266.619 687.291 267.142 684.813 267.765V267.74ZM722.95 266.096C720.446 265.722 717.863 265.448 715.333 265.248L715.542 262.756C718.15 262.955 720.785 263.229 723.367 263.628L722.976 266.096H722.95ZM699.943 265.273L699.734 262.781C702.342 262.581 705.003 262.457 707.638 262.457V264.949C705.081 264.949 702.473 265.049 699.943 265.248V265.273ZM1364.05 263.977L1361.57 263.229L1363.94 256.101L1366.42 256.849L1364.05 263.977ZM1756.45 259.466C1755.22 257.273 1754.02 255.054 1752.82 252.811L1755.14 251.665C1756.34 253.883 1757.54 256.076 1758.77 258.27L1756.47 259.441L1756.45 259.466ZM1368.79 249.721L1366.32 248.948L1368.72 241.82L1371.19 242.593L1368.79 249.721ZM1749.27 246.132C1748.12 243.889 1746.98 241.646 1745.83 239.378L1748.18 238.306C1749.3 240.549 1750.45 242.792 1751.59 245.01L1749.25 246.107L1749.27 246.132ZM1373.62 235.489L1371.14 234.717C1371.95 232.349 1372.78 229.981 1373.59 227.614L1376.07 228.386C1375.26 230.754 1374.43 233.122 1373.62 235.489ZM1742.49 232.598C1741.39 230.33 1740.3 228.062 1739.23 225.794L1741.6 224.772C1742.67 227.04 1743.77 229.308 1744.86 231.552L1742.49 232.598ZM1378.55 221.283L1376.07 220.485L1378.58 213.382L1381.05 214.18L1378.55 221.258V221.283ZM1736 218.94C1734.93 216.647 1733.88 214.379 1732.84 212.086L1735.24 211.089C1736.28 213.382 1737.33 215.65 1738.37 217.943L1736 218.94ZM1383.61 207.126L1381.13 206.304C1381.99 203.936 1382.85 201.593 1383.71 199.226L1386.17 200.048C1385.31 202.391 1384.44 204.734 1383.58 207.102L1383.61 207.126ZM1729.76 205.182C1728.74 202.889 1727.73 200.597 1726.71 198.279L1729.11 197.307C1730.13 199.6 1731.14 201.893 1732.16 204.186L1729.76 205.158V205.182ZM1388.8 193.02L1386.35 192.172C1387.24 189.805 1388.12 187.462 1389.01 185.119L1391.46 185.966C1390.57 188.284 1389.69 190.627 1388.8 192.995V193.02ZM1723.66 191.375L1720.66 184.446L1723.06 183.499L1726.06 190.428L1723.66 191.375ZM1394.17 178.988L1391.72 178.115C1392.64 175.773 1393.57 173.43 1394.49 171.112L1396.94 172.009C1396.03 174.327 1395.09 176.645 1394.17 179.013V178.988ZM1717.66 177.517L1714.68 170.614L1717.11 169.666L1720.08 176.57L1717.66 177.517ZM1399.73 165.006L1397.3 164.108C1398.27 161.766 1399.21 159.448 1400.17 157.13L1402.6 158.052C1401.63 160.345 1400.67 162.663 1399.73 165.006ZM1711.71 163.685L1708.71 156.781L1711.11 155.834L1714.11 162.763L1711.71 163.71V163.685ZM1405.55 151.123L1403.12 150.176C1404.11 147.858 1405.13 145.54 1406.15 143.272L1408.55 144.244C1407.53 146.512 1406.54 148.83 1405.55 151.148V151.123ZM1705.71 149.852C1704.72 147.534 1703.7 145.241 1702.68 142.948L1705.08 141.976C1706.1 144.269 1707.12 146.562 1708.11 148.88L1705.71 149.827V149.852ZM1411.63 137.366L1409.23 136.369C1410.27 134.051 1411.34 131.783 1412.41 129.515L1414.78 130.536C1413.71 132.78 1412.67 135.073 1411.63 137.366ZM1699.61 136.094C1698.59 133.801 1697.55 131.509 1696.5 129.24L1698.9 128.244C1699.95 130.512 1700.99 132.805 1702.03 135.122L1699.63 136.094H1699.61ZM1418.02 123.757L1415.64 122.711C1416.74 120.418 1417.86 118.174 1419.01 115.931L1421.36 117.003C1420.23 119.221 1419.11 121.489 1418.02 123.757ZM1693.32 122.411C1692.25 120.118 1691.18 117.85 1690.09 115.607L1692.46 114.561C1693.55 116.829 1694.62 119.097 1695.69 121.39L1693.32 122.411ZM1424.77 110.299L1422.45 109.177C1423.62 106.934 1424.82 104.691 1426.02 102.498L1428.35 103.644C1427.15 105.837 1425.97 108.055 1424.8 110.299H1424.77ZM1686.77 108.828C1685.65 106.56 1684.5 104.317 1683.38 102.099L1685.73 101.002C1686.88 103.22 1688.02 105.488 1689.15 107.756L1686.8 108.828H1686.77ZM1431.97 97.0642L1429.68 95.8679C1430.93 93.6497 1432.21 91.4564 1433.48 89.313L1435.75 90.5342C1434.48 92.6777 1433.22 94.846 1431.97 97.0642ZM1679.86 95.4442C1678.66 93.226 1677.46 91.0078 1676.23 88.8394L1678.53 87.668C1679.76 89.8613 1680.96 92.0795 1682.18 94.3226L1679.86 95.4691V95.4442ZM1439.67 84.104L1437.42 82.8329C1438.78 80.6645 1440.14 78.5211 1441.52 76.4275L1443.74 77.7485C1442.38 79.8421 1441.02 81.9605 1439.67 84.104ZM1672.5 82.3095C1671.23 80.1162 1669.92 77.9728 1668.59 75.8543L1670.83 74.5832C1672.16 76.7266 1673.47 78.895 1674.75 81.0882L1672.48 82.3095H1672.5ZM1447.96 71.4927L1445.8 70.1219C1447.26 68.0034 1448.72 65.9347 1450.21 63.9159L1452.34 65.3366C1450.88 67.3554 1449.42 69.3991 1447.96 71.4927ZM1664.57 69.4988C1663.17 67.3803 1661.76 65.2867 1660.35 63.243L1662.51 61.8473C1663.95 63.9159 1665.38 66.0095 1666.79 68.1529L1664.57 69.4739V69.4988ZM1456.91 59.33L1454.82 57.8346C1456.41 55.8158 1458.01 53.8219 1459.62 51.9028L1461.66 53.448C1460.07 55.3672 1458.47 57.3112 1456.91 59.33ZM1655.89 57.1617C1654.37 55.1429 1652.81 53.149 1651.24 51.2049L1653.31 49.6846C1654.9 51.6536 1656.46 53.6474 1658 55.7161L1655.89 57.1617ZM1466.61 47.7406L1464.63 46.1205C1466.35 44.2014 1468.1 42.3322 1469.87 40.5127L1471.78 42.2075C1470.03 44.002 1468.31 45.8464 1466.61 47.7406ZM1646.37 45.4227C1644.67 43.5036 1642.92 41.6343 1641.23 39.8647L1643.13 38.1699C1644.88 39.9644 1646.63 41.8586 1648.35 43.8026L1646.37 45.4227ZM1477.2 36.8988L1475.38 35.1293C1477.28 33.3348 1479.21 31.615 1481.12 29.995L1482.84 31.8643C1480.96 33.4594 1479.06 35.1542 1477.2 36.9238V36.8988ZM1635.8 34.556C1633.92 32.8114 1632.02 31.1166 1630.12 29.5464L1631.84 27.6771C1633.77 29.2972 1635.72 31.0169 1637.63 32.7864L1635.8 34.5809V34.556ZM1488.73 27.079L1487.12 25.1349C1489.18 23.5647 1491.29 22.0444 1493.4 20.5988L1494.92 22.6426C1492.85 24.0383 1490.79 25.5337 1488.76 27.079H1488.73ZM1624.14 24.8608C1622.08 23.3404 1619.97 21.8949 1617.88 20.549L1619.34 18.4803C1621.48 19.8511 1623.65 21.3216 1625.73 22.8918L1624.14 24.8608ZM1501.33 18.58L1499.95 16.4615C1502.19 15.1406 1504.49 13.8695 1506.78 12.6981L1508.01 14.8914C1505.77 16.0378 1503.52 17.2591 1501.33 18.5551V18.58ZM1611.33 16.6609C1609.12 15.4397 1606.82 14.2932 1604.53 13.2215L1605.65 10.9784C1608 12.0501 1610.34 13.2464 1612.64 14.4926L1611.33 16.6609ZM1514.92 11.7012L1513.85 9.43311C1516.25 8.41125 1518.71 7.46415 1521.16 6.64167L1522.04 8.98449C1519.67 9.80696 1517.27 10.7042 1514.92 11.7012ZM1597.46 10.3054C1595.08 9.40819 1592.66 8.61063 1590.2 7.88785L1590.96 5.49519C1593.47 6.2429 1595.97 7.06538 1598.4 7.98755L1597.43 10.3054H1597.46ZM1529.35 6.76629L1528.64 4.37363C1531.17 3.7007 1533.76 3.12746 1536.31 2.65391L1536.81 5.09642C1534.3 5.56997 1531.77 6.11828 1529.32 6.76629H1529.35ZM1582.74 5.96874C1580.29 5.42043 1577.74 4.9718 1575.18 4.57302L1575.57 2.10559C1578.18 2.50437 1580.79 2.97792 1583.32 3.52623L1582.74 5.94382V5.96874ZM1544.43 3.94993L1544.11 1.48251C1546.72 1.18342 1549.36 0.984037 1551.99 0.884343L1552.09 3.37669C1549.54 3.47639 1546.93 3.67578 1544.4 3.97486L1544.43 3.94993ZM1567.54 3.7007C1565.01 3.50131 1562.42 3.35177 1559.84 3.30192L1559.89 0.80957C1562.53 0.859417 1565.16 1.00896 1567.75 1.20835L1567.51 3.7007H1567.54Z" fill="#00E0F7"/>
</svg>
