<svg width="1920" height="922" viewBox="0 0 1920 922" fill="none" xmlns="http://www.w3.org/2000/svg">
<path d="M-38 316.054L58.124 228.324L221.731 471.752L356.643 366.4L646.241 733.897L825.056 606.962L1069.84 240.761L1288.09 82.7454L1516.81 180.022L1734.2 15.1777L1918.39 191.811V1135.49H-38V316.054Z" fill="url(#paint0_linear_7_8874)" fill-opacity="0.32"/>
<path d="M58.4283 234.926C62.4909 234.926 65.7843 231.779 65.7843 227.898C65.7843 224.016 62.4909 220.869 58.4283 220.869C54.3657 220.869 51.0723 224.016 51.0723 227.898C51.0723 231.779 54.3657 234.926 58.4283 234.926Z" fill="#00E0F7"/>
<path d="M58.4292 241.755C50.421 241.755 43.9258 235.524 43.9258 227.898C43.9258 220.271 50.4471 214.04 58.4292 214.04C66.4112 214.04 72.9325 220.271 72.9325 227.898C72.9325 235.524 66.4112 241.755 58.4292 241.755ZM58.4292 216.109C51.647 216.109 46.1169 221.392 46.1169 227.873C46.1169 234.353 51.647 239.636 58.4292 239.636C65.2113 239.636 70.7414 234.353 70.7414 227.873C70.7414 221.392 65.2113 216.109 58.4292 216.109Z" fill="#00E0F7"/>
<path d="M229.392 471.326C229.392 475.214 226.105 478.354 222.036 478.354C217.966 478.354 214.68 475.214 214.68 471.326C214.68 467.437 217.966 464.297 222.036 464.297C226.105 464.297 229.392 467.437 229.392 471.326Z" fill="#00E0F7"/>
<path d="M222.037 485.183C214.028 485.183 207.533 478.952 207.533 471.325C207.533 463.699 214.055 457.468 222.037 457.468C230.019 457.468 236.54 463.699 236.54 471.325C236.54 478.952 230.019 485.183 222.037 485.183ZM222.037 459.537C215.254 459.537 209.724 464.82 209.724 471.301C209.724 477.781 215.254 483.064 222.037 483.064C228.819 483.064 234.349 477.781 234.349 471.301C234.349 464.82 228.819 459.537 222.037 459.537Z" fill="#00E0F7"/>
<path d="M356.948 373.002C361.01 373.002 364.304 369.855 364.304 365.974C364.304 362.092 361.01 358.945 356.948 358.945C352.885 358.945 349.592 362.092 349.592 365.974C349.592 369.855 352.885 373.002 356.948 373.002Z" fill="#00E0F7"/>
<path d="M356.949 379.831C348.941 379.831 342.445 373.6 342.445 365.974C342.445 358.347 348.967 352.116 356.949 352.116C364.931 352.116 371.452 358.347 371.452 365.974C371.452 373.6 364.931 379.831 356.949 379.831ZM356.949 354.185C350.167 354.185 344.637 359.469 344.637 365.949C344.637 372.429 350.167 377.713 356.949 377.713C363.731 377.713 369.261 372.429 369.261 365.949C369.261 359.469 363.731 354.185 356.949 354.185Z" fill="#00E0F7"/>
<path d="M646.546 740.475C650.608 740.475 653.902 737.328 653.902 733.446C653.902 729.564 650.608 726.418 646.546 726.418C642.483 726.418 639.189 729.564 639.189 733.446C639.189 737.328 642.483 740.475 646.546 740.475Z" fill="#00E0F7"/>
<path d="M646.546 747.304C638.538 747.304 632.043 741.073 632.043 733.446C632.043 725.819 638.564 719.589 646.546 719.589C654.528 719.589 661.05 725.819 661.05 733.446C661.05 741.073 654.528 747.304 646.546 747.304ZM646.546 721.657C639.764 721.657 634.234 726.941 634.234 733.421C634.234 739.901 639.764 745.185 646.546 745.185C653.329 745.185 658.859 739.901 658.859 733.421C658.859 726.941 653.329 721.657 646.546 721.657Z" fill="#00E0F7"/>
<path d="M825.36 613.439C829.423 613.439 832.716 610.293 832.716 606.411C832.716 602.529 829.423 599.383 825.36 599.383C821.297 599.383 818.004 602.529 818.004 606.411C818.004 610.293 821.297 613.439 825.36 613.439Z" fill="#00E0F7"/>
<path d="M825.361 620.268C817.353 620.268 810.857 614.038 810.857 606.411C810.857 598.784 817.379 592.553 825.361 592.553C833.343 592.553 839.864 598.784 839.864 606.411C839.864 614.038 833.343 620.268 825.361 620.268ZM825.361 594.622C818.579 594.622 813.049 599.906 813.049 606.386C813.049 612.866 818.579 618.15 825.361 618.15C832.143 618.15 837.673 612.866 837.673 606.386C837.673 599.906 832.143 594.622 825.361 594.622Z" fill="#00E0F7"/>
<path d="M1070.17 247.338C1074.23 247.338 1077.53 244.191 1077.53 240.31C1077.53 236.428 1074.23 233.281 1070.17 233.281C1066.11 233.281 1062.81 236.428 1062.81 240.31C1062.81 244.191 1066.11 247.338 1070.17 247.338Z" fill="#00E0F7"/>
<path d="M1070.17 254.192C1062.16 254.192 1055.67 247.961 1055.67 240.335C1055.67 232.708 1062.19 226.477 1070.17 226.477C1078.15 226.477 1084.67 232.708 1084.67 240.335C1084.67 247.961 1078.15 254.192 1070.17 254.192ZM1070.17 228.546C1063.39 228.546 1057.86 233.829 1057.86 240.31C1057.86 246.79 1063.39 252.073 1070.17 252.073C1076.95 252.073 1082.48 246.79 1082.48 240.31C1082.48 233.829 1076.95 228.546 1070.17 228.546Z" fill="#00E0F7"/>
<path d="M1288.35 89.3479C1292.41 89.3479 1295.7 86.2011 1295.7 82.3195C1295.7 78.4378 1292.41 75.291 1288.35 75.291C1284.28 75.291 1280.99 78.4378 1280.99 82.3195C1280.99 86.2011 1284.28 89.3479 1288.35 89.3479Z" fill="#00E0F7"/>
<path d="M1288.35 96.1769C1280.34 96.1769 1273.84 89.946 1273.84 82.3194C1273.84 74.6928 1280.37 68.4619 1288.35 68.4619C1296.33 68.4619 1302.85 74.6928 1302.85 82.3194C1302.85 89.946 1296.33 96.1769 1288.35 96.1769ZM1288.35 70.5306C1281.56 70.5306 1276.03 75.8144 1276.03 82.2945C1276.03 88.7746 1281.56 94.0584 1288.35 94.0584C1295.13 94.0584 1300.66 88.7746 1300.66 82.2945C1300.66 75.8144 1295.13 70.5306 1288.35 70.5306Z" fill="#00E0F7"/>
<path d="M1524.42 179.621C1524.42 183.509 1521.13 186.649 1517.06 186.649C1512.99 186.649 1509.71 183.509 1509.71 179.621C1509.71 175.733 1512.99 172.592 1517.06 172.592C1521.13 172.592 1524.42 175.733 1524.42 179.621Z" fill="#00E0F7"/>
<path d="M1517.06 193.478C1509.05 193.478 1502.56 187.247 1502.56 179.621C1502.56 171.994 1509.08 165.763 1517.06 165.763C1525.04 165.763 1531.57 171.994 1531.57 179.621C1531.57 187.247 1525.04 193.478 1517.06 193.478ZM1517.06 167.832C1510.28 167.832 1504.75 173.116 1504.75 179.596C1504.75 186.076 1510.28 191.36 1517.06 191.36C1523.84 191.36 1529.37 186.076 1529.37 179.596C1529.37 173.116 1523.84 167.832 1517.06 167.832Z" fill="#00E0F7"/>
<path d="M1734.56 21.7053C1738.63 21.7053 1741.92 18.5586 1741.92 14.6769C1741.92 10.7952 1738.63 7.64844 1734.56 7.64844C1730.5 7.64844 1727.21 10.7952 1727.21 14.6769C1727.21 18.5586 1730.5 21.7053 1734.56 21.7053Z" fill="#00E0F7"/>
<path d="M1734.56 28.5592C1726.55 28.5592 1720.06 22.3283 1720.06 14.7017C1720.06 7.07512 1726.58 0.844238 1734.56 0.844238C1742.54 0.844238 1749.07 7.07512 1749.07 14.7017C1749.07 22.3283 1742.54 28.5592 1734.56 28.5592ZM1734.56 2.91289C1727.78 2.91289 1722.25 8.19668 1722.25 14.6768C1722.25 21.1569 1727.78 26.4407 1734.56 26.4407C1741.34 26.4407 1746.87 21.1569 1746.87 14.6768C1746.87 8.19668 1741.34 2.91289 1734.56 2.91289Z" fill="#00E0F7"/>
<path d="M-37.6953 315.628L58.4287 227.897L222.035 471.325L356.948 365.974L646.546 733.471L825.36 606.535L1070.14 240.334L1288.4 82.3191L1517.11 179.596L1734.51 14.7515L1918.7 191.384" stroke="#FFFB9B" stroke-linecap="round" stroke-linejoin="round"/>
<defs>
<linearGradient id="paint0_linear_7_8874" x1="796.284" y1="59.2176" x2="1042.93" y2="1193.91" gradientUnits="userSpaceOnUse">
<stop offset="0.13" stop-color="#B7FBF7" stop-opacity="0.3"/>
<stop offset="0.17" stop-color="#BFD8FB" stop-opacity="0.27"/>
<stop offset="0.3" stop-color="#DAE9FC" stop-opacity="0.15"/>
<stop offset="0.43" stop-color="#EEF5FE" stop-opacity="0.07"/>
<stop offset="0.56" stop-color="#FAFCFE" stop-opacity="0.02"/>
<stop offset="0.685366" stop-color="white" stop-opacity="0"/>
</linearGradient>
</defs>
</svg>
