<svg width="1919" height="648" viewBox="0 0 1919 648" fill="none" xmlns="http://www.w3.org/2000/svg">
<path d="M1918.7 647.078H1915.98V644.586H1918.7V647.078ZM1908.13 647.004C1905.52 646.979 1902.92 646.904 1900.28 646.854L1900.36 644.362C1902.97 644.436 1905.58 644.486 1908.18 644.511L1908.13 647.004ZM1892.43 646.63C1889.82 646.53 1887.21 646.43 1884.6 646.306L1884.73 643.813C1887.34 643.938 1889.95 644.038 1892.53 644.112L1892.43 646.605V646.63ZM1876.78 645.932C1874.17 645.782 1871.56 645.633 1868.95 645.458L1869.13 642.966C1871.74 643.14 1874.33 643.29 1876.93 643.439L1876.78 645.932ZM1861.13 644.935C1858.52 644.736 1855.94 644.536 1853.33 644.312L1853.56 641.819C1856.17 642.044 1858.75 642.243 1861.36 642.443L1861.15 644.935H1861.13ZM1845.5 643.639C1842.92 643.39 1840.31 643.14 1837.7 642.866L1837.99 640.399C1840.6 640.673 1843.18 640.922 1845.76 641.147L1845.5 643.639ZM1829.93 642.044C1827.35 641.745 1824.74 641.446 1822.16 641.147L1822.47 638.679C1825.05 638.978 1827.63 639.302 1830.22 639.576L1829.9 642.044H1829.93ZM1814.38 640.174C1811.8 639.85 1809.22 639.502 1806.61 639.153L1806.97 636.685C1809.56 637.034 1812.14 637.383 1814.72 637.707L1814.38 640.174ZM1798.86 638.056C1796.28 637.682 1793.7 637.283 1791.11 636.885L1791.53 634.417C1794.11 634.816 1796.7 635.19 1799.25 635.564L1798.86 638.031V638.056ZM1783.39 635.663C1780.81 635.24 1778.25 634.816 1775.67 634.392L1776.14 631.95C1778.7 632.398 1781.28 632.822 1783.84 633.221L1783.39 635.688V635.663ZM1767.98 633.046C1765.42 632.598 1762.84 632.124 1760.28 631.651L1760.78 629.208C1763.33 629.682 1765.89 630.155 1768.45 630.604L1767.98 633.046ZM1752.59 630.18C1750.03 629.682 1747.47 629.183 1744.92 628.66L1745.46 626.217C1748.02 626.741 1750.58 627.239 1753.11 627.738L1752.59 630.18ZM1737.25 627.09C1734.69 626.566 1732.16 626.018 1729.6 625.47L1730.18 623.052C1732.74 623.6 1735.27 624.149 1737.8 624.672L1737.25 627.115V627.09ZM1721.96 623.775C1719.43 623.202 1716.88 622.628 1714.34 622.055L1714.95 619.638C1717.48 620.236 1720.01 620.809 1722.56 621.357L1721.96 623.775ZM1706.73 620.261C1704.2 619.662 1701.67 619.039 1699.14 618.416L1699.79 615.999C1702.32 616.622 1704.85 617.22 1707.35 617.818L1706.73 620.236V620.261ZM1691.55 616.547C1689.02 615.924 1686.51 615.276 1683.98 614.603L1684.66 612.21C1687.19 612.858 1689.69 613.506 1692.2 614.129L1691.52 616.547H1691.55ZM1676.42 612.634C1673.91 611.961 1671.38 611.288 1668.88 610.615L1669.58 608.223C1672.09 608.896 1674.59 609.568 1677.1 610.241L1676.39 612.634H1676.42ZM1661.34 608.547C1658.84 607.849 1656.33 607.151 1653.83 606.428L1654.58 604.035C1657.09 604.758 1659.59 605.456 1662.07 606.154L1661.34 608.547ZM1646.31 604.26C1643.84 603.537 1641.33 602.814 1638.83 602.067L1639.61 599.674C1642.12 600.422 1644.59 601.144 1647.07 601.867L1646.31 604.26ZM1631.37 599.823C1628.89 599.076 1626.39 598.303 1623.91 597.53L1624.72 595.163C1627.19 595.935 1629.67 596.683 1632.15 597.456L1631.37 599.823ZM1616.47 595.213C1614 594.44 1611.52 593.642 1609.04 592.845L1609.87 590.477C1612.35 591.275 1614.83 592.047 1617.28 592.845L1616.47 595.213ZM1601.63 590.452C1599.15 589.655 1596.7 588.832 1594.22 588.01L1595.08 585.642C1597.56 586.464 1600.01 587.287 1602.47 588.084L1601.63 590.452ZM1586.84 585.542C1584.39 584.695 1581.94 583.872 1579.46 583.025L1580.35 580.682C1582.8 581.529 1585.25 582.352 1587.7 583.199L1586.84 585.542ZM1572.1 580.483C1569.65 579.635 1567.2 578.763 1564.75 577.891L1565.66 575.548C1568.11 576.42 1570.56 577.268 1572.99 578.14L1572.1 580.483ZM1557.42 575.274C1554.96 574.401 1552.54 573.504 1550.09 572.632L1551.03 570.314C1553.45 571.211 1555.9 572.083 1558.33 572.956L1557.42 575.299V575.274ZM1542.78 569.94C1540.36 569.043 1537.93 568.146 1535.48 567.223L1536.44 564.906C1538.87 565.828 1541.3 566.725 1543.72 567.622L1542.78 569.94ZM1528.2 564.482C1525.77 563.56 1523.35 562.637 1520.92 561.69L1521.91 559.373C1524.34 560.32 1526.77 561.242 1529.17 562.164L1528.2 564.482ZM1513.67 558.874C1511.27 557.927 1508.85 556.98 1506.42 556.033L1507.41 553.74C1509.81 554.687 1512.24 555.634 1514.64 556.581L1513.65 558.899L1513.67 558.874ZM1499.19 553.167C1496.79 552.194 1494.39 551.247 1491.97 550.275L1492.99 547.982C1495.39 548.954 1497.79 549.926 1500.19 550.874L1499.17 553.167H1499.19ZM1484.77 547.334C1482.37 546.362 1479.97 545.365 1477.57 544.369L1478.61 542.076C1481.01 543.073 1483.41 544.045 1485.79 545.041L1484.77 547.334ZM1470.4 541.403C1468 540.406 1465.62 539.409 1463.22 538.387L1464.27 536.119C1466.67 537.141 1469.04 538.138 1471.41 539.135L1470.37 541.428L1470.4 541.403ZM1456.08 535.346L1448.93 532.281L1450 530.013L1457.14 533.078L1456.08 535.346ZM1441.81 529.19C1439.43 528.168 1437.06 527.121 1434.69 526.075L1435.78 523.807C1438.15 524.853 1440.53 525.875 1442.9 526.922L1441.83 529.19H1441.81ZM1427.59 522.934L1420.5 519.769L1421.59 517.501L1428.69 520.666L1427.59 522.934ZM1413.43 516.579C1411.08 515.507 1408.7 514.435 1406.36 513.364L1407.48 511.121C1409.83 512.192 1412.2 513.264 1414.55 514.336L1413.43 516.579ZM1399.29 510.124C1396.94 509.052 1394.59 507.955 1392.24 506.859L1393.39 504.616C1395.74 505.712 1398.09 506.784 1400.44 507.881L1399.31 510.124H1399.29ZM1385.2 503.594C1382.85 502.497 1380.53 501.4 1378.18 500.304L1379.33 498.061C1381.68 499.157 1384 500.254 1386.35 501.351L1385.2 503.594ZM1371.17 496.964L1364.15 493.624L1365.32 491.406L1372.32 494.746L1371.14 496.964H1371.17ZM1357.16 490.26L1350.17 486.87L1351.34 484.652L1358.31 488.041L1357.13 490.26H1357.16ZM1343.2 483.48L1336.24 480.066L1337.44 477.848L1344.4 481.262L1343.2 483.48ZM1329.3 476.626C1326.98 475.48 1324.68 474.333 1322.36 473.162L1323.56 470.944C1325.88 472.09 1328.18 473.262 1330.5 474.408L1329.3 476.626ZM1315.42 469.698C1313.13 468.551 1310.81 467.38 1308.51 466.208L1309.74 464.015C1312.03 465.187 1314.35 466.358 1316.65 467.504L1315.45 469.698H1315.42ZM1301.6 462.694L1294.69 459.155L1295.91 456.962L1302.8 460.476L1301.57 462.669L1301.6 462.694ZM1287.8 455.616L1280.91 452.052L1282.17 449.859L1289.05 453.423L1287.8 455.616ZM1274.05 448.463L1267.19 444.849L1268.44 442.656L1275.3 446.245L1274.05 448.438V448.463ZM1260.33 441.235L1253.5 437.596L1254.78 435.428L1261.61 439.067L1260.36 441.26L1260.33 441.235ZM1246.66 433.957L1239.83 430.294L1241.11 428.125L1247.92 431.789L1246.64 433.957H1246.66ZM1233.02 426.605L1226.21 422.916L1227.49 420.748L1234.3 424.437L1233.02 426.605ZM1219.4 419.203L1212.62 415.489L1213.93 413.321L1220.71 417.034L1219.4 419.203ZM1205.84 411.75L1199.06 408.012L1200.36 405.869L1207.12 409.607L1205.81 411.775L1205.84 411.75ZM1192.3 404.224L1185.55 400.435L1186.88 398.292L1193.63 402.055L1192.33 404.199L1192.3 404.224ZM1178.79 396.647L1172.06 392.834L1173.39 390.69L1180.12 394.479L1178.79 396.622V396.647ZM1165.33 389.02L1158.6 385.182L1159.93 383.039L1166.66 386.877L1165.33 389.02ZM1151.9 381.344L1145.19 377.481L1146.55 375.337L1153.25 379.175L1151.92 381.319L1151.9 381.344ZM1138.49 373.617L1131.78 369.729L1133.14 367.611L1139.82 371.474L1138.46 373.617H1138.49ZM1125.11 365.841L1118.43 361.953L1119.78 359.835L1126.46 363.723L1125.11 365.841ZM1111.75 358.04L1105.1 354.127L1106.48 352.009L1113.13 355.922L1111.78 358.04H1111.75ZM1098.42 350.189L1091.77 346.251L1093.15 344.133L1099.8 348.071L1098.42 350.189ZM1085.12 342.289L1078.49 338.326L1079.87 336.207L1086.5 340.17L1085.12 342.289ZM1071.87 334.338L1065.24 330.35L1066.62 328.232L1073.25 332.22L1071.87 334.338ZM1058.61 326.363L1051.99 322.35L1053.4 320.256L1060 324.269L1058.59 326.363H1058.61ZM1045.39 318.337L1038.79 314.3L1040.2 312.206L1046.8 316.219L1045.39 318.312V318.337ZM1032.22 310.287L1025.62 306.249L1027.03 304.156L1033.6 308.193L1032.19 310.287H1032.22ZM1019.04 302.187L1012.47 298.124L1013.88 296.031L1020.45 300.093L1019.04 302.187ZM1005.9 294.062L999.349 289.974L1000.76 287.881L1007.31 291.968L1005.9 294.062ZM992.776 285.887L986.228 281.799L987.663 279.706L994.21 283.793L992.776 285.887ZM979.681 277.687L973.134 273.574L974.568 271.506L981.09 275.618L979.655 277.712L979.681 277.687ZM966.612 269.462L960.091 265.375L961.526 263.281L968.047 267.393L966.612 269.462ZM953.544 261.262L946.996 257.175L948.431 255.081L954.978 259.169L953.544 261.262ZM940.449 253.087L933.901 249.025L935.31 246.931L941.883 251.019L940.449 253.112V253.087ZM927.328 244.962L920.754 240.9L922.163 238.806L928.736 242.869L927.328 244.962ZM914.181 236.862L907.608 232.825L909.016 230.731L915.616 234.769L914.207 236.862H914.181ZM901.008 228.812L894.408 224.799L895.817 222.706L902.416 226.718L901.008 228.812ZM887.809 220.811L881.183 216.824L882.566 214.705L889.191 218.693L887.809 220.811ZM874.557 212.861L867.932 208.898L869.314 206.779L875.966 210.742L874.584 212.861H874.557ZM861.28 204.96L854.628 201.022L855.985 198.904L862.637 202.842L861.254 204.96H861.28ZM847.977 197.109L841.299 193.221L842.655 191.103L849.333 195.016L847.977 197.134V197.109ZM834.621 189.333L827.917 185.47L829.274 183.326L835.977 187.19L834.621 189.333ZM821.213 181.632L814.509 177.793L815.84 175.65L822.57 179.488L821.239 181.632H821.213ZM807.779 174.005L801.049 170.217L802.38 168.073L809.136 171.862L807.805 174.005H807.779ZM794.293 166.453C792.024 165.207 789.78 163.961 787.537 162.715L788.841 160.546C791.085 161.792 793.354 163.039 795.624 164.285L794.319 166.428L794.293 166.453ZM780.755 158.976C778.486 157.73 776.216 156.509 773.973 155.287L775.251 153.119C777.52 154.34 779.79 155.587 782.059 156.833L780.755 159.001V158.976ZM767.165 151.599C764.895 150.378 762.626 149.156 760.33 147.935L761.609 145.767C763.878 146.988 766.147 148.209 768.443 149.43L767.165 151.599ZM753.496 144.321C751.2 143.125 748.931 141.904 746.636 140.707L747.888 138.514C750.183 139.71 752.453 140.907 754.748 142.128L753.496 144.321ZM739.775 137.143C737.48 135.947 735.184 134.775 732.889 133.604L734.115 131.411C736.41 132.582 738.706 133.778 741.001 134.975L739.749 137.168L739.775 137.143ZM726.002 130.065C723.707 128.893 721.385 127.722 719.09 126.576L720.289 124.382C722.585 125.529 724.907 126.7 727.202 127.872L725.976 130.065H726.002ZM712.151 123.111C709.829 121.965 707.508 120.818 705.212 119.672L706.412 117.454C708.734 118.6 711.055 119.747 713.377 120.893L712.177 123.111H712.151ZM698.248 116.282C695.926 115.161 693.578 114.039 691.257 112.917L692.43 110.699C694.752 111.821 697.1 112.942 699.421 114.064L698.248 116.282ZM684.266 109.578C681.918 108.481 679.597 107.36 677.249 106.288L678.397 104.045C680.744 105.141 683.092 106.238 685.414 107.36L684.266 109.603V109.578ZM670.232 103.023C667.884 101.951 665.537 100.854 663.189 99.8077L664.311 97.5646C666.658 98.6363 669.006 99.708 671.38 100.805L670.258 103.048L670.232 103.023ZM656.12 96.6175C653.746 95.5707 651.398 94.499 649.025 93.4771L650.12 91.2091C652.494 92.2559 654.842 93.3027 657.215 94.3744L656.12 96.6424V96.6175ZM641.93 90.3617C639.556 89.3398 637.182 88.318 634.808 87.2961L635.878 85.0281C638.251 86.0499 640.625 87.0718 643.025 88.0936L641.956 90.3617H641.93ZM627.661 84.2554C625.261 83.2585 622.887 82.2615 620.487 81.2646L621.531 78.9716C623.931 79.9686 626.304 80.9655 628.704 81.9625L627.661 84.2554ZM613.314 78.3236C610.914 77.3516 608.514 76.3796 606.114 75.4325L607.106 73.1395C609.506 74.0866 611.905 75.0587 614.331 76.0556L613.314 78.3486V78.3236ZM598.889 72.5663C596.463 71.6192 594.063 70.697 591.637 69.7499L592.602 67.432C595.028 68.3542 597.428 69.3013 599.854 70.2484L598.863 72.5663H598.889ZM584.385 67.0084C581.96 66.0862 579.534 65.1889 577.108 64.2917L578.047 61.9738C580.473 62.871 582.925 63.7683 585.351 64.6905L584.385 67.0084ZM569.804 61.6249C567.378 60.7525 564.926 59.8802 562.474 59.0079L563.387 56.6651C565.839 57.5374 568.291 58.4097 570.717 59.2821L569.804 61.6249ZM555.144 56.4657C552.692 55.6183 550.24 54.7958 547.788 53.9484L548.649 51.6056C551.101 52.4281 553.579 53.2755 556.031 54.1229L555.144 56.4657ZM540.406 51.5059C537.928 50.6834 535.476 49.8859 532.998 49.1133L533.832 46.7455C536.31 47.5431 538.789 48.3406 541.241 49.1631L540.38 51.5308L540.406 51.5059ZM525.589 46.7455C523.111 45.9729 520.659 45.2252 518.181 44.4526L518.964 42.0848C521.442 42.8325 523.92 43.6052 526.398 44.3778L525.589 46.7455ZM510.747 42.2344C508.269 41.5116 505.791 40.7888 503.287 40.066L504.043 37.6734C506.547 38.3962 509.025 39.1189 511.503 39.8417L510.721 42.2344H510.747ZM495.826 37.9475C493.322 37.2497 490.844 36.5767 488.34 35.8789L489.044 33.4862C491.548 34.1592 494.052 34.857 496.557 35.5549L495.826 37.9475ZM-37.4079 36.5518L-38.0078 34.1342C-35.4515 33.561 -32.9212 33.0127 -30.3648 32.4644L-29.791 34.9069C-32.3212 35.4552 -34.8776 36.0035 -37.4079 36.5767V36.5518ZM480.723 33.8601C478.219 33.2121 475.715 32.564 473.184 31.916L473.862 29.4984C476.393 30.1465 478.897 30.7945 481.427 31.4425L480.749 33.8351L480.723 33.8601ZM-22.148 33.2619L-22.7219 30.8194C-20.1655 30.2711 -17.6092 29.7477 -15.0789 29.2243L-14.5311 31.6668C-17.0614 32.1902 -19.6177 32.7136 -22.1741 33.2619H-22.148ZM-6.86206 30.0966L-7.40985 27.6541C-4.8535 27.1307 -2.29715 26.6322 0.259205 26.1338L0.780908 28.5763C-1.77544 29.0748 -4.30571 29.5732 -6.86206 30.0966ZM465.646 30.0468C463.115 29.4237 460.611 28.8255 458.081 28.2274L458.707 25.8098C461.237 26.4079 463.767 27.0061 466.298 27.6292L465.646 30.0468ZM8.44997 27.0809L7.92826 24.6384C10.4846 24.1399 13.0671 23.6663 15.6234 23.1928L16.119 25.6353C13.5627 26.1089 11.0063 26.5824 8.44997 27.0809ZM450.49 26.4578C447.96 25.8845 445.43 25.3113 442.873 24.763L443.447 22.3454C446.003 22.8937 448.534 23.467 451.09 24.0402L450.49 26.4578ZM23.7881 24.2147L23.2925 21.7722C25.8749 21.2986 28.4312 20.85 30.9876 20.4014L31.4571 22.8439C28.9008 23.2925 26.3444 23.7411 23.762 24.2147H23.7881ZM435.23 23.143C432.674 22.6196 430.144 22.0962 427.587 21.5728L428.135 19.1303C430.691 19.6537 433.248 20.1771 435.804 20.7004L435.256 23.143H435.23ZM39.1523 21.5229L38.6827 19.0804C41.2652 18.6318 43.8215 18.2081 46.404 17.7844L46.8474 20.2518C44.2911 20.6755 41.7086 21.0992 39.1523 21.5478V21.5229ZM419.918 20.0774C417.362 19.5789 414.806 19.1053 412.249 18.6318L412.745 16.1893C415.327 16.6628 417.884 17.1364 420.44 17.6349L419.918 20.0774ZM54.5425 18.9807L54.1252 16.5133C56.7076 16.0896 59.2901 15.6908 61.8464 15.292L62.2638 17.7595C59.7074 18.1582 57.125 18.557 54.5425 18.9558V18.9807ZM404.528 17.261C401.972 16.8124 399.389 16.3638 396.807 15.9401L397.25 13.4726C399.833 13.8963 402.415 14.345 404.971 14.7936L404.502 17.2361L404.528 17.261ZM69.985 16.613L69.5937 14.1456C72.1762 13.7717 74.7586 13.3979 77.341 13.024L77.7323 15.4914C75.176 15.8653 72.5935 16.2391 70.0111 16.613H69.985ZM389.112 14.6939C386.529 14.2951 383.947 13.8963 381.364 13.5225L381.756 11.055C384.338 11.4289 386.946 11.8277 389.529 12.2514L389.112 14.7188V14.6939ZM85.4535 14.3948L85.0883 11.9274C87.6708 11.5784 90.2532 11.2295 92.8356 10.8806L93.2008 13.348C90.6184 13.672 88.036 14.0209 85.4535 14.3699V14.3948ZM373.617 12.376C371.034 12.0271 368.478 11.6781 365.896 11.3292L366.261 8.86178C368.843 9.21071 371.426 9.55964 374.008 9.90857L373.643 12.376H373.617ZM100.948 12.376L100.609 9.90857C103.218 9.58456 105.8 9.26055 108.382 8.96147L108.695 11.4289C106.113 11.728 103.531 12.052 100.948 12.376ZM116.469 10.5317L116.156 8.06422C118.764 7.76514 121.347 7.49098 123.929 7.21682L124.216 9.68426C121.634 9.95842 119.051 10.2326 116.443 10.5317H116.469ZM358.148 10.3572C355.566 10.0332 352.984 9.7341 350.401 9.43502L350.714 6.96759C353.323 7.26667 355.905 7.56575 358.488 7.88976L358.148 10.3572ZM132.016 8.91162L131.755 6.44419C134.363 6.19496 136.972 5.94572 139.554 5.69649L139.815 8.18884C137.233 8.43807 134.624 8.68731 132.042 8.93654L132.016 8.91162ZM342.628 8.58762C340.045 8.31346 337.463 8.0393 334.854 7.79006L335.115 5.29771C337.724 5.54695 340.306 5.8211 342.915 6.09526L342.628 8.5627V8.58762ZM147.562 7.46606L147.328 4.9737C149.936 4.74939 152.545 4.52508 155.127 4.3257L155.336 6.81805C152.753 7.01744 150.145 7.24174 147.562 7.46606ZM327.081 7.09221C324.498 6.8679 321.89 6.64358 319.308 6.44419L319.516 3.95184C322.125 4.15123 324.733 4.37554 327.316 4.59986L327.081 7.09221ZM163.135 6.24481L162.927 3.75246C165.535 3.55307 168.144 3.3786 170.752 3.20414L170.935 5.69649C168.352 5.87095 165.744 6.04542 163.135 6.24481ZM311.508 5.84603C308.926 5.64664 306.317 5.47218 303.709 5.32264L303.891 2.83029C306.5 3.00475 309.108 3.17922 311.717 3.35368L311.508 5.84603ZM178.734 5.22294L178.578 2.73059C181.186 2.58105 183.795 2.4315 186.403 2.30689L186.534 4.79924C183.951 4.92386 181.343 5.0734 178.734 5.22294ZM295.909 4.84909C293.327 4.69955 290.718 4.57493 288.11 4.45031L288.24 1.95796C290.849 2.08258 293.457 2.20719 296.066 2.35674L295.909 4.84909ZM194.333 4.40046L194.203 1.90811C196.811 1.78349 199.42 1.68381 202.028 1.58411L202.133 4.07646C199.524 4.17616 196.942 4.27585 194.333 4.40046ZM280.31 4.10138C277.702 4.00169 275.119 3.90199 272.511 3.82722L272.589 1.33487C275.197 1.40964 277.806 1.50934 280.414 1.60903L280.31 4.10138ZM209.958 3.82722L209.88 1.33487C212.489 1.2601 215.097 1.18534 217.706 1.13549L217.758 3.62784C215.149 3.67769 212.567 3.75245 209.958 3.82722ZM264.685 3.62784C262.077 3.57799 259.494 3.52814 256.886 3.4783L256.938 0.985944C259.546 1.03579 262.155 1.08564 264.763 1.13549L264.711 3.62784H264.685ZM225.609 3.4783L225.557 0.985944C228.192 0.936097 230.8 0.911171 233.409 0.886247V3.3786C230.826 3.3786 228.218 3.42845 225.583 3.4783H225.609ZM249.06 3.3786C246.478 3.3786 243.869 3.35368 241.261 3.35368V0.861328H241.469C243.869 0.861328 246.478 0.861328 249.06 0.861328V3.35368V3.3786Z" fill="#FFEB80"/>
</svg>
