<svg width="837" height="287" viewBox="0 0 837 287" fill="none" xmlns="http://www.w3.org/2000/svg">
<g filter="url(#filter0_d_7_9173)">
<path d="M68.6418 199V225H62V199M229.491 199V225H236.132V199M473.228 199V225H479.87V199M88.9769 199V225H95.6187V199M301.196 199V225H307.837V199M323.467 199V225H330.108V199M623.02 199V225H629.661V199M685.454 199V225H692.096V199M746.087 199V225H752.729V199M768.358 199V225H775V199M388.597 199V225H395.239V199M463.377 199V225H470.019V199" fill="#00E0F7"/>
<path d="M704.605 172.58V62H775.032V75.1755H719.82V110.624H767.189V123.799H719.82V159.405H775.032V172.58H704.605Z" fill="#00E0F7"/>
<path d="M677.487 170.071C674.873 172.79 671.579 174.149 667.605 174.149C663.631 174.149 660.338 172.842 657.723 170.228C655.214 167.509 653.959 164.163 653.959 160.19C653.959 156.321 655.214 153.079 657.723 150.465C660.338 147.746 663.631 146.387 667.605 146.387C671.474 146.387 674.768 147.746 677.487 150.465C680.205 153.079 681.565 156.321 681.565 160.19C681.565 164.059 680.205 167.353 677.487 170.071Z" fill="#00E0F7"/>
<path d="M554.85 62H570.064L603.317 168.345H607.552L640.804 62H656.019L621.198 172.58H589.671L554.85 62Z" fill="#00E0F7"/>
<path d="M533.998 170.071C531.384 172.79 528.09 174.149 524.117 174.149C520.143 174.149 516.849 172.842 514.235 170.228C511.725 167.509 510.471 164.163 510.471 160.19C510.471 156.321 511.725 153.079 514.235 150.465C516.849 147.746 520.143 146.387 524.117 146.387C527.986 146.387 531.28 147.746 533.998 150.465C536.717 153.079 538.077 156.321 538.077 160.19C538.077 164.059 536.717 167.353 533.998 170.071Z" fill="#00E0F7"/>
<path d="M420.076 172.58V62H490.502V75.1755H435.291V110.624H482.66V123.799H435.291V159.405H490.502V172.58H420.076Z" fill="#00E0F7"/>
<path d="M392.967 170.071C390.353 172.79 387.059 174.149 383.086 174.149C379.112 174.149 375.818 172.842 373.204 170.228C370.694 167.509 369.439 164.163 369.439 160.19C369.439 156.321 370.694 153.079 373.204 150.465C375.818 147.746 379.112 146.387 383.086 146.387C386.955 146.387 390.248 147.746 392.967 150.465C395.686 153.079 397.045 156.321 397.045 160.19C397.045 164.059 395.686 167.353 392.967 170.071Z" fill="#00E0F7"/>
<path d="M337.435 172.58L324.416 130.858H279.714L266.695 172.58H251.48L286.301 62H317.829L352.65 172.58H337.435ZM283.792 117.682H320.338L304.183 66.235H299.948L283.792 117.682Z" fill="#00E0F7"/>
<path d="M230.637 170.071C228.023 172.79 224.729 174.149 220.755 174.149C216.782 174.149 213.488 172.842 210.874 170.228C208.364 167.509 207.109 164.163 207.109 160.19C207.109 156.321 208.364 153.079 210.874 150.465C213.488 147.746 216.782 146.387 220.755 146.387C224.624 146.387 227.918 147.746 230.637 150.465C233.356 153.079 234.715 156.321 234.715 160.19C234.715 164.059 233.356 167.353 230.637 170.071Z" fill="#00E0F7"/>
<path d="M62.1855 172.58V62H92.6147L121.005 168.345H125.24L153.63 62H184.059V172.58H168.845V76.5872L171.354 66.235H167.276L138.258 172.58H107.829L78.9686 66.235H74.7337L77.4001 76.5872V172.58H62.1855Z" fill="#00E0F7"/>
</g>
<defs>
<filter id="filter0_d_7_9173" x="0.400002" y="0.400002" width="836.232" height="286.2" filterUnits="userSpaceOnUse" color-interpolation-filters="sRGB">
<feFlood flood-opacity="0" result="BackgroundImageFix"/>
<feColorMatrix in="SourceAlpha" type="matrix" values="0 0 0 0 0 0 0 0 0 0 0 0 0 0 0 0 0 0 127 0" result="hardAlpha"/>
<feOffset/>
<feGaussianBlur stdDeviation="30.8"/>
<feComposite in2="hardAlpha" operator="out"/>
<feColorMatrix type="matrix" values="0 0 0 0 0 0 0 0 0 0.878431 0 0 0 0 0.968627 0 0 0 0.5 0"/>
<feBlend mode="normal" in2="BackgroundImageFix" result="effect1_dropShadow_7_9173"/>
<feBlend mode="normal" in="SourceGraphic" in2="effect1_dropShadow_7_9173" result="shape"/>
</filter>
</defs>
</svg>
