<svg width="114" height="114" viewBox="0 0 114 114" fill="none" xmlns="http://www.w3.org/2000/svg">
<g filter="url(#filter0_f_7_5076)">
<g filter="url(#filter1_d_7_5076)">
<ellipse cx="56.8181" cy="56.7657" rx="30.5884" ry="30.118" transform="rotate(61.6217 56.8181 56.7657)" fill="#FF532E"/>
</g>
<path d="M66.5279 37.287L50.799 76.7587L46.4837 75.0391L62.2125 35.5674L66.5279 37.287ZM45.3782 59.2624C44.4653 61.5533 44.5525 63.4714 45.6398 65.0168C46.7394 66.5312 48.8528 67.9115 51.9799 69.1576C54.7943 70.2791 57.0124 70.7145 58.6342 70.4639C60.2559 70.2133 61.4122 69.2212 62.1031 67.4875C62.5842 66.2802 62.751 65.2704 62.6036 64.4583C62.4874 63.6586 62.0906 62.9266 61.4133 62.262C60.7359 61.5975 59.6459 60.7865 58.1432 59.8289L57.542 59.4279L53.9263 57.18C50.6831 55.1342 48.4445 53.0225 47.2106 50.8447C45.989 48.636 45.9272 46.154 47.0251 43.3987C47.7529 41.5722 48.8791 40.1555 50.4037 39.1486C51.9282 38.1418 53.7454 37.6283 55.8551 37.608C57.9773 37.5568 60.2579 38.0172 62.697 38.9891C65.355 40.0483 67.4964 41.4038 69.121 43.0557C70.7457 44.7075 71.7565 46.5812 72.1536 48.6766C72.5942 50.7535 72.3396 52.9839 71.3897 55.3677L66.8867 53.5733C67.7749 51.3443 67.6593 49.361 66.5399 47.6235C65.4641 45.8674 63.5971 44.4598 60.9391 43.4007C58.3436 42.3664 56.2757 42.0087 54.7354 42.3277C53.2387 42.6281 52.1696 43.5832 51.5281 45.1931C50.936 46.6791 50.986 48.0084 51.6783 49.1811C52.3829 50.3229 53.7182 51.5186 55.6843 52.7684L59.2999 55.0164C61.5976 56.4342 63.402 57.8169 64.7131 59.1644C66.0242 60.512 66.8741 62.0166 67.2628 63.6782C67.6828 65.3523 67.4795 67.2264 66.653 69.3006C65.8635 71.2819 64.6439 72.7511 62.9943 73.7081C61.3447 74.665 59.4024 75.1287 57.1676 75.0992C54.9763 75.0511 52.6611 74.5411 50.222 73.5691C45.9691 71.8744 42.9965 69.6495 41.3042 66.8945C39.6242 64.1085 39.4812 60.9663 40.8752 57.468L45.3782 59.2624Z" fill="#752615"/>
</g>
<defs>
<filter id="filter0_f_7_5076" x="19.6118" y="19.3012" width="74.4124" height="74.9289" filterUnits="userSpaceOnUse" color-interpolation-filters="sRGB">
<feFlood flood-opacity="0" result="BackgroundImageFix"/>
<feBlend mode="normal" in="SourceGraphic" in2="BackgroundImageFix" result="shape"/>
<feGaussianBlur stdDeviation="3.48785" result="effect1_foregroundBlur_7_5076"/>
</filter>
<filter id="filter1_d_7_5076" x="26.5875" y="26.2769" width="63.1979" height="64.6267" filterUnits="userSpaceOnUse" color-interpolation-filters="sRGB">
<feFlood flood-opacity="0" result="BackgroundImageFix"/>
<feColorMatrix in="SourceAlpha" type="matrix" values="0 0 0 0 0 0 0 0 0 0 0 0 0 0 0 0 0 0 127 0" result="hardAlpha"/>
<feOffset dx="2.73684" dy="3.64912"/>
<feComposite in2="hardAlpha" operator="out"/>
<feColorMatrix type="matrix" values="0 0 0 0 0.458333 0 0 0 0 0.150292 0 0 0 0 0.0840278 0 0 0 1 0"/>
<feBlend mode="normal" in2="BackgroundImageFix" result="effect1_dropShadow_7_5076"/>
<feBlend mode="normal" in="SourceGraphic" in2="effect1_dropShadow_7_5076" result="shape"/>
</filter>
</defs>
</svg>
