<svg width="171" height="151" viewBox="0 0 171 151" fill="none" xmlns="http://www.w3.org/2000/svg">
<g opacity="0.7" filter="url(#filter0_f_7_5269)">
<g filter="url(#filter1_d_7_5269)">
<ellipse cx="112.156" cy="112.138" rx="59.4438" ry="58.5297" transform="rotate(70.1605 112.156 112.138)" fill="#FF532E"/>
</g>
<path d="M136.436 77.5052L94.8189 148.824L87.0218 144.274L128.639 72.9552L136.436 77.5052ZM89.4495 113.635C87.0341 117.774 86.6482 121.486 88.2919 124.769C89.9682 127.997 93.6315 131.259 99.2816 134.557C104.367 137.524 108.504 139.001 111.693 138.987C114.882 138.973 117.39 137.4 119.218 134.268C120.491 132.087 121.103 130.194 121.054 128.591C121.062 127.021 120.51 125.499 119.4 124.027C118.29 122.554 116.43 120.681 113.818 118.407L112.778 117.463L106.478 112.1C100.836 107.232 97.1429 102.528 95.3999 97.9866C93.6896 93.3893 94.287 88.6016 97.192 83.6233C99.1179 80.323 101.691 77.9254 104.911 76.4304C108.132 74.9353 111.772 74.4727 115.833 75.0426C119.926 75.5565 124.176 77.0993 128.583 79.671C133.385 82.4735 137.11 85.6964 139.755 89.3398C142.401 92.9831 143.803 96.8756 143.961 101.017C144.209 105.136 143.076 109.349 140.563 113.656L132.426 108.908C134.777 104.88 135.127 101.036 133.477 97.3734C131.916 93.6882 128.734 90.4444 123.931 87.6419C119.242 84.9053 115.371 83.6213 112.319 83.7897C109.356 83.9353 107.026 85.4624 105.328 88.371C103.761 91.056 103.474 93.6252 104.466 96.0786C105.491 98.4761 107.712 101.159 111.13 104.129L117.43 109.492C121.436 112.88 124.505 116.058 126.636 119.026C128.767 121.994 129.966 125.131 130.233 128.436C130.558 131.774 129.626 135.318 127.439 139.065C125.35 142.645 122.582 145.117 119.136 146.48C115.69 147.843 111.823 148.174 107.537 147.472C103.34 146.747 99.0373 145.099 94.6302 142.527C86.9461 138.043 81.8753 132.91 79.4179 127.127C76.9931 121.288 77.625 115.208 81.3134 108.887L89.4495 113.635Z" fill="#752615"/>
</g>
<defs>
<filter id="filter0_f_7_5269" x="42.8748" y="42.1526" width="138.563" height="139.97" filterUnits="userSpaceOnUse" color-interpolation-filters="sRGB">
<feFlood flood-opacity="0" result="BackgroundImageFix"/>
<feBlend mode="normal" in="SourceGraphic" in2="BackgroundImageFix" result="shape"/>
<feGaussianBlur stdDeviation="5.31482" result="effect1_foregroundBlur_7_5269"/>
</filter>
<filter id="filter1_d_7_5269" x="53.5044" y="52.7822" width="120.04" height="122.36" filterUnits="userSpaceOnUse" color-interpolation-filters="sRGB">
<feFlood flood-opacity="0" result="BackgroundImageFix"/>
<feColorMatrix in="SourceAlpha" type="matrix" values="0 0 0 0 0 0 0 0 0 0 0 0 0 0 0 0 0 0 127 0" result="hardAlpha"/>
<feOffset dx="2.73684" dy="3.64912"/>
<feComposite in2="hardAlpha" operator="out"/>
<feColorMatrix type="matrix" values="0 0 0 0 0.458333 0 0 0 0 0.150292 0 0 0 0 0.0840278 0 0 0 1 0"/>
<feBlend mode="normal" in2="BackgroundImageFix" result="effect1_dropShadow_7_5269"/>
<feBlend mode="normal" in="SourceGraphic" in2="effect1_dropShadow_7_5269" result="shape"/>
</filter>
</defs>
</svg>
