<svg width="68" height="68" viewBox="0 0 68 68" fill="none" xmlns="http://www.w3.org/2000/svg">
<g opacity="0.45" filter="url(#filter0_f_7_5079)">
<g filter="url(#filter1_d_7_5079)">
<ellipse cx="34.0531" cy="33.902" rx="22.4596" ry="22.1142" transform="rotate(27.0093 34.0531 33.902)" fill="#FF532E"/>
</g>
<path d="M31.7967 18.0814L38.7543 48.4942L35.4293 49.2548L28.4717 18.8421L31.7967 18.0814ZM28.1812 40.1821C28.585 41.9472 29.4377 43.07 30.7393 43.5504C32.0355 44.0069 33.8882 43.9595 36.2976 43.4083C38.4661 42.9122 39.9881 42.2503 40.8636 41.4224C41.7392 40.5946 42.0241 39.5128 41.7186 38.177C41.5057 37.2468 41.1854 36.567 40.7576 36.1377C40.3539 35.703 39.8088 35.426 39.1223 35.307C38.4358 35.1879 37.4389 35.1524 36.1314 35.2005L35.6009 35.2089L32.4784 35.3585C29.6652 35.4749 27.4317 35.1324 25.7778 34.331C24.1184 33.5058 23.0458 32.0317 22.5602 29.9087C22.2382 28.5014 22.3279 27.1756 22.8293 25.9313C23.3306 24.6871 24.2145 23.6189 25.481 22.7267C26.7421 21.8106 28.3122 21.1377 30.1916 20.7077C32.2396 20.2392 34.099 20.1652 35.7697 20.4859C37.4404 20.8065 38.8327 21.5171 39.9466 22.6178C41.0791 23.6891 41.8554 25.1431 42.2756 26.9798L38.8061 27.7735C38.4132 26.0561 37.5161 24.9058 36.115 24.3227C34.7325 23.7102 33.0172 23.6383 30.9692 24.1068C28.9694 24.5643 27.5706 25.2106 26.7728 26.0458C25.9937 26.8516 25.746 27.8746 26.0297 29.115C26.2917 30.26 26.8763 31.0424 27.7838 31.4624C28.6857 31.8584 29.9914 32.0241 31.7007 31.9594L34.8232 31.8098C36.8031 31.7083 38.4701 31.7913 39.8245 32.0588C41.1788 32.3263 42.3199 32.8811 43.2478 33.7231C44.1998 34.5595 44.8586 35.7769 45.2242 37.375C45.5735 38.9016 45.4493 40.2981 44.8515 41.5644C44.2538 42.8307 43.2735 43.921 41.9106 44.8352C40.5664 45.7201 38.9546 46.3775 37.0753 46.8074C33.7985 47.5571 31.0742 47.4523 28.9024 46.4933C26.7252 45.5104 25.3283 43.6712 24.7117 40.9758L28.1812 40.1821Z" fill="#752615"/>
</g>
<defs>
<filter id="filter0_f_7_5079" x="0.11631" y="0.168312" width="67.8736" height="67.4673" filterUnits="userSpaceOnUse" color-interpolation-filters="sRGB">
<feFlood flood-opacity="0" result="BackgroundImageFix"/>
<feBlend mode="normal" in="SourceGraphic" in2="BackgroundImageFix" result="shape"/>
<feGaussianBlur stdDeviation="5.77156" result="effect1_foregroundBlur_7_5079"/>
</filter>
<filter id="filter1_d_7_5079" x="11.6594" y="11.7114" width="47.5242" height="48.0302" filterUnits="userSpaceOnUse" color-interpolation-filters="sRGB">
<feFlood flood-opacity="0" result="BackgroundImageFix"/>
<feColorMatrix in="SourceAlpha" type="matrix" values="0 0 0 0 0 0 0 0 0 0 0 0 0 0 0 0 0 0 127 0" result="hardAlpha"/>
<feOffset dx="2.73684" dy="3.64912"/>
<feComposite in2="hardAlpha" operator="out"/>
<feColorMatrix type="matrix" values="0 0 0 0 0.458333 0 0 0 0 0.150292 0 0 0 0 0.0840278 0 0 0 1 0"/>
<feBlend mode="normal" in2="BackgroundImageFix" result="effect1_dropShadow_7_5079"/>
<feBlend mode="normal" in="SourceGraphic" in2="effect1_dropShadow_7_5079" result="shape"/>
</filter>
</defs>
</svg>
