<svg width="96" height="96" viewBox="0 0 96 96" fill="none" xmlns="http://www.w3.org/2000/svg">
<path d="M47.7725 12.1858C28.1271 12.1858 12.1559 28.1571 12.1559 47.8025C12.1559 67.4478 28.1271 83.4191 47.7725 83.4191C67.4179 83.4191 83.3891 67.4478 83.3891 47.8025C83.3891 28.1571 67.4179 12.1858 47.7725 12.1858ZM47.7725 10.3113C68.4676 10.3113 85.2637 27.0886 85.2637 47.8025C85.2637 68.5163 68.4864 85.2936 47.7725 85.2936C27.0586 85.2936 10.2814 68.5163 10.2814 47.8025C10.2814 27.0886 27.0586 10.3113 47.7725 10.3113Z" fill="#FEF147"/>
<path d="M47.7989 24.3687C34.8832 24.3687 24.3669 34.885 24.3669 47.8007C24.3669 60.7164 34.8832 71.2327 47.7989 71.2327C60.7146 71.2327 71.2309 60.7164 71.2309 47.8007C71.2309 34.885 60.7146 24.3687 47.7989 24.3687ZM47.7989 22.4941C61.7831 22.4941 73.1055 33.8165 73.1055 47.8007C73.1055 61.7849 61.7831 73.1072 47.7989 73.1072C33.8147 73.1072 22.4924 61.7849 22.4924 47.8007C22.4924 33.8165 33.8147 22.4941 47.7989 22.4941Z" fill="#FEF147"/>
<path d="M69.03 16.9285L62.6378 21.7836C58.2513 19.2717 53.1712 17.8095 47.7725 17.8095C41.0803 17.8095 34.8943 20.0402 29.9079 23.7706L22.9908 19.7215C29.608 13.8729 38.2685 10.3113 47.7725 10.3113C55.6644 10.3113 62.9939 12.7669 69.03 16.9472L69.03 16.9285ZM11.1248 39.9105L18.0607 43.9596C17.892 45.2155 17.7982 46.4902 17.7982 47.7837C17.7982 50.3144 18.1544 52.77 18.7543 55.1319L12.3808 59.9683C11.0687 56.1442 10.3188 52.0577 10.3188 47.7837C10.3188 45.0843 10.6187 42.4599 11.1623 39.9105L11.1248 39.9105ZM47.7725 77.7766C54.4647 77.7766 60.6507 75.5459 65.637 71.8156L72.5542 75.8646C65.937 81.7132 57.2765 85.2749 47.7725 85.2749C39.8806 85.2749 32.5511 82.8192 26.515 78.6389L32.9072 73.7838C37.2937 76.2957 42.3737 77.7766 47.7725 77.7766ZM83.2016 35.5991C84.5138 39.4232 85.2637 43.5097 85.2637 47.7837C85.2637 50.4831 84.9638 53.1074 84.4202 55.6568L77.503 51.6078C77.653 50.3519 77.7654 49.0771 77.7654 47.7837C77.7654 45.253 77.4093 42.7973 76.8094 40.4354L83.1829 35.5803L83.2016 35.5991Z" fill="#FEF147"/>
<path d="M46.8676 78.2627L48.7422 78.2627L48.7422 95.6024L46.8676 95.6024L46.8676 78.2627Z" fill="#FEF147"/>
<path d="M46.8676 36.0869L48.7422 36.0869L48.7422 66.0799L46.8676 66.0799L46.8676 36.0869Z" fill="#FEF147"/>
<path d="M46.8676 7.48465e-09L48.7422 0L48.7422 29.0557L46.8676 29.0557L46.8676 7.48465e-09Z" fill="#FEF147"/>
<path d="M-0.0011425 46.8672L28.1172 46.8672L28.1172 48.7417L-0.00114249 48.7417L-0.0011425 46.8672Z" fill="#FEF147"/>
<path d="M36.5374 46.8672L62.7812 46.8672L62.7813 48.7417L36.5374 48.7417L36.5374 46.8672Z" fill="#FEF147"/>
<path d="M71.6951 46.8672L95.5957 46.8672L95.5957 48.7417L71.6951 48.7417L71.6951 46.8672Z" fill="#FEF147"/>
<path d="M36.6404 90.4297L37.1465 88.6301L36.2467 88.3676C22.3 84.4123 11.1651 73.2774 7.20977 59.3307L6.9473 58.4309L5.1478 58.937L5.41015 59.8368C9.55293 74.4022 21.1752 86.0244 35.7406 90.1672L36.6404 90.4297Z" fill="#FEF147"/>
<path d="M88.632 37.1714L90.4316 36.6652L90.1692 35.7654C86.0264 21.2001 74.4229 9.57785 59.8388 5.43507L58.939 5.17261L58.4329 6.97223L59.3326 7.23463C73.2794 11.19 84.4143 22.3248 88.3696 36.2715L88.632 37.1714Z" fill="#FEF147"/>
</svg>
