<svg width="1381" height="441" viewBox="0 0 1381 441" fill="none" xmlns="http://www.w3.org/2000/svg">
<g opacity="0.13" filter="url(#filter0_f_7_9233)">
<path fill-rule="evenodd" clip-rule="evenodd" d="M1359.37 6.74626C1359.37 6.33411 1359.03 6 1358.62 6C1358.21 6 1357.87 6.33411 1357.87 6.74626V23.8818H1342.42V83.8621H1357.87V103.857C1357.87 104.269 1358.21 104.604 1358.62 104.604C1359.03 104.604 1359.37 104.269 1359.37 103.857V83.8621H1374.8V23.8818H1359.37V6.74626ZM776.41 51.1111C776.41 50.6989 776.076 50.3648 775.664 50.3648C775.251 50.3648 774.917 50.6989 774.917 51.1111V153.94H759.46V191.071H774.917V233.908C774.917 234.321 775.251 234.655 775.664 234.655C776.076 234.655 776.41 234.321 776.41 233.908V191.071H791.846V153.94H776.41V51.1111ZM128.713 108.238C128.713 107.826 128.379 107.492 127.967 107.492C127.555 107.492 127.221 107.826 127.221 108.238V213.92H111.764V673.769H127.221V708.042C127.221 708.454 127.555 708.788 127.967 708.788C128.379 708.788 128.713 708.454 128.713 708.042V673.769H144.149V213.92H128.713V108.238ZM-1150.51 665.192C-1150.51 664.78 -1150.85 664.446 -1151.26 664.446C-1151.67 664.446 -1152 664.78 -1152 665.192V674.803H-1167.46V753.735H-1152V770.872C-1152 771.284 -1151.67 771.618 -1151.26 771.618C-1150.85 771.618 -1150.51 771.284 -1150.51 770.872V753.735H-1135.07V674.803H-1150.51V665.192ZM-1215.27 665.193C-1215.27 664.781 -1215.61 664.447 -1216.02 664.447C-1216.43 664.447 -1216.77 664.781 -1216.77 665.193V674.804H-1232.22V753.736H-1216.77V770.873C-1216.77 771.285 -1216.43 771.619 -1216.02 771.619C-1215.61 771.619 -1215.27 771.285 -1215.27 770.873V753.736H-1199.84V674.804H-1215.27V665.193ZM-1280.05 710.889C-1280.05 710.477 -1280.38 710.143 -1280.79 710.143C-1281.21 710.143 -1281.54 710.477 -1281.54 710.889V720.5H-1297V799.432H-1281.54V816.569C-1281.54 816.981 -1281.21 817.315 -1280.79 817.315C-1280.38 817.315 -1280.05 816.981 -1280.05 816.569V799.432H-1264.61V720.5H-1280.05V710.889ZM-1344.82 762.309C-1344.82 761.896 -1345.16 761.562 -1345.57 761.562C-1345.98 761.562 -1346.32 761.896 -1346.32 762.309V771.919H-1361.77V850.852H-1346.32V867.988C-1346.32 868.4 -1345.98 868.735 -1345.57 868.735C-1345.16 868.735 -1344.82 868.4 -1344.82 867.988V850.852H-1329.39V771.919H-1344.82V762.309ZM-1409.58 816.575C-1409.58 816.162 -1409.91 815.828 -1410.32 815.828C-1410.74 815.828 -1411.07 816.162 -1411.07 816.575V826.186H-1426.53V858.185H-1411.07V867.986C-1411.07 868.398 -1410.74 868.733 -1410.32 868.733C-1409.91 868.733 -1409.58 868.398 -1409.58 867.986V858.185H-1394.14V826.186H-1409.58V816.575ZM-1474.35 825.151C-1474.35 824.738 -1474.68 824.404 -1475.09 824.404C-1475.51 824.404 -1475.84 824.738 -1475.84 825.151V831.121H-1491.3V880.187H-1475.84V890.843C-1475.84 891.255 -1475.51 891.59 -1475.09 891.59C-1474.68 891.59 -1474.35 891.255 -1474.35 890.843V880.187H-1458.91V831.121H-1474.35V825.151ZM-1539.13 827.994C-1539.13 827.582 -1539.47 827.248 -1539.88 827.248C-1540.29 827.248 -1540.63 827.582 -1540.63 827.994V831.374H-1556.08V859.107H-1540.63V865.125C-1540.63 865.537 -1540.29 865.871 -1539.88 865.871C-1539.47 865.871 -1539.13 865.537 -1539.13 865.125V859.107H-1523.7V831.374H-1539.13V827.994ZM-1603.9 830.859C-1603.9 830.446 -1604.24 830.112 -1604.65 830.112C-1605.06 830.112 -1605.4 830.446 -1605.4 830.859V840.469H-1620.85V919.401H-1605.4V936.538C-1605.4 936.95 -1605.06 937.284 -1604.65 937.284C-1604.24 937.284 -1603.9 936.95 -1603.9 936.538V919.401H-1588.47V840.469H-1603.9V830.859ZM-1733.45 836.569C-1733.45 836.157 -1733.78 835.823 -1734.19 835.823C-1734.61 835.823 -1734.94 836.157 -1734.94 836.569V848.001H-1750.39V1079.35H-1718.01V848.001H-1733.45V836.569ZM-891.433 940.059H-875.995V962.25H-891.433V985.097C-891.433 985.509 -891.768 985.843 -892.18 985.843C-892.592 985.843 -892.926 985.509 -892.926 985.097V962.25H-908.381V940.059H-892.926V927.973C-892.926 927.561 -892.592 927.227 -892.18 927.227C-891.768 927.227 -891.433 927.561 -891.433 927.973V940.059ZM-826.65 939.392H-811.214V947.961H-826.65V1039.36C-826.65 1039.78 -826.984 1040.11 -827.396 1040.11C-827.809 1040.11 -828.143 1039.78 -828.143 1039.36V947.961H-843.6V939.392H-828.143V936.54C-828.143 936.128 -827.809 935.794 -827.396 935.794C-826.984 935.794 -826.65 936.128 -826.65 936.54V939.392ZM-761.869 939.388H-746.433V947.957H-761.869V1039.36C-761.869 1039.77 -762.203 1040.11 -762.615 1040.11C-763.027 1040.11 -763.362 1039.77 -763.362 1039.36V947.957H-778.818V939.388H-763.362V936.536C-763.362 936.124 -763.027 935.79 -762.615 935.79C-762.203 935.79 -761.869 936.124 -761.869 936.536V939.388ZM-697.109 936.529H-681.673V973.659H-697.109V1016.5C-697.109 1016.92 -697.444 1017.25 -697.856 1017.25C-698.268 1017.25 -698.602 1016.92 -698.602 1016.5V973.659H-714.059V936.529H-698.602V919.393C-698.602 918.981 -698.268 918.647 -697.856 918.647C-697.444 918.647 -697.109 918.981 -697.109 919.393V936.529ZM-640.446 882.27H-625.01V919.4H-640.446V962.245C-640.446 962.657 -640.78 962.991 -641.192 962.991C-641.604 962.991 -641.938 962.657 -641.938 962.245V919.4H-657.395V882.27H-641.938V865.134C-641.938 864.722 -641.604 864.388 -641.192 864.388C-640.78 864.388 -640.446 864.722 -640.446 865.134V882.27ZM-583.764 828.008H-568.327V896.557H-583.764V907.984C-583.764 908.396 -584.098 908.73 -584.51 908.73C-584.922 908.73 -585.256 908.396 -585.256 907.984V896.557H-600.713V828.008H-585.256V810.873C-585.256 810.46 -584.922 810.126 -584.51 810.126C-584.098 810.126 -583.764 810.46 -583.764 810.872V828.008ZM-527.096 802.295H-511.66V839.426H-527.096V882.271C-527.096 882.683 -527.43 883.017 -527.842 883.017C-528.254 883.017 -528.588 882.683 -528.588 882.271V839.426H-544.045V802.295H-528.588V785.16C-528.588 784.747 -528.254 784.413 -527.842 784.413C-527.43 784.413 -527.096 784.747 -527.096 785.16V802.295ZM-470.414 742.308H-454.976V790.864H-470.414V833.703C-470.414 834.116 -470.748 834.45 -471.16 834.45C-471.572 834.45 -471.906 834.116 -471.906 833.703V790.864H-487.361V742.308H-471.906V736.592C-471.906 736.18 -471.572 735.846 -471.16 735.846C-470.748 735.846 -470.414 736.18 -470.414 736.592V742.308ZM-413.736 785.152H-398.301V822.282H-413.736V865.127C-413.736 865.539 -414.07 865.873 -414.483 865.873C-414.895 865.873 -415.229 865.539 -415.229 865.127V822.282H-430.686V785.152H-415.229V768.016C-415.229 767.604 -414.895 767.27 -414.483 767.27C-414.07 767.27 -413.736 767.604 -413.736 768.016V785.152ZM-357.073 828.007H-341.636V896.556H-357.073V965.106C-357.073 965.518 -357.407 965.852 -357.819 965.852C-358.231 965.853 -358.565 965.518 -358.565 965.106V896.556H-374.022V828.007H-358.565V810.871C-358.565 810.459 -358.231 810.125 -357.819 810.125C-357.407 810.125 -357.073 810.459 -357.073 810.871V828.007ZM-300.394 936.529H-284.958V942.241H-300.394V1016.5C-300.394 1016.92 -300.729 1017.25 -301.141 1017.25C-301.553 1017.25 -301.887 1016.92 -301.887 1016.5V942.241H-317.344V936.529H-301.887V919.393C-301.887 918.981 -301.553 918.647 -301.141 918.647C-300.729 918.647 -300.394 918.981 -300.394 919.393V936.529ZM-243.717 936.529H-228.281V973.659H-243.717V1016.5C-243.717 1016.92 -244.051 1017.25 -244.463 1017.25C-244.875 1017.25 -245.209 1016.92 -245.209 1016.5V973.659H-260.666V936.529H-245.209V919.393C-245.209 918.981 -244.875 918.647 -244.463 918.647C-244.051 918.647 -243.717 918.981 -243.717 919.393V936.529ZM-187.039 936.529H-171.603V953.666H-187.039V1016.5C-187.039 1016.92 -187.373 1017.25 -187.785 1017.25C-188.197 1017.25 -188.531 1016.92 -188.531 1016.5V953.666H-203.988V936.529H-188.531V919.393C-188.531 918.981 -188.197 918.647 -187.785 918.647C-187.373 918.647 -187.039 918.981 -187.039 919.393V936.529ZM-130.364 867.99H-114.927V905.12H-130.364V947.965C-130.364 948.377 -130.698 948.711 -131.11 948.711C-131.522 948.711 -131.856 948.377 -131.856 947.965V905.12H-147.313V867.99H-131.856V850.854C-131.856 850.442 -131.522 850.108 -131.11 850.108C-130.698 850.108 -130.364 850.442 -130.364 850.854V867.99ZM-65.5936 825.147H-50.1576V862.277H-65.5936V905.122C-65.5936 905.534 -65.9277 905.869 -66.3398 905.869C-66.752 905.869 -67.0861 905.534 -67.0861 905.122V862.277H-82.543V825.147H-67.0861V808.011C-67.0861 807.599 -66.752 807.265 -66.3398 807.265C-65.9277 807.265 -65.5936 807.599 -65.5936 808.011V825.147ZM-0.828003 776.585H14.608V813.715H-0.828003V856.559C-0.828003 856.971 -1.16211 857.305 -1.57422 857.305C-1.98633 857.305 -2.32043 856.971 -2.32043 856.559V813.715H-17.7773V776.585H-2.32043V759.448C-2.32043 759.036 -1.98633 758.702 -1.57422 758.702C-1.16211 758.702 -0.828003 759.036 -0.828003 759.448V776.585ZM63.9417 697.455H79.3777V748.782H63.9417V808.004C63.9417 808.416 63.6075 808.75 63.1954 808.75C62.7833 808.75 62.4492 808.416 62.4492 808.004V748.782H46.9923V697.455H62.4492V673.762C62.4492 673.35 62.7833 673.016 63.1954 673.016C63.6075 673.016 63.9417 673.35 63.9417 673.762V697.455ZM193.477 216.768H208.913V253.898H193.477V296.743C193.477 297.155 193.143 297.489 192.73 297.489C192.318 297.489 191.984 297.155 191.984 296.743V253.898H176.527V216.768H191.984V199.632C191.984 199.22 192.318 198.886 192.73 198.886C193.143 198.886 193.477 199.22 193.477 199.632V216.768ZM258.258 271.03H273.694V333.867H258.258V390.992C258.258 391.405 257.924 391.739 257.512 391.739C257.1 391.739 256.766 391.405 256.766 390.992V333.867H241.309V271.03H256.766V253.894C256.766 253.482 257.1 253.148 257.512 253.148C257.924 253.148 258.258 253.482 258.258 253.894V271.03ZM323.029 248.183H338.465V285.314H323.029V328.159C323.029 328.571 322.695 328.905 322.282 328.905C321.87 328.905 321.536 328.571 321.536 328.159V285.314H306.079V248.183H321.536V231.047C321.536 230.635 321.87 230.301 322.282 230.301C322.695 230.301 323.029 230.635 323.029 231.047V248.183ZM387.8 182.497H403.236V219.627H387.8V262.472C387.8 262.884 387.465 263.218 387.053 263.218C386.641 263.218 386.307 262.884 386.307 262.472V219.627H370.85V182.497H386.307V165.361C386.307 164.949 386.641 164.614 387.053 164.614C387.465 164.614 387.8 164.949 387.8 165.361V182.497ZM452.563 182.496H467.999V219.627H452.563V262.472C452.563 262.884 452.229 263.218 451.817 263.218C451.405 263.218 451.071 262.884 451.071 262.472V219.627H435.614V182.496H451.071V165.361C451.071 164.949 451.405 164.614 451.817 164.614C452.229 164.614 452.563 164.949 452.563 165.361V182.496ZM517.344 182.497H532.78V279.608H500.394V182.497H515.851V165.361C515.851 164.949 516.185 164.615 516.597 164.615C517.01 164.615 517.344 164.949 517.344 165.361V182.497ZM582.109 282.462H597.545V319.593H582.109V362.438C582.109 362.85 581.775 363.184 581.363 363.184C580.95 363.184 580.616 362.85 580.616 362.438V319.593H565.159V282.462H580.616V265.327C580.616 264.914 580.95 264.58 581.363 264.58C581.775 264.58 582.109 264.914 582.109 265.327V282.462ZM646.886 282.462H662.322V296.743H646.886V362.438C646.886 362.85 646.552 363.184 646.14 363.184C645.728 363.184 645.394 362.85 645.394 362.438V296.743H629.937V282.462H645.394V265.327C645.394 264.915 645.728 264.581 646.14 264.581C646.552 264.581 646.886 264.915 646.886 265.327V282.462ZM711.645 205.348H727.081V253.903H711.645V296.743C711.645 297.155 711.311 297.489 710.899 297.489C710.487 297.489 710.152 297.155 710.152 296.743V253.903H694.695V205.348H710.152V199.632C710.152 199.22 710.487 198.886 710.899 198.886C711.311 198.886 711.645 199.22 711.645 199.632V205.348ZM841.191 216.768H856.627V253.899H841.191V296.743C841.191 297.155 840.857 297.49 840.445 297.49C840.033 297.49 839.698 297.155 839.698 296.743V253.899H824.242V216.768H839.698V199.632C839.698 199.22 840.033 198.886 840.445 198.886C840.857 198.886 841.191 199.22 841.191 199.632V216.768ZM905.956 253.895H921.392V271.032H905.956V333.871C905.956 334.283 905.622 334.617 905.21 334.617C904.798 334.617 904.463 334.283 904.463 333.871V271.032H889.007V253.895H904.463V236.76C904.463 236.348 904.798 236.013 905.21 236.013C905.622 236.013 905.956 236.348 905.956 236.76V253.895ZM970.731 216.768H986.167V253.898H970.731V296.743C970.731 297.155 970.396 297.489 969.984 297.489C969.572 297.489 969.238 297.155 969.238 296.743V253.898H953.781V216.768H969.238V199.632C969.238 199.22 969.572 198.886 969.984 198.886C970.396 198.886 970.731 199.22 970.731 199.632V216.768ZM1035.5 165.349H1050.93V225.329H1035.5V245.324C1035.5 245.736 1035.16 246.07 1034.75 246.07C1034.34 246.07 1034 245.736 1034 245.324V225.329H1018.55V165.349H1034V148.213C1034 147.801 1034.34 147.467 1034.75 147.467C1035.16 147.467 1035.5 147.801 1035.5 148.213V165.349ZM1100.26 116.805H1115.7V176.785H1100.26V196.781C1100.26 197.193 1099.93 197.527 1099.52 197.527C1099.1 197.527 1098.77 197.193 1098.77 196.781V176.785H1083.31V116.805H1098.77V99.6698C1098.77 99.2576 1099.1 98.9235 1099.52 98.9235C1099.93 98.9235 1100.26 99.2576 1100.26 99.6698V116.805ZM1165.04 173.917H1180.48V191.054H1165.04V253.892C1165.04 254.304 1164.71 254.639 1164.29 254.639C1163.88 254.639 1163.55 254.304 1163.55 253.892V191.054H1148.09V173.917H1163.55V156.781C1163.55 156.369 1163.88 156.035 1164.29 156.035C1164.71 156.035 1165.04 156.369 1165.04 156.781V173.917ZM1229.82 119.657H1245.25V179.638H1229.82V199.633C1229.82 200.045 1229.48 200.379 1229.07 200.379C1228.66 200.379 1228.33 200.045 1228.33 199.633V179.638H1212.87V119.657H1228.33V102.522C1228.33 102.11 1228.66 101.775 1229.07 101.775C1229.48 101.775 1229.82 102.11 1229.82 102.522V119.657ZM1294.57 76.8141H1310.03V136.794H1294.57V156.79C1294.57 157.202 1294.24 157.536 1293.83 157.536C1293.41 157.536 1293.08 157.202 1293.08 156.79V136.794H1277.64V76.8141H1293.08V59.6789C1293.08 59.2668 1293.41 58.9327 1293.83 58.9327C1294.24 58.9327 1294.57 59.2668 1294.57 59.6789V76.8141ZM-1085.74 663.362H-1070.31V671.895H-1085.74V736.592C-1085.74 737.004 -1086.08 737.338 -1086.49 737.338C-1086.9 737.338 -1087.24 737.004 -1087.24 736.592V671.895H-1102.69V663.362H-1087.24V662.331C-1087.24 661.918 -1086.9 661.584 -1086.49 661.584C-1086.08 661.584 -1085.74 661.918 -1085.74 662.331V663.362ZM-1020.98 663.362H-1005.54V671.895H-1020.98V736.592C-1020.98 737.004 -1021.31 737.338 -1021.73 737.338C-1022.14 737.338 -1022.47 737.004 -1022.47 736.592V671.895H-1037.93V663.362H-1022.47V662.331C-1022.47 661.918 -1022.14 661.584 -1021.73 661.584C-1021.31 661.584 -1020.98 661.918 -1020.98 662.331V663.362ZM-1668.68 848H-1653.24V1079.35H-1685.63V848H-1670.17V836.568C-1670.17 836.156 -1669.84 835.821 -1669.43 835.821C-1669.01 835.821 -1668.68 836.156 -1668.68 836.568V848Z" fill="url(#paint0_linear_7_9233)" fill-opacity="0.61"/>
</g>
<defs>
<filter id="filter0_f_7_9233" x="-1756.39" y="0" width="3137.2" height="1085.35" filterUnits="userSpaceOnUse" color-interpolation-filters="sRGB">
<feFlood flood-opacity="0" result="BackgroundImageFix"/>
<feBlend mode="normal" in="SourceGraphic" in2="BackgroundImageFix" result="shape"/>
<feGaussianBlur stdDeviation="3" result="effect1_foregroundBlur_7_9233"/>
</filter>
<linearGradient id="paint0_linear_7_9233" x1="1511.33" y1="25.0253" x2="-1138.25" y2="1810.5" gradientUnits="userSpaceOnUse">
<stop stop-color="white"/>
<stop offset="1" stop-color="#999999" stop-opacity="0"/>
</linearGradient>
</defs>
</svg>
