<svg width="341" height="121" viewBox="0 0 341 121" fill="none" xmlns="http://www.w3.org/2000/svg">
<path d="M12.0541 120.6C5.39624 120.6 0 115.184 0 108.546C0 101.907 5.41565 96.4915 12.0541 96.4915C18.6926 96.4915 24.1083 101.907 24.1083 108.546C24.1083 115.184 18.6926 120.6 12.0541 120.6ZM12.0541 98.4131C6.48324 98.4131 1.94108 102.955 1.94108 108.526C1.94108 114.097 6.48324 118.639 12.0541 118.639C17.625 118.639 22.1672 114.097 22.1672 108.526C22.1672 102.955 17.625 98.4131 12.0541 98.4131Z" fill="#00E0F7"/>
<path opacity="0.3" d="M19.4705 108.526C19.4705 112.622 16.1512 115.941 12.0556 115.941C7.95988 115.941 4.64062 112.622 4.64062 108.526C4.64062 104.431 7.95988 101.111 12.0556 101.111C16.1512 101.111 19.4705 104.431 19.4705 108.526Z" fill="#00ADF9"/>
<path d="M213.057 2.13746L221.568 11.1729H338.888V94.1946H128.773V2.1173H213.057V2.13746ZM213.924 0.120605H126.756L126.756 96.2317H340.905V9.17628H222.456L214.549 0.765982L213.944 0.140763L213.924 0.120605Z" fill="#00E0F7"/>
<path opacity="0.3" d="M219.73 15.449L211.219 6.39331H133.025V89.478H334.63V15.449H219.73Z" fill="#00ADF9"/>
<path d="M122.075 8.44995H120.059V43.7045H122.075V8.44995Z" fill="#00E0F7"/>
<path d="M341 100.149H255.304L252.359 95.7122H341V100.149Z" fill="#00E0F7"/>
<path d="M20.4972 100.529L19.0996 99.1898L89.3084 26.7876H120.715V28.7287H90.1237L20.4972 100.529Z" fill="#00E0F7"/>
<path d="M148.76 47L147.64 47L147.64 35.8L148.76 35.8L148.76 47ZM152.68 35.8L152.68 36.92L143.72 36.92L143.72 35.8L152.68 35.8ZM156.612 47.16C155.887 47.16 155.252 46.9893 154.708 46.648C154.164 46.3067 153.743 45.8213 153.444 45.192C153.156 44.5627 153.012 43.832 153.012 43C153.012 42.168 153.156 41.4373 153.444 40.808C153.743 40.1787 154.164 39.6933 154.708 39.352C155.252 39.0107 155.887 38.84 156.612 38.84C157.338 38.84 157.973 39.0107 158.517 39.352C159.061 39.6933 159.476 40.1787 159.764 40.808C160.063 41.4373 160.213 42.168 160.213 43C160.213 43.832 160.063 44.5627 159.764 45.192C159.476 45.8213 159.061 46.3067 158.517 46.648C157.973 46.9893 157.338 47.16 156.612 47.16ZM156.612 46.056C157.38 46.056 157.983 45.8 158.42 45.288C158.868 44.776 159.092 44.0133 159.092 43C159.092 41.9867 158.868 41.224 158.42 40.712C157.983 40.2 157.38 39.944 156.612 39.944C155.844 39.944 155.236 40.2 154.788 40.712C154.351 41.224 154.132 41.9867 154.132 43C154.132 44.0133 154.351 44.776 154.788 45.288C155.236 45.8 155.844 46.056 156.612 46.056ZM165.976 39L167.096 39L167.096 47L165.976 47L165.976 39ZM166.536 37.224C166.344 37.224 166.174 37.1547 166.024 37.016C165.886 36.8773 165.816 36.7067 165.816 36.504C165.816 36.312 165.886 36.1467 166.024 36.008C166.174 35.8693 166.344 35.8 166.536 35.8C166.728 35.8 166.894 35.8693 167.032 36.008C167.182 36.1467 167.256 36.312 167.256 36.504C167.256 36.7067 167.182 36.8773 167.032 37.016C166.894 37.1547 166.728 37.224 166.536 37.224ZM173.352 39C174.386 39 175.144 39.2773 175.624 39.832C176.104 40.3867 176.344 41.256 176.344 42.44L176.344 47L175.224 47L175.224 42.44C175.224 41.6293 175.058 41.0267 174.728 40.632C174.397 40.2373 173.938 40.04 173.352 40.04L173.352 39ZM169.656 39L170.776 39L170.776 47L169.656 47L169.656 39ZM170.568 42.44C170.568 41.224 170.808 40.3493 171.288 39.816C171.768 39.272 172.456 39 173.352 39L173.352 40.04C172.573 40.04 171.949 40.2267 171.48 40.6C171.01 40.9733 170.776 41.5867 170.776 42.44L170.568 42.44ZM181.861 47.16C181.125 47.16 180.485 47 179.941 46.68C179.407 46.36 178.991 45.8907 178.693 45.272C178.405 44.6427 178.261 43.8853 178.261 43C178.261 42.1147 178.405 41.3627 178.693 40.744C178.991 40.1147 179.407 39.64 179.941 39.32C180.485 39 181.125 38.84 181.861 38.84C182.81 38.84 183.589 39.1013 184.197 39.624C184.805 40.136 185.194 40.8773 185.365 41.848L184.245 41.848C184.095 41.2187 183.813 40.7493 183.397 40.44C182.991 40.12 182.479 39.96 181.861 39.96C181.093 39.96 180.485 40.216 180.037 40.728C179.599 41.24 179.381 41.9973 179.381 43C179.381 44.0027 179.599 44.76 180.037 45.272C180.485 45.784 181.093 46.04 181.861 46.04C182.479 46.04 182.991 45.8853 183.397 45.576C183.813 45.2667 184.095 44.8027 184.245 44.184L185.365 44.184C185.183 45.144 184.789 45.88 184.181 46.392C183.583 46.904 182.81 47.16 181.861 47.16ZM187.288 39L188.408 39L188.408 47L187.288 47L187.288 39ZM188.2 42.44C188.2 41.7467 188.285 41.1387 188.456 40.616C188.637 40.0933 188.872 39.6933 189.16 39.416C189.458 39.1387 189.778 39 190.12 39C190.344 39 190.525 39.0213 190.664 39.064C190.802 39.096 190.962 39.1707 191.144 39.288L191.144 40.408C190.973 40.2907 190.813 40.216 190.664 40.184C190.514 40.1413 190.333 40.12 190.12 40.12C189.842 40.12 189.57 40.2053 189.304 40.376C189.048 40.536 188.834 40.792 188.664 41.144C188.493 41.4853 188.408 41.9173 188.408 42.44L188.2 42.44ZM196.024 47.16C195.298 47.16 194.664 46.9893 194.12 46.648C193.576 46.3067 193.154 45.8213 192.856 45.192C192.568 44.5627 192.424 43.832 192.424 43C192.424 42.168 192.568 41.4373 192.856 40.808C193.154 40.1787 193.576 39.6933 194.12 39.352C194.664 39.0107 195.298 38.84 196.024 38.84C197.144 38.84 198.024 39.2453 198.664 40.056C199.304 40.856 199.624 42.008 199.624 43.512L198.504 43.512C198.504 42.6693 198.402 41.9867 198.2 41.464C197.997 40.9307 197.709 40.5467 197.336 40.312C196.973 40.0667 196.536 39.944 196.024 39.944C195.256 39.944 194.648 40.2 194.2 40.712C193.762 41.224 193.544 41.9867 193.544 43C193.544 44.0133 193.762 44.776 194.2 45.288C194.648 45.8 195.256 46.056 196.024 46.056C196.632 46.056 197.138 45.9013 197.544 45.592C197.949 45.272 198.226 44.8027 198.376 44.184L199.528 44.184C199.421 44.7813 199.208 45.304 198.888 45.752C198.578 46.2 198.178 46.5467 197.688 46.792C197.197 47.0373 196.642 47.16 196.024 47.16ZM192.968 42.488L199 42.488L199.608 43.512L192.968 43.512L192.968 42.488ZM207.112 43.048C207.112 44.552 206.862 45.6133 206.36 46.232C205.87 46.8507 205.182 47.16 204.296 47.16C203.752 47.16 203.272 47.0533 202.856 46.84C202.44 46.6267 202.115 46.328 201.88 45.944C201.656 45.56 201.544 45.1227 201.544 44.632C201.544 44.1307 201.656 43.6773 201.88 43.272C202.115 42.856 202.44 42.5307 202.856 42.296C203.283 42.0507 203.763 41.928 204.296 41.928L207.112 41.928L207.112 43.048L204.296 43.048C203.731 43.048 203.315 43.192 203.048 43.48C202.792 43.768 202.664 44.152 202.664 44.632C202.664 45.08 202.792 45.4267 203.048 45.672C203.304 45.9067 203.72 46.024 204.296 46.024C204.787 46.024 205.235 45.9013 205.64 45.656C206.046 45.4 206.366 45.048 206.6 44.6C206.835 44.1413 206.952 43.624 206.952 43.048L207.112 43.048ZM201.976 41.64C201.976 40.7867 202.254 40.136 202.808 39.688C203.363 39.2293 204.12 39 205.08 39L205.08 40.136C203.758 40.136 203.096 40.6373 203.096 41.64L201.976 41.64ZM206.952 42.44C206.952 41.8107 206.883 41.3307 206.744 41C206.616 40.6693 206.419 40.4453 206.152 40.328C205.886 40.2 205.528 40.136 205.08 40.136L205.08 39C205.784 39 206.35 39.112 206.776 39.336C207.214 39.56 207.539 39.9227 207.752 40.424C207.966 40.9253 208.072 41.5973 208.072 42.44L208.072 47L206.952 47L206.952 42.44ZM211.113 44.28C211.113 44.8667 211.305 45.32 211.689 45.64C212.084 45.96 212.654 46.12 213.401 46.12C214.052 46.12 214.542 46.024 214.873 45.832C215.204 45.6293 215.369 45.3147 215.369 44.888C215.369 44.4827 215.252 44.1947 215.017 44.024C214.782 43.8533 214.356 43.7093 213.737 43.592L212.921 43.432C211.972 43.272 211.268 43.0053 210.809 42.632C210.35 42.248 210.121 41.7147 210.121 41.032C210.121 40.328 210.388 39.7893 210.921 39.416C211.465 39.032 212.185 38.84 213.081 38.84C213.71 38.84 214.249 38.9573 214.697 39.192C215.156 39.416 215.502 39.7413 215.737 40.168C215.972 40.584 216.089 41.0747 216.089 41.64L214.969 41.64C214.969 40.4667 214.34 39.88 213.081 39.88C212.484 39.88 212.025 39.9707 211.705 40.152C211.396 40.3333 211.241 40.6267 211.241 41.032C211.241 41.4267 211.374 41.7307 211.641 41.944C211.908 42.1467 212.334 42.296 212.921 42.392L213.705 42.52C214.356 42.6267 214.884 42.776 215.289 42.968C215.694 43.1493 215.993 43.3947 216.185 43.704C216.388 44.0133 216.489 44.408 216.489 44.888C216.489 45.6453 216.212 46.216 215.657 46.6C215.113 46.9733 214.361 47.16 213.401 47.16C212.313 47.16 211.47 46.9093 210.873 46.408C210.286 45.9067 209.993 45.1973 209.993 44.28L211.113 44.28ZM221.698 47.16C220.973 47.16 220.338 46.9893 219.794 46.648C219.25 46.3067 218.829 45.8213 218.53 45.192C218.242 44.5627 218.098 43.832 218.098 43C218.098 42.168 218.242 41.4373 218.53 40.808C218.829 40.1787 219.25 39.6933 219.794 39.352C220.338 39.0107 220.973 38.84 221.698 38.84C222.818 38.84 223.698 39.2453 224.338 40.056C224.978 40.856 225.298 42.008 225.298 43.512L224.178 43.512C224.178 42.6693 224.077 41.9867 223.874 41.464C223.671 40.9307 223.383 40.5467 223.01 40.312C222.647 40.0667 222.21 39.944 221.698 39.944C220.93 39.944 220.322 40.2 219.874 40.712C219.437 41.224 219.218 41.9867 219.218 43C219.218 44.0133 219.437 44.776 219.874 45.288C220.322 45.8 220.93 46.056 221.698 46.056C222.306 46.056 222.813 45.9013 223.218 45.592C223.623 45.272 223.901 44.8027 224.05 44.184L225.202 44.184C225.095 44.7813 224.882 45.304 224.562 45.752C224.253 46.2 223.853 46.5467 223.362 46.792C222.871 47.0373 222.317 47.16 221.698 47.16ZM218.642 42.488L224.674 42.488L225.282 43.512L218.642 43.512L218.642 42.488ZM230.902 35.8L232.022 35.8L232.022 39L230.902 39L230.902 35.8ZM234.598 39C235.633 39 236.39 39.2773 236.87 39.832C237.35 40.3867 237.59 41.256 237.59 42.44L237.59 47L236.47 47L236.47 42.44C236.47 41.6293 236.305 41.0267 235.974 40.632C235.643 40.2373 235.185 40.04 234.598 40.04L234.598 39ZM230.902 39L232.022 39L232.022 47L230.902 47L230.902 39ZM231.814 42.44C231.814 41.224 232.054 40.3493 232.534 39.816C233.014 39.272 233.702 39 234.598 39L234.598 40.04C233.819 40.04 233.195 40.2267 232.726 40.6C232.257 40.9733 232.022 41.5867 232.022 42.44L231.814 42.44ZM243.107 47.16C242.382 47.16 241.747 46.9893 241.203 46.648C240.659 46.3067 240.238 45.8213 239.939 45.192C239.651 44.5627 239.507 43.832 239.507 43C239.507 42.168 239.651 41.4373 239.939 40.808C240.238 40.1787 240.659 39.6933 241.203 39.352C241.747 39.0107 242.382 38.84 243.107 38.84C244.227 38.84 245.107 39.2453 245.747 40.056C246.387 40.856 246.707 42.008 246.707 43.512L245.587 43.512C245.587 42.6693 245.486 41.9867 245.283 41.464C245.08 40.9307 244.792 40.5467 244.419 40.312C244.056 40.0667 243.619 39.944 243.107 39.944C242.339 39.944 241.731 40.2 241.283 40.712C240.846 41.224 240.627 41.9867 240.627 43C240.627 44.0133 240.846 44.776 241.283 45.288C241.731 45.8 242.339 46.056 243.107 46.056C243.715 46.056 244.222 45.9013 244.627 45.592C245.032 45.272 245.31 44.8027 245.459 44.184L246.611 44.184C246.504 44.7813 246.291 45.304 245.971 45.752C245.662 46.2 245.262 46.5467 244.771 46.792C244.28 47.0373 243.726 47.16 243.107 47.16ZM240.051 42.488L246.083 42.488L246.691 43.512L240.051 43.512L240.051 42.488ZM248.628 39L249.748 39L249.748 47L248.628 47L248.628 39ZM249.54 42.44C249.54 41.7467 249.625 41.1387 249.796 40.616C249.977 40.0933 250.212 39.6933 250.5 39.416C250.798 39.1387 251.118 39 251.46 39C251.684 39 251.865 39.0213 252.004 39.064C252.142 39.096 252.302 39.1707 252.484 39.288L252.484 40.408C252.313 40.2907 252.153 40.216 252.004 40.184C251.854 40.1413 251.673 40.12 251.46 40.12C251.182 40.12 250.91 40.2053 250.644 40.376C250.388 40.536 250.174 40.792 250.004 41.144C249.833 41.4853 249.748 41.9173 249.748 42.44L249.54 42.44ZM259.368 35.8L260.488 35.8L260.488 43.8L259.368 43.8L259.368 35.8ZM259.368 39L259.368 39.96L258.088 39.96L258.088 39L259.368 39ZM262.248 39L262.248 39.96L260.488 39.96L260.488 39L262.248 39ZM262.248 47C261.533 47 260.968 46.904 260.552 46.712C260.146 46.52 259.848 46.1947 259.656 45.736C259.474 45.2667 259.378 44.6213 259.368 43.8L260.488 43.8C260.488 44.4293 260.536 44.888 260.632 45.176C260.728 45.464 260.893 45.656 261.128 45.752C261.373 45.848 261.746 45.896 262.248 45.896L262.248 47ZM264.161 39L265.281 39L265.281 47L264.161 47L264.161 39ZM265.073 42.44C265.073 41.7467 265.159 41.1387 265.329 40.616C265.511 40.0933 265.745 39.6933 266.033 39.416C266.332 39.1387 266.652 39 266.993 39C267.217 39 267.399 39.0213 267.537 39.064C267.676 39.096 267.836 39.1707 268.017 39.288L268.017 40.408C267.847 40.2907 267.687 40.216 267.537 40.184C267.388 40.1413 267.207 40.12 266.993 40.12C266.716 40.12 266.444 40.2053 266.177 40.376C265.921 40.536 265.708 40.792 265.537 41.144C265.367 41.4853 265.281 41.9173 265.281 42.44L265.073 42.44ZM274.709 43.048C274.709 44.552 274.459 45.6133 273.957 46.232C273.467 46.8507 272.779 47.16 271.893 47.16C271.349 47.16 270.869 47.0533 270.453 46.84C270.037 46.6267 269.712 46.328 269.477 45.944C269.253 45.56 269.141 45.1227 269.141 44.632C269.141 44.1307 269.253 43.6773 269.477 43.272C269.712 42.856 270.037 42.5307 270.453 42.296C270.88 42.0507 271.36 41.928 271.893 41.928L274.709 41.928L274.709 43.048L271.893 43.048C271.328 43.048 270.912 43.192 270.645 43.48C270.389 43.768 270.261 44.152 270.261 44.632C270.261 45.08 270.389 45.4267 270.645 45.672C270.901 45.9067 271.317 46.024 271.893 46.024C272.384 46.024 272.832 45.9013 273.237 45.656C273.643 45.4 273.963 45.048 274.197 44.6C274.432 44.1413 274.549 43.624 274.549 43.048L274.709 43.048ZM269.573 41.64C269.573 40.7867 269.851 40.136 270.405 39.688C270.96 39.2293 271.717 39 272.677 39L272.677 40.136C271.355 40.136 270.693 40.6373 270.693 41.64L269.573 41.64ZM274.549 42.44C274.549 41.8107 274.48 41.3307 274.341 41C274.213 40.6693 274.016 40.4453 273.749 40.328C273.483 40.2 273.125 40.136 272.677 40.136L272.677 39C273.381 39 273.947 39.112 274.373 39.336C274.811 39.56 275.136 39.9227 275.349 40.424C275.563 40.9253 275.669 41.5973 275.669 42.44L275.669 47L274.549 47L274.549 42.44ZM283.926 43C283.926 44.3867 283.702 45.4267 283.254 46.12C282.806 46.8133 282.086 47.16 281.094 47.16C280.401 47.16 279.787 47 279.254 46.68C278.731 46.3493 278.321 45.8747 278.022 45.256C277.734 44.6267 277.59 43.8747 277.59 43L278.71 43C278.71 43.992 278.934 44.7493 279.382 45.272C279.83 45.7947 280.401 46.056 281.094 46.056C281.873 46.056 282.491 45.8427 282.95 45.416C283.419 44.9787 283.654 44.1733 283.654 43L283.926 43ZM283.654 35.8L284.774 35.8L284.774 47L283.654 47L283.654 35.8ZM283.654 43C283.654 41.8267 283.419 41.0267 282.95 40.6C282.491 40.1627 281.873 39.944 281.094 39.944C280.401 39.944 279.83 40.2053 279.382 40.728C278.934 41.2507 278.71 42.008 278.71 43L277.59 43C277.59 42.1253 277.734 41.3787 278.022 40.76C278.321 40.1307 278.731 39.656 279.254 39.336C279.787 39.0053 280.401 38.84 281.094 38.84C281.766 38.84 282.31 39 282.726 39.32C283.142 39.6293 283.446 40.0933 283.638 40.712C283.83 41.32 283.926 42.0827 283.926 43L283.654 43ZM287.168 39L288.288 39L288.288 47L287.168 47L287.168 39ZM287.728 37.224C287.536 37.224 287.365 37.1547 287.216 37.016C287.077 36.8773 287.008 36.7067 287.008 36.504C287.008 36.312 287.077 36.1467 287.216 36.008C287.365 35.8693 287.536 35.8 287.728 35.8C287.92 35.8 288.085 35.8693 288.224 36.008C288.373 36.1467 288.448 36.312 288.448 36.504C288.448 36.7067 288.373 36.8773 288.224 37.016C288.085 37.1547 287.92 37.224 287.728 37.224ZM294.543 39C295.578 39 296.335 39.2773 296.815 39.832C297.295 40.3867 297.535 41.256 297.535 42.44L297.535 47L296.415 47L296.415 42.44C296.415 41.6293 296.25 41.0267 295.919 40.632C295.588 40.2373 295.13 40.04 294.543 40.04L294.543 39ZM290.847 39L291.967 39L291.967 47L290.847 47L290.847 39ZM291.759 42.44C291.759 41.224 291.999 40.3493 292.479 39.816C292.959 39.272 293.647 39 294.543 39L294.543 40.04C293.764 40.04 293.14 40.2267 292.671 40.6C292.202 40.9733 291.967 41.5867 291.967 42.44L291.759 42.44ZM303.036 50.2C302.343 50.2 301.735 50.0773 301.212 49.832C300.7 49.5973 300.3 49.24 300.012 48.76C299.735 48.2907 299.596 47.704 299.596 47L300.716 47C300.716 47.736 300.919 48.2693 301.324 48.6C301.74 48.9307 302.311 49.096 303.036 49.096C303.783 49.096 304.353 48.8667 304.748 48.408C305.153 47.96 305.356 47.1173 305.356 45.88L306.476 45.88C306.476 46.936 306.332 47.7787 306.044 48.408C305.767 49.048 305.372 49.5067 304.86 49.784C304.359 50.0613 303.751 50.2 303.036 50.2ZM302.796 47.16C302.113 47.16 301.521 47 301.02 46.68C300.519 46.36 300.129 45.8907 299.852 45.272C299.585 44.6427 299.452 43.8853 299.452 43L300.572 43C300.572 44.0027 300.769 44.7653 301.164 45.288C301.569 45.8 302.113 46.056 302.796 46.056C303.575 46.056 304.193 45.8427 304.652 45.416C305.121 44.9787 305.356 44.1733 305.356 43L305.628 43C305.628 43.9173 305.532 44.6853 305.34 45.304C305.148 45.912 304.844 46.376 304.428 46.696C304.012 47.0053 303.468 47.16 302.796 47.16ZM299.452 43C299.452 42.1147 299.585 41.3627 299.852 40.744C300.129 40.1147 300.519 39.64 301.02 39.32C301.521 39 302.113 38.84 302.796 38.84C303.468 38.84 304.012 39 304.428 39.32C304.844 39.6293 305.148 40.0933 305.34 40.712C305.532 41.32 305.628 42.0827 305.628 43L305.356 43C305.356 41.8267 305.121 41.0267 304.652 40.6C304.193 40.1627 303.575 39.944 302.796 39.944C302.113 39.944 301.569 40.2053 301.164 40.728C300.769 41.24 300.572 41.9973 300.572 43L299.452 43ZM305.356 39L306.476 39L306.476 45.88L305.356 45.88L305.356 39ZM144.568 59C144.568 57.6133 144.792 56.5733 145.24 55.88C145.688 55.1867 146.408 54.84 147.4 54.84C148.093 54.84 148.701 55.0053 149.224 55.336C149.757 55.656 150.168 56.1307 150.456 56.76C150.755 57.3787 150.904 58.1253 150.904 59L149.784 59C149.784 58.008 149.56 57.2507 149.112 56.728C148.664 56.2053 148.093 55.944 147.4 55.944C146.621 55.944 145.997 56.1627 145.528 56.6C145.069 57.0267 144.84 57.8267 144.84 59L144.568 59ZM144.84 66.2L143.72 66.2L143.72 55L144.84 55L144.84 66.2ZM144.84 59C144.84 60.1733 145.069 60.9787 145.528 61.416C145.997 61.8427 146.621 62.056 147.4 62.056C148.093 62.056 148.664 61.7947 149.112 61.272C149.56 60.7493 149.784 59.992 149.784 59L150.904 59C150.904 59.8747 150.755 60.6267 150.456 61.256C150.168 61.8747 149.757 62.3493 149.224 62.68C148.701 63 148.093 63.16 147.4 63.16C146.728 63.16 146.184 63.0053 145.768 62.696C145.352 62.376 145.048 61.912 144.856 61.304C144.664 60.6853 144.568 59.9173 144.568 59L144.84 59ZM156.269 63.16C155.543 63.16 154.909 62.9893 154.365 62.648C153.821 62.3067 153.399 61.8213 153.101 61.192C152.813 60.5627 152.669 59.832 152.669 59C152.669 58.168 152.813 57.4373 153.101 56.808C153.399 56.1787 153.821 55.6933 154.365 55.352C154.909 55.0107 155.543 54.84 156.269 54.84C156.994 54.84 157.629 55.0107 158.173 55.352C158.717 55.6933 159.133 56.1787 159.421 56.808C159.719 57.4373 159.869 58.168 159.869 59C159.869 59.832 159.719 60.5627 159.421 61.192C159.133 61.8213 158.717 62.3067 158.173 62.648C157.629 62.9893 156.994 63.16 156.269 63.16ZM156.269 62.056C157.037 62.056 157.639 61.8 158.077 61.288C158.525 60.776 158.749 60.0133 158.749 59C158.749 57.9867 158.525 57.224 158.077 56.712C157.639 56.2 157.037 55.944 156.269 55.944C155.501 55.944 154.893 56.2 154.445 56.712C154.007 57.224 153.789 57.9867 153.789 59C153.789 60.0133 154.007 60.776 154.445 61.288C154.893 61.8 155.501 62.056 156.269 62.056ZM161.789 55L162.909 55L162.909 63L161.789 63L161.789 55ZM162.701 58.44C162.701 57.7467 162.787 57.1387 162.957 56.616C163.139 56.0933 163.373 55.6933 163.661 55.416C163.96 55.1387 164.28 55 164.621 55C164.845 55 165.027 55.0213 165.165 55.064C165.304 55.096 165.464 55.1707 165.645 55.288L165.645 56.408C165.475 56.2907 165.315 56.216 165.165 56.184C165.016 56.1413 164.835 56.12 164.621 56.12C164.344 56.12 164.072 56.2053 163.805 56.376C163.549 56.536 163.336 56.792 163.165 57.144C162.995 57.4853 162.909 57.9173 162.909 58.44L162.701 58.44ZM168.049 51.8L169.169 51.8L169.169 59.8L168.049 59.8L168.049 51.8ZM168.049 55L168.049 55.96L166.769 55.96L166.769 55L168.049 55ZM170.929 55L170.929 55.96L169.169 55.96L169.169 55L170.929 55ZM170.929 63C170.215 63 169.649 62.904 169.233 62.712C168.828 62.52 168.529 62.1947 168.337 61.736C168.156 61.2667 168.06 60.6213 168.049 59.8L169.169 59.8C169.169 60.4293 169.217 60.888 169.313 61.176C169.409 61.464 169.575 61.656 169.809 61.752C170.055 61.848 170.428 61.896 170.929 61.896L170.929 63ZM175.243 55L175.243 63L174.123 63L174.123 55L175.243 55ZM177.563 52.904L177.211 52.904C176.582 52.9253 176.128 53.0053 175.851 53.144C175.574 53.2827 175.403 53.4853 175.339 53.752C175.275 54.008 175.243 54.424 175.243 55L174.123 55C174.134 54.2213 174.224 53.608 174.395 53.16C174.566 52.712 174.896 52.376 175.387 52.152C175.878 51.9173 176.603 51.8 177.563 51.8L177.563 52.904ZM172.843 55L174.123 55L174.123 55.96L172.843 55.96L172.843 55ZM175.243 55L177.323 55L177.323 55.96L175.243 55.96L175.243 55ZM182.595 63.16C181.87 63.16 181.235 62.9893 180.691 62.648C180.147 62.3067 179.726 61.8213 179.427 61.192C179.139 60.5627 178.995 59.832 178.995 59C178.995 58.168 179.139 57.4373 179.427 56.808C179.726 56.1787 180.147 55.6933 180.691 55.352C181.235 55.0107 181.87 54.84 182.595 54.84C183.32 54.84 183.955 55.0107 184.499 55.352C185.043 55.6933 185.459 56.1787 185.747 56.808C186.046 57.4373 186.195 58.168 186.195 59C186.195 59.832 186.046 60.5627 185.747 61.192C185.459 61.8213 185.043 62.3067 184.499 62.648C183.955 62.9893 183.32 63.16 182.595 63.16ZM182.595 62.056C183.363 62.056 183.966 61.8 184.403 61.288C184.851 60.776 185.075 60.0133 185.075 59C185.075 57.9867 184.851 57.224 184.403 56.712C183.966 56.2 183.363 55.944 182.595 55.944C181.827 55.944 181.219 56.2 180.771 56.712C180.334 57.224 180.115 57.9867 180.115 59C180.115 60.0133 180.334 60.776 180.771 61.288C181.219 61.8 181.827 62.056 182.595 62.056ZM188.116 51.8L189.236 51.8L189.236 63L188.116 63L188.116 51.8ZM191.631 55L192.751 55L192.751 63L191.631 63L191.631 55ZM192.191 53.224C191.999 53.224 191.828 53.1547 191.679 53.016C191.54 52.8773 191.471 52.7067 191.471 52.504C191.471 52.312 191.54 52.1467 191.679 52.008C191.828 51.8693 191.999 51.8 192.191 51.8C192.383 51.8 192.548 51.8693 192.687 52.008C192.836 52.1467 192.911 52.312 192.911 52.504C192.911 52.7067 192.836 52.8773 192.687 53.016C192.548 53.1547 192.383 53.224 192.191 53.224ZM198.426 63.16C197.7 63.16 197.066 62.9893 196.522 62.648C195.978 62.3067 195.556 61.8213 195.258 61.192C194.97 60.5627 194.826 59.832 194.826 59C194.826 58.168 194.97 57.4373 195.258 56.808C195.556 56.1787 195.978 55.6933 196.522 55.352C197.066 55.0107 197.7 54.84 198.426 54.84C199.151 54.84 199.786 55.0107 200.33 55.352C200.874 55.6933 201.29 56.1787 201.578 56.808C201.876 57.4373 202.026 58.168 202.026 59C202.026 59.832 201.876 60.5627 201.578 61.192C201.29 61.8213 200.874 62.3067 200.33 62.648C199.786 62.9893 199.151 63.16 198.426 63.16ZM198.426 62.056C199.194 62.056 199.796 61.8 200.234 61.288C200.682 60.776 200.906 60.0133 200.906 59C200.906 57.9867 200.682 57.224 200.234 56.712C199.796 56.2 199.194 55.944 198.426 55.944C197.658 55.944 197.05 56.2 196.602 56.712C196.164 57.224 195.946 57.9867 195.946 59C195.946 60.0133 196.164 60.776 196.602 61.288C197.05 61.8 197.658 62.056 198.426 62.056ZM213.197 59.048C213.197 60.552 212.947 61.6133 212.445 62.232C211.955 62.8507 211.267 63.16 210.381 63.16C209.837 63.16 209.357 63.0533 208.941 62.84C208.525 62.6267 208.2 62.328 207.965 61.944C207.741 61.56 207.629 61.1227 207.629 60.632C207.629 60.1307 207.741 59.6773 207.965 59.272C208.2 58.856 208.525 58.5307 208.941 58.296C209.368 58.0507 209.848 57.928 210.381 57.928L213.197 57.928L213.197 59.048L210.381 59.048C209.816 59.048 209.4 59.192 209.133 59.48C208.877 59.768 208.749 60.152 208.749 60.632C208.749 61.08 208.877 61.4267 209.133 61.672C209.389 61.9067 209.805 62.024 210.381 62.024C210.872 62.024 211.32 61.9013 211.725 61.656C212.131 61.4 212.451 61.048 212.685 60.6C212.92 60.1413 213.037 59.624 213.037 59.048L213.197 59.048ZM208.061 57.64C208.061 56.7867 208.339 56.136 208.893 55.688C209.448 55.2293 210.205 55 211.165 55L211.165 56.136C209.843 56.136 209.181 56.6373 209.181 57.64L208.061 57.64ZM213.037 58.44C213.037 57.8107 212.968 57.3307 212.829 57C212.701 56.6693 212.504 56.4453 212.237 56.328C211.971 56.2 211.613 56.136 211.165 56.136L211.165 55C211.869 55 212.435 55.112 212.861 55.336C213.299 55.56 213.624 55.9227 213.837 56.424C214.051 56.9253 214.157 57.5973 214.157 58.44L214.157 63L213.037 63L213.037 58.44ZM220.087 55C221.121 55 221.879 55.2773 222.359 55.832C222.839 56.3867 223.079 57.256 223.079 58.44L223.079 63L221.959 63L221.959 58.44C221.959 57.6293 221.793 57.0267 221.463 56.632C221.132 56.2373 220.673 56.04 220.087 56.04L220.087 55ZM216.391 55L217.511 55L217.511 63L216.391 63L216.391 55ZM217.303 58.44C217.303 57.224 217.543 56.3493 218.023 55.816C218.503 55.272 219.191 55 220.087 55L220.087 56.04C219.308 56.04 218.684 56.2267 218.215 56.6C217.745 56.9733 217.511 57.5867 217.511 58.44L217.303 58.44ZM231.332 59C231.332 60.3867 231.108 61.4267 230.66 62.12C230.212 62.8133 229.492 63.16 228.5 63.16C227.806 63.16 227.193 63 226.66 62.68C226.137 62.3493 225.726 61.8747 225.428 61.256C225.14 60.6267 224.996 59.8747 224.996 59L226.116 59C226.116 59.992 226.34 60.7493 226.788 61.272C227.236 61.7947 227.806 62.056 228.5 62.056C229.278 62.056 229.897 61.8427 230.356 61.416C230.825 60.9787 231.06 60.1733 231.06 59L231.332 59ZM231.06 51.8L232.18 51.8L232.18 63L231.06 63L231.06 51.8ZM231.06 59C231.06 57.8267 230.825 57.0267 230.356 56.6C229.897 56.1627 229.278 55.944 228.5 55.944C227.806 55.944 227.236 56.2053 226.788 56.728C226.34 57.2507 226.116 58.008 226.116 59L224.996 59C224.996 58.1253 225.14 57.3787 225.428 56.76C225.726 56.1307 226.137 55.656 226.66 55.336C227.193 55.0053 227.806 54.84 228.5 54.84C229.172 54.84 229.716 55 230.132 55.32C230.548 55.6293 230.852 56.0933 231.044 56.712C231.236 57.32 231.332 58.0827 231.332 59L231.06 59ZM241.384 63.16C240.648 63.16 240.008 63 239.464 62.68C238.93 62.36 238.514 61.8907 238.216 61.272C237.928 60.6427 237.784 59.8853 237.784 59C237.784 58.1147 237.928 57.3627 238.216 56.744C238.514 56.1147 238.93 55.64 239.464 55.32C240.008 55 240.648 54.84 241.384 54.84C242.333 54.84 243.112 55.1013 243.72 55.624C244.328 56.136 244.717 56.8773 244.888 57.848L243.768 57.848C243.618 57.2187 243.336 56.7493 242.92 56.44C242.514 56.12 242.002 55.96 241.384 55.96C240.616 55.96 240.008 56.216 239.56 56.728C239.122 57.24 238.904 57.9973 238.904 59C238.904 60.0027 239.122 60.76 239.56 61.272C240.008 61.784 240.616 62.04 241.384 62.04C242.002 62.04 242.514 61.8853 242.92 61.576C243.336 61.2667 243.618 60.8027 243.768 60.184L244.888 60.184C244.706 61.144 244.312 61.88 243.704 62.392C243.106 62.904 242.333 63.16 241.384 63.16ZM246.811 55L247.931 55L247.931 63L246.811 63L246.811 55ZM247.723 58.44C247.723 57.7467 247.808 57.1387 247.979 56.616C248.16 56.0933 248.395 55.6933 248.683 55.416C248.981 55.1387 249.301 55 249.643 55C249.867 55 250.048 55.0213 250.187 55.064C250.325 55.096 250.485 55.1707 250.667 55.288L250.667 56.408C250.496 56.2907 250.336 56.216 250.187 56.184C250.037 56.1413 249.856 56.12 249.643 56.12C249.365 56.12 249.093 56.2053 248.827 56.376C248.571 56.536 248.357 56.792 248.187 57.144C248.016 57.4853 247.931 57.9173 247.931 58.44L247.723 58.44ZM255.547 63.16C254.822 63.16 254.187 62.9893 253.643 62.648C253.099 62.3067 252.678 61.8213 252.379 61.192C252.091 60.5627 251.947 59.832 251.947 59C251.947 58.168 252.091 57.4373 252.379 56.808C252.678 56.1787 253.099 55.6933 253.643 55.352C254.187 55.0107 254.822 54.84 255.547 54.84C256.667 54.84 257.547 55.2453 258.187 56.056C258.827 56.856 259.147 58.008 259.147 59.512L258.027 59.512C258.027 58.6693 257.926 57.9867 257.723 57.464C257.52 56.9307 257.232 56.5467 256.859 56.312C256.496 56.0667 256.059 55.944 255.547 55.944C254.779 55.944 254.171 56.2 253.723 56.712C253.286 57.224 253.067 57.9867 253.067 59C253.067 60.0133 253.286 60.776 253.723 61.288C254.171 61.8 254.779 62.056 255.547 62.056C256.155 62.056 256.662 61.9013 257.067 61.592C257.472 61.272 257.75 60.8027 257.899 60.184L259.051 60.184C258.944 60.7813 258.731 61.304 258.411 61.752C258.102 62.2 257.702 62.5467 257.211 62.792C256.72 63.0373 256.166 63.16 255.547 63.16ZM252.491 58.488L258.523 58.488L259.131 59.512L252.491 59.512L252.491 58.488ZM266.635 59.048C266.635 60.552 266.385 61.6133 265.883 62.232C265.393 62.8507 264.705 63.16 263.819 63.16C263.275 63.16 262.795 63.0533 262.379 62.84C261.963 62.6267 261.638 62.328 261.403 61.944C261.179 61.56 261.067 61.1227 261.067 60.632C261.067 60.1307 261.179 59.6773 261.403 59.272C261.638 58.856 261.963 58.5307 262.379 58.296C262.806 58.0507 263.286 57.928 263.819 57.928L266.635 57.928L266.635 59.048L263.819 59.048C263.254 59.048 262.838 59.192 262.571 59.48C262.315 59.768 262.187 60.152 262.187 60.632C262.187 61.08 262.315 61.4267 262.571 61.672C262.827 61.9067 263.243 62.024 263.819 62.024C264.31 62.024 264.758 61.9013 265.163 61.656C265.569 61.4 265.889 61.048 266.123 60.6C266.358 60.1413 266.475 59.624 266.475 59.048L266.635 59.048ZM261.499 57.64C261.499 56.7867 261.777 56.136 262.331 55.688C262.886 55.2293 263.643 55 264.603 55L264.603 56.136C263.281 56.136 262.619 56.6373 262.619 57.64L261.499 57.64ZM266.475 58.44C266.475 57.8107 266.406 57.3307 266.267 57C266.139 56.6693 265.942 56.4453 265.675 56.328C265.409 56.2 265.051 56.136 264.603 56.136L264.603 55C265.307 55 265.873 55.112 266.299 55.336C266.737 55.56 267.062 55.9227 267.275 56.424C267.489 56.9253 267.595 57.5973 267.595 58.44L267.595 63L266.475 63L266.475 58.44ZM270.484 51.8L271.604 51.8L271.604 59.8L270.484 59.8L270.484 51.8ZM270.484 55L270.484 55.96L269.204 55.96L269.204 55L270.484 55ZM273.364 55L273.364 55.96L271.604 55.96L271.604 55L273.364 55ZM273.364 63C272.649 63 272.084 62.904 271.668 62.712C271.262 62.52 270.964 62.1947 270.772 61.736C270.59 61.2667 270.494 60.6213 270.484 59.8L271.604 59.8C271.604 60.4293 271.652 60.888 271.748 61.176C271.844 61.464 272.009 61.656 272.244 61.752C272.489 61.848 272.862 61.896 273.364 61.896L273.364 63ZM278.081 63.16C277.355 63.16 276.721 62.9893 276.177 62.648C275.633 62.3067 275.211 61.8213 274.913 61.192C274.625 60.5627 274.481 59.832 274.481 59C274.481 58.168 274.625 57.4373 274.913 56.808C275.211 56.1787 275.633 55.6933 276.177 55.352C276.721 55.0107 277.355 54.84 278.081 54.84C279.201 54.84 280.081 55.2453 280.721 56.056C281.361 56.856 281.681 58.008 281.681 59.512L280.561 59.512C280.561 58.6693 280.459 57.9867 280.257 57.464C280.054 56.9307 279.766 56.5467 279.393 56.312C279.03 56.0667 278.593 55.944 278.081 55.944C277.313 55.944 276.705 56.2 276.257 56.712C275.819 57.224 275.601 57.9867 275.601 59C275.601 60.0133 275.819 60.776 276.257 61.288C276.705 61.8 277.313 62.056 278.081 62.056C278.689 62.056 279.195 61.9013 279.601 61.592C280.006 61.272 280.283 60.8027 280.433 60.184L281.585 60.184C281.478 60.7813 281.265 61.304 280.945 61.752C280.635 62.2 280.235 62.5467 279.745 62.792C279.254 63.0373 278.699 63.16 278.081 63.16ZM275.025 58.488L281.057 58.488L281.665 59.512L275.025 59.512L275.025 58.488ZM287.284 51.8L288.404 51.8L288.404 63L287.284 63L287.284 51.8ZM296.207 59.048C296.207 60.552 295.957 61.6133 295.455 62.232C294.965 62.8507 294.277 63.16 293.391 63.16C292.847 63.16 292.367 63.0533 291.951 62.84C291.535 62.6267 291.21 62.328 290.975 61.944C290.751 61.56 290.639 61.1227 290.639 60.632C290.639 60.1307 290.751 59.6773 290.975 59.272C291.21 58.856 291.535 58.5307 291.951 58.296C292.378 58.0507 292.858 57.928 293.391 57.928L296.207 57.928L296.207 59.048L293.391 59.048C292.826 59.048 292.41 59.192 292.143 59.48C291.887 59.768 291.759 60.152 291.759 60.632C291.759 61.08 291.887 61.4267 292.143 61.672C292.399 61.9067 292.815 62.024 293.391 62.024C293.882 62.024 294.33 61.9013 294.735 61.656C295.141 61.4 295.461 61.048 295.695 60.6C295.93 60.1413 296.047 59.624 296.047 59.048L296.207 59.048ZM291.071 57.64C291.071 56.7867 291.349 56.136 291.903 55.688C292.458 55.2293 293.215 55 294.175 55L294.175 56.136C292.853 56.136 292.191 56.6373 292.191 57.64L291.071 57.64ZM296.047 58.44C296.047 57.8107 295.978 57.3307 295.839 57C295.711 56.6693 295.514 56.4453 295.247 56.328C294.981 56.2 294.623 56.136 294.175 56.136L294.175 55C294.879 55 295.445 55.112 295.871 55.336C296.309 55.56 296.634 55.9227 296.847 56.424C297.061 56.9253 297.167 57.5973 297.167 58.44L297.167 63L296.047 63L296.047 58.44ZM299.244 55L300.364 55L300.364 63L299.244 63L299.244 55ZM300.156 58.44C300.156 57.7467 300.242 57.1387 300.412 56.616C300.594 56.0933 300.828 55.6933 301.116 55.416C301.415 55.1387 301.735 55 302.076 55C302.3 55 302.482 55.0213 302.62 55.064C302.759 55.096 302.919 55.1707 303.1 55.288L303.1 56.408C302.93 56.2907 302.77 56.216 302.62 56.184C302.471 56.1413 302.29 56.12 302.076 56.12C301.799 56.12 301.527 56.2053 301.26 56.376C301.004 56.536 300.791 56.792 300.62 57.144C300.45 57.4853 300.364 57.9173 300.364 58.44L300.156 58.44ZM307.808 66.2C307.115 66.2 306.507 66.0773 305.984 65.832C305.472 65.5973 305.072 65.24 304.784 64.76C304.507 64.2907 304.368 63.704 304.368 63L305.488 63C305.488 63.736 305.691 64.2693 306.096 64.6C306.512 64.9307 307.083 65.096 307.808 65.096C308.555 65.096 309.126 64.8667 309.52 64.408C309.926 63.96 310.128 63.1173 310.128 61.88L311.248 61.88C311.248 62.936 311.104 63.7787 310.816 64.408C310.539 65.048 310.144 65.5067 309.632 65.784C309.131 66.0613 308.523 66.2 307.808 66.2ZM307.568 63.16C306.886 63.16 306.294 63 305.792 62.68C305.291 62.36 304.902 61.8907 304.624 61.272C304.358 60.6427 304.224 59.8853 304.224 59L305.344 59C305.344 60.0027 305.542 60.7653 305.936 61.288C306.342 61.8 306.886 62.056 307.568 62.056C308.347 62.056 308.966 61.8427 309.424 61.416C309.894 60.9787 310.128 60.1733 310.128 59L310.4 59C310.4 59.9173 310.304 60.6853 310.112 61.304C309.92 61.912 309.616 62.376 309.2 62.696C308.784 63.0053 308.24 63.16 307.568 63.16ZM304.224 59C304.224 58.1147 304.358 57.3627 304.624 56.744C304.902 56.1147 305.291 55.64 305.792 55.32C306.294 55 306.886 54.84 307.568 54.84C308.24 54.84 308.784 55 309.2 55.32C309.616 55.6293 309.92 56.0933 310.112 56.712C310.304 57.32 310.4 58.0827 310.4 59L310.128 59C310.128 57.8267 309.894 57.0267 309.424 56.6C308.966 56.1627 308.347 55.944 307.568 55.944C306.886 55.944 306.342 56.2053 305.936 56.728C305.542 57.24 305.344 57.9973 305.344 59L304.224 59ZM310.128 55L311.248 55L311.248 61.88L310.128 61.88L310.128 55ZM316.773 63.16C316.048 63.16 315.413 62.9893 314.869 62.648C314.325 62.3067 313.904 61.8213 313.605 61.192C313.317 60.5627 313.173 59.832 313.173 59C313.173 58.168 313.317 57.4373 313.605 56.808C313.904 56.1787 314.325 55.6933 314.869 55.352C315.413 55.0107 316.048 54.84 316.773 54.84C317.893 54.84 318.773 55.2453 319.413 56.056C320.053 56.856 320.373 58.008 320.373 59.512L319.253 59.512C319.253 58.6693 319.152 57.9867 318.949 57.464C318.746 56.9307 318.458 56.5467 318.085 56.312C317.722 56.0667 317.285 55.944 316.773 55.944C316.005 55.944 315.397 56.2 314.949 56.712C314.512 57.224 314.293 57.9867 314.293 59C314.293 60.0133 314.512 60.776 314.949 61.288C315.397 61.8 316.005 62.056 316.773 62.056C317.381 62.056 317.888 61.9013 318.293 61.592C318.698 61.272 318.976 60.8027 319.125 60.184L320.277 60.184C320.17 60.7813 319.957 61.304 319.637 61.752C319.328 62.2 318.928 62.5467 318.437 62.792C317.946 63.0373 317.392 63.16 316.773 63.16ZM313.717 58.488L319.749 58.488L320.357 59.512L313.717 59.512L313.717 58.488ZM322.294 55L323.414 55L323.414 63L322.294 63L322.294 55ZM323.206 58.44C323.206 57.7467 323.291 57.1387 323.462 56.616C323.643 56.0933 323.878 55.6933 324.166 55.416C324.464 55.1387 324.784 55 325.126 55C325.35 55 325.531 55.0213 325.67 55.064C325.808 55.096 325.968 55.1707 326.15 55.288L326.15 56.408C325.979 56.2907 325.819 56.216 325.67 56.184C325.52 56.1413 325.339 56.12 325.126 56.12C324.848 56.12 324.576 56.2053 324.31 56.376C324.054 56.536 323.84 56.792 323.67 57.144C323.499 57.4853 323.414 57.9173 323.414 58.44L323.206 58.44ZM144.568 75C144.568 73.6133 144.792 72.5733 145.24 71.88C145.688 71.1867 146.408 70.84 147.4 70.84C148.093 70.84 148.701 71.0053 149.224 71.336C149.757 71.656 150.168 72.1307 150.456 72.76C150.755 73.3787 150.904 74.1253 150.904 75L149.784 75C149.784 74.008 149.56 73.2507 149.112 72.728C148.664 72.2053 148.093 71.944 147.4 71.944C146.621 71.944 145.997 72.1627 145.528 72.6C145.069 73.0267 144.84 73.8267 144.84 75L144.568 75ZM144.84 82.2L143.72 82.2L143.72 71L144.84 71L144.84 82.2ZM144.84 75C144.84 76.1733 145.069 76.9787 145.528 77.416C145.997 77.8427 146.621 78.056 147.4 78.056C148.093 78.056 148.664 77.7947 149.112 77.272C149.56 76.7493 149.784 75.992 149.784 75L150.904 75C150.904 75.8747 150.755 76.6267 150.456 77.256C150.168 77.8747 149.757 78.3493 149.224 78.68C148.701 79 148.093 79.16 147.4 79.16C146.728 79.16 146.184 79.0053 145.768 78.696C145.352 78.376 145.048 77.912 144.856 77.304C144.664 76.6853 144.568 75.9173 144.568 75L144.84 75ZM152.825 71L153.945 71L153.945 79L152.825 79L152.825 71ZM153.737 74.44C153.737 73.7467 153.822 73.1387 153.993 72.616C154.174 72.0933 154.409 71.6933 154.697 71.416C154.996 71.1387 155.316 71 155.657 71C155.881 71 156.062 71.0213 156.201 71.064C156.34 71.096 156.5 71.1707 156.681 71.288L156.681 72.408C156.51 72.2907 156.35 72.216 156.201 72.184C156.052 72.1413 155.87 72.12 155.657 72.12C155.38 72.12 155.108 72.2053 154.841 72.376C154.585 72.536 154.372 72.792 154.201 73.144C154.03 73.4853 153.945 73.9173 153.945 74.44L153.737 74.44ZM161.561 79.16C160.836 79.16 160.201 78.9893 159.657 78.648C159.113 78.3067 158.692 77.8213 158.393 77.192C158.105 76.5627 157.961 75.832 157.961 75C157.961 74.168 158.105 73.4373 158.393 72.808C158.692 72.1787 159.113 71.6933 159.657 71.352C160.201 71.0107 160.836 70.84 161.561 70.84C162.287 70.84 162.921 71.0107 163.465 71.352C164.009 71.6933 164.425 72.1787 164.713 72.808C165.012 73.4373 165.161 74.168 165.161 75C165.161 75.832 165.012 76.5627 164.713 77.192C164.425 77.8213 164.009 78.3067 163.465 78.648C162.921 78.9893 162.287 79.16 161.561 79.16ZM161.561 78.056C162.329 78.056 162.932 77.8 163.369 77.288C163.817 76.776 164.041 76.0133 164.041 75C164.041 73.9867 163.817 73.224 163.369 72.712C162.932 72.2 162.329 71.944 161.561 71.944C160.793 71.944 160.185 72.2 159.737 72.712C159.3 73.224 159.081 73.9867 159.081 75C159.081 76.0133 159.3 76.776 159.737 77.288C160.185 77.8 160.793 78.056 161.561 78.056ZM168.998 71L168.998 79L167.878 79L167.878 71L168.998 71ZM171.318 68.904L170.966 68.904C170.336 68.9253 169.883 69.0053 169.606 69.144C169.328 69.2827 169.158 69.4853 169.094 69.752C169.03 70.008 168.998 70.424 168.998 71L167.878 71C167.888 70.2213 167.979 69.608 168.15 69.16C168.32 68.712 168.651 68.376 169.142 68.152C169.632 67.9173 170.358 67.8 171.318 67.8L171.318 68.904ZM166.598 71L167.878 71L167.878 71.96L166.598 71.96L166.598 71ZM168.998 71L171.078 71L171.078 71.96L168.998 71.96L168.998 71ZM173.394 71L174.514 71L174.514 79L173.394 79L173.394 71ZM173.954 69.224C173.762 69.224 173.591 69.1547 173.442 69.016C173.303 68.8773 173.234 68.7067 173.234 68.504C173.234 68.312 173.303 68.1467 173.442 68.008C173.591 67.8693 173.762 67.8 173.954 67.8C174.146 67.8 174.311 67.8693 174.45 68.008C174.599 68.1467 174.674 68.312 174.674 68.504C174.674 68.7067 174.599 68.8773 174.45 69.016C174.311 69.1547 174.146 69.224 173.954 69.224ZM177.869 67.8L178.989 67.8L178.989 75.8L177.869 75.8L177.869 67.8ZM177.869 71L177.869 71.96L176.589 71.96L176.589 71L177.869 71ZM180.749 71L180.749 71.96L178.989 71.96L178.989 71L180.749 71ZM180.749 79C180.034 79 179.469 78.904 179.053 78.712C178.647 78.52 178.349 78.1947 178.157 77.736C177.975 77.2667 177.879 76.6213 177.869 75.8L178.989 75.8C178.989 76.4293 179.037 76.888 179.133 77.176C179.229 77.464 179.394 77.656 179.629 77.752C179.874 77.848 180.247 77.896 180.749 77.896L180.749 79ZM183.783 76.28C183.783 76.8667 183.975 77.32 184.359 77.64C184.753 77.96 185.324 78.12 186.071 78.12C186.721 78.12 187.212 78.024 187.543 77.832C187.873 77.6293 188.039 77.3147 188.039 76.888C188.039 76.4827 187.921 76.1947 187.687 76.024C187.452 75.8533 187.025 75.7093 186.407 75.592L185.591 75.432C184.641 75.272 183.937 75.0053 183.479 74.632C183.02 74.248 182.791 73.7147 182.791 73.032C182.791 72.328 183.057 71.7893 183.591 71.416C184.135 71.032 184.855 70.84 185.751 70.84C186.38 70.84 186.919 70.9573 187.367 71.192C187.825 71.416 188.172 71.7413 188.407 72.168C188.641 72.584 188.759 73.0747 188.759 73.64L187.639 73.64C187.639 72.4667 187.009 71.88 185.751 71.88C185.153 71.88 184.695 71.9707 184.375 72.152C184.065 72.3333 183.911 72.6267 183.911 73.032C183.911 73.4267 184.044 73.7307 184.311 73.944C184.577 74.1467 185.004 74.296 185.591 74.392L186.375 74.52C187.025 74.6267 187.553 74.776 187.959 74.968C188.364 75.1493 188.663 75.3947 188.855 75.704C189.057 76.0133 189.159 76.408 189.159 76.888C189.159 77.6453 188.881 78.216 188.327 78.6C187.783 78.9733 187.031 79.16 186.071 79.16C184.983 79.16 184.14 78.9093 183.543 78.408C182.956 77.9067 182.663 77.1973 182.663 76.28L183.783 76.28ZM197.163 71L197.163 79L196.043 79L196.043 71L197.163 71ZM199.483 68.904L199.131 68.904C198.502 68.9253 198.048 69.0053 197.771 69.144C197.494 69.2827 197.323 69.4853 197.259 69.752C197.195 70.008 197.163 70.424 197.163 71L196.043 71C196.054 70.2213 196.144 69.608 196.315 69.16C196.486 68.712 196.816 68.376 197.307 68.152C197.798 67.9173 198.523 67.8 199.483 67.8L199.483 68.904ZM194.763 71L196.043 71L196.043 71.96L194.763 71.96L194.763 71ZM197.163 71L199.243 71L199.243 71.96L197.163 71.96L197.163 71ZM204.515 79.16C203.79 79.16 203.155 78.9893 202.611 78.648C202.067 78.3067 201.646 77.8213 201.347 77.192C201.059 76.5627 200.915 75.832 200.915 75C200.915 74.168 201.059 73.4373 201.347 72.808C201.646 72.1787 202.067 71.6933 202.611 71.352C203.155 71.0107 203.79 70.84 204.515 70.84C205.24 70.84 205.875 71.0107 206.419 71.352C206.963 71.6933 207.379 72.1787 207.667 72.808C207.966 73.4373 208.115 74.168 208.115 75C208.115 75.832 207.966 76.5627 207.667 77.192C207.379 77.8213 206.963 78.3067 206.419 78.648C205.875 78.9893 205.24 79.16 204.515 79.16ZM204.515 78.056C205.283 78.056 205.886 77.8 206.323 77.288C206.771 76.776 206.995 76.0133 206.995 75C206.995 73.9867 206.771 73.224 206.323 72.712C205.886 72.2 205.283 71.944 204.515 71.944C203.747 71.944 203.139 72.2 202.691 72.712C202.254 73.224 202.035 73.9867 202.035 75C202.035 76.0133 202.254 76.776 202.691 77.288C203.139 77.8 203.747 78.056 204.515 78.056ZM210.036 71L211.156 71L211.156 79L210.036 79L210.036 71ZM210.948 74.44C210.948 73.7467 211.033 73.1387 211.204 72.616C211.385 72.0933 211.62 71.6933 211.908 71.416C212.206 71.1387 212.526 71 212.868 71C213.092 71 213.273 71.0213 213.412 71.064C213.55 71.096 213.71 71.1707 213.892 71.288L213.892 72.408C213.721 72.2907 213.561 72.216 213.412 72.184C213.262 72.1413 213.081 72.12 212.868 72.12C212.59 72.12 212.318 72.2053 212.052 72.376C211.796 72.536 211.582 72.792 211.412 73.144C211.241 73.4853 211.156 73.9173 211.156 74.44L210.948 74.44ZM223.096 79.16C222.37 79.16 221.736 78.9893 221.192 78.648C220.648 78.3067 220.226 77.8213 219.928 77.192C219.64 76.5627 219.496 75.832 219.496 75C219.496 74.168 219.64 73.4373 219.928 72.808C220.226 72.1787 220.648 71.6933 221.192 71.352C221.736 71.0107 222.37 70.84 223.096 70.84C223.821 70.84 224.456 71.0107 225 71.352C225.544 71.6933 225.96 72.1787 226.248 72.808C226.546 73.4373 226.696 74.168 226.696 75C226.696 75.832 226.546 76.5627 226.248 77.192C225.96 77.8213 225.544 78.3067 225 78.648C224.456 78.9893 223.821 79.16 223.096 79.16ZM223.096 78.056C223.864 78.056 224.466 77.8 224.904 77.288C225.352 76.776 225.576 76.0133 225.576 75C225.576 73.9867 225.352 73.224 224.904 72.712C224.466 72.2 223.864 71.944 223.096 71.944C222.328 71.944 221.72 72.2 221.272 72.712C220.834 73.224 220.616 73.9867 220.616 75C220.616 76.0133 220.834 76.776 221.272 77.288C221.72 77.8 222.328 78.056 223.096 78.056ZM231.608 79C230.574 79 229.816 78.7227 229.336 78.168C228.856 77.6133 228.616 76.744 228.616 75.56L228.616 71L229.736 71L229.736 75.56C229.736 76.3707 229.902 76.9733 230.232 77.368C230.563 77.7627 231.022 77.96 231.608 77.96L231.608 79ZM235.304 79L234.184 79L234.184 71L235.304 71L235.304 79ZM234.392 75.56C234.392 76.776 234.152 77.656 233.672 78.2C233.192 78.7333 232.504 79 231.608 79L231.608 77.96C232.387 77.96 233.011 77.7733 233.48 77.4C233.95 77.0267 234.184 76.4133 234.184 75.56L234.392 75.56ZM238.018 71L239.138 71L239.138 79L238.018 79L238.018 71ZM238.93 74.44C238.93 73.7467 239.015 73.1387 239.186 72.616C239.367 72.0933 239.602 71.6933 239.89 71.416C240.189 71.1387 240.509 71 240.85 71C241.074 71 241.255 71.0213 241.394 71.064C241.533 71.096 241.693 71.1707 241.874 71.288L241.874 72.408C241.703 72.2907 241.543 72.216 241.394 72.184C241.245 72.1413 241.063 72.12 240.85 72.12C240.573 72.12 240.301 72.2053 240.034 72.376C239.778 72.536 239.565 72.792 239.394 73.144C239.223 73.4853 239.138 73.9173 239.138 74.44L238.93 74.44ZM247.478 67.8L248.598 67.8L248.598 71L247.478 71L247.478 67.8ZM251.174 71C252.209 71 252.966 71.2773 253.446 71.832C253.926 72.3867 254.166 73.256 254.166 74.44L254.166 79L253.046 79L253.046 74.44C253.046 73.6293 252.881 73.0267 252.55 72.632C252.219 72.2373 251.761 72.04 251.174 72.04L251.174 71ZM247.478 71L248.598 71L248.598 79L247.478 79L247.478 71ZM248.39 74.44C248.39 73.224 248.63 72.3493 249.11 71.816C249.59 71.272 250.278 71 251.174 71L251.174 72.04C250.395 72.04 249.771 72.2267 249.302 72.6C248.833 72.9733 248.598 73.5867 248.598 74.44L248.39 74.44ZM259.683 79.16C258.958 79.16 258.323 78.9893 257.779 78.648C257.235 78.3067 256.814 77.8213 256.515 77.192C256.227 76.5627 256.083 75.832 256.083 75C256.083 74.168 256.227 73.4373 256.515 72.808C256.814 72.1787 257.235 71.6933 257.779 71.352C258.323 71.0107 258.958 70.84 259.683 70.84C260.408 70.84 261.043 71.0107 261.587 71.352C262.131 71.6933 262.547 72.1787 262.835 72.808C263.134 73.4373 263.283 74.168 263.283 75C263.283 75.832 263.134 76.5627 262.835 77.192C262.547 77.8213 262.131 78.3067 261.587 78.648C261.043 78.9893 260.408 79.16 259.683 79.16ZM259.683 78.056C260.451 78.056 261.054 77.8 261.491 77.288C261.939 76.776 262.163 76.0133 262.163 75C262.163 73.9867 261.939 73.224 261.491 72.712C261.054 72.2 260.451 71.944 259.683 71.944C258.915 71.944 258.307 72.2 257.859 72.712C257.422 73.224 257.203 73.9867 257.203 75C257.203 76.0133 257.422 76.776 257.859 77.288C258.307 77.8 258.915 78.056 259.683 78.056ZM265.204 67.8L266.324 67.8L266.324 79L265.204 79L265.204 67.8ZM274.582 75C274.582 76.3867 274.358 77.4267 273.91 78.12C273.462 78.8133 272.742 79.16 271.75 79.16C271.057 79.16 270.444 79 269.91 78.68C269.388 78.3493 268.977 77.8747 268.678 77.256C268.39 76.6267 268.246 75.8747 268.246 75L269.366 75C269.366 75.992 269.59 76.7493 270.038 77.272C270.486 77.7947 271.057 78.056 271.75 78.056C272.529 78.056 273.148 77.8427 273.606 77.416C274.076 76.9787 274.31 76.1733 274.31 75L274.582 75ZM274.31 67.8L275.43 67.8L275.43 79L274.31 79L274.31 67.8ZM274.31 75C274.31 73.8267 274.076 73.0267 273.606 72.6C273.148 72.1627 272.529 71.944 271.75 71.944C271.057 71.944 270.486 72.2053 270.038 72.728C269.59 73.2507 269.366 74.008 269.366 75L268.246 75C268.246 74.1253 268.39 73.3787 268.678 72.76C268.977 72.1307 269.388 71.656 269.91 71.336C270.444 71.0053 271.057 70.84 271.75 70.84C272.422 70.84 272.966 71 273.382 71.32C273.798 71.6293 274.102 72.0933 274.294 72.712C274.486 73.32 274.582 74.0827 274.582 75L274.31 75ZM280.951 79.16C280.226 79.16 279.591 78.9893 279.047 78.648C278.503 78.3067 278.082 77.8213 277.783 77.192C277.495 76.5627 277.351 75.832 277.351 75C277.351 74.168 277.495 73.4373 277.783 72.808C278.082 72.1787 278.503 71.6933 279.047 71.352C279.591 71.0107 280.226 70.84 280.951 70.84C282.071 70.84 282.951 71.2453 283.591 72.056C284.231 72.856 284.551 74.008 284.551 75.512L283.431 75.512C283.431 74.6693 283.33 73.9867 283.127 73.464C282.925 72.9307 282.637 72.5467 282.263 72.312C281.901 72.0667 281.463 71.944 280.951 71.944C280.183 71.944 279.575 72.2 279.127 72.712C278.69 73.224 278.471 73.9867 278.471 75C278.471 76.0133 278.69 76.776 279.127 77.288C279.575 77.8 280.183 78.056 280.951 78.056C281.559 78.056 282.066 77.9013 282.471 77.592C282.877 77.272 283.154 76.8027 283.303 76.184L284.455 76.184C284.349 76.7813 284.135 77.304 283.815 77.752C283.506 78.2 283.106 78.5467 282.615 78.792C282.125 79.0373 281.57 79.16 280.951 79.16ZM277.895 74.488L283.927 74.488L284.535 75.512L277.895 75.512L277.895 74.488ZM286.472 71L287.592 71L287.592 79L286.472 79L286.472 71ZM287.384 74.44C287.384 73.7467 287.469 73.1387 287.64 72.616C287.821 72.0933 288.056 71.6933 288.344 71.416C288.643 71.1387 288.963 71 289.304 71C289.528 71 289.709 71.0213 289.848 71.064C289.987 71.096 290.147 71.1707 290.328 71.288L290.328 72.408C290.157 72.2907 289.997 72.216 289.848 72.184C289.699 72.1413 289.517 72.12 289.304 72.12C289.027 72.12 288.755 72.2053 288.488 72.376C288.232 72.536 288.019 72.792 287.848 73.144C287.677 73.4853 287.592 73.9173 287.592 74.44L287.384 74.44ZM292.728 76.28C292.728 76.8667 292.92 77.32 293.304 77.64C293.699 77.96 294.269 78.12 295.016 78.12C295.667 78.12 296.157 78.024 296.488 77.832C296.819 77.6293 296.984 77.3147 296.984 76.888C296.984 76.4827 296.867 76.1947 296.632 76.024C296.397 75.8533 295.971 75.7093 295.352 75.592L294.536 75.432C293.587 75.272 292.883 75.0053 292.424 74.632C291.965 74.248 291.736 73.7147 291.736 73.032C291.736 72.328 292.003 71.7893 292.536 71.416C293.08 71.032 293.8 70.84 294.696 70.84C295.325 70.84 295.864 70.9573 296.312 71.192C296.771 71.416 297.117 71.7413 297.352 72.168C297.587 72.584 297.704 73.0747 297.704 73.64L296.584 73.64C296.584 72.4667 295.955 71.88 294.696 71.88C294.099 71.88 293.64 71.9707 293.32 72.152C293.011 72.3333 292.856 72.6267 292.856 73.032C292.856 73.4267 292.989 73.7307 293.256 73.944C293.523 74.1467 293.949 74.296 294.536 74.392L295.32 74.52C295.971 74.6267 296.499 74.776 296.904 74.968C297.309 75.1493 297.608 75.3947 297.8 75.704C298.003 76.0133 298.104 76.408 298.104 76.888C298.104 77.6453 297.827 78.216 297.272 78.6C296.728 78.9733 295.976 79.16 295.016 79.16C293.928 79.16 293.085 78.9093 292.488 78.408C291.901 77.9067 291.608 77.1973 291.608 76.28L292.728 76.28Z" fill="#00E0F7"/>
<g filter="url(#filter0_d_2023_3005)">
<path fill-rule="evenodd" clip-rule="evenodd" d="M150.494 26.9882C154.633 26.9882 157.988 23.633 157.988 19.4941C157.988 15.3552 154.633 12 150.494 12C146.355 12 143 15.3552 143 19.4941C143 23.633 146.355 26.9882 150.494 26.9882ZM149.512 14.7089V16.8999C149.512 18.1861 149.593 19.5651 149.757 21.0366C149.79 21.2328 149.888 21.3309 150.051 21.3309H150.722C150.885 21.3309 150.983 21.2328 151.016 21.0366C151.18 19.5651 151.261 18.1861 151.261 16.8999V14.7089C151.261 14.5236 151.169 14.4309 150.983 14.4309H149.79C149.604 14.4309 149.512 14.5236 149.512 14.7089ZM151.212 24.6665V22.6717C151.212 22.4973 151.125 22.4101 150.951 22.4101H149.855C149.681 22.4101 149.593 22.4973 149.593 22.6717V24.6502C149.593 24.8464 149.681 24.9445 149.855 24.9445H150.951C151.125 24.9445 151.212 24.8518 151.212 24.6665Z" fill="#FFF048"/>
</g>
<defs>
<filter id="filter0_d_2023_3005" x="139.588" y="8.58804" width="21.8122" height="21.8122" filterUnits="userSpaceOnUse" color-interpolation-filters="sRGB">
<feFlood flood-opacity="0" result="BackgroundImageFix"/>
<feColorMatrix in="SourceAlpha" type="matrix" values="0 0 0 0 0 0 0 0 0 0 0 0 0 0 0 0 0 0 127 0" result="hardAlpha"/>
<feOffset/>
<feGaussianBlur stdDeviation="1.70598"/>
<feColorMatrix type="matrix" values="0 0 0 0 0.996078 0 0 0 0 0.784314 0 0 0 0 0.247059 0 0 0 0.46 0"/>
<feBlend mode="normal" in2="BackgroundImageFix" result="effect1_dropShadow_2023_3005"/>
<feBlend mode="normal" in="SourceGraphic" in2="effect1_dropShadow_2023_3005" result="shape"/>
</filter>
</defs>
</svg>
