<svg width="1440" height="480" viewBox="0 0 1440 480" fill="none" xmlns="http://www.w3.org/2000/svg">
<g opacity="0.8" clip-path="url(#clip0_7_9187)">
<path opacity="0.8" d="M404.254 48.617C470.431 -66.004 431.159 -212.569 316.538 -278.746C201.916 -344.922 55.3511 -305.65 -10.8253 -191.029C-77.0018 -76.4082 -37.7297 70.1571 76.8913 136.334C191.512 202.51 338.078 163.238 404.254 48.617Z" stroke="white" stroke-width="0.877022" stroke-miterlimit="10"/>
<path opacity="0.8" d="M453.225 -26.7852C470.138 -155.251 379.706 -273.104 251.24 -290.017C122.774 -306.93 4.92109 -216.498 -11.9918 -88.0321C-28.9046 40.4339 61.527 158.287 189.993 175.2C318.459 192.112 436.312 101.681 453.225 -26.7852Z" stroke="white" stroke-width="0.877022" stroke-miterlimit="10"/>
<path opacity="0.8" d="M389.712 -221.378C291.48 -301.551 146.854 -286.912 66.681 -188.68C-13.4922 -90.4476 1.1474 54.1783 99.3794 134.351C197.611 214.525 342.237 199.885 422.41 101.653C502.584 3.42108 487.944 -141.205 389.712 -221.378Z" stroke="white" stroke-width="0.877022" stroke-miterlimit="10"/>
<path opacity="0.8" d="M463.042 82.5545C525.051 -24.8481 488.252 -162.183 380.85 -224.192C273.447 -286.201 136.112 -249.402 74.1032 -141.999C12.0943 -34.597 48.8931 102.738 156.296 164.747C263.698 226.756 401.033 189.957 463.042 82.5545Z" stroke="white" stroke-width="0.877022" stroke-miterlimit="10"/>
<path opacity="0.8" d="M504.547 -72.7009C473.168 -189.809 352.795 -259.306 235.687 -227.927C118.579 -196.548 49.0815 -76.1755 80.4605 40.9327C111.84 158.041 232.212 227.538 349.32 196.159C466.429 164.78 535.926 44.4073 504.547 -72.7009Z" stroke="white" stroke-width="0.877022" stroke-miterlimit="10"/>
<path opacity="0.8" d="M502.252 105.197C561.5 2.57573 526.339 -128.646 423.718 -187.894C321.097 -247.143 189.875 -211.982 130.627 -109.361C71.3781 -6.73921 106.539 124.482 209.16 183.731C311.782 242.979 443.003 207.819 502.252 105.197Z" stroke="white" stroke-width="0.877022" stroke-miterlimit="10"/>
<path opacity="0.8" d="M525.468 -86.4887C471.195 -188.691 344.347 -227.545 242.145 -173.271C139.944 -118.998 101.09 7.84969 155.363 110.052C209.636 212.253 336.484 251.107 438.686 196.834C540.888 142.561 579.742 15.7132 525.468 -86.4887Z" stroke="white" stroke-width="0.877022" stroke-miterlimit="10"/>
<path opacity="0.8" d="M513.233 -114.619C435.819 -196.855 306.398 -200.764 224.163 -123.35C141.928 -45.9367 138.019 83.4843 215.432 165.72C292.846 247.955 422.266 251.864 504.502 174.45C586.737 97.037 590.646 -32.3839 513.233 -114.619Z" stroke="white" stroke-width="0.877022" stroke-miterlimit="10"/>
<path opacity="0.8" d="M533.521 -97.2831C458.012 -177.495 331.775 -181.308 251.563 -105.799C171.35 -30.2901 167.537 95.9469 243.046 176.159C318.555 256.372 444.793 260.184 525.005 184.675C605.217 109.166 609.03 -17.0707 533.521 -97.2831Z" stroke="white" stroke-width="0.877022" stroke-miterlimit="10"/>
<path opacity="0.8" d="M580.617 150.441C634.309 57.4444 602.446 -61.4701 509.449 -115.162C416.453 -168.854 297.538 -136.99 243.846 -43.9937C190.155 49.0031 222.018 167.918 315.014 221.609C408.011 275.301 526.926 243.438 580.617 150.441Z" stroke="white" stroke-width="0.877022" stroke-miterlimit="10"/>
<path opacity="0.8" d="M600.306 161.81C652.626 71.188 621.577 -44.6897 530.955 -97.0102C440.333 -149.331 324.456 -118.281 272.135 -27.6596C219.815 62.9623 250.864 178.84 341.486 231.161C432.108 283.481 547.985 252.432 600.306 161.81Z" stroke="white" stroke-width="0.877022" stroke-miterlimit="10"/>
<path opacity="0.8" d="M576.513 -62.1678C497.507 -126.465 381.338 -114.542 317.04 -35.5369C252.743 43.4684 264.666 159.638 343.671 223.936C422.676 288.233 538.846 276.31 603.144 197.305C667.441 118.3 655.518 2.12972 576.513 -62.1678Z" stroke="white" stroke-width="0.877022" stroke-miterlimit="10"/>
<path opacity="0.8" d="M661.8 119.189C675.35 21.0356 606.765 -69.518 508.612 -83.0681C410.459 -96.6182 319.905 -28.0336 306.355 70.1198C292.805 168.273 361.389 258.827 459.543 272.377C557.696 285.927 648.25 217.342 661.8 119.189Z" stroke="white" stroke-width="0.877022" stroke-miterlimit="10"/>
<path opacity="0.8" d="M618.068 -26.7235C543.372 -87.5135 433.54 -76.2408 372.75 -1.5454C311.96 73.15 323.232 182.983 397.928 243.773C472.623 304.563 582.456 293.29 643.246 218.594C704.036 143.899 692.763 34.0664 618.068 -26.7235Z" stroke="white" stroke-width="0.877022" stroke-miterlimit="10"/>
<path opacity="0.8" d="M648.425 -0.581701C580.504 -64.8788 473.32 -61.9411 409.023 5.97999C344.726 73.901 347.663 181.085 415.584 245.382C483.506 309.679 590.69 306.742 654.987 238.821C719.284 170.899 716.346 63.7154 648.425 -0.581701Z" stroke="white" stroke-width="0.877022" stroke-miterlimit="10"/>
<path opacity="0.8" d="M698.303 218.391C743.696 139.769 716.758 39.2346 638.136 -6.15797C559.513 -51.5505 458.98 -24.6126 413.587 54.0097C368.194 132.632 395.132 233.166 473.755 278.558C552.377 323.951 652.911 297.013 698.303 218.391Z" stroke="white" stroke-width="0.877022" stroke-miterlimit="10"/>
<path opacity="0.8" d="M717.936 229.729C761.939 153.513 735.826 56.0558 659.61 12.0524C583.394 -31.951 485.936 -5.83743 441.933 70.3787C397.93 146.595 424.043 244.052 500.259 288.055C576.475 332.059 673.933 305.945 717.936 229.729Z" stroke="white" stroke-width="0.877022" stroke-miterlimit="10"/>
<path opacity="0.8" d="M709.62 51.4799C647.573 -6.94964 549.907 -4.01687 491.478 58.0304C433.048 120.078 435.981 217.743 498.028 276.173C560.076 334.603 657.741 331.67 716.171 269.622C774.601 207.575 771.668 109.909 709.62 51.4799Z" stroke="white" stroke-width="0.877022" stroke-miterlimit="10"/>
<path opacity="0.8" d="M771.982 139.016C750.642 59.3757 668.782 12.1135 589.141 33.4531C509.501 54.7927 462.238 136.653 483.578 216.294C504.918 295.934 586.778 343.197 666.419 321.857C746.059 300.517 793.322 218.657 771.982 139.016Z" stroke="white" stroke-width="0.877022" stroke-miterlimit="10"/>
<path opacity="0.8" d="M791.093 154.18C770.472 77.2233 691.37 31.5537 614.413 52.1742C537.456 72.7948 491.787 151.897 512.407 228.854C533.028 305.81 612.13 351.48 689.087 330.86C766.044 310.239 811.713 231.137 791.093 154.18Z" stroke="white" stroke-width="0.877022" stroke-miterlimit="10"/>
<path opacity="0.8" d="M771.163 103.894C715.158 51.154 627.002 53.8012 574.263 109.807C521.523 165.812 524.17 253.968 580.175 306.708C636.181 359.447 724.336 356.8 777.076 300.795C829.816 244.789 827.169 156.634 771.163 103.894Z" stroke="white" stroke-width="0.877022" stroke-miterlimit="10"/>
<path opacity="0.8" d="M791.643 121.405C737.66 70.5694 652.689 73.121 601.853 127.104C551.018 181.086 553.57 266.058 607.553 316.893C661.535 367.728 746.507 365.177 797.342 311.194C848.177 257.211 845.626 172.24 791.643 121.405Z" stroke="white" stroke-width="0.877022" stroke-miterlimit="10"/>
<path opacity="0.8" d="M821.013 132.719C765.008 79.979 676.852 82.6262 624.112 138.632C571.372 194.637 574.019 282.793 630.025 335.533C686.03 388.272 774.186 385.625 826.926 329.62C879.666 273.614 877.018 185.459 821.013 132.719Z" stroke="white" stroke-width="0.877022" stroke-miterlimit="10"/>
<path opacity="0.8" d="M890.841 211.77C870.22 134.813 791.118 89.1436 714.161 109.764C637.204 130.385 591.535 209.487 612.155 286.443C632.776 363.4 711.878 409.07 788.835 388.449C865.792 367.829 911.461 288.727 890.841 211.77Z" stroke="white" stroke-width="0.877022" stroke-miterlimit="10"/>
<path opacity="0.8" d="M879.676 155.319C819.652 98.7943 725.17 101.632 668.645 161.656C612.12 221.681 614.957 316.163 674.982 372.687C735.006 429.212 829.488 426.375 886.013 366.35C942.538 306.326 939.701 211.844 879.676 155.319Z" stroke="white" stroke-width="0.877022" stroke-miterlimit="10"/>
<path opacity="0.8" d="M936.967 356.174C979.581 282.364 954.292 187.984 880.482 145.37C806.672 102.756 712.292 128.045 669.677 201.855C627.063 275.665 652.352 370.045 726.162 412.659C799.972 455.274 894.353 429.984 936.967 356.174Z" stroke="white" stroke-width="0.877022" stroke-miterlimit="10"/>
<path opacity="0.8" d="M938.41 177.959C874.34 117.625 773.491 120.653 713.157 184.723C652.822 248.793 655.851 349.643 719.921 409.977C783.991 470.311 884.84 467.283 945.175 403.213C1005.51 339.143 1002.48 238.293 938.41 177.959Z" stroke="white" stroke-width="0.877022" stroke-miterlimit="10"/>
<path opacity="0.8" d="M997.505 391.134C1042.9 312.512 1015.96 211.978 937.337 166.585C858.715 121.193 758.181 148.131 712.788 226.753C667.396 305.375 694.334 405.909 772.956 451.302C851.578 496.694 952.112 469.756 997.505 391.134Z" stroke="white" stroke-width="0.877022" stroke-miterlimit="10"/>
<path opacity="0.8" d="M982.917 188.625C908.203 132.365 802.028 147.324 745.768 222.038C689.507 296.752 704.467 402.928 779.181 459.188C853.895 515.448 960.071 500.488 1016.33 425.774C1072.59 351.06 1057.63 244.885 982.917 188.625Z" stroke="white" stroke-width="0.877022" stroke-miterlimit="10"/>
<path opacity="0.8" d="M1057.94 426.019C1106.09 342.615 1077.51 235.968 994.109 187.815C910.706 139.662 804.058 168.238 755.905 251.641C707.752 335.045 736.329 441.692 819.732 489.845C903.135 537.998 1009.78 509.422 1057.94 426.019Z" stroke="white" stroke-width="0.877022" stroke-miterlimit="10"/>
<path opacity="0.8" d="M1045.96 214.602C969.112 152.058 856.11 163.656 793.567 240.506C731.023 317.357 742.621 430.358 819.471 492.902C896.322 555.446 1009.32 543.848 1071.87 466.997C1134.41 390.147 1122.81 277.146 1045.96 214.602Z" stroke="white" stroke-width="0.877022" stroke-miterlimit="10"/>
<path opacity="0.8" d="M1141.44 394.11C1155.38 293.206 1084.89 200.101 983.99 186.154C883.086 172.206 789.981 242.697 776.034 343.601C762.086 444.504 832.578 537.609 933.481 551.557C1034.38 565.504 1127.49 495.013 1141.44 394.11Z" stroke="white" stroke-width="0.877022" stroke-miterlimit="10"/>
<path opacity="0.8" d="M1167.68 334.694C1140.6 233.618 1036.7 173.636 935.628 200.719C834.553 227.802 774.57 331.695 801.653 432.77C828.736 533.846 932.629 593.829 1033.7 566.746C1134.78 539.663 1194.76 435.769 1167.68 334.694Z" stroke="white" stroke-width="0.877022" stroke-miterlimit="10"/>
<path opacity="0.8" d="M1178.96 495.895C1232.65 402.898 1200.79 283.984 1107.79 230.292C1014.8 176.601 895.882 208.464 842.19 301.46C788.498 394.457 820.361 513.372 913.358 567.063C1006.36 620.755 1125.27 588.892 1178.96 495.895Z" stroke="white" stroke-width="0.877022" stroke-miterlimit="10"/>
<path opacity="0.8" d="M1209.23 513.37C1264.31 417.967 1231.63 295.975 1136.22 240.894C1040.82 185.814 918.829 218.501 863.748 313.904C808.668 409.307 841.355 531.298 936.758 586.379C1032.16 641.46 1154.15 608.772 1209.23 513.37Z" stroke="white" stroke-width="0.877022" stroke-miterlimit="10"/>
<path opacity="0.8" d="M1239.51 530.844C1295.98 433.035 1262.46 307.967 1164.66 251.497C1066.85 195.026 941.779 228.538 885.309 326.348C828.839 424.157 862.35 549.225 960.16 605.695C1057.97 662.165 1183.04 628.653 1239.51 530.844Z" stroke="white" stroke-width="0.877022" stroke-miterlimit="10"/>
<path opacity="0.8" d="M1273.37 345.328C1219.1 243.126 1092.25 204.272 990.05 258.545C887.848 312.819 848.994 439.667 903.267 541.868C957.54 644.07 1084.39 682.924 1186.59 628.651C1288.79 574.378 1327.65 447.53 1273.37 345.328Z" stroke="white" stroke-width="0.877022" stroke-miterlimit="10"/>
<path opacity="0.8" d="M1261.69 302.762C1175.65 221.284 1039.85 224.982 958.376 311.022C876.898 397.062 880.596 532.862 966.636 614.34C1052.68 695.818 1188.48 692.12 1269.95 606.08C1351.43 520.04 1347.73 384.239 1261.69 302.762Z" stroke="white" stroke-width="0.877022" stroke-miterlimit="10"/>
<path opacity="0.8" d="M1330.2 583.214C1390.82 478.217 1354.85 343.959 1249.85 283.339C1144.86 222.72 1010.6 258.694 949.978 363.691C889.359 468.687 925.333 602.945 1030.33 663.565C1135.33 724.185 1269.58 688.21 1330.2 583.214Z" stroke="white" stroke-width="0.877022" stroke-miterlimit="10"/>
<path opacity="0.8" d="M1308.05 314.504C1211.97 236.088 1070.51 250.407 992.098 346.486C913.681 442.566 928 584.023 1024.08 662.439C1120.16 740.855 1261.62 726.537 1340.03 630.457C1418.45 534.378 1404.13 392.921 1308.05 314.504Z" stroke="white" stroke-width="0.877022" stroke-miterlimit="10"/>
<path opacity="0.8" d="M1419.53 533.323C1436.08 407.611 1347.59 292.286 1221.88 275.735C1096.17 259.185 980.843 347.678 964.293 473.389C947.743 599.101 1036.24 714.426 1161.95 730.977C1287.66 747.527 1402.98 659.034 1419.53 533.323Z" stroke="white" stroke-width="0.877022" stroke-miterlimit="10"/>
<path opacity="0.8" d="M1403.93 375.532C1325.05 272.734 1177.77 253.344 1074.97 332.224C972.173 411.104 952.783 558.383 1031.66 661.182C1110.54 763.98 1257.82 783.37 1360.62 704.49C1463.42 625.61 1482.81 478.33 1403.93 375.532Z" stroke="white" stroke-width="0.877022" stroke-miterlimit="10"/>
<path opacity="0.8" d="M1481.33 564.599C1498.61 433.378 1406.24 312.998 1275.02 295.723C1143.8 278.447 1023.42 370.818 1006.14 502.039C988.866 633.259 1081.24 753.639 1212.46 770.915C1343.68 788.19 1464.06 695.82 1481.33 564.599Z" stroke="white" stroke-width="0.877022" stroke-miterlimit="10"/>
</g>
<defs>
<clipPath id="clip0_7_9187">
<rect width="482.494" height="1691.57" fill="white" transform="translate(-132.881 17.1084) rotate(-60)"/>
</clipPath>
</defs>
</svg>
