<svg width="407" height="134" viewBox="0 0 407 134" fill="none" xmlns="http://www.w3.org/2000/svg">
<g filter="url(#filter0_i_7_9472)">
<g clip-path="url(#clip0_7_9472)">
<rect x="6" width="401.544" height="112.907" rx="10.2643" transform="rotate(2.99631 6 0)" fill="#00E0F7"/>
<path d="M53.3624 21.6609C57.3844 21.8714 60.9015 22.2678 63.9135 22.8499C66.9998 23.3653 69.9246 24.2613 72.688 25.538C75.4551 26.7442 77.6708 28.3461 79.3351 30.3436C81.0737 32.2742 82.3928 34.7843 83.2924 37.8739C84.1921 40.9635 84.5329 44.5899 84.315 48.7531C84.0417 53.9747 83.0383 58.2736 81.305 61.6499C79.6422 65.0299 77.2104 67.556 74.0096 69.2281C70.8831 70.8333 67.5021 71.8946 63.8665 72.4118C60.2345 72.8585 55.843 72.9471 50.692 72.6774L39.896 72.1123L38.6605 95.7154L25.0067 95.0007L28.9125 20.3811L53.3624 21.6609ZM52.0534 60.8617C58.3334 61.1905 62.9309 60.5467 65.8457 58.9303C68.7605 57.314 70.3657 53.6834 70.6612 48.0384C70.953 42.464 69.7319 38.7561 66.9981 36.9149C64.2679 35.0031 59.7628 33.8828 53.4828 33.5541L41.9458 32.9502L40.5165 60.2579L52.0534 60.8617ZM89.7879 98.3916L92.1868 52.5614C92.3271 49.88 93.1399 47.8706 94.625 46.5333C96.1807 45.1996 98.2973 44.6382 100.975 44.8491L133.636 47.4078L133.016 59.2622L105.641 57.0864L103.442 99.1063L89.7879 98.3916ZM142.536 94.7846C137.361 89.5608 134.997 82.6799 135.444 74.1419C135.891 65.6039 138.96 59.0074 144.652 54.3524C150.344 49.6974 157.494 47.5952 166.103 48.0458C174.641 48.4927 181.497 51.3281 186.672 56.5518C191.847 61.7756 194.211 68.6565 193.764 77.1945C193.317 85.7326 190.248 92.3291 184.556 96.9841C178.864 101.639 171.749 103.743 163.211 103.296C154.602 102.846 147.711 100.008 142.536 94.7846ZM153.83 63.5357C150.93 66.2142 149.353 69.9878 149.098 74.8566C148.843 79.7254 150.018 83.6431 152.622 86.6096C155.226 89.5761 158.963 91.1868 163.832 91.4417C168.7 91.6965 172.585 90.4847 175.484 87.8063C178.384 85.1278 179.961 81.3542 180.216 76.4854C180.471 71.6166 179.296 67.6989 176.692 64.7324C174.088 61.7659 170.351 60.1552 165.482 59.9003C160.614 59.6455 156.729 60.8573 153.83 63.5357ZM261.27 95.4806L275.983 96.2507L275.362 108.105L197.673 104.039L198.293 92.1842L209.09 92.7493L210.641 63.1131L199.834 62.7597L200.454 50.9052L211.261 51.2586L211.477 47.1307C211.836 40.2862 214.021 35.0232 218.035 31.3417C222.123 27.5934 227.931 26.1285 235.459 26.947L254.773 29.0193L254.152 40.8738L233.356 38.7239C228.146 38.2389 225.361 41.4187 225.003 48.2633L224.82 51.7561L255.231 52.7111C257.986 52.7846 259.997 53.562 261.264 55.0434C262.602 56.5285 263.198 58.6471 263.054 61.399L261.27 95.4806ZM247.722 94.7715L249.301 64.6061L224.194 63.7164L222.637 93.4584L247.722 94.7715ZM298.307 98.4806L317.52 98.4249L316.9 110.279L292.289 110.052C289.604 109.983 287.593 109.205 286.255 107.72C284.918 106.235 284.321 104.117 284.465 101.365L286.249 67.283L273.971 66.6403L274.592 54.7858L286.87 55.4285L287.468 43.9974L301.343 40.4783L300.523 56.1432L317.564 57.0351L316.944 68.8896L299.903 67.9976L298.307 98.4806ZM372.975 98.8865C372.439 109.118 364.445 113.829 348.992 113.021C339.96 112.548 333.349 110.433 329.159 106.676C325.043 102.852 323.155 97.6939 323.495 91.2021L337.148 91.9168C336.801 98.5497 341.038 102.097 349.858 102.559C355.997 102.88 359.155 101.347 359.332 97.9602C359.425 96.1961 358.719 94.8148 357.214 93.8162C355.71 92.8176 352.98 91.578 349.024 90.0974C347.981 89.7597 347.182 89.4703 346.629 89.2291C339.765 86.5349 335.274 84.4602 333.157 83.005C328.86 79.9498 326.803 75.986 326.987 71.1135C327.227 66.5269 329.319 63.0632 333.262 60.7224C337.209 58.3111 342.605 57.2845 349.45 57.6428C357.564 58.0675 363.468 60.1808 367.16 63.9826C370.857 67.7139 372.564 72.2609 372.284 77.6236L358.63 76.909C358.918 71.4051 355.64 68.474 348.795 68.1158C343.503 67.8388 340.779 69.1821 340.624 72.1457C340.539 73.7686 341.424 75.1239 343.277 76.2115C345.131 77.2991 348.484 78.7836 353.339 80.6651C360.273 83.363 364.732 85.3653 366.716 86.6719C371.155 89.7345 373.241 93.806 372.975 98.8865Z" fill="#F7F7F7"/>
</g>
</g>
<defs>
<filter id="filter0_i_7_9472" x="0.0976562" y="0" width="406.897" height="133.742" filterUnits="userSpaceOnUse" color-interpolation-filters="sRGB">
<feFlood flood-opacity="0" result="BackgroundImageFix"/>
<feBlend mode="normal" in="SourceGraphic" in2="BackgroundImageFix" result="shape"/>
<feColorMatrix in="SourceAlpha" type="matrix" values="0 0 0 0 0 0 0 0 0 0 0 0 0 0 0 0 0 0 127 0" result="hardAlpha"/>
<feOffset dx="-10" dy="11"/>
<feComposite in2="hardAlpha" operator="arithmetic" k2="-1" k3="1"/>
<feColorMatrix type="matrix" values="0 0 0 0 0 0 0 0 0 0 0 0 0 0 0 0 0 0 0.12 0"/>
<feBlend mode="normal" in2="shape" result="effect1_innerShadow_7_9472"/>
</filter>
<clipPath id="clip0_7_9472">
<rect x="6" width="401.544" height="112.907" rx="10.2643" transform="rotate(2.99631 6 0)" fill="white"/>
</clipPath>
</defs>
</svg>
