<svg width="112" height="115" viewBox="0 0 112 115" fill="none" xmlns="http://www.w3.org/2000/svg">
<g filter="url(#filter0_d_3417_15588)">
<path d="M56 32C62.1707 32 67.8827 33.088 72.1547 34.9573C74.2853 35.8907 76.1787 37.0693 77.5733 38.5147C78.8667 39.848 79.8267 41.5227 79.9787 43.464L80 44V70.6667C80 72.8373 78.984 74.6933 77.5733 76.152C76.1787 77.5973 74.2853 78.776 72.1547 79.7093C67.8827 81.576 62.1707 82.6667 56 82.6667C49.8293 82.6667 44.1173 81.5787 39.8453 79.7093C37.7147 78.776 35.8213 77.5973 34.4267 76.152C33.1333 74.8187 32.1733 73.144 32.0213 71.2027L32 70.6667V44C32 41.8293 33.016 39.9733 34.4267 38.5147C35.8213 37.0693 37.7147 35.8907 39.8453 34.9573C44.1173 33.0907 49.8293 32 56 32ZM74.6667 65.0853C73.8588 65.5706 73.0196 66.0017 72.1547 66.376C67.8827 68.2427 62.1707 69.3333 56 69.3333C49.8293 69.3333 44.1173 68.2453 39.8453 66.376C38.9804 66.0017 38.1412 65.5706 37.3333 65.0853V70.6667C37.3333 71.072 37.5093 71.6693 38.2613 72.4453C39.024 73.2347 40.256 74.0667 41.984 74.824C45.4347 76.3333 50.3867 77.3333 56 77.3333C61.6133 77.3333 66.5653 76.3333 70.016 74.824C71.744 74.0667 72.976 73.2347 73.7387 72.4453C74.4907 71.672 74.6667 71.072 74.6667 70.6667V65.0853ZM74.6667 51.752C73.8588 52.2372 73.0196 52.6684 72.1547 53.0427C67.8827 54.9093 62.1707 56 56 56C49.8293 56 44.1173 54.912 39.8453 53.0427C38.9804 52.6684 38.1412 52.2372 37.3333 51.752V57.3333C37.3333 57.7387 37.5093 58.336 38.2613 59.112C39.024 59.9013 40.256 60.7333 41.984 61.4907C45.4347 63 50.3867 64 56 64C61.6133 64 66.5653 63 70.016 61.4907C71.744 60.7333 72.976 59.9013 73.7387 59.112C74.4907 58.3387 74.6667 57.7387 74.6667 57.3333V51.752ZM56 37.3333C50.3867 37.3333 45.4347 38.3333 41.984 39.8427C40.256 40.6 39.024 41.432 38.2613 42.2213C37.5093 42.9947 37.3333 43.5947 37.3333 44C37.3333 44.4053 37.5093 45.0027 38.2613 45.7787C39.024 46.568 40.256 47.4 41.984 48.1573C45.4347 49.6667 50.3867 50.6667 56 50.6667C61.6133 50.6667 66.5653 49.6667 70.016 48.1573C71.744 47.4 72.976 46.568 73.7387 45.7787C74.4907 45.0053 74.6667 44.4053 74.6667 44C74.6667 43.5947 74.4907 42.9973 73.7387 42.2213C72.976 41.432 71.744 40.6 70.016 39.8427C66.5653 38.3333 61.6133 37.3333 56 37.3333Z" fill="#FF532E"/>
</g>
<defs>
<filter id="filter0_d_3417_15588" x="-7.9" y="-7.9" width="127.8" height="127.8" filterUnits="userSpaceOnUse" color-interpolation-filters="sRGB">
<feFlood flood-opacity="0" result="BackgroundImageFix"/>
<feColorMatrix in="SourceAlpha" type="matrix" values="0 0 0 0 0 0 0 0 0 0 0 0 0 0 0 0 0 0 127 0" result="hardAlpha"/>
<feOffset/>
<feGaussianBlur stdDeviation="15.95"/>
<feComposite in2="hardAlpha" operator="out"/>
<feColorMatrix type="matrix" values="0 0 0 0 1 0 0 0 0 0.325586 0 0 0 0 0.179167 0 0 0 1 0"/>
<feBlend mode="normal" in2="BackgroundImageFix" result="effect1_dropShadow_3417_15588"/>
<feBlend mode="normal" in="SourceGraphic" in2="effect1_dropShadow_3417_15588" result="shape"/>
</filter>
</defs>
</svg>
