<svg width="112" height="112" viewBox="0 0 112 112" fill="none" xmlns="http://www.w3.org/2000/svg">
<g filter="url(#filter0_d_3417_15636)">
<path d="M56 80C49.8667 80 44.5227 77.9671 39.968 73.9013C35.4133 69.8356 32.8018 64.7573 32.1333 58.6667H37.6C38.2222 63.2889 40.2782 67.1111 43.768 70.1333C47.2578 73.1556 51.3351 74.6667 56 74.6667C61.2 74.6667 65.6116 72.856 69.2347 69.2347C72.8578 65.6133 74.6684 61.2018 74.6667 56C74.6649 50.7982 72.8542 46.3876 69.2347 42.768C65.6151 39.1484 61.2036 37.3369 56 37.3333C52.9333 37.3333 50.0667 38.0444 47.4 39.4667C44.7333 40.8889 42.4889 42.8444 40.6667 45.3333H48V50.6667H32V34.6667H37.3333V40.9333C39.6 38.0889 42.3671 35.8889 45.6347 34.3333C48.9022 32.7778 52.3573 32 56 32C59.3333 32 62.456 32.6338 65.368 33.9013C68.28 35.1689 70.8133 36.8791 72.968 39.032C75.1227 41.1849 76.8338 43.7182 78.1013 46.632C79.3689 49.5458 80.0018 52.6684 80 56C79.9982 59.3316 79.3653 62.4542 78.1013 65.368C76.8373 68.2818 75.1262 70.8151 72.968 72.968C70.8098 75.1209 68.2764 76.832 65.368 78.1013C62.4596 79.3707 59.3369 80.0036 56 80ZM63.4667 67.2L53.3333 57.0667V42.6667H58.6667V54.9333L67.2 63.4667L63.4667 67.2Z" fill="#FF532E"/>
</g>
<defs>
<filter id="filter0_d_3417_15636" x="-7.9" y="-7.9" width="127.8" height="127.8" filterUnits="userSpaceOnUse" color-interpolation-filters="sRGB">
<feFlood flood-opacity="0" result="BackgroundImageFix"/>
<feColorMatrix in="SourceAlpha" type="matrix" values="0 0 0 0 0 0 0 0 0 0 0 0 0 0 0 0 0 0 127 0" result="hardAlpha"/>
<feOffset/>
<feGaussianBlur stdDeviation="15.95"/>
<feComposite in2="hardAlpha" operator="out"/>
<feColorMatrix type="matrix" values="0 0 0 0 1 0 0 0 0 0.325586 0 0 0 0 0.179167 0 0 0 1 0"/>
<feBlend mode="normal" in2="BackgroundImageFix" result="effect1_dropShadow_3417_15636"/>
<feBlend mode="normal" in="SourceGraphic" in2="effect1_dropShadow_3417_15636" result="shape"/>
</filter>
</defs>
</svg>
