<svg width="104" height="120" viewBox="0 0 104 120" fill="none" xmlns="http://www.w3.org/2000/svg">
<g filter="url(#filter0_d_3417_15625)">
<path d="M52 75.9999C50.6028 76.0003 49.2492 75.513 48.1729 74.6221C47.0965 73.7312 46.3648 72.4926 46.104 71.1199C42.1805 69.9074 38.7254 67.5164 36.208 64.2719C34.3075 61.8247 33.0017 58.9693 32.3935 55.931C31.7852 52.8928 31.8913 49.7547 32.7032 46.7645C33.5151 43.7742 35.0107 41.0135 37.072 38.7C39.1334 36.3866 41.704 34.5838 44.5812 33.4337C47.4584 32.2837 50.5635 31.8179 53.6515 32.0731C56.7395 32.3283 59.726 33.2975 62.3754 34.9042C65.0248 36.511 67.2646 38.7113 68.9182 41.3317C70.5718 43.9522 71.594 46.921 71.904 50.0039C72.012 51.1039 71.104 51.9999 70 51.9999C68.896 51.9999 68.012 51.0999 67.88 50.0039C67.523 47.1753 66.4166 44.4934 64.6754 42.2357C62.9342 39.9781 60.6213 38.2268 57.9761 37.1629C55.3309 36.0991 52.4495 35.7613 49.63 36.1847C46.8105 36.6081 44.1553 37.7772 41.9392 39.571C39.7231 41.3649 38.0266 43.7183 37.0253 46.3877C36.0239 49.0572 35.754 51.9458 36.2435 54.7545C36.7331 57.5633 37.9642 60.1903 39.8097 62.3636C41.6551 64.5369 44.0477 66.1776 46.74 67.1159C47.249 66.1874 47.9947 65.41 48.9013 64.8629C49.8079 64.3158 50.8432 64.0183 51.902 64.0008C52.9607 63.9832 54.0053 64.2462 54.9296 64.763C55.8538 65.2797 56.6248 66.0319 57.1643 66.9431C57.7038 67.8543 57.9926 68.892 58.0012 69.9509C58.0099 71.0098 57.7381 72.0521 57.2136 72.972C56.6891 73.8919 55.9304 74.6566 55.0147 75.1884C54.0991 75.7202 53.0589 76.0002 52 75.9999ZM36 69.9999V69.8919C34.9063 68.9124 33.9047 67.8345 33.008 66.6719C32.3509 67.6575 32.0001 68.8154 32 69.9999V71.9999C32 79.8839 39.44 87.9999 52 87.9999C64.56 87.9999 72 79.8839 72 71.9999V69.9999C72 68.4086 71.3679 66.8825 70.2426 65.7573C69.1174 64.6321 67.5913 63.9999 66 63.9999H60C60.876 65.1599 61.5 66.5199 61.8 67.9999H66C66.5304 67.9999 67.0391 68.2107 67.4142 68.5857C67.7893 68.9608 68 69.4695 68 69.9999V71.9999C68 77.7519 62.272 83.9999 52 83.9999C41.728 83.9999 36 77.7519 36 71.9999V69.9999ZM52 59.9999C49.7113 59.9998 47.4917 60.7849 45.712 62.2239C43.9632 61.1525 42.5193 59.6494 41.519 57.8589C40.5187 56.0685 39.9956 54.0509 40 51.9999C40.0006 49.9079 40.5481 47.8523 41.5883 46.0371C42.6284 44.2219 44.1251 42.7102 45.9297 41.6519C47.7344 40.5936 49.7844 40.0255 51.8764 40.004C53.9684 39.9824 56.0296 40.5081 57.8557 41.529C59.6818 42.5499 61.2093 44.0305 62.2866 45.8238C63.3639 47.6172 63.9537 49.6611 63.9974 51.7527C64.0411 53.8443 63.5372 55.9111 62.5357 57.7478C61.5342 59.5846 60.0699 61.1277 58.288 62.2239C56.5083 60.7849 54.2887 59.9998 52 59.9999ZM44 51.9999C44 54.1217 44.8429 56.1565 46.3431 57.6568C47.8434 59.1571 49.8783 59.9999 52 59.9999C54.1217 59.9999 56.1566 59.1571 57.6569 57.6568C59.1571 56.1565 60 54.1217 60 51.9999C60 49.8782 59.1571 47.8434 57.6569 46.3431C56.1566 44.8428 54.1217 43.9999 52 43.9999C49.8783 43.9999 47.8434 44.8428 46.3431 46.3431C44.8429 47.8434 44 49.8782 44 51.9999Z" fill="#FF532E"/>
</g>
<defs>
<filter id="filter0_d_3417_15625" x="-11.9" y="-3.9" width="127.8" height="127.8" filterUnits="userSpaceOnUse" color-interpolation-filters="sRGB">
<feFlood flood-opacity="0" result="BackgroundImageFix"/>
<feColorMatrix in="SourceAlpha" type="matrix" values="0 0 0 0 0 0 0 0 0 0 0 0 0 0 0 0 0 0 127 0" result="hardAlpha"/>
<feOffset/>
<feGaussianBlur stdDeviation="15.95"/>
<feComposite in2="hardAlpha" operator="out"/>
<feColorMatrix type="matrix" values="0 0 0 0 1 0 0 0 0 0.325586 0 0 0 0 0.179167 0 0 0 1 0"/>
<feBlend mode="normal" in2="BackgroundImageFix" result="effect1_dropShadow_3417_15625"/>
<feBlend mode="normal" in="SourceGraphic" in2="effect1_dropShadow_3417_15625" result="shape"/>
</filter>
</defs>
</svg>
