<svg width="102" height="112" viewBox="0 0 102 112" fill="none" xmlns="http://www.w3.org/2000/svg">
<g filter="url(#filter0_d_3417_15584)">
<path d="M66.0935 53.8667C65.4801 53.0667 64.7335 52.3733 64.0401 51.68C62.2535 50.08 60.2268 48.9333 58.5201 47.2533C54.5468 43.36 53.6668 36.9333 56.2001 32C53.6668 32.6133 51.4535 34 49.5601 35.52C42.6535 41.0667 39.9335 50.8533 43.1868 59.2533C43.2935 59.52 43.4001 59.7867 43.4001 60.1333C43.4001 60.72 43.0001 61.2533 42.4668 61.4667C41.8535 61.7333 41.2135 61.5733 40.7068 61.1467C40.5555 61.0199 40.4289 60.8662 40.3335 60.6933C37.3201 56.88 36.8401 51.4133 38.8668 47.04C34.4135 50.6667 31.9868 56.8 32.3335 62.5867C32.4935 63.92 32.6535 65.2533 33.1068 66.5867C33.4801 68.1867 34.2001 69.7867 35.0001 71.2C37.8801 75.8133 42.8668 79.12 48.2268 79.7867C53.9335 80.5067 60.0401 79.4667 64.4135 75.52C69.2935 71.0933 71.0001 64 68.4935 57.92L68.1468 57.2267C67.5868 56 66.0935 53.8667 66.0935 53.8667ZM57.6668 70.6667C56.9201 71.3067 55.6935 72 54.7335 72.2667C51.7468 73.3333 48.7601 71.84 47.0001 70.08C50.1735 69.3333 52.0668 66.9867 52.6268 64.6133C53.0801 62.48 52.2268 60.72 51.8801 58.6667C51.5601 56.6933 51.6135 55.0133 52.3335 53.1733C52.8401 54.1867 53.3735 55.2 54.0135 56C56.0668 58.6667 59.2935 59.84 59.9868 63.4667C60.0935 63.84 60.1468 64.2133 60.1468 64.6133C60.2268 66.8 59.2668 69.2 57.6668 70.6667Z" fill="#FF532E"/>
</g>
<defs>
<filter id="filter0_d_3417_15584" x="-12.9" y="-7.9" width="127.8" height="127.8" filterUnits="userSpaceOnUse" color-interpolation-filters="sRGB">
<feFlood flood-opacity="0" result="BackgroundImageFix"/>
<feColorMatrix in="SourceAlpha" type="matrix" values="0 0 0 0 0 0 0 0 0 0 0 0 0 0 0 0 0 0 127 0" result="hardAlpha"/>
<feOffset/>
<feGaussianBlur stdDeviation="15.95"/>
<feComposite in2="hardAlpha" operator="out"/>
<feColorMatrix type="matrix" values="0 0 0 0 1 0 0 0 0 0.325586 0 0 0 0 0.179167 0 0 0 1 0"/>
<feBlend mode="normal" in2="BackgroundImageFix" result="effect1_dropShadow_3417_15584"/>
<feBlend mode="normal" in="SourceGraphic" in2="effect1_dropShadow_3417_15584" result="shape"/>
</filter>
</defs>
</svg>
