<svg width="124" height="124" viewBox="0 0 124 124" fill="none" xmlns="http://www.w3.org/2000/svg">
<g filter="url(#filter0_d_3417_15580)">
<path d="M77.1572 54.5C77.1928 53.8789 77.2166 53.2578 77.2166 52.625C77.2166 46.6484 75.3264 41.375 72.4376 37.6719C69.5489 33.9805 65.8279 32 62 32C58.1721 32 54.4511 33.9805 51.5623 37.6719C48.6736 41.375 46.7834 46.6484 46.7834 52.625C46.7834 53.2578 46.8072 53.8789 46.8428 54.5H60.0979V69.5H56.2938C55.4616 69.5 54.6651 69.6758 53.9518 69.9922L39.6744 54.5H43.0387C43.003 53.8789 42.9792 53.2578 42.9792 52.625C42.9792 45.125 45.6184 38.4219 49.7673 33.957C38.9373 37.7773 33.7779 46.3672 32.0661 52.3438C31.7451 53.457 32.6367 54.5 33.8136 54.5H34.5269L51.2057 72.582C50.8134 73.3438 50.5875 74.2109 50.5875 75.125V86.375C50.5875 89.4805 53.1435 92 56.2938 92H67.7062C70.8565 92 73.4125 89.4805 73.4125 86.375V75.125C73.4125 74.2109 73.1866 73.3438 72.7943 72.582L89.4731 54.5H90.1864C91.3633 54.5 92.2549 53.457 91.9339 52.3438C90.2221 46.3672 85.0627 37.7773 74.2327 33.957C78.3816 38.4219 81.0208 45.1367 81.0208 52.625C81.0208 53.2578 80.997 53.8789 80.9613 54.5H84.3256L70.0482 69.9922C69.3349 69.6758 68.5384 69.5 67.7062 69.5H63.9021V54.5H77.1572Z" fill="#FF532E"/>
</g>
<defs>
<filter id="filter0_d_3417_15580" x="-1.9" y="-1.9" width="127.8" height="127.8" filterUnits="userSpaceOnUse" color-interpolation-filters="sRGB">
<feFlood flood-opacity="0" result="BackgroundImageFix"/>
<feColorMatrix in="SourceAlpha" type="matrix" values="0 0 0 0 0 0 0 0 0 0 0 0 0 0 0 0 0 0 127 0" result="hardAlpha"/>
<feOffset/>
<feGaussianBlur stdDeviation="15.95"/>
<feComposite in2="hardAlpha" operator="out"/>
<feColorMatrix type="matrix" values="0 0 0 0 1 0 0 0 0 0.325586 0 0 0 0 0.179167 0 0 0 1 0"/>
<feBlend mode="normal" in2="BackgroundImageFix" result="effect1_dropShadow_3417_15580"/>
<feBlend mode="normal" in="SourceGraphic" in2="effect1_dropShadow_3417_15580" result="shape"/>
</filter>
</defs>
</svg>
