<svg width="114" height="118" viewBox="0 0 114 118" fill="none" xmlns="http://www.w3.org/2000/svg">
<g filter="url(#filter0_d_3417_15629)">
<path fill-rule="evenodd" clip-rule="evenodd" d="M63.5462 33.5974C61.0331 32.5878 58.3206 32.173 55.6207 32.3856C52.9207 32.5982 50.3065 33.4323 47.9824 34.8227C45.6583 36.2132 43.6872 38.1223 42.2233 40.4008C40.7594 42.6794 39.8422 45.2656 39.5436 47.9574L38.8716 54L38.8556 54.144C38.5547 56.7662 37.7013 59.2947 36.3516 61.5627L36.2769 61.688L34.7356 64.256L34.6716 64.3627C34.0262 65.4374 33.4449 66.4107 33.0556 67.2347C32.6609 68.072 32.2369 69.208 32.4422 70.4987C32.6425 71.7719 33.2971 72.9295 34.2849 73.7574C35.2876 74.5947 36.4769 74.816 37.3996 74.9094C38.3062 75 39.4422 75 40.6929 75H73.3062C74.5569 75 75.6902 75 76.5996 74.9094C77.5196 74.816 78.7116 74.5947 79.7116 73.7574C80.7003 72.9299 81.3559 71.7723 81.5569 70.4987C81.7622 69.2107 81.3382 68.072 80.9436 67.2347C80.5542 66.4081 79.9729 65.4374 79.3276 64.3627L79.2636 64.256L77.7222 61.688L77.6476 61.5627C76.6395 59.8693 75.9059 58.0269 75.4742 56.104C73.6684 56.4429 71.8121 56.4066 70.0209 55.9974C70.5133 58.9263 71.545 61.7383 73.0636 64.2907L73.1489 64.432L74.6902 67C75.4182 68.216 75.8582 68.9547 76.1196 69.5067L76.1569 69.592C76.1258 69.5958 76.0947 69.5994 76.0636 69.6027C75.4582 69.664 74.5969 69.6667 73.1809 69.6667H40.8182C39.4022 69.6667 38.5409 69.664 37.9329 69.6027C37.9026 69.5994 37.8724 69.5958 37.8422 69.592L37.8796 69.5067C38.1409 68.9547 38.5809 68.216 39.3089 67L40.8502 64.432L40.9356 64.2907C42.6707 61.3745 43.7677 58.1234 44.1542 54.752L44.1729 54.5921L44.8449 48.5467C45.0429 46.7612 45.6318 45.0412 46.5699 43.509C47.5079 41.9768 48.772 40.6702 50.2722 39.6819C51.7724 38.6936 53.472 38.048 55.25 37.791C57.028 37.5339 58.8409 37.6718 60.5596 38.1947C61.2262 36.4721 62.2432 34.9066 63.5462 33.5974ZM70.2849 38.4081C69.3204 38.9782 68.5599 39.8376 68.1114 40.8643C67.6629 41.8911 67.5491 43.033 67.7862 44.1281C68.1062 44.7281 68.3782 45.3574 68.5996 46.0134C69.2318 46.9391 70.1399 47.6417 71.1947 48.0214C72.2494 48.4011 73.397 48.4384 74.4742 48.1281L74.4556 47.9574C74.067 44.4247 72.6123 41.0939 70.2849 38.4081Z" fill="#FF532E"/>
<path d="M49.2715 74.1067C49.7275 76.6587 50.7328 78.912 52.1301 80.52C53.5275 82.128 55.2395 83 56.9995 83C58.7595 83 60.4715 82.128 61.8688 80.52C63.2662 78.912 64.2688 76.6587 64.7275 74.1067" stroke="#FF532E" stroke-width="5" stroke-linecap="round"/>
<path d="M72.9997 49.6667C76.6816 49.6667 79.6663 46.6819 79.6663 43C79.6663 39.3181 76.6816 36.3334 72.9997 36.3334C69.3178 36.3334 66.333 39.3181 66.333 43C66.333 46.6819 69.3178 49.6667 72.9997 49.6667Z" fill="#FF532E" stroke="#FF532E"/>
</g>
<defs>
<filter id="filter0_d_3417_15629" x="-6.9" y="-4.9" width="127.8" height="127.8" filterUnits="userSpaceOnUse" color-interpolation-filters="sRGB">
<feFlood flood-opacity="0" result="BackgroundImageFix"/>
<feColorMatrix in="SourceAlpha" type="matrix" values="0 0 0 0 0 0 0 0 0 0 0 0 0 0 0 0 0 0 127 0" result="hardAlpha"/>
<feOffset/>
<feGaussianBlur stdDeviation="15.95"/>
<feComposite in2="hardAlpha" operator="out"/>
<feColorMatrix type="matrix" values="0 0 0 0 1 0 0 0 0 0.325586 0 0 0 0 0.179167 0 0 0 1 0"/>
<feBlend mode="normal" in2="BackgroundImageFix" result="effect1_dropShadow_3417_15629"/>
<feBlend mode="normal" in="SourceGraphic" in2="effect1_dropShadow_3417_15629" result="shape"/>
</filter>
</defs>
</svg>
