<svg width="721" height="364" viewBox="0 0 721 364" fill="none" xmlns="http://www.w3.org/2000/svg">
<g opacity="0.7" clip-path="url(#clip0_10178_4924)">
<path fill-rule="evenodd" clip-rule="evenodd" d="M670.117 152.446C667.751 151.631 665.355 150.843 662.928 150.083C652.52 126.856 638.436 105.661 621.222 86.9954C631.741 91.6117 641.885 96.7308 651.623 102.324C659.783 117.073 665.951 133.88 670.117 152.446ZM702.232 137.151C687.078 123.644 670.415 111.684 652.385 101.359C644.001 86.3091 633.71 73.821 621.74 64.0464C634.539 72.1676 646.911 81.0525 658.986 90.7738C674.008 102.885 692.53 121.108 704.847 134.128C714.21 144.012 725.573 158.077 733.118 169.143L733.868 170.233C734.137 170.625 734.407 171.02 734.68 171.419C724.947 159.183 714.116 147.741 702.232 137.151ZM760.014 209.476L759.549 208.588C753.24 196.51 743.32 181.966 735.251 170.136L734.868 169.574L734.118 168.484C726.528 157.372 715.119 143.239 705.734 133.31C699.734 126.97 678.735 105.111 659.759 89.8422C630.988 66.6656 600.512 48.2606 566.628 33.5593C538.312 21.2936 517.616 15.8573 506.426 12.9178L506.29 12.8821C481.069 6.27111 463.049 4.13483 447.142 2.24913L447.134 2.24817C442.172 1.65607 432.123 0.653096 418.45 0.240548C406.648 -0.193706 394.732 -0.0395468 382.754 0.699335C368.292 1.49935 352.23 3.13668 335.3 6.11094C317.142 9.31476 299.529 13.632 282.962 18.9717C250.668 29.3784 230.487 39.7398 229.647 40.1715C227.851 41.1031 225.897 42.1029 223.874 43.1254L223.45 43.3414C217.487 46.3779 210.797 49.785 205.602 52.7368C198.353 56.8268 189.217 62.1211 182.627 66.7564C169.673 75.8907 152.765 88.6379 140.583 98.4993C132.675 104.907 123.38 114.178 120.721 116.859C111.244 126.425 99.4494 138.331 84.632 157.691C80.5881 162.976 76.9157 168.017 73.6202 172.716C70.1661 177.606 66.8369 182.568 63.6365 187.6C58.1463 196.178 54.6467 202.377 53.202 205.021C52.7201 205.9 52.2401 206.781 51.7631 207.66C50.6436 209.7 49.5447 211.749 48.4667 213.807C44.5614 221.174 41.0479 228.109 38.5664 233.333C34.9302 241.036 30.476 251.465 27.4989 259.304C14.7723 292.797 9.99983 316.428 9.1817 320.836C8.99192 321.842 8.7846 322.95 8.56384 324.144C7.75608 327.534 7.14128 330.961 6.71937 334.422C5.3455 342.327 3.88563 351.359 2.93205 358.986C2.11391 365.508 1.59121 373.779 1.13669 381.072C0.954886 383.958 0.773078 386.73 0.59127 389.252C-0.363222 402.454 -0.113236 419.564 1.18215 431.834C1.43914 434.275 1.6813 436.923 1.93259 439.672C1.9924 440.326 2.05274 440.986 2.11391 441.65C2.77297 449.103 3.45475 456.805 4.50014 463.145C6.79547 477.233 10.4998 495.319 13.7042 508.18C17.5903 523.813 24.9535 543.263 31.4077 559.623C32.544 562.872 33.8167 566.099 35.203 569.28C35.265 569.415 35.327 569.554 35.389 569.693C35.7403 570.491 36.0994 571.286 36.4662 572.078C50.108 602.078 62.5938 621.945 77.0642 642.4C93.9497 666.281 114.312 687.981 127.72 700.342C134.243 706.34 143.788 715.02 151.424 721.042C162.241 729.54 174.672 739.083 184.695 745.173C186.74 746.422 188.922 747.763 191.194 749.172L191.867 749.585C200.267 754.755 209.677 760.546 217.579 764.418C235.533 773.234 256.918 782.528 272.076 788.072C284.325 792.548 300.302 796.797 304.892 798.002C316.551 801.046 328.3 803.569 336.277 804.773C351.185 807.022 372.957 809.317 391.751 810.59C395.683 810.862 400.478 810.999 405.523 810.999L405.614 811.044C410.796 811.044 416.25 810.885 421.272 810.612C422.977 810.522 424.772 810.431 426.636 810.34L426.857 810.328C434.325 809.945 442.746 809.513 449.407 808.59C451.839 808.249 454.543 807.886 457.316 807.522C458.015 807.429 458.717 807.335 459.421 807.241C465.209 806.47 471.07 805.689 475.974 804.818C484.291 803.341 494.973 801.092 502.586 799.206C518.449 795.252 539.106 788.186 553.651 782.96C561.06 780.278 570.446 775.938 577.968 772.439L581.604 770.758C596.421 763.941 620.647 749.785 628.624 744.173C641.555 735.061 658.463 722.314 670.667 712.43C675.153 708.806 680.406 703.759 685.032 699.316L685.076 699.274C686.985 697.433 688.803 695.684 690.507 694.093C690.689 693.934 708.847 676.415 726.619 653.216L726.772 653.015C732.557 645.442 744.398 629.939 758.026 605.908C768.23 587.912 776.866 569.644 783.729 551.625C787.365 542.082 791.842 528.744 794.91 518.473C796.774 512.225 798.683 504.227 800.365 497.16C800.933 494.683 801.501 492.297 802.046 490.116C804.773 478.982 807.273 463.645 808.296 451.92C810.069 431.493 811 407.544 810.659 390.866C810.455 380.527 809.137 366.03 806.728 347.784C805.845 341.088 804.152 332.724 802.657 325.341L802.637 325.244L802.609 325.109C801.983 322.044 801.38 319.092 800.865 316.382C798.796 305.567 794.547 290.888 787.888 271.506C784.093 260.486 778.32 246.739 774.525 238.332C772.057 232.854 768.784 226.348 765.588 220.16C763.805 216.551 761.947 212.989 760.014 209.476ZM764.332 220.315C763.901 219.665 763.463 219.019 763.021 218.377C762.086 217.018 761.128 215.675 760.145 214.347C740.013 187.15 709.792 166.348 671.382 152.886C667.343 134.625 661.386 118.043 653.52 103.422C698.21 129.513 734.219 165.657 758.436 209.026C758.451 209.054 758.466 209.083 758.481 209.111L760.208 212.406C761.512 214.897 762.913 217.573 764.332 220.315ZM782.708 260.951C784.168 264.699 785.557 268.43 786.752 271.892C793.388 291.229 797.637 305.839 799.683 316.61C800.206 319.359 800.819 322.381 801.455 325.494L801.693 326.683C803.112 333.768 804.684 341.62 805.523 347.966C807.932 366.167 809.25 380.618 809.455 390.911C809.796 407.544 808.864 431.447 807.091 451.829C806.669 456.761 805.979 462.333 805.118 467.961C805.725 448.177 800.211 427.441 788.604 406.424C797.432 361.136 796.443 316.272 785.548 273.962C784.8 269.557 783.853 265.218 782.708 260.951ZM798.496 499.786C796.637 504.452 794.389 509.035 791.751 513.522C776.104 540.143 747.085 562.802 707.401 579.566C725.268 612.416 731.079 637.726 724.589 653.849C724.932 653.405 725.276 652.959 725.619 652.512C731.346 645.036 743.231 629.517 756.958 605.34C767.139 587.39 775.775 569.189 782.593 551.216C786.206 541.695 790.706 528.403 793.751 518.155C795.365 512.764 796.996 506.061 798.496 499.786ZM720.136 659.483C719.656 660.077 719.178 660.667 718.701 661.251C718.318 661.683 717.92 662.104 717.506 662.513C702.442 677.406 668.522 675.702 621.399 658.878C652.195 636.022 679.785 609.902 703.47 581.193C704.434 580.801 705.393 580.407 706.345 580.009C726.575 617.16 731.282 644.456 720.136 659.483ZM714.116 666.763C700.872 682.398 689.785 693.106 689.643 693.23C687.939 694.82 686.098 696.57 684.189 698.41L683.748 698.834C679.224 703.181 674.185 708.022 669.849 711.521C657.645 721.383 640.76 734.13 627.852 743.218C619.92 748.808 595.785 762.896 581.013 769.713L577.354 771.394L576.692 771.7C569.289 775.122 560.277 779.288 553.128 781.869C538.607 787.095 517.994 794.139 502.177 798.07C494.609 799.956 483.951 802.205 475.656 803.659C470.156 804.614 463.497 805.5 457.043 806.341C455.654 806.534 454.282 806.716 452.952 806.893C451.629 807.068 450.348 807.239 449.134 807.409C442.556 808.329 434.158 808.761 426.725 809.144L426.454 809.158C424.59 809.249 422.772 809.34 421.09 809.431C411.205 809.976 399.705 809.999 391.797 809.454C373.025 808.181 351.276 805.909 336.413 803.659C328.459 802.455 316.778 799.933 305.142 796.911C300.552 795.707 284.644 791.48 272.44 787.004C257.327 781.46 235.987 772.189 218.056 763.396C210.121 759.507 200.646 753.661 192.206 748.454L191.785 748.195C189.941 747.052 188.142 745.953 186.437 744.912C186.04 744.67 185.649 744.431 185.263 744.195C175.286 738.129 162.9 728.631 152.105 720.133C144.492 714.157 134.97 705.5 128.47 699.501C115.108 687.186 94.8133 665.531 77.9733 641.741C77.122 640.538 76.2776 639.337 75.4395 638.136C85.4388 650.864 96.6165 662.746 108.925 673.714C137.196 698.913 170.717 718.726 208.579 732.587C249.596 747.628 293.862 755.058 339.355 755.059C405.805 755.057 474.855 739.181 539.986 707.905L539.989 707.911V707.934L540.466 707.707C568.899 694.017 595.642 677.887 620.338 659.663C646.3 668.966 668.348 673.737 685.554 673.737H685.576C697.52 673.737 707.142 671.446 714.116 666.763ZM255.647 217.762C266.495 211.699 277.58 205.888 288.869 200.351C223.362 200.648 164.008 209.949 117.062 227.315C116.274 227.607 115.49 227.9 114.71 228.196C113.69 233.474 112.928 238.764 112.433 244.05C121.946 259.768 133.632 276.449 147.136 293.771C156.865 285.227 167.048 276.894 177.638 268.804C201.401 250.632 227.502 233.476 255.647 217.762ZM55.6452 402.794C72.142 373.712 94.6402 344.701 122.311 317.021L122.68 316.651C112.536 293.753 108.999 269.086 111.266 244.323C109.26 241 107.351 237.721 105.543 234.488C63.7267 286.374 35.564 345.07 23.9412 404.576C28.8668 413.398 34.7825 422.14 41.635 430.759C45.6723 421.453 50.3514 412.118 55.6452 402.794ZM41.1267 431.939C34.3784 423.5 28.5225 414.942 23.6083 406.304C22.8934 410.069 22.2448 413.837 21.6633 417.606C24.7473 429.185 28.7191 440.586 33.6106 451.742C35.7839 445.166 38.2925 438.56 41.1267 431.939ZM33.0906 453.335C28.3249 442.625 24.3749 431.642 21.2385 420.441C20.4714 425.719 19.836 430.999 19.3343 436.277C19.195 437.742 19.066 439.208 18.9473 440.673C16.6755 468.761 18.2092 496.76 23.8503 524.042C22.0372 501.362 25.2805 477.555 33.0906 453.335ZM25.1477 535.075C17.6766 505.221 15.1269 474.106 17.4633 442.481C18.0824 434.083 19.0462 425.65 20.3539 417.195C17.7461 407.355 15.7614 397.352 14.3981 387.222C8.67613 372.806 5.88591 358.61 6.03256 344.862C5.24559 349.777 4.5133 354.716 3.95472 359.168C3.13658 365.667 2.61388 373.915 2.15936 381.186C1.97756 384.072 1.79575 386.844 1.61394 389.366C0.659448 402.522 0.886708 419.541 2.18209 431.766C2.43906 434.206 2.68121 436.855 2.93248 439.603C2.99232 440.257 3.05267 440.917 3.11386 441.582C3.77291 449.012 4.45469 456.692 5.50009 463.009C7.79541 477.051 11.4997 495.115 14.7041 507.953C17.613 519.609 22.4537 533.425 27.4079 546.49C26.5002 542.724 25.7476 538.918 25.1477 535.075ZM8.10611 332.573C5.79831 348.588 7.70086 365.349 13.8049 382.467C10.9081 357.271 11.8256 331.33 16.5347 305.197C13.2258 312.038 10.7931 319.081 9.2358 326.29C8.8806 328.229 8.49919 330.344 8.10611 332.573ZM11.8637 313.273C13.3744 309.198 15.1785 305.185 17.2761 301.241C20.0422 287.034 23.9271 272.777 28.9271 258.561C28.7734 258.958 28.623 259.35 28.4761 259.736C19.2771 283.922 14.2487 302.95 11.8637 313.273ZM174.034 74.2812C191.241 62.4401 209.503 51.744 228.669 42.3375C228.673 42.1929 228.68 42.0587 228.691 41.9341C227.293 42.6542 225.818 43.406 224.306 44.1706L223.746 44.4566C217.84 47.4754 211.234 50.8522 206.08 53.7593C198.876 57.8493 189.74 63.1209 183.195 67.7108C180.304 69.7441 177.219 71.9585 174.034 74.2812ZM230.071 41.2204C230.074 41.2192 230.076 41.2179 230.078 41.2167C230.107 41.2019 230.159 41.1755 230.233 41.1378C230.281 41.1286 230.328 41.1286 230.328 41.1286C230.342 41.1286 230.357 41.1291 230.373 41.1303C230.38 41.1308 230.388 41.1315 230.395 41.1323L230.4 41.1328L230.42 41.1353C230.532 41.1517 230.669 41.1964 230.835 41.282C230.478 41.4549 230.121 41.6283 229.764 41.8021C229.828 41.5192 229.931 41.3263 230.071 41.2204ZM231.591 40.4585C236.831 37.876 255.16 29.2072 282.216 20.4149C265.279 26.0406 248.492 32.8206 231.994 40.7444C231.852 40.6352 231.717 40.5405 231.591 40.4585ZM378.426 2.13506C329.775 5.71404 280.169 18.9365 232.933 41.5565C235.8 44.2901 241.226 51.4755 252.055 69.5637C281.234 57.5097 311.603 51.4238 340.974 51.4703C357.515 23.4812 376.024 6.11378 395.418 1.3639C390.032 1.49943 384.352 1.74564 378.426 2.13506ZM403.869 1.23608C402.398 1.31537 400.927 1.47045 399.454 1.70171C379.087 4.91655 359.592 22.2855 342.239 51.4761C363.191 51.6352 383.618 54.9225 402.724 61.398C424.764 57.8577 446.768 55.9943 468.509 55.8245C469.479 55.4181 470.447 55.0187 471.414 54.6263C452.116 20.6862 430.562 2.45039 408.529 1.23847C407.008 1.22918 405.454 1.22805 403.869 1.23608ZM417.052 1.37868C436.54 6.22173 455.419 24.1281 472.48 54.1962C502.987 41.9651 532.079 36.7467 558.212 38.9616C545.525 31.8476 532.059 25.6567 517.905 20.4718C488.082 9.54605 456.243 3.28292 423.466 1.60283C421.425 1.51486 419.285 1.43874 417.052 1.37868ZM481.025 8.37839C493.738 11.2896 506.191 14.963 518.314 19.4039C533.351 24.9135 547.616 31.5546 560.998 39.2279C571.203 40.3126 580.878 42.5477 589.966 45.8959C582.194 41.9204 574.249 38.1763 566.105 34.65C537.766 22.3573 517.062 16.9267 505.949 14.0183C496.767 11.6131 488.541 9.80129 481.025 8.37839ZM18.6917 300.994C13.0244 329.857 11.8629 358.942 15.6494 387.332C17.7015 392.443 20.1254 397.583 22.9209 402.74C28.5039 374.891 37.7975 346.892 50.7815 319.238C51.3241 318.082 51.8731 316.926 52.4286 315.772C54.2847 311.913 56.2032 308.081 58.183 304.278C71.1936 279.281 86.8512 255.496 104.84 233.23C104.675 232.932 104.512 232.636 104.349 232.34C64.8257 249.014 35.9453 271.539 20.4079 297.959C19.816 298.966 19.244 299.977 18.6917 300.994ZM20.8122 414.317C18.9366 406.849 17.4269 399.31 16.2746 391.718C18.1263 395.948 20.2289 400.194 22.5822 404.452C21.9404 407.743 21.3504 411.031 20.8122 414.317ZM19.4307 297.391C35.0795 270.765 64.1066 248.103 103.801 231.338C86.2645 199.122 80.3446 174.149 86.2508 157.985C52.601 200.77 29.6148 248.719 19.4186 297.411L19.4307 297.391ZM105.621 232.266L105.415 231.893C105.671 231.786 105.928 231.679 106.184 231.573C105.996 231.804 105.808 232.035 105.621 232.266ZM104.867 230.891C105.806 230.499 106.75 230.11 107.701 229.724C110.128 226.782 112.595 223.867 115.103 220.98C121.676 193.221 135.285 166.006 154.784 141.72C127.255 135.749 106.83 137.271 95.4026 146.786C93.2718 149.297 91.1786 151.827 89.1236 154.377C80.5517 169.906 85.8906 196.078 104.867 230.891ZM106.314 233.533C107.133 232.523 107.956 231.516 108.785 230.511C110.33 229.889 111.89 229.275 113.465 228.671C112.599 233.248 111.927 237.835 111.452 242.419C109.658 239.421 107.945 236.458 106.314 233.533ZM110.3 228.684C111.432 228.237 112.571 227.795 113.719 227.358C113.956 226.156 114.206 224.956 114.47 223.756C113.066 225.391 111.676 227.034 110.3 228.684ZM116.675 226.247C163.841 208.819 223.494 199.47 289.313 199.213C252.7 178.428 219.59 162.744 191.2 152.483C163.074 173.344 137.904 196.739 116.042 221.934C115.659 223.583 115.301 225.233 114.969 226.884C115.536 226.671 116.104 226.459 116.675 226.247ZM98.4008 143.296C110.595 135.961 130.111 135.261 155.511 140.819C176.771 114.614 204.913 91.8748 238.485 75.6243C231.217 56.1108 229.051 47.4853 228.716 43.5829C176.988 69.0481 132.929 103.575 98.4008 143.296ZM156.015 141.991C136.927 165.641 123.47 192.1 116.718 219.132C138.311 194.546 162.836 172.014 189.827 151.99C177.641 147.637 166.338 144.296 156.015 141.991ZM190.859 151.226C178.579 146.826 167.174 143.44 156.744 141.092C177.839 115.227 205.693 92.7769 238.885 76.6952C239.671 78.7946 240.514 81.0164 241.419 83.3677C244.663 91.8078 248.522 101.458 252.942 112.192C231.089 123.787 210.337 136.855 190.859 151.226ZM290.109 198.366C253.656 177.667 220.634 162.015 192.231 151.72C211.299 137.655 231.717 124.753 253.375 113.242C263.126 136.883 275.557 165.697 290.109 198.366ZM112.265 245.967C110.316 269.874 113.834 293.654 123.553 315.782C130.811 308.569 138.395 301.477 146.281 294.523C133.107 277.632 121.659 261.347 112.265 245.967ZM229.701 43.0996C229.919 47.0716 232.872 57.2099 239.56 75.1275C243.339 73.3205 247.145 71.6161 250.971 70.0144C239.467 50.8079 234.24 44.169 231.872 42.0451C231.147 42.3948 230.423 42.7463 229.701 43.0996ZM252.645 70.5515C257.626 78.901 263.719 89.4993 271.188 102.941C289.273 94.2595 307.658 86.7653 326.205 80.4682C330.714 70.2838 335.425 60.9774 340.31 52.601C311.346 52.6473 281.421 58.6861 252.645 70.5515ZM271.757 103.955L271.739 103.965C280.428 119.625 290.057 137.485 300.396 157.079C307.735 128.522 316.214 103.302 325.579 81.8917C308.708 87.6615 291.974 94.4252 275.48 102.175C274.236 102.76 272.993 103.35 271.752 103.946L271.757 103.955ZM254.417 112.703C263.586 134.952 275.638 163.031 291.158 197.85C293.867 184.214 296.812 171.164 299.972 158.738C289.403 138.69 279.568 120.435 270.71 104.469C265.201 107.121 259.777 109.859 254.417 112.703ZM289.307 201.437C236.034 227.563 188.008 259.585 147.951 294.814C162.108 312.901 178.234 331.677 195.927 350.774C221.022 298.054 252.687 247.225 289.307 201.437ZM147.097 295.567C139.112 302.619 131.446 309.798 124.121 317.083C136.107 343.62 156.369 365.568 182.466 380.719C186.556 371.056 190.871 361.435 195.403 351.875C177.584 332.66 161.346 313.766 147.097 295.567ZM123.259 317.942C87.0001 354.179 59.1791 393.008 42.4629 431.795C63.9576 458.51 94.4516 484.042 132.357 507.193C137.366 481.919 145.911 456.498 157.97 431.427C162.772 421.443 168.058 411.668 173.803 402.127C176.429 395.327 179.169 388.541 182.02 381.776C155.774 366.574 135.378 344.557 123.259 317.942ZM41.9585 432.973C39.0673 439.773 36.5183 446.571 34.3258 453.352C53.6555 496.535 85.7454 532.661 127.051 558.521C127.169 541.971 128.863 525.205 132.126 508.37C94.1665 485.229 63.5867 459.701 41.9585 432.973ZM33.8077 454.975C33.7552 455.141 33.7029 455.308 33.6508 455.474C24.7795 483.867 22.478 511.188 26.678 536.348C27.4436 539.361 28.261 542.362 29.1304 545.353C32.5796 557.211 36.8447 568.897 41.9518 580.357L41.9971 580.439V580.459L41.9983 580.462C61.1356 614.909 94.6605 640.838 139.489 656.692C137.045 645.323 135.337 633.311 134.37 620.723C129.441 600.972 127.004 580.584 127.045 559.85C85.6343 534.074 53.3854 498.051 33.8077 454.975ZM563.474 40.665C600.788 45.3923 630.756 65.9142 650.458 100.265C640.464 94.6367 630.055 89.506 619.255 84.8878C603.162 67.8499 584.425 52.979 563.474 40.665ZM327.628 79.9876C332.09 69.9754 336.748 60.8302 341.573 52.6028C361.885 52.6927 381.707 55.7367 400.311 61.7923C376.018 65.8288 351.69 71.9013 327.628 79.9876ZM301.19 158.586C308.685 129.152 317.381 103.255 326.999 81.4085C352.033 72.9332 377.361 66.6449 402.64 62.5685C403.895 62.9963 405.143 63.4379 406.386 63.8933C414.856 66.9931 422.903 70.7106 430.47 74.9934C430.321 75.0807 430.172 75.1681 430.024 75.2557C389.63 99.0309 348.741 133.711 310.549 176.441C307.372 170.347 304.251 164.392 301.19 158.586ZM292.379 197.629C294.968 184.621 297.77 172.15 300.769 160.251C303.702 165.82 306.691 171.527 309.73 177.359C303.879 183.93 298.091 190.69 292.379 197.629ZM471.973 55.6152C471.812 55.6806 471.651 55.7461 471.489 55.8119C471.687 55.8117 471.886 55.8118 472.084 55.8119L471.973 55.6152ZM473.391 55.8149C518.317 55.989 562.046 63.4274 602.578 78.2782C607.323 80.0154 612.001 81.8461 616.608 83.7692C600.416 66.9984 581.617 52.3927 560.635 40.3374C559.992 40.2703 559.346 40.2078 558.698 40.15C532.627 37.8087 503.554 42.9729 473.039 55.1861C473.156 55.3951 473.273 55.6047 473.391 55.8149ZM405.015 62.1921C425.359 59.0226 445.664 57.2866 465.754 56.997C454.518 61.8476 443.108 67.633 431.6 74.3327C423.812 69.8811 415.515 66.0263 406.773 62.8254C406.188 62.6113 405.602 62.4002 405.015 62.1921ZM468.703 56.9648C456.882 61.9324 444.857 67.9454 432.718 74.9779C458.957 90.2642 479.315 112.379 491.354 139.092C495.77 138.54 500.171 138.043 504.555 137.603C495.622 106.45 484.966 79.084 472.707 56.9545C471.373 56.9515 470.039 56.955 468.703 56.9648ZM430.569 76.2328C390.179 100.005 349.292 134.731 311.107 177.511C312.867 180.89 314.644 184.31 316.437 187.77C374.171 162.927 433.364 146.473 490.171 139.242C478.118 112.69 457.785 90.7479 431.591 75.6338L431.232 75.8433L430.876 76.0526L430.569 76.2328ZM310.289 178.43C304.593 184.834 298.959 191.417 293.396 198.17C300.694 194.721 308.024 191.406 315.378 188.227C313.667 184.924 311.97 181.658 310.289 178.43ZM253.985 111.613C259.319 108.799 264.697 106.076 270.144 103.444C262.637 89.9362 256.53 79.3268 251.561 71.0014C247.671 72.627 243.802 74.3592 239.96 76.1976C243.551 85.77 248.178 97.4971 253.985 111.613ZM661.474 149.632C650.796 126.082 636.312 104.65 618.601 85.8587C613.227 83.5562 607.756 81.3839 602.194 79.3459C561.97 64.6133 518.587 57.1988 474.011 56.9595C486.203 79.103 496.806 106.422 505.7 137.489C522.256 135.862 538.575 135.038 554.561 135.038V135.061C564.037 135.061 573.4 135.356 582.627 135.924C611.469 137.753 637.883 142.388 661.474 149.632ZM671.669 154.202C716.498 170.058 750.027 195.99 769.162 230.448L769.185 230.494L769.196 230.489C775.616 244.888 780.707 259.645 784.52 274.651C788.721 299.938 786.358 327.409 777.363 355.963C757.787 312.859 725.533 276.833 684.113 251.057C684.154 230.341 681.721 209.971 676.801 190.236C675.832 177.624 674.12 165.59 671.669 154.202ZM663.542 151.476C665.859 152.212 668.148 152.973 670.408 153.759C672.494 163.311 674.055 173.323 675.089 183.754C672.023 172.768 668.175 161.992 663.542 151.476ZM602.444 138.81C623.914 141.245 643.86 145.346 662.093 151.021C667.85 163.943 672.367 177.198 675.693 190.682C677.006 208.036 676.91 226.488 675.4 245.863C662.155 238.306 648.05 231.758 633.191 226.314C598.197 213.495 560.449 207.071 521.669 206.913C517.271 182.725 512.043 159.812 506.023 138.624C523.265 136.936 540.247 136.12 556.86 136.2C564.983 136.24 573.017 136.493 580.95 136.963C581.486 136.995 582.021 137.028 582.555 137.062C585.363 137.24 588.148 137.444 590.91 137.675C594.802 138.001 598.647 138.379 602.444 138.81ZM491.842 140.202C496.203 139.659 500.549 139.171 504.879 138.737C510.896 159.884 516.124 182.758 520.522 206.91C514.869 206.905 509.194 207.033 503.502 207.294C504.888 184.303 501.216 161.492 491.842 140.202ZM490.661 140.35C489.009 140.559 487.354 140.777 485.698 141.002C484.561 141.156 483.424 141.314 482.286 141.476C428.08 149.176 371.869 165.188 316.969 188.796C318.888 192.503 320.826 196.254 322.78 200.049C362.88 201.941 403.508 206.957 443.506 214.86C463.167 210.811 482.855 208.301 502.358 207.348C503.758 184.383 500.076 161.599 490.661 140.35ZM306.565 193.368C305.392 193.895 304.22 194.425 303.049 194.958C299.977 196.358 296.911 197.78 293.85 199.227C303.013 199.313 312.219 199.567 321.453 199.987C319.59 196.369 317.741 192.79 315.909 189.253C312.79 190.6 309.675 191.972 306.565 193.368ZM694.097 583.597C647.155 600.97 587.773 610.272 522.237 610.562C575.103 584.636 623.514 552.692 664.037 517.115C680.597 538.355 694.42 558.632 704.852 577.348C704.022 578.372 703.187 579.394 702.346 580.413C699.644 581.501 696.894 582.563 694.097 583.597ZM705.624 576.394C747.436 524.515 775.597 465.829 787.223 406.332C782.294 397.505 776.373 388.758 769.514 380.132C752.924 418.438 725.398 457.325 688.846 493.89C681.215 501.523 673.218 509.023 664.884 516.37C681.386 537.525 695.18 557.729 705.624 576.394ZM770.017 378.963C776.774 387.415 782.635 395.984 787.55 404.633C795.15 364.647 795.272 324.32 787.04 285.473C789.059 307.85 786.2 331.728 778.409 356.398C776.048 363.881 773.246 371.41 770.017 378.963ZM776.845 357.586C774.651 364.366 772.101 371.161 769.21 377.959C747.589 351.225 717.005 325.685 679.033 302.536C682.296 285.703 683.99 268.938 684.107 252.39C725.422 278.255 757.516 314.391 776.845 357.586ZM653.188 379.484C665.248 354.413 673.793 328.991 678.802 303.717C716.72 326.873 747.216 352.41 768.71 379.127C748.491 426.028 712.046 472.985 664.084 515.345C649.836 497.148 633.599 478.257 615.783 459.043C623.673 442.398 630.908 425.567 637.437 408.649C643.15 399.15 648.409 389.421 653.188 379.484ZM677.813 301.795C675.137 300.174 672.426 298.565 669.678 296.969C672.856 280.018 675.093 263.578 676.394 247.743C678.556 248.996 680.695 250.276 682.81 251.583C682.716 268.272 681.022 285.068 677.813 301.795ZM677.583 302.976C674.911 301.354 672.202 299.744 669.456 298.146C667.12 310.461 664.288 323.042 660.96 335.855C655.287 357.694 648.323 379.624 640.177 401.432C658.29 369.882 670.991 336.58 677.583 302.976ZM659.847 335.583C663.206 322.651 666.059 309.956 668.407 297.536C646.25 284.708 621.772 272.673 595.258 261.648C573.092 252.429 550.121 244.173 526.608 236.932C533.383 282.729 537.357 332.152 538.302 382.489C562.815 404.873 585.942 427.48 607.056 449.739C618.063 436.095 627.976 421.905 636.725 407.316C645.885 383.481 653.64 359.478 659.847 335.583ZM595.69 260.603C622.11 271.588 646.517 283.578 668.628 296.36C671.795 279.396 674.019 262.948 675.3 247.112C661.977 239.475 647.776 232.866 632.805 227.382C597.999 214.634 560.453 208.233 521.876 208.054C523.508 217.099 525.025 226.32 526.424 235.695C550.15 242.985 573.329 251.306 595.69 260.603ZM520.729 208.051C522.343 216.978 523.844 226.079 525.23 235.329C517.162 232.865 509.033 230.519 500.851 228.294C502.118 221.684 502.982 215.055 503.429 208.439C509.215 208.172 514.983 208.042 520.729 208.051ZM502.284 208.493C501.84 214.992 500.99 221.503 499.75 227.996C482.17 223.243 464.352 219.05 446.402 215.438C465.075 211.725 483.764 209.406 502.284 208.493ZM499.534 229.106C481.09 224.118 462.383 219.747 443.536 216.018C415.681 221.77 387.883 230.622 360.755 242.528C393.68 264.677 426.617 288.956 458.5 314.395C479.47 288.367 493.625 258.945 499.534 229.106ZM440.667 215.456C401.786 207.904 362.334 203.085 323.38 201.214C327.616 209.444 331.931 217.874 336.31 226.479C344.075 231.45 351.855 236.553 359.636 241.776C386.19 230.068 413.391 221.28 440.667 215.456ZM322.053 201.152C312.504 200.709 302.987 200.444 293.515 200.36C307.038 208.195 320.69 216.516 334.394 225.254C330.216 217.051 326.099 209.01 322.053 201.152ZM525.414 236.565C517.215 234.054 508.952 231.667 500.634 229.405C494.68 259.394 480.455 288.958 459.393 315.108C486.284 336.595 512.417 358.9 537.153 381.441C536.17 331.324 532.182 282.137 525.414 236.565ZM614.944 458.139C621.825 443.601 628.206 428.921 634.051 414.166C626.147 426.793 617.434 438.994 607.974 450.708C610.323 453.19 612.646 455.667 614.944 458.139ZM607.263 451.587C609.678 454.139 612.066 456.687 614.427 459.229C589.291 512.114 557.53 563.106 520.779 609.02C526.044 580.994 530.101 551.818 532.998 522.071C561.022 501.469 586.009 477.749 607.263 451.587ZM538.33 384.033C562.574 406.202 585.448 428.581 606.345 450.617C585.63 476.141 561.079 499.736 533.156 520.438C537.458 475.576 539.127 429.445 538.33 384.033ZM458.686 315.983C485.845 337.682 512.231 360.217 537.182 382.985C538.028 429.038 536.336 475.851 531.931 521.342C519.177 530.727 505.724 539.509 491.619 547.598C464.555 488.708 434.628 425.588 404.889 364.461C425.809 350.648 443.903 334.152 458.686 315.983ZM359.532 243.067C392.629 265.304 425.743 289.701 457.792 315.269C443.112 333.306 425.147 349.688 404.379 363.414C385.062 323.719 365.831 284.881 347.524 248.604C351.51 246.691 355.514 244.845 359.532 243.067ZM337.324 228.471C344.346 232.982 351.38 237.6 358.415 242.317C354.599 244.013 350.797 245.77 347.011 247.588C343.751 241.13 340.52 234.755 337.324 228.471ZM292.604 201.139C306.759 209.332 321.055 218.06 335.405 227.241C338.885 234.078 342.406 241.025 345.963 248.07C337.134 252.337 328.494 256.876 320.058 261.674C310.501 240.87 301.305 220.6 292.604 201.139ZM615.265 460.133C590.169 512.858 558.502 563.693 521.879 609.485C575.155 583.352 623.181 551.325 663.238 516.091C649.083 498.005 632.958 479.23 615.265 460.133ZM706.355 577.659C727.076 552.01 744.703 524.347 758.75 495.141C772.599 466.36 782.443 437.182 788.259 408.167C808.368 445.291 809.249 481.5 790.751 512.931C775.218 539.363 746.352 561.884 706.849 578.556C706.727 578.333 706.604 578.111 706.481 577.888L706.355 577.659ZM704.998 579.33C705.193 579.091 705.387 578.853 705.581 578.614L705.686 578.804L705.793 578.999C705.529 579.11 705.264 579.22 704.998 579.33ZM694.506 584.665C696.637 583.877 698.742 583.073 700.819 582.253C677.677 609.994 650.583 635.683 619.994 658.373C591.627 648.122 558.55 632.459 521.974 611.699C587.751 611.433 647.366 602.084 694.506 584.665ZM519.82 611.775C556.755 632.839 590.205 648.739 618.934 659.157C594.856 676.916 568.627 692.82 540.466 706.411C527.435 682.934 512.289 654.499 495.8 622.684C503.839 619.209 511.849 615.572 519.82 611.775ZM517.256 611.687C509.952 615.137 502.616 618.453 495.256 621.633C493.428 618.105 491.585 614.536 489.726 610.928C498.936 611.347 508.118 611.601 517.256 611.687ZM517.688 610.577C508.212 610.493 498.69 610.229 489.138 609.786C485.087 601.921 480.965 593.872 476.782 585.661C490.495 594.407 504.156 602.736 517.688 610.577ZM518.552 609.749C504.4 601.557 490.106 592.831 475.759 583.652C472.281 576.819 468.761 569.876 465.206 562.835C474.033 558.57 482.671 554.031 491.105 549.235C500.659 570.032 509.853 590.295 518.552 609.749ZM490.616 548.171C463.564 489.31 433.647 426.212 403.916 365.1C395.084 370.872 385.755 376.167 375.963 380.909C405.678 443.129 436.293 505.548 464.684 561.801C473.553 557.517 482.2 552.967 490.616 548.171ZM375.463 379.864C385.254 375.122 394.581 369.827 403.407 364.053C384.063 324.304 364.806 285.411 346.476 249.087C337.605 253.371 328.956 257.922 320.538 262.719C337.933 300.569 356.511 340.169 375.463 379.864ZM492.108 548.662C505.898 540.77 519.141 532.185 531.773 522.969C528.871 552.486 524.824 581.436 519.584 609.247C510.876 589.771 501.672 569.484 492.108 548.662ZM682.814 250.253C682.823 232.475 681.011 214.824 677.274 197.519C678.105 213.054 677.846 229.418 676.495 246.491C678.624 247.719 680.73 248.973 682.814 250.253ZM228.556 674.986C237.783 675.554 247.146 675.849 256.623 675.849L256.645 675.872C272.616 675.872 288.922 675.049 305.464 673.424C314.357 704.484 324.96 731.797 337.152 753.934C292.572 753.696 249.187 746.282 208.965 731.542C191.537 725.157 175.008 717.454 159.506 708.549C151.354 693.812 145.192 677.013 141.03 658.452C166.762 667.328 196.126 672.934 228.556 674.986ZM338.433 753.938C326.181 731.814 315.529 704.455 306.6 673.311C367.753 667.171 432.112 650.09 494.756 623.134C511.254 654.975 526.408 683.434 539.447 706.933C474.177 738.255 404.994 754.087 338.433 753.938ZM306.272 672.163C367.354 666.053 431.631 649 494.212 622.083C492.299 618.389 490.368 614.65 488.42 610.868C448.299 608.976 407.648 603.958 367.628 596.05C341.955 601.338 316.234 604.001 290.938 604.001L290.634 604.001C295.032 628.149 300.257 651.019 306.272 672.163ZM289.492 603.998C250.706 603.842 212.962 597.412 177.967 584.596C163.108 579.152 149.003 572.603 135.758 565.045C134.248 584.398 134.149 602.831 135.456 620.167C138.784 633.667 143.305 646.936 149.068 659.872C172.813 667.261 199.462 671.982 228.601 673.827C253.258 675.39 278.9 674.844 305.137 672.276C299.118 651.092 293.891 628.183 289.492 603.998ZM289.285 602.856C250.707 602.677 213.16 596.277 178.353 583.529C163.382 578.044 149.181 571.435 135.857 563.798C137.14 547.96 139.364 531.512 142.533 514.548C164.643 527.329 189.047 539.321 215.465 550.311C237.828 559.609 261.009 567.931 284.737 575.221C286.136 584.594 287.653 593.813 289.285 602.856ZM290.427 602.86C314.936 602.895 339.854 600.423 364.744 595.475C338.064 590.106 311.677 583.453 285.928 575.586C287.313 584.835 288.814 593.934 290.427 602.86ZM285.744 574.353C312.461 582.538 339.869 589.413 367.581 594.9C395.453 589.148 423.269 580.292 450.413 568.378C389.396 527.324 328.332 478.954 274.006 429.448C274.987 479.576 278.976 528.774 285.744 574.353ZM272.858 428.401C263.681 420.022 254.699 411.611 245.944 403.199C232.74 401.372 219.896 398.219 207.624 393.73C200.347 391.066 193.378 387.948 186.755 384.41C182.439 390.688 178.344 397.056 174.476 403.502C165.297 427.373 157.528 451.414 151.311 475.346C147.953 488.272 145.101 500.96 142.754 513.374C164.911 526.204 189.387 538.24 215.897 549.266C238.065 558.486 261.039 566.744 284.554 573.988C277.777 528.183 273.802 478.749 272.858 428.401ZM273.976 427.894C328.632 477.771 390.17 526.53 451.645 567.835C455.668 566.054 459.676 564.206 463.667 562.291C435.274 506.029 404.658 443.603 374.941 381.378C342.09 397.103 307.298 405.09 273.766 405.091C273.767 412.706 273.837 420.31 273.976 427.894ZM272.638 405.088C272.638 412.354 272.703 419.609 272.829 426.846C264.322 419.066 255.983 411.26 247.839 403.452C255.989 404.499 264.271 405.044 272.638 405.088ZM272.638 403.952C263.798 403.905 255.052 403.298 246.459 402.127C231.898 388.128 217.968 374.127 204.821 360.262C225.535 334.74 250.085 311.147 278.007 290.447C274.425 327.785 272.668 366.002 272.638 403.952ZM273.767 403.955C307.117 403.952 341.754 396 374.45 380.351C355.51 340.682 336.942 301.109 319.554 263.282C305.445 271.372 291.989 280.156 279.231 289.543C275.586 327.169 273.798 365.699 273.767 403.955ZM279.387 287.941C292.025 278.72 305.275 270.131 319.073 262.236C309.504 241.408 300.295 221.115 291.582 201.632C286.339 229.454 282.29 258.413 279.387 287.941ZM290.378 201.911C253.636 247.814 221.882 298.791 196.75 351.661C199.11 354.203 201.498 356.751 203.913 359.303C225.163 333.149 250.145 309.436 278.162 288.839C281.058 259.1 285.114 229.93 290.378 201.911ZM139.778 658.017C143.812 676.268 149.764 692.842 157.624 707.459C108.974 679.054 70.6042 638.727 46.532 590.119C66.5281 620.479 98.4041 643.508 139.778 658.017ZM147.608 659.414C145.289 658.678 142.999 657.916 140.737 657.13C138.653 647.575 137.094 637.561 136.061 627.126C139.126 638.115 142.974 648.895 147.608 659.414ZM133.895 613.42C133.066 597.878 133.326 581.507 134.681 564.426C132.546 563.195 130.434 561.937 128.345 560.654C128.337 578.443 130.153 596.104 133.895 613.42ZM134.782 563.178C136.084 547.342 138.324 530.902 141.503 513.951C138.747 512.349 136.027 510.735 133.343 509.11C130.134 525.838 128.441 542.637 128.349 559.328C130.469 560.638 132.614 561.922 134.782 563.178ZM150.221 475.074C155.914 453.159 162.906 431.153 171.088 409.27C152.915 440.881 140.176 474.255 133.571 507.932C136.253 509.559 138.97 511.174 141.724 512.777C144.061 500.465 146.893 487.885 150.221 475.074ZM185.603 383.789C182.682 388.046 179.856 392.355 177.125 396.716C179.028 391.915 180.987 387.122 183.001 382.34C183.862 382.83 184.73 383.313 185.603 383.789ZM186.251 382.847C185.309 382.335 184.374 381.814 183.447 381.284C187.489 371.729 191.752 362.216 196.227 352.763C198.524 355.234 200.846 357.71 203.194 360.191C197.246 367.556 191.593 375.113 186.251 382.847ZM487.832 609.725C448.842 607.854 409.354 603.026 370.438 595.461C397.733 589.634 424.953 580.841 451.528 569.128C459.325 574.363 467.121 579.477 474.901 584.459C479.281 593.064 483.595 601.494 487.832 609.725ZM244.549 401.857C231.966 400.015 219.723 396.955 208.011 392.662C200.827 390.032 193.947 386.956 187.405 383.468C192.651 375.888 198.221 368.441 204.103 361.15C216.893 374.634 230.421 388.245 244.549 401.857ZM473.876 582.445C466.846 577.929 459.804 573.305 452.76 568.583C456.581 566.885 460.388 565.126 464.179 563.307C467.443 569.772 470.677 576.154 473.876 582.445Z" fill="url(#paint0_linear_10178_4924)"/>
</g>
<defs>
<linearGradient id="paint0_linear_10178_4924" x1="196.438" y1="-60.5978" x2="930.518" y2="431.705" gradientUnits="userSpaceOnUse">
<stop stop-color="white" stop-opacity="0"/>
<stop offset="1" stop-color="white"/>
</linearGradient>
<clipPath id="clip0_10178_4924">
<rect width="811" height="811" fill="white"/>
</clipPath>
</defs>
</svg>
