<svg width="1813" height="848" viewBox="0 0 1813 848" fill="none" xmlns="http://www.w3.org/2000/svg">
<g opacity="0.29" filter="url(#filter0_f_3417_15150)">
<path fill-rule="evenodd" clip-rule="evenodd" d="M1402.05 6.51581C1402.05 6.23094 1401.81 6 1401.53 6C1401.24 6 1401.01 6.23094 1401.01 6.51581V90.048H1390.56V120.211H1401.01V155.009C1401.01 155.293 1401.24 155.524 1401.53 155.524C1401.81 155.524 1402.05 155.293 1402.05 155.009V120.211H1412.48V90.048H1402.05V6.51581ZM963.71 52.9211C963.71 52.6362 963.479 52.4053 963.195 52.4053C962.91 52.4053 962.679 52.6362 962.679 52.9211V138.77H952.229V512.322H962.679V540.163C962.679 540.448 962.91 540.679 963.195 540.679C963.479 540.679 963.71 540.448 963.71 540.163V512.322H974.146V138.77H963.71V52.9211ZM54.1591 505.357C54.1591 505.072 53.9282 504.841 53.6433 504.841C53.3584 504.841 53.1275 505.072 53.1275 505.357V513.165H42.6782V577.284H53.1275V591.204C53.1275 591.489 53.3584 591.72 53.6433 591.72C53.9282 591.72 54.1591 591.489 54.1591 591.204V577.284H64.5952V513.165H54.1591V505.357ZM10.3214 542.477C10.3214 542.192 10.0904 541.961 9.80554 541.961C9.52066 541.961 9.28973 542.192 9.28973 542.477V550.285H-1.15961V614.404H9.28973V628.324C9.28973 628.609 9.52066 628.84 9.80554 628.84C10.0904 628.84 10.3214 628.609 10.3214 628.324V614.404H20.7574V550.285H10.3214V542.477ZM-33.5159 584.245C-33.5159 583.96 -33.7468 583.729 -34.0317 583.729C-34.3166 583.729 -34.5475 583.96 -34.5475 584.245V592.053H-44.9968V656.172H-34.5475V670.093C-34.5475 670.378 -34.3166 670.609 -34.0317 670.609C-33.7468 670.609 -33.5159 670.378 -33.5159 670.093V656.172H-23.0798V592.053H-33.5159V584.245ZM-77.3387 628.329C-77.3387 628.044 -77.5697 627.814 -77.8545 627.814C-78.1394 627.814 -78.3703 628.044 -78.3703 628.329V636.137H-88.8197V662.131H-78.3703V670.093C-78.3703 670.378 -78.1394 670.609 -77.8545 670.609C-77.5697 670.609 -77.3387 670.378 -77.3387 670.093V662.131H-66.9026V636.137H-77.3387V628.329ZM-121.173 635.295C-121.173 635.01 -121.404 634.779 -121.688 634.779C-121.973 634.779 -122.204 635.01 -122.204 635.295V640.145H-132.654V680.003H-122.204V688.66C-122.204 688.945 -121.973 689.175 -121.688 689.175C-121.404 689.175 -121.173 688.945 -121.173 688.66V680.003H-110.737V640.145H-121.173V635.295ZM-165.018 637.606C-165.018 637.321 -165.249 637.09 -165.534 637.09C-165.818 637.09 -166.049 637.321 -166.049 637.606V640.351H-176.499V662.879H-166.049V667.768C-166.049 668.053 -165.818 668.284 -165.534 668.284C-165.249 668.284 -165.018 668.053 -165.018 667.768V662.879H-154.582V640.351H-165.018V637.606ZM-208.851 639.932C-208.851 639.647 -209.082 639.416 -209.367 639.416C-209.652 639.416 -209.883 639.647 -209.883 639.932V647.74H-220.332V711.859H-209.883V725.779C-209.883 726.064 -209.652 726.295 -209.367 726.295C-209.082 726.295 -208.851 726.064 -208.851 725.779V711.859H-198.415V647.74H-208.851V639.932ZM-296.519 644.573C-296.519 644.289 -296.75 644.058 -297.035 644.058C-297.32 644.058 -297.551 644.289 -297.551 644.573V653.86H-308V841.796H-286.083V653.86H-296.519V644.573ZM97.9926 513.165H108.429V577.284H97.9926V591.204C97.9926 591.489 97.7617 591.72 97.4768 591.72C97.1919 591.72 96.961 591.489 96.961 591.204V577.284H86.5117V513.165H96.961V505.357C96.961 505.072 97.1919 504.841 97.4768 504.841C97.7617 504.841 97.9926 505.072 97.9926 505.357V513.165ZM273.32 728.638H283.756V746.664H273.32V765.225C273.32 765.509 273.089 765.74 272.804 765.74C272.519 765.74 272.288 765.509 272.288 765.225V746.664H261.839V728.638H272.288V718.821C272.288 718.536 272.519 718.305 272.804 718.305C273.089 718.305 273.32 718.536 273.32 718.821V728.638ZM317.162 728.099H327.598V735.059H317.162V809.309C317.162 809.594 316.931 809.824 316.646 809.824C316.361 809.824 316.13 809.594 316.13 809.309V735.059H305.681V728.099H316.13V725.781C316.13 725.497 316.361 725.266 316.646 725.266C316.931 725.266 317.162 725.497 317.162 725.781V728.099ZM360.999 728.099H371.435V735.059H360.999V809.309C360.999 809.594 360.768 809.824 360.483 809.824C360.198 809.824 359.967 809.594 359.967 809.309V735.059H349.518V728.099H359.967V725.781C359.967 725.497 360.198 725.266 360.483 725.266C360.768 725.266 360.999 725.497 360.999 725.781V728.099ZM404.829 725.771H415.265V755.934H404.829V790.738C404.829 791.023 404.598 791.254 404.313 791.254C404.029 791.254 403.798 791.023 403.798 790.738V755.934H393.348V725.771H403.798V711.851C403.798 711.567 404.028 711.336 404.313 711.336C404.598 711.336 404.829 711.567 404.829 711.851V725.771ZM443.176 681.695H453.612V711.858H443.176V746.662C443.176 746.947 442.945 747.178 442.66 747.178C442.376 747.178 442.145 746.947 442.145 746.662V711.858H431.695V681.695H442.145V667.775C442.145 667.49 442.376 667.259 442.66 667.259C442.945 667.259 443.176 667.49 443.176 667.775V681.695ZM481.536 637.616H491.972V693.3H481.536V702.583C481.536 702.867 481.305 703.098 481.02 703.098C480.735 703.098 480.504 702.867 480.504 702.583V693.3H470.055V637.616H480.504V623.696C480.504 623.411 480.735 623.18 481.02 623.18C481.305 623.18 481.536 623.411 481.536 623.696V637.616ZM519.887 616.728H530.323V646.891H519.887V681.695C519.887 681.98 519.656 682.211 519.371 682.211C519.086 682.211 518.855 681.98 518.855 681.695V646.891H508.406V616.728H518.855V602.808C518.855 602.523 519.086 602.292 519.371 602.292C519.656 602.292 519.887 602.523 519.887 602.808V616.728ZM558.249 568H568.685V607.444H558.249V642.244C558.249 642.529 558.018 642.76 557.733 642.76C557.448 642.76 557.217 642.529 557.217 642.244V607.444H546.768V568H557.217V563.357C557.217 563.072 557.448 562.841 557.733 562.841C558.018 562.841 558.249 563.072 558.249 563.357V568ZM596.604 602.803H607.041V632.966H596.604V667.771C596.604 668.056 596.373 668.287 596.089 668.287C595.804 668.287 595.573 668.056 595.573 667.771V632.966H585.123V602.803H595.573V588.885C595.573 588.6 595.804 588.369 596.089 588.369C596.373 588.369 596.604 588.6 596.604 588.885V602.803ZM634.952 637.616H645.388V693.3H634.952V748.987C634.952 749.271 634.721 749.502 634.436 749.502C634.151 749.502 633.92 749.271 633.92 748.987V693.3H623.471V637.616H633.92V623.696C633.92 623.411 634.151 623.18 634.436 623.18C634.721 623.18 634.952 623.411 634.952 623.696V637.616ZM673.311 725.771H683.747V730.412H673.311V790.738C673.311 791.023 673.08 791.254 672.795 791.254C672.51 791.254 672.279 791.023 672.279 790.738V730.412H661.83V725.771H672.279V711.851C672.279 711.567 672.51 711.336 672.795 711.336C673.08 711.336 673.311 711.567 673.311 711.851V725.771ZM711.665 725.771H722.101V755.934H711.665V790.738C711.665 791.023 711.434 791.254 711.149 791.254C710.865 791.254 710.634 791.023 710.634 790.738V755.934H700.184V725.771H710.634V711.851C710.634 711.567 710.865 711.336 711.149 711.336C711.434 711.336 711.665 711.567 711.665 711.851V725.771ZM750.025 725.771H760.461V739.693H750.025V790.738C750.025 791.023 749.794 791.254 749.509 791.254C749.224 791.254 748.993 791.023 748.993 790.738V739.693H738.544V725.771H748.993V711.851C748.993 711.567 749.224 711.336 749.509 711.336C749.794 711.336 750.025 711.567 750.025 711.851V725.771ZM788.379 670.096H798.815V700.258H788.379V735.063C788.379 735.348 788.148 735.579 787.863 735.579C787.579 735.579 787.348 735.348 787.348 735.063V700.258H776.898V670.096H787.348V656.176C787.348 655.891 787.579 655.66 787.863 655.66C788.148 655.66 788.379 655.891 788.379 656.176V670.096ZM832.213 635.288H842.649V665.451H832.213V700.255C832.213 700.54 831.982 700.771 831.697 700.771C831.412 700.771 831.182 700.54 831.182 700.255V665.451H820.732V635.288H831.182V621.368C831.182 621.084 831.412 620.853 831.697 620.853C831.982 620.853 832.213 621.084 832.213 621.368V635.288ZM876.043 595.844H886.479V626.007H876.043V660.811C876.043 661.096 875.812 661.327 875.527 661.327C875.243 661.327 875.012 661.096 875.012 660.811V626.007H864.562V595.844H875.012V581.924C875.012 581.639 875.243 581.408 875.527 581.408C875.812 581.408 876.043 581.639 876.043 581.924V595.844ZM919.876 531.563H930.312V573.258H919.876V621.366C919.876 621.651 919.646 621.882 919.361 621.882C919.076 621.882 918.845 621.651 918.845 621.366V573.258H908.396V531.563H918.845V512.317C918.845 512.032 919.076 511.801 919.361 511.801C919.646 511.801 919.876 512.032 919.876 512.317V531.563ZM1007.54 141.085H1017.98V171.248H1007.54V206.052C1007.54 206.337 1007.31 206.568 1007.02 206.568C1006.74 206.568 1006.51 206.337 1006.51 206.052V171.248H996.06V141.085H1006.51V127.165C1006.51 126.88 1006.74 126.649 1007.02 126.649C1007.31 126.649 1007.54 126.88 1007.54 127.165V141.085ZM1051.38 185.164H1061.82V236.208H1051.38V282.614C1051.38 282.899 1051.15 283.13 1050.87 283.13C1050.58 283.13 1050.35 282.899 1050.35 282.614V236.208H1039.9V185.164H1050.35V171.244C1050.35 170.959 1050.58 170.728 1050.87 170.728C1051.15 170.728 1051.38 170.959 1051.38 171.244V185.164ZM1095.22 166.603H1105.65V196.766H1095.22V231.571C1095.22 231.855 1094.99 232.086 1094.7 232.086C1094.42 232.086 1094.18 231.855 1094.18 231.571V196.766H1083.74V166.603H1094.18V152.684C1094.18 152.399 1094.42 152.168 1094.7 152.168C1094.99 152.168 1095.22 152.399 1095.22 152.684V166.603ZM1139.05 113.245H1149.49V143.408H1139.05V178.212C1139.05 178.497 1138.82 178.728 1138.53 178.728C1138.25 178.728 1138.02 178.497 1138.02 178.212V143.408H1127.57V113.245H1138.02V99.3254C1138.02 99.0405 1138.25 98.8095 1138.53 98.8095C1138.82 98.8095 1139.05 99.0405 1139.05 99.3254V113.245ZM1182.88 113.245H1193.32V143.408H1182.88V178.212C1182.88 178.497 1182.65 178.728 1182.36 178.728C1182.08 178.728 1181.85 178.497 1181.85 178.212V143.408H1171.4V113.245H1181.85V99.3254C1181.85 99.0405 1182.08 98.8095 1182.36 98.8095C1182.65 98.8095 1182.88 99.0405 1182.88 99.3254V113.245ZM1226.72 113.245H1237.16V192.132H1215.24V113.245H1225.69V99.3254C1225.69 99.0405 1225.92 98.8095 1226.21 98.8095C1226.49 98.8095 1226.72 99.0405 1226.72 99.3254V113.245ZM1270.55 194.45H1280.99V224.613H1270.55V259.417C1270.55 259.702 1270.32 259.933 1270.03 259.933C1269.75 259.933 1269.52 259.702 1269.52 259.417V224.613H1259.07V194.45H1269.52V180.53C1269.52 180.245 1269.75 180.014 1270.03 180.014C1270.32 180.014 1270.55 180.245 1270.55 180.53V194.45ZM1314.39 194.45H1324.82V206.051H1314.39V259.417C1314.39 259.702 1314.16 259.933 1313.87 259.933C1313.59 259.933 1313.36 259.702 1313.36 259.417V206.051H1302.91V194.45H1313.36V180.53C1313.36 180.245 1313.59 180.014 1313.87 180.014C1314.16 180.014 1314.39 180.245 1314.39 180.53V194.45ZM1358.21 131.809H1368.65V171.252H1358.21V206.052C1358.21 206.337 1357.98 206.568 1357.7 206.568C1357.41 206.568 1357.18 206.337 1357.18 206.052V171.252H1346.73V131.809H1357.18V127.165C1357.18 126.88 1357.41 126.649 1357.7 126.649C1357.98 126.649 1358.21 126.88 1358.21 127.165V131.809ZM1445.89 141.085H1456.32V171.248H1445.89V206.052C1445.89 206.337 1445.66 206.568 1445.37 206.568C1445.09 206.568 1444.85 206.337 1444.85 206.052V171.248H1434.41V141.085H1444.85V127.165C1444.85 126.88 1445.09 126.649 1445.37 126.649C1445.66 126.649 1445.89 126.88 1445.89 127.165V141.085ZM1489.72 171.243H1500.15V185.165H1489.72V236.21C1489.72 236.495 1489.49 236.726 1489.2 236.726C1488.92 236.726 1488.68 236.495 1488.68 236.21V185.165H1478.24V171.243H1488.68V157.323C1488.68 157.039 1488.92 156.808 1489.2 156.808C1489.49 156.808 1489.72 157.039 1489.72 157.323V171.243ZM1533.55 141.085H1543.99V171.248H1533.55V206.052C1533.55 206.337 1533.32 206.568 1533.04 206.568C1532.75 206.568 1532.52 206.337 1532.52 206.052V171.248H1522.07V141.085H1532.52V127.165C1532.52 126.88 1532.75 126.649 1533.04 126.649C1533.32 126.649 1533.55 126.88 1533.55 127.165V141.085ZM1577.38 99.3144H1587.82V148.039H1577.38V164.282C1577.38 164.566 1577.15 164.797 1576.87 164.797C1576.58 164.797 1576.35 164.566 1576.35 164.282V148.039H1565.9V99.3144H1576.35V85.3948C1576.35 85.1099 1576.58 84.879 1576.87 84.879C1577.15 84.879 1577.38 85.1099 1577.38 85.3948V99.3144ZM1621.21 59.8818H1631.65V108.606H1621.21V124.848C1621.21 125.133 1620.98 125.364 1620.7 125.364C1620.41 125.364 1620.18 125.133 1620.18 124.848V108.606H1609.73V59.8818H1620.18V45.9617C1620.18 45.6768 1620.41 45.4459 1620.7 45.4459C1620.98 45.4459 1621.21 45.6768 1621.21 45.9617V59.8818ZM1665.05 106.275H1675.49V120.196H1665.05V171.241C1665.05 171.526 1664.82 171.757 1664.54 171.757C1664.25 171.757 1664.02 171.526 1664.02 171.242V120.196H1653.57V106.275H1664.02V92.3547C1664.02 92.0698 1664.25 91.8389 1664.54 91.8389C1664.82 91.8389 1665.05 92.0698 1665.05 92.3547V106.275ZM1708.89 62.1983H1719.33V110.923H1708.89V127.165C1708.89 127.45 1708.66 127.681 1708.38 127.681C1708.09 127.681 1707.86 127.45 1707.86 127.165V110.923H1697.41V62.1983H1707.86V48.2784C1707.86 47.9935 1708.09 47.7626 1708.38 47.7626C1708.66 47.7626 1708.89 47.9935 1708.89 48.2784V62.1983ZM1752.72 27.3956H1763.16V76.1198H1752.72V92.3623C1752.72 92.6472 1752.48 92.8781 1752.2 92.8781C1751.91 92.8781 1751.68 92.6472 1751.68 92.3623V76.1198H1741.25V27.3956H1751.68V13.4755C1751.68 13.1906 1751.91 12.9597 1752.2 12.9597C1752.48 12.9597 1752.72 13.1906 1752.72 13.4755V27.3956ZM1796.56 20.4355H1807V69.1597H1796.56V85.4026C1796.56 85.6875 1796.33 85.9184 1796.05 85.9184C1795.76 85.9184 1795.53 85.6875 1795.53 85.4026V69.1597H1785.08V20.4355H1795.53V6.51581C1795.53 6.23094 1795.76 6 1796.05 6C1796.33 6 1796.56 6.23094 1796.56 6.51581V20.4355ZM141.819 503.868H152.255V510.8H141.819V563.356C141.819 563.641 141.588 563.872 141.303 563.872C141.019 563.872 140.788 563.641 140.788 563.356V510.8H130.338V503.868H140.788V503.031C140.788 502.746 141.019 502.515 141.303 502.515C141.588 502.515 141.819 502.746 141.819 503.031V503.868ZM185.649 503.868H196.085V510.8H185.649V563.356C185.649 563.641 185.418 563.872 185.133 563.872C184.849 563.872 184.618 563.641 184.618 563.356V510.8H174.168V503.868H184.618V503.031C184.618 502.746 184.849 502.515 185.133 502.515C185.418 502.515 185.649 502.746 185.649 503.031V503.868ZM-252.686 653.86H-242.25V841.796H-264.167V653.86H-253.718V644.573C-253.718 644.289 -253.487 644.058 -253.202 644.058C-252.917 644.058 -252.686 644.289 -252.686 644.573V653.86Z" fill="url(#paint0_linear_3417_15150)" fill-opacity="0.61"/>
</g>
<defs>
<filter id="filter0_f_3417_15150" x="-313.805" y="0.194755" width="2126.61" height="847.406" filterUnits="userSpaceOnUse" color-interpolation-filters="sRGB">
<feFlood flood-opacity="0" result="BackgroundImageFix"/>
<feBlend mode="normal" in="SourceGraphic" in2="BackgroundImageFix" result="shape"/>
<feGaussianBlur stdDeviation="2.90262" result="effect1_foregroundBlur_3417_15150"/>
</filter>
<linearGradient id="paint0_linear_3417_15150" x1="1899.39" y1="-14.5867" x2="-83.0488" y2="1098.47" gradientUnits="userSpaceOnUse">
<stop offset="0.0446586" stop-color="white"/>
<stop offset="0.460044" stop-color="#999999" stop-opacity="0.42"/>
<stop offset="0.619038" stop-color="white" stop-opacity="0.68"/>
<stop offset="0.938568" stop-color="#999999" stop-opacity="0"/>
</linearGradient>
</defs>
</svg>
