<svg width="44" height="44" viewBox="0 0 44 44" fill="none" xmlns="http://www.w3.org/2000/svg">
<path opacity="0.5" d="M16.4999 12.8332C16.4999 9.7165 18.8833 7.33317 21.9999 7.33317C25.1166 7.33317 27.4999 9.7165 27.4999 12.8332V16.4998H31.1666V12.8332C31.1666 7.69984 27.1333 3.6665 21.9999 3.6665C16.8666 3.6665 12.8333 7.69984 12.8333 12.8332V16.4998H16.4999V12.8332ZM24.7499 26.5832C24.7499 25.1165 23.4666 23.8332 21.9999 23.8332C20.5333 23.8332 19.2499 25.1165 19.2499 26.5832C19.2499 27.3165 19.6166 28.0498 20.1666 28.5998V31.1665C20.1666 32.2665 20.8999 32.9998 21.9999 32.9998C23.0999 32.9998 23.8333 32.2665 23.8333 31.1665V28.5998C24.3833 28.0498 24.7499 27.3165 24.7499 26.5832Z" fill="#FF532E"/>
<path d="M31.1666 16.5H12.8333C9.71659 16.5 7.33325 18.8833 7.33325 22V34.8333C7.33325 37.95 9.71659 40.3333 12.8333 40.3333H31.1666C34.2833 40.3333 36.6666 37.95 36.6666 34.8333V22C36.6666 18.8833 34.2833 16.5 31.1666 16.5ZM23.8333 28.6V31.1667C23.8333 32.2667 23.0999 33 21.9999 33C20.8999 33 20.1666 32.2667 20.1666 31.1667V28.6C19.6166 28.05 19.2499 27.3167 19.2499 26.5833C19.2499 25.1167 20.5333 23.8333 21.9999 23.8333C23.4666 23.8333 24.7499 25.1167 24.7499 26.5833C24.7499 27.3167 24.3833 28.05 23.8333 28.6Z" fill="#FF532E"/>
</svg>
