<svg width="254" height="44" viewBox="0 0 254 44" fill="none" xmlns="http://www.w3.org/2000/svg">
<path d="M2.51735 17.5999H5.95655V19.869L5.3538 22.1027H6.31111C6.73658 20.6609 7.54024 19.4908 8.72209 18.5926C9.90395 17.6944 11.464 17.2453 13.4022 17.2453C15.9314 17.2453 17.9406 18.1081 19.4297 19.8336C20.9425 21.5591 21.6989 23.7573 21.6989 26.4283C21.6989 29.0993 20.9425 31.2976 19.4297 33.0231C17.9406 34.7486 15.9314 35.6113 13.4022 35.6113C11.464 35.6113 9.90395 35.1622 8.72209 34.264C7.54024 33.3658 6.73658 32.184 6.31111 30.7185H5.3538L5.95655 32.9876V41.7452H2.51735V17.5999ZM7.65842 21.7836C6.52384 22.8 5.95655 24.3483 5.95655 26.4283C5.95655 28.5084 6.52384 30.0684 7.65842 31.1085C8.81664 32.1249 10.3412 32.6331 12.2322 32.6331C14.0759 32.6331 15.5414 32.1249 16.6287 31.1085C17.716 30.0684 18.2597 28.5084 18.2597 26.4283C18.2597 24.3483 17.716 22.8 16.6287 21.7836C15.5414 20.7436 14.0759 20.2236 12.2322 20.2236C10.3412 20.2236 8.81664 20.7436 7.65842 21.7836ZM25.0489 35.2568V19.7981C25.0489 18.9235 25.2498 18.2735 25.6516 17.8481C26.0771 17.4226 26.7271 17.2217 27.6017 17.2453L37.7775 17.5999V20.5781L28.4881 20.259V35.2568H25.0489ZM38.8384 26.1801C38.8384 23.391 39.6302 21.2045 41.2139 19.6208C42.8212 18.0372 44.9249 17.2453 47.525 17.2453C50.1014 17.2453 52.1579 18.0135 53.6943 19.5499C55.2307 21.0627 55.9989 23.1546 55.9989 25.8256V27.102H42.1712C42.2421 28.7802 42.7385 30.1394 43.6603 31.1794C44.6058 32.2194 46.0477 32.7394 47.9859 32.7394C50.8224 32.7394 52.5479 31.5103 53.1624 29.052H56.6016C56.2471 30.7539 55.3607 32.2785 53.9425 33.6258C52.5479 34.9495 50.5624 35.6113 47.9859 35.6113C44.9367 35.6113 42.6439 34.725 41.1075 32.9522C39.5947 31.1794 38.8384 28.922 38.8384 26.1801ZM42.1712 24.691H52.6661C52.6661 23.3673 52.217 22.2682 51.3187 21.3936C50.4442 20.5191 49.1796 20.0818 47.525 20.0818C45.8704 20.0818 44.5585 20.5309 43.5894 21.4291C42.6439 22.3037 42.1712 23.391 42.1712 24.691ZM78.4046 35.2568H74.9654V32.9876L75.5682 30.7185H74.6109C74.1854 32.184 73.3699 33.3658 72.1645 34.264C70.9826 35.1622 69.4225 35.6113 67.4843 35.6113C64.9788 35.6113 62.9696 34.7486 61.4568 33.0231C59.9677 31.2739 59.2231 29.0639 59.2231 26.3929C59.2231 23.7455 59.9677 21.5591 61.4568 19.8336C62.9696 18.1081 64.9788 17.2453 67.4843 17.2453C69.4225 17.2453 70.9826 17.6944 72.1645 18.5926C73.3699 19.4908 74.1854 20.6609 74.6109 22.1027H75.5682L74.9654 19.869V9.19688H78.4046V35.2568ZM74.9654 26.3929C74.9654 24.3364 74.3863 22.8 73.2281 21.7836C72.0935 20.7436 70.5808 20.2236 68.6898 20.2236C66.8461 20.2236 65.3806 20.7318 64.2933 21.7482C63.206 22.7646 62.6623 24.3128 62.6623 26.3929C62.6623 28.4966 63.206 30.0684 64.2933 31.1085C65.3806 32.1249 66.8461 32.6331 68.6898 32.6331C70.5808 32.6331 72.0935 32.1131 73.2281 31.073C74.3863 30.033 74.9654 28.4729 74.9654 26.3929ZM88.027 14.9762C87.247 14.9762 86.5969 14.7398 86.0769 14.267C85.5805 13.7707 85.3324 13.1561 85.3324 12.4233C85.3324 11.6906 85.5805 11.0878 86.0769 10.6151C86.5969 10.1424 87.247 9.90599 88.027 9.90599C88.8306 9.90599 89.4925 10.1424 90.0125 10.6151C90.5325 11.0878 90.7925 11.6906 90.7925 12.4233C90.7925 13.1561 90.5325 13.7707 90.0125 14.267C89.4925 14.7398 88.8306 14.9762 88.027 14.9762ZM81.8932 35.2568V32.2785H86.8569V20.259L83.0632 20.5781V17.5999L87.6724 17.2453C89.327 17.1035 90.1543 17.8599 90.1543 19.5145V32.2785H95.1181V35.2568H81.8932ZM96.5649 26.3929C96.5649 23.7219 97.3922 21.5355 99.0468 19.8336C100.701 18.1081 102.923 17.2453 105.712 17.2453C107.816 17.2453 109.707 17.8481 111.385 19.0536C113.064 20.259 113.997 22.0436 114.186 24.4074H110.712C110.499 22.9655 109.943 21.9136 109.045 21.2518C108.147 20.5663 107.036 20.2236 105.712 20.2236C103.845 20.2236 102.427 20.8027 101.458 21.9609C100.489 23.0955 100.004 24.5728 100.004 26.3929C100.004 28.2366 100.489 29.7375 101.458 30.8957C102.427 32.054 103.845 32.6331 105.712 32.6331C107.036 32.6331 108.147 32.3022 109.045 31.6403C109.943 30.9548 110.499 29.8912 110.712 28.4493H114.186C113.997 30.813 113.064 32.5976 111.385 33.8031C109.707 35.0086 107.816 35.6113 105.712 35.6113C102.923 35.6113 100.701 34.7486 99.0468 33.0231C97.3922 31.2976 96.5649 29.0875 96.5649 26.3929ZM122.638 32.6685L128.949 32.2785V35.2568L121.751 35.6113C120.9 35.6586 120.262 35.4695 119.837 35.0441C119.411 34.595 119.198 33.9331 119.198 33.0585V20.5781H115.263V17.5999H119.198V13.2743L122.638 12.2106V17.5999H128.24V20.5781H122.638V32.6685ZM137.582 14.9762C136.802 14.9762 136.152 14.7398 135.632 14.267C135.136 13.7707 134.887 13.1561 134.887 12.4233C134.887 11.6906 135.136 11.0878 135.632 10.6151C136.152 10.1424 136.802 9.90599 137.582 9.90599C138.386 9.90599 139.048 10.1424 139.568 10.6151C140.088 11.0878 140.348 11.6906 140.348 12.4233C140.348 13.1561 140.088 13.7707 139.568 14.267C139.048 14.7398 138.386 14.9762 137.582 14.9762ZM131.448 35.2568V32.2785H136.412V20.259L132.618 20.5781V17.5999L137.228 17.2453C138.882 17.1035 139.709 17.8599 139.709 19.5145V32.2785H144.673V35.2568H131.448ZM157.198 20.2236C155.354 20.2236 153.877 20.8854 152.766 22.2091C151.655 23.5091 151.099 25.3292 151.099 27.6693V35.2568H147.66V17.5999H151.099V20.4718L150.497 22.7055H151.454C151.832 21.0273 152.588 19.7036 153.723 18.7345C154.881 17.7417 156.382 17.2453 158.226 17.2453C160.33 17.2453 161.972 17.8835 163.154 19.1599C164.36 20.4127 164.962 22.2564 164.962 24.691V35.2568H161.488V25.1874C161.488 23.4146 161.145 22.15 160.46 21.3936C159.798 20.6136 158.71 20.2236 157.198 20.2236ZM187.463 17.5999H189.023V20.5781H187.569C186.695 20.5781 185.974 20.7791 185.406 21.1809C186.116 22.0791 186.47 23.2137 186.47 24.5846C186.47 26.3574 185.773 27.8702 184.378 29.123C183.007 30.3757 180.963 31.4985 178.244 32.4912C179.639 32.3494 180.927 32.3258 182.109 32.4203C183.315 32.4912 184.307 32.8813 185.087 33.5904C185.867 34.2759 186.257 35.2332 186.257 36.4623C186.257 37.2659 186.116 37.9514 185.832 38.5187C185.572 39.1096 185.111 39.606 184.449 40.0078C183.811 40.4097 183.066 40.7288 182.215 40.9652C181.388 41.2252 180.265 41.4143 178.847 41.5324C177.453 41.6743 176.023 41.7688 174.557 41.8161C173.092 41.8634 171.26 41.887 169.061 41.887V38.9087C174.593 38.9087 178.256 38.7433 180.053 38.4123C181.873 38.0814 182.783 37.3014 182.783 36.0723C182.783 33.4249 178.753 33.1885 170.692 35.3632L170.09 33.1295C173.304 32.3967 176.271 31.6403 178.989 30.8603V29.903C175.916 30.7539 173.281 30.7066 171.082 29.7612C168.908 28.792 167.82 26.9838 167.82 24.3364C167.82 22.02 168.671 20.259 170.373 19.0536C172.099 17.8481 174.321 17.2453 177.039 17.2453C179.521 17.2453 181.589 17.8126 183.244 18.9472C184.047 18.3799 184.733 18.0135 185.3 17.8481C185.891 17.6826 186.612 17.5999 187.463 17.5999ZM171.26 24.4428C171.26 27.3029 173.222 28.7329 177.145 28.7329C181.069 28.7329 183.031 27.3029 183.031 24.4428C183.031 21.63 181.069 20.2236 177.145 20.2236C173.222 20.2236 171.26 21.63 171.26 24.4428Z" fill="white"/>
<path d="M230.056 35.2568L227.113 25.8256H217.008L214.065 35.2568H210.626L218.497 10.2605H225.624L233.495 35.2568H230.056ZM217.93 22.8473H226.191L222.539 11.2179H221.582L217.93 22.8473ZM251.011 13.2388H245.409V32.2785H251.011V35.2568H236.368V32.2785H241.97V13.2388H236.368V10.2605H251.011V13.2388Z" fill="white"/>
<g filter="url(#filter0_di_2543_2423)">
<circle cx="199.923" cy="33.4094" r="3.91511" fill="#FFD72C"/>
</g>
<g filter="url(#filter1_di_2543_2423)">
<circle cx="199.923" cy="22.9137" r="3.91511" fill="#FFAE2D"/>
</g>
<g filter="url(#filter2_di_2543_2423)">
<circle cx="199.923" cy="12.4212" r="3.91511" fill="#FF532E"/>
</g>
<defs>
<filter id="filter0_di_2543_2423" x="193.406" y="28.3792" width="13.0339" height="13.0341" filterUnits="userSpaceOnUse" color-interpolation-filters="sRGB">
<feFlood flood-opacity="0" result="BackgroundImageFix"/>
<feColorMatrix in="SourceAlpha" type="matrix" values="0 0 0 0 0 0 0 0 0 0 0 0 0 0 0 0 0 0 127 0" result="hardAlpha"/>
<feOffset dy="1.48681"/>
<feGaussianBlur stdDeviation="1.30096"/>
<feComposite in2="hardAlpha" operator="out"/>
<feColorMatrix type="matrix" values="0 0 0 0 1 0 0 0 0 0.843137 0 0 0 0 0.172549 0 0 0 0.26 0"/>
<feBlend mode="normal" in2="BackgroundImageFix" result="effect1_dropShadow_2543_2423"/>
<feBlend mode="normal" in="SourceGraphic" in2="effect1_dropShadow_2543_2423" result="shape"/>
<feColorMatrix in="SourceAlpha" type="matrix" values="0 0 0 0 0 0 0 0 0 0 0 0 0 0 0 0 0 0 127 0" result="hardAlpha"/>
<feOffset dy="1.48681"/>
<feGaussianBlur stdDeviation="0.8735"/>
<feComposite in2="hardAlpha" operator="arithmetic" k2="-1" k3="1"/>
<feColorMatrix type="matrix" values="0 0 0 0 1 0 0 0 0 1 0 0 0 0 1 0 0 0 1 0"/>
<feBlend mode="overlay" in2="shape" result="effect2_innerShadow_2543_2423"/>
</filter>
<filter id="filter1_di_2543_2423" x="193.406" y="17.8835" width="13.0339" height="13.0341" filterUnits="userSpaceOnUse" color-interpolation-filters="sRGB">
<feFlood flood-opacity="0" result="BackgroundImageFix"/>
<feColorMatrix in="SourceAlpha" type="matrix" values="0 0 0 0 0 0 0 0 0 0 0 0 0 0 0 0 0 0 127 0" result="hardAlpha"/>
<feOffset dy="1.48681"/>
<feGaussianBlur stdDeviation="1.30096"/>
<feComposite in2="hardAlpha" operator="out"/>
<feColorMatrix type="matrix" values="0 0 0 0 1 0 0 0 0 0.682353 0 0 0 0 0.176471 0 0 0 0.5 0"/>
<feBlend mode="normal" in2="BackgroundImageFix" result="effect1_dropShadow_2543_2423"/>
<feBlend mode="normal" in="SourceGraphic" in2="effect1_dropShadow_2543_2423" result="shape"/>
<feColorMatrix in="SourceAlpha" type="matrix" values="0 0 0 0 0 0 0 0 0 0 0 0 0 0 0 0 0 0 127 0" result="hardAlpha"/>
<feOffset dy="1.48681"/>
<feGaussianBlur stdDeviation="0.8735"/>
<feComposite in2="hardAlpha" operator="arithmetic" k2="-1" k3="1"/>
<feColorMatrix type="matrix" values="0 0 0 0 1 0 0 0 0 1 0 0 0 0 1 0 0 0 1 0"/>
<feBlend mode="overlay" in2="shape" result="effect2_innerShadow_2543_2423"/>
</filter>
<filter id="filter2_di_2543_2423" x="193.406" y="7.39094" width="13.0339" height="13.0341" filterUnits="userSpaceOnUse" color-interpolation-filters="sRGB">
<feFlood flood-opacity="0" result="BackgroundImageFix"/>
<feColorMatrix in="SourceAlpha" type="matrix" values="0 0 0 0 0 0 0 0 0 0 0 0 0 0 0 0 0 0 127 0" result="hardAlpha"/>
<feOffset dy="1.48681"/>
<feGaussianBlur stdDeviation="1.30096"/>
<feComposite in2="hardAlpha" operator="out"/>
<feColorMatrix type="matrix" values="0 0 0 0 1 0 0 0 0 0.32549 0 0 0 0 0.180392 0 0 0 0.5 0"/>
<feBlend mode="normal" in2="BackgroundImageFix" result="effect1_dropShadow_2543_2423"/>
<feBlend mode="normal" in="SourceGraphic" in2="effect1_dropShadow_2543_2423" result="shape"/>
<feColorMatrix in="SourceAlpha" type="matrix" values="0 0 0 0 0 0 0 0 0 0 0 0 0 0 0 0 0 0 127 0" result="hardAlpha"/>
<feOffset dy="1.48681"/>
<feGaussianBlur stdDeviation="0.8735"/>
<feComposite in2="hardAlpha" operator="arithmetic" k2="-1" k3="1"/>
<feColorMatrix type="matrix" values="0 0 0 0 1 0 0 0 0 1 0 0 0 0 1 0 0 0 1 0"/>
<feBlend mode="overlay" in2="shape" result="effect2_innerShadow_2543_2423"/>
</filter>
</defs>
</svg>
