<svg width="27" height="27" viewBox="0 0 27 27" fill="none" xmlns="http://www.w3.org/2000/svg">
<path d="M11.4272 5.63269C13.2072 3.85267 15.0099 3.01546 16.8352 3.12105C18.6604 3.22664 20.3273 4.03369 21.8358 5.54218C22.6353 6.34168 23.2614 7.23924 23.7139 8.23485C24.1966 9.23045 24.4003 10.2336 24.3248 11.2443C24.2645 12.2399 23.8497 13.1224 23.0803 13.8917C22.2356 14.7365 21.338 15.2418 20.3877 15.4077C19.4524 15.5888 18.3965 15.4982 17.2198 15.1362L15.7943 14.661C15.1909 14.48 14.7157 14.382 14.3688 14.3669C14.0369 14.3367 13.7126 14.4046 13.3958 14.5705C13.0941 14.7214 12.7321 15.008 12.3097 15.4304L12.2418 15.4982L10.6126 16.8559L8.71193 14.9552L10.0922 13.3486L10.1601 13.2808C11.0953 12.3455 11.9778 11.7798 12.8075 11.5837C13.6522 11.3725 14.7308 11.4857 16.0432 11.9231L17.9439 12.5114C18.4719 12.6774 18.932 12.7151 19.3242 12.6246C19.7164 12.5341 20.1011 12.3002 20.4782 11.9231C20.9307 11.4706 21.1118 10.9124 21.0212 10.2487C20.9458 9.56986 20.448 8.77036 19.5278 7.85018C18.5473 6.86966 17.5819 6.38694 16.6315 6.40202C15.6812 6.41711 14.7082 6.92246 13.7126 7.91806L11.4272 5.63269ZM5.3857 20.7704C4.99349 20.3782 4.79738 19.8955 4.79738 19.3223C4.81247 18.7641 5.01612 18.289 5.40832 17.8968C5.80053 17.5045 6.26817 17.3084 6.81122 17.3084C7.36937 17.3235 7.84454 17.5272 8.23675 17.9194C8.65913 18.3418 8.87032 18.8245 8.87032 19.3675C8.8854 19.9257 8.69684 20.4009 8.30463 20.7931C7.89734 21.2004 7.40708 21.404 6.83385 21.404C6.29079 21.404 5.80807 21.1928 5.3857 20.7704Z" fill="#323232"/>
</svg>
