<svg width="548" height="190" viewBox="0 0 548 190" fill="none" xmlns="http://www.w3.org/2000/svg">
<g filter="url(#filter0_i_2_1898)">
<g clip-path="url(#clip0_2_1898)">
<rect x="9" y="0.904297" width="539.297" height="158.897" rx="11.1426" transform="rotate(3.23723 9 0.904297)" fill="#FF532E"/>
<path d="M104.901 105.634C104.023 121.145 92.2256 128.258 69.5077 126.973C55.3286 126.171 45.3412 122.816 39.5455 116.909C33.7497 111.001 31.1554 102.681 31.7624 91.9492L46.9207 92.8065C46.4998 100.249 48.1288 105.488 51.8079 108.526C55.5652 111.567 61.8308 113.336 70.6046 113.832C77.0283 114.196 81.7729 113.678 84.8383 112.28C87.9038 110.881 89.5317 108.498 89.7223 105.13C89.7754 104.189 89.7067 103.321 89.516 102.524C89.3297 101.649 88.9431 100.842 88.3563 100.101C87.7695 99.3607 87.1782 98.6986 86.5825 98.1148C86.0696 97.4571 85.2412 96.8208 84.0971 96.206C82.9575 95.5128 82.0071 94.9482 81.2458 94.5122C80.4846 94.0762 79.3361 93.5397 77.8004 92.9028C76.2647 92.2658 75.0726 91.8054 74.2242 91.5217C73.3802 91.1596 72.0336 90.6512 70.1846 89.9965C68.3399 89.2634 66.9934 88.755 66.145 88.4713C62.6862 87.0968 59.9976 86.0017 58.079 85.1859C56.1605 84.3701 53.8243 83.2949 51.0706 81.9603C48.3953 80.6302 46.3444 79.3747 44.918 78.1937C43.5744 76.9389 42.1658 75.4447 40.6921 73.711C39.2967 71.9817 38.3433 70.0809 37.8318 68.0087C37.3247 65.8582 37.1421 63.5295 37.2838 61.0227C37.6693 54.2073 40.5905 49.1071 46.0474 45.7221C51.5042 42.3371 59.4029 40.9371 69.7435 41.5219C81.4941 42.1865 90.1498 45.466 95.7105 51.3603C101.276 57.1762 103.823 64.2361 103.354 72.5399L88.1955 71.6825C88.7936 61.1069 82.3948 55.4403 68.9991 54.6826C58.2669 54.0756 52.7412 56.5923 52.4222 62.2326C52.2671 64.9744 53.3204 67.1951 55.5819 68.8948C57.8434 70.5945 62.3959 72.7774 69.2395 75.4435C79.694 79.5713 86.4828 82.5094 89.6061 84.2578C100.198 90.1223 105.296 97.2478 104.901 105.634ZM136.929 117.584L158.264 117.612L157.519 130.772L130.191 130.406C127.21 130.315 124.981 129.443 123.502 127.787C122.024 126.132 121.372 123.777 121.544 120.722L123.684 82.8846L110.054 82.1136L110.798 68.9529L124.429 69.7239L125.147 57.0332L140.571 53.1903L139.587 70.5812L158.506 71.6513L157.761 84.812L138.843 83.7419L136.929 117.584ZM165.807 114.973C166.095 109.881 168.008 105.942 171.545 103.156C175.16 100.374 180.911 98.7347 188.798 98.2378L209.384 96.9266C209.565 89.5496 205.23 85.6107 196.378 85.11C192.226 84.8752 188.843 85.6269 186.23 87.3653C183.7 89.0297 182.33 91.7028 182.122 95.3847L167.786 94.5738C168.181 87.6018 171.085 82.1077 176.499 78.0916C181.917 73.9971 188.778 72.1847 197.082 72.6544C205.621 73.1373 212.421 75.8796 217.482 80.8811C222.547 85.8043 224.834 92.6137 224.342 101.309L223.213 121.285L231.791 121.77L231.046 134.931L219.061 134.253C216.475 134.107 214.518 133.289 213.187 131.799C211.935 130.314 211.38 128.318 211.522 125.811L211.635 123.813L214.364 117.248L210.369 117.022C206.875 128.77 198.626 134.276 185.622 133.541C181.392 133.301 177.822 132.51 174.911 131.167C172.079 129.828 170.053 128.141 168.832 126.108C167.611 124.074 166.775 122.18 166.324 120.425C165.878 118.592 165.705 116.775 165.807 114.973ZM181.112 113.246C180.983 115.517 181.63 117.283 183.052 118.542C184.557 119.728 186.563 120.391 189.069 120.533C194.788 120.856 199.45 119.705 203.057 117.08C206.668 114.377 208.604 110.714 208.865 106.092L190.995 107.321C187.605 107.522 185.139 108.051 183.597 108.907C182.06 109.684 181.232 111.131 181.112 113.246ZM282.891 137.863L267.594 112.361L254.545 117.988L253.515 136.202L238.356 135.345L243.241 48.9774L258.4 49.8348L255.429 102.36L284.428 89.8544L284.465 78.7756L299.506 79.6263L299.291 91.7561C299.099 96.5391 296.789 99.8663 292.361 101.738L280.762 106.74L300.165 138.84L282.891 137.863ZM338.661 72.2925C336.77 73.7573 334.298 74.4034 331.242 74.2306C328.187 74.0578 325.803 73.137 324.09 71.4684C322.381 69.7214 321.604 67.477 321.759 64.7351C321.915 61.9933 322.937 59.89 324.828 58.4252C326.722 56.882 329.197 56.1968 332.253 56.3696C335.229 56.538 337.611 57.4979 339.398 59.2493C341.185 61.0007 342.004 63.2082 341.853 65.8716C341.698 68.6135 340.634 70.7537 338.661 72.2925ZM305.057 139.117L305.801 125.956L322.487 126.9L324.381 93.4109L310.822 93.4692L311.566 80.3085L330.433 80.1968C333.419 80.2085 335.651 81.042 337.129 82.6974C338.607 84.3528 339.264 86.6297 339.1 89.5282L336.94 127.718L353.626 128.661L352.882 141.822L305.057 139.117ZM397.005 97.1649C391.208 96.837 386.553 98.5385 383.041 102.269C379.534 105.922 377.557 111.704 377.109 119.616L375.78 143.117L360.622 142.26L363.958 83.2718L379.116 84.1292L378.645 92.4721L375.43 101.367L379.308 101.587C380.876 96.0955 383.635 91.772 387.586 88.6162C391.619 85.3864 396.691 83.9444 402.802 84.29C410.087 84.702 415.636 87.3342 419.448 92.1866C423.343 96.965 425.047 103.663 424.559 112.28L422.665 145.769L407.624 144.918L409.392 113.662C409.711 108.021 408.882 103.927 406.904 101.379C405.005 98.8355 401.705 97.4308 397.005 97.1649ZM501.575 91.0555L506.745 91.3479L506 104.509L501.653 104.263C498.989 104.112 496.843 104.541 495.214 105.549C496.814 107.84 497.507 110.865 497.294 114.626C496.975 120.266 494.394 124.914 489.551 128.569C484.786 132.229 477.888 135.375 468.859 138.008C473.738 137.891 478.04 138.253 481.765 139.092C485.489 139.931 488.578 141.599 491.03 144.095C493.482 146.592 494.595 149.838 494.369 153.833C494.214 156.575 493.57 158.935 492.436 160.914C491.381 162.898 489.602 164.487 487.098 165.681C484.668 166.958 481.94 167.944 478.915 168.637C475.889 169.33 471.898 169.733 466.94 169.846C461.978 170.037 456.908 170.064 451.729 169.929C446.55 169.793 440.122 169.508 432.444 169.074L433.189 155.913C439.926 156.294 445.294 156.558 449.294 156.706C453.367 156.936 457.33 157.043 461.182 157.025C465.034 157.007 467.948 156.896 469.924 156.694C471.9 156.491 473.652 156.08 475.181 155.459C476.783 154.921 477.843 154.234 478.362 153.399C478.959 152.568 479.293 151.526 479.364 150.273C479.457 148.628 478.984 147.265 477.945 146.185C476.906 145.104 475.218 144.38 472.881 144.012C470.622 143.648 468.397 143.405 466.203 143.281C464.01 143.157 461.054 143.304 457.337 143.722C453.702 144.067 450.775 144.412 448.555 144.758C446.418 145.03 443.447 145.451 439.642 146.022L438.157 136.861C452.777 135.409 463.906 133.877 471.541 132.266L471.761 128.388C466.497 129.741 461.431 130.397 456.56 130.358C451.695 130.24 447.336 129.482 443.486 128.086C439.718 126.615 436.746 124.286 434.569 121.098C432.474 117.836 431.555 113.933 431.812 109.389C432.242 101.791 435.547 96.1621 441.726 92.5036C447.984 88.8495 455.814 87.2884 465.214 87.8201C474.301 88.334 481.55 90.7873 486.96 95.1799C490.593 92.0847 495.464 90.7098 501.575 91.0555ZM464.049 123.001C475.722 123.661 481.764 120.349 482.176 113.063C482.592 105.699 476.965 101.687 465.292 101.027C453.463 100.358 447.341 103.706 446.924 111.069C446.512 118.355 452.22 122.332 464.049 123.001Z" fill="#EEEEEE"/>
<rect x="117.639" y="-171.929" width="215.991" height="338.414" transform="rotate(46.2422 117.639 -171.929)" fill="#D9D9D9" fill-opacity="0.13"/>
</g>
</g>
<defs>
<filter id="filter0_i_2_1898" x="0.0270996" y="0.904297" width="547.409" height="189.098" filterUnits="userSpaceOnUse" color-interpolation-filters="sRGB">
<feFlood flood-opacity="0" result="BackgroundImageFix"/>
<feBlend mode="normal" in="SourceGraphic" in2="BackgroundImageFix" result="shape"/>
<feColorMatrix in="SourceAlpha" type="matrix" values="0 0 0 0 0 0 0 0 0 0 0 0 0 0 0 0 0 0 127 0" result="hardAlpha"/>
<feOffset dx="-10.8557" dy="11.9413"/>
<feComposite in2="hardAlpha" operator="arithmetic" k2="-1" k3="1"/>
<feColorMatrix type="matrix" values="0 0 0 0 0 0 0 0 0 0 0 0 0 0 0 0 0 0 0.12 0"/>
<feBlend mode="normal" in2="shape" result="effect1_innerShadow_2_1898"/>
</filter>
<clipPath id="clip0_2_1898">
<rect x="9" y="0.904297" width="539.297" height="158.897" rx="11.1426" transform="rotate(3.23723 9 0.904297)" fill="white"/>
</clipPath>
</defs>
</svg>
