<svg width="83" height="83" viewBox="0 0 83 83" fill="none" xmlns="http://www.w3.org/2000/svg">
<g opacity="0.24">
<path d="M50.2039 19.8345C62.154 24.6351 67.9663 38.253 63.1657 50.2031C58.3651 62.1532 44.7473 67.9656 32.7972 63.165C20.8471 58.3644 15.0347 44.7465 19.8353 32.7964C24.6359 20.8463 38.2538 15.034 50.2039 19.8345ZM50.662 18.6943C38.0733 13.6372 23.7567 19.7383 18.695 32.3383C13.6333 44.9384 19.739 59.2436 32.3391 64.3053C44.9391 69.367 59.2443 63.2612 64.306 50.6612C69.3677 38.0612 63.262 23.756 50.662 18.6943Z" fill="#0080F7"/>
<path d="M47.2276 27.2464C55.0841 30.4025 58.9113 39.3692 55.7552 47.2257C52.5991 55.0822 43.6324 58.9094 35.7759 55.7533C27.9194 52.5971 24.0922 43.6304 27.2483 35.7739C30.4044 27.9174 39.3711 24.0902 47.2276 27.2464ZM47.6857 26.1061C39.1793 22.6889 29.5252 26.8094 26.108 35.3158C22.6908 43.8223 26.8113 53.4763 35.3178 56.8935C43.8242 60.3107 53.4782 56.1902 56.8954 47.6838C60.3126 39.1773 56.1922 29.5233 47.6857 26.1061Z" fill="#0080F7"/>
<path d="M36.1142 17.5249L38.8161 22.0402C42.0982 21.5841 45.5457 21.9361 48.8297 23.2554C52.9005 24.8907 56.1183 27.7592 58.2398 31.2469L63.4369 30.4741C60.8409 25.2995 56.4432 21.0167 50.662 18.6943C45.8614 16.7658 40.8029 16.4685 36.1097 17.5363L36.1142 17.5249ZM65.7214 45.6545L60.513 46.4226C60.3087 47.2278 60.0542 48.0262 59.7381 48.8129C59.1197 50.3523 58.303 51.759 57.361 53.0492L60.056 57.5485C61.7887 55.543 63.2434 53.2405 64.2878 50.6406C64.9475 48.9986 65.4063 47.3289 65.6986 45.6453L65.7214 45.6545ZM34.176 59.7328C30.1052 58.0975 26.8874 55.2289 24.7658 51.7413L19.5687 52.514C22.1647 57.6887 26.5625 61.9715 32.3437 64.2939C37.1442 66.2224 42.2028 66.5196 46.896 65.4518L44.194 60.9365C40.912 61.3926 37.46 61.052 34.176 59.7328ZM22.9314 25.419C21.1987 27.4245 19.744 29.7271 18.6996 32.3269C18.04 33.9689 17.5811 35.6386 17.2888 37.3222L22.4859 36.5495C22.7015 35.7489 22.9446 34.946 23.2607 34.1592C23.8791 32.6198 24.6958 31.2131 25.6379 29.9229L22.9473 25.4122L22.9314 25.419Z" fill="#0080F7"/>
<path d="M34.6276 60.2584L33.4873 59.8003L29.2501 70.3478L30.3904 70.8059L34.6276 60.2584Z" fill="#0080F7"/>
<path d="M44.9342 34.6021L43.7939 34.144L36.4648 52.3885L37.6051 52.8465L44.9342 34.6021Z" fill="#0080F7"/>
<path d="M53.7526 12.6518L52.6123 12.1937L45.5122 29.868L46.6525 30.3261L53.7526 12.6518Z" fill="#0080F7"/>
<path d="M70.8082 52.6106L53.7041 45.7395L53.246 46.8798L70.3501 53.7508L70.8082 52.6106Z" fill="#0080F7"/>
<path d="M48.5723 43.6781L32.6084 37.2651L32.1503 38.4054L48.1142 44.8184L48.5723 43.6781Z" fill="#0080F7"/>
<path d="M27.1938 35.0892L12.6553 29.2488L12.1972 30.3891L26.7357 36.2295L27.1938 35.0892Z" fill="#0080F7"/>
<path d="M37.8704 70.1552L38.0023 68.9369L38.6138 68.9971C48.064 69.9992 57.5581 65.9469 63.3722 58.4298L63.7517 57.9466L64.7226 58.6942L64.3432 59.1774C58.2639 67.025 48.3542 71.2546 38.4819 70.2154L37.8704 70.1552Z" fill="#0080F7"/>
<path d="M19.2647 25.0576L18.2936 24.31L18.6732 23.8268C24.7524 15.9792 34.6507 11.7449 44.5344 12.7887L45.1459 12.8489L45.014 14.0673L44.4026 14.0071C34.9524 13.005 25.4582 17.0573 19.6442 24.5744L19.2647 25.0576Z" fill="#0080F7"/>
</g>
</svg>
