<svg width="543" height="193" viewBox="0 0 543 193" fill="none" xmlns="http://www.w3.org/2000/svg">
<g filter="url(#filter0_dd_7_10879)">
<g clip-path="url(#clip0_7_10879)">
<path d="M57.7227 65.1777C57.7227 60.4666 61.5418 56.6475 66.2529 56.6475L476.77 56.6475C481.481 56.6475 485.3 60.4666 485.3 65.1777V124.889C485.3 129.6 481.481 133.419 476.77 133.419H66.2529C61.5418 133.419 57.7227 129.6 57.7227 124.889V65.1777Z" fill="#111111"/>
<path d="M78.5128 72.4132H86.4329L94.4169 115.335H96.5885L103.551 72.4132H120.924L127.886 115.335H130.057L138.041 72.4132H145.961L137.467 117.443H120.477L113.323 74.521H111.151L103.998 117.443H87.0078L78.5128 72.4132ZM205.199 118.401L198.684 122.808L191.339 113.355C186.57 116.762 180.758 118.465 173.902 118.465C167.174 118.465 161.788 116.974 157.742 113.994C153.697 110.971 151.675 106.755 151.675 101.347C151.675 97.1316 152.931 93.8742 155.443 91.5748C157.998 89.2328 161 88.0618 164.449 88.0618C167.77 88.0618 170.517 89.2754 172.688 91.7025V89.5947L162.277 76.3094L162.213 72.4132H196.576V79.5669H173.519L191.658 101.794C194 97.7065 195.171 92.6606 195.171 86.6566H203.347C203.347 95.3006 201.175 102.454 196.832 108.118L205.199 118.401ZM173.902 111.311C179.012 111.311 183.27 110.034 186.676 107.479L180.864 100.006C178.99 97.5787 177.138 95.8542 175.307 94.8322C173.519 93.8103 171.432 93.2993 169.048 93.2993C166.365 93.2993 164.172 94.0445 162.469 95.5348C160.766 96.9826 159.914 99.0052 159.914 101.603C159.914 104.754 161.128 107.16 163.555 108.82C165.982 110.481 169.431 111.311 173.902 111.311ZM213.457 117.443V72.4132H229.744L246.925 115.335H249.033L247.564 109.97V72.4132H255.74V117.443H239.452L222.335 74.521H220.227L221.696 79.8862V117.443H213.457ZM309.823 79.5669H299.668V110.289H309.823V117.443H281.273V110.289H291.428V79.5669H281.273V72.4132H309.823V79.5669ZM333.846 91.8941C330.695 91.8941 328.225 92.9587 326.437 95.0877C324.649 97.1742 323.754 100.368 323.754 104.668V117.443H315.515V85.3792H323.754V89.9141L322.285 94.8322H324.393C325.074 91.809 326.437 89.3818 328.481 87.5508C330.567 85.6773 333.271 84.7405 336.593 84.7405C340.553 84.7405 343.64 85.9966 345.854 88.5089C348.111 90.9786 349.239 94.5555 349.239 99.2394V117.443H341.064V100.453C341.064 97.3871 340.489 95.1942 339.339 93.8742C338.232 92.5541 336.401 91.8941 333.846 91.8941ZM389.854 117.443H381.615V114.377L383.148 109.523H380.976C379.06 115.229 374.802 118.082 368.202 118.082C363.731 118.082 360.196 116.506 357.599 113.355C355.044 110.204 353.767 106.223 353.767 101.411C353.767 96.5994 355.044 92.618 357.599 89.467C360.196 86.316 363.731 84.7405 368.202 84.7405C374.802 84.7405 379.06 87.6147 380.976 93.3632H383.148L381.615 88.445V70.4971H389.854V117.443ZM378.996 108.565C380.742 106.989 381.615 104.605 381.615 101.411C381.615 98.2174 380.742 95.8329 378.996 94.2574C377.25 92.6819 374.823 91.8941 371.715 91.8941C365.242 91.8941 362.006 95.0664 362.006 101.411C362.006 107.756 365.242 110.928 371.715 110.928C374.823 110.928 377.25 110.14 378.996 108.565ZM394.481 101.028C394.481 96.0032 395.993 92.0432 399.016 89.1476C402.039 86.2095 405.978 84.7405 410.832 84.7405C415.686 84.7405 419.583 86.1457 422.521 88.956C425.501 91.7664 426.992 95.5774 426.992 100.389V103.072H402.273C402.358 105.584 403.167 107.607 404.7 109.14C406.276 110.63 408.639 111.375 411.79 111.375C416.346 111.375 419.05 109.651 419.902 106.201H428.141C427.588 109.14 425.927 111.865 423.159 114.377C420.392 116.847 416.602 118.082 411.79 118.082C406.127 118.082 401.826 116.464 398.888 113.227C395.95 109.991 394.481 105.925 394.481 101.028ZM402.273 98.0897H419.199C419.199 96.1735 418.497 94.598 417.092 93.3632C415.729 92.1283 413.642 91.5109 410.832 91.5109C408.022 91.5109 405.893 92.1496 404.445 93.4271C402.997 94.6619 402.273 96.2161 402.273 98.0897ZM427.446 117.443L439.581 102.433V100.325L427.446 85.3792H437.218L445.585 96.6845L453.889 85.3792H463.661L451.525 100.325V102.433L463.661 117.443H453.889L445.585 106.074L437.218 117.443H427.446Z" fill="#EAEAEA"/>
<path d="M204.701 -128.032L289.359 30.2223L4.84827 182.422L-79.8101 24.1677L204.701 -128.032Z" fill="#D9D9D9" fill-opacity="0.06"/>
</g>
</g>
<defs>
<filter id="filter0_dd_7_10879" x="0.292576" y="0.890507" width="542.437" height="191.632" filterUnits="userSpaceOnUse" color-interpolation-filters="sRGB">
<feFlood flood-opacity="0" result="BackgroundImageFix"/>
<feColorMatrix in="SourceAlpha" type="matrix" values="0 0 0 0 0 0 0 0 0 0 0 0 0 0 0 0 0 0 127 0" result="hardAlpha"/>
<feOffset dy="1.67313"/>
<feGaussianBlur stdDeviation="28.715"/>
<feComposite in2="hardAlpha" operator="out"/>
<feColorMatrix type="matrix" values="0 0 0 0 0 0 0 0 0 0 0 0 0 0 0 0 0 0 0.76 0"/>
<feBlend mode="normal" in2="BackgroundImageFix" result="effect1_dropShadow_7_10879"/>
<feColorMatrix in="SourceAlpha" type="matrix" values="0 0 0 0 0 0 0 0 0 0 0 0 0 0 0 0 0 0 127 0" result="hardAlpha"/>
<feOffset dx="4.02602" dy="6.03903"/>
<feComposite in2="hardAlpha" operator="out"/>
<feColorMatrix type="matrix" values="0 0 0 0 0.212608 0 0 0 0 0.212608 0 0 0 0 0.212608 0 0 0 1 0"/>
<feBlend mode="normal" in2="effect1_dropShadow_7_10879" result="effect2_dropShadow_7_10879"/>
<feBlend mode="normal" in="SourceGraphic" in2="effect2_dropShadow_7_10879" result="shape"/>
</filter>
<clipPath id="clip0_7_10879">
<path d="M57.7227 65.1777C57.7227 60.4666 61.5418 56.6475 66.2529 56.6475L476.77 56.6475C481.481 56.6475 485.3 60.4666 485.3 65.1777V124.889C485.3 129.6 481.481 133.419 476.77 133.419H66.2529C61.5418 133.419 57.7227 129.6 57.7227 124.889V65.1777Z" fill="white"/>
</clipPath>
</defs>
</svg>
