<svg width="459" height="459" viewBox="0 0 459 459" fill="none" xmlns="http://www.w3.org/2000/svg">
<g opacity="0.19">
<path opacity="0.15" d="M208.277 163.654C172.101 175.208 152.146 213.892 163.7 250.067C175.254 286.243 213.938 306.198 250.114 294.644C286.289 283.09 306.244 244.406 294.69 208.231C283.136 172.055 244.453 152.1 208.277 163.654ZM241.368 267.262C220.342 273.977 197.827 262.363 191.111 241.336C184.395 220.31 196.01 197.795 217.036 191.079C238.063 184.364 260.578 195.978 267.293 217.005C274.009 238.031 262.394 260.546 241.368 267.262Z" fill="#00ADF9"/>
<path d="M158.804 365.64C123.826 347.596 95.7345 316.271 82.8605 275.887C57.0827 195.177 101.778 108.534 182.488 82.7564C263.197 56.9787 349.84 101.674 375.618 182.384C401.396 263.093 356.701 349.736 275.991 375.514C235.636 388.403 193.783 383.684 158.833 365.655L158.804 365.64ZM298.208 95.4011C263.947 77.7274 222.961 73.092 183.39 85.7306C104.291 110.994 60.4992 195.885 85.7625 274.984C111.026 354.083 195.917 397.875 275.016 372.611C354.115 347.348 397.906 262.457 372.643 183.358C359.99 143.815 332.469 113.075 298.208 95.4011Z" fill="#00E0F7"/>
<path d="M179.855 324.832C155.33 312.18 135.648 290.21 126.61 261.914C108.535 205.321 139.853 144.61 196.446 126.535C223.857 117.805 253.034 120.239 278.594 133.424C304.153 146.609 323.05 168.974 331.824 196.371C340.555 223.782 338.12 252.959 324.935 278.519C311.75 304.078 289.385 322.975 261.989 331.749C233.692 340.786 204.381 337.483 179.855 324.832ZM278.223 134.142C252.836 121.046 223.904 118.629 196.696 127.319C140.539 145.255 109.443 205.535 127.394 261.663C145.33 317.821 205.61 348.916 261.738 330.965C288.946 322.275 311.136 303.507 324.217 278.148C337.298 252.79 339.73 223.829 331.04 196.621C322.35 169.413 303.582 147.223 278.223 134.142Z" fill="#00E0F7"/>
<path d="M198.493 287.504L197.803 287.149C197.158 286.779 196.541 286.425 195.895 286.055L195.206 285.7L196.018 284.337L196.707 284.693C197.309 285.076 197.926 285.431 198.543 285.785L199.232 286.141L198.493 287.504ZM202.716 289.538L203.312 288.1L204.031 288.398C204.693 288.667 205.354 288.935 206.015 289.203L206.749 289.473L206.196 290.897L205.463 290.627C204.801 290.359 204.111 290.076 203.45 289.807L202.731 289.509L202.716 289.538ZM191.307 283.107L190.663 282.665C190.075 282.253 189.474 281.798 188.901 281.357L188.3 280.901L189.255 279.685L189.856 280.14C190.429 280.581 190.972 281.007 191.56 281.419L192.19 281.89L191.293 283.136L191.307 283.107ZM210.643 292.427L211.052 290.929L211.787 291.126C212.449 291.322 213.155 291.505 213.832 291.672L214.567 291.869L214.201 293.353L213.452 293.185C212.746 293.003 212.04 292.82 211.334 292.638L210.6 292.441L210.643 292.427ZM184.754 277.836L184.198 277.294C183.655 276.796 183.141 276.313 182.613 275.786L182.056 275.244L183.139 274.13L183.696 274.672C184.195 275.184 184.71 275.667 185.224 276.151L185.781 276.693L184.726 277.821L184.754 277.836ZM218.858 294.265L219.065 292.735L219.815 292.832C220.522 292.942 221.244 293.023 221.922 293.118L222.672 293.214L222.494 294.759L221.743 294.662C221.022 294.581 220.3 294.5 219.593 294.39L218.814 294.279L218.858 294.265ZM178.906 271.764L178.407 271.18C177.937 270.611 177.496 270.056 177.026 269.486L176.543 268.873L177.754 267.935L178.238 268.548C178.679 269.102 179.12 269.657 179.561 270.212L180.059 270.796L178.862 271.778L178.906 271.764ZM227.216 295.049L227.25 293.503L228.016 293.499C228.738 293.508 229.432 293.502 230.155 293.511L230.921 293.506L230.959 295.053L230.193 295.058C229.456 295.077 228.733 295.068 228.011 295.059L227.244 295.064L227.216 295.049ZM173.874 265.024L173.449 264.368C173.066 263.771 172.698 263.145 172.302 262.504L171.92 261.834L173.231 261.056L173.612 261.726C173.98 262.352 174.334 262.934 174.717 263.532L175.142 264.187L173.846 265.009L173.874 265.024ZM235.645 294.78L235.491 293.246L236.258 293.169C236.953 293.091 237.662 292.984 238.357 292.906L239.11 292.786L239.336 294.32L238.583 294.441C237.874 294.548 237.135 294.64 236.412 294.703L235.645 294.78ZM169.761 257.703L169.437 256.99C169.128 256.322 168.847 255.668 168.538 254.999L168.243 254.302L169.681 253.698L169.976 254.396C170.257 255.05 170.538 255.703 170.833 256.329L171.157 257.041L169.761 257.703ZM243.943 293.425L243.587 291.932L244.34 291.739C245.036 291.589 245.718 291.395 246.399 291.201L247.153 291.008L247.554 292.487L246.829 292.695C246.118 292.874 245.437 293.068 244.726 293.247L243.972 293.439L243.943 293.425ZM166.593 249.887L166.357 249.147C166.134 248.451 165.941 247.769 165.733 247.044L165.525 246.318L167.019 245.889L167.227 246.614C167.421 247.296 167.614 247.978 167.837 248.674L168.073 249.414L166.593 249.887ZM252.024 291.012L251.464 289.559L252.19 289.28C252.858 289.042 253.512 288.762 254.166 288.481L254.863 288.186L255.467 289.624L254.769 289.919C254.115 290.2 253.433 290.466 252.75 290.732L252.024 291.012ZM164.47 241.738L164.321 240.97C164.185 240.246 164.079 239.536 163.943 238.812L163.823 238.059L165.358 237.833L165.478 238.586C165.585 239.295 165.692 240.005 165.842 240.7L165.991 241.468L164.47 241.738ZM259.697 287.625L258.977 286.272L259.676 285.905C260.287 285.566 260.942 285.213 261.524 284.859L262.194 284.477L262.958 285.817L262.288 286.198C261.662 286.566 261.007 286.919 260.396 287.258L259.726 287.64L259.697 287.625ZM163.39 233.4L163.357 232.619C163.308 231.867 163.274 231.158 163.283 230.436L163.278 229.67L164.825 229.631L164.83 230.397C164.836 231.091 164.87 231.8 164.904 232.508L164.938 233.289L163.405 233.371L163.39 233.4ZM266.892 283.265L266.012 282.011L266.639 281.571C267.222 281.144 267.791 280.747 268.346 280.306L268.959 279.822L269.897 281.034L269.284 281.517C268.701 281.943 268.102 282.398 267.519 282.825L266.892 283.265ZM163.366 224.988L163.434 224.223C163.486 223.487 163.567 222.765 163.649 222.044L163.716 221.278L165.26 221.457L165.193 222.222C165.112 222.944 165.045 223.636 165.007 224.344L164.94 225.109L163.395 225.003L163.366 224.988ZM273.476 278.044L272.421 276.917L272.976 276.404C273.488 275.905 274.029 275.42 274.498 274.935L275.04 274.378L276.11 275.475L275.568 276.032C275.056 276.532 274.529 277.06 273.988 277.544L273.432 278.058L273.476 278.044ZM164.44 216.634L164.608 215.884C164.762 215.164 164.915 214.443 165.083 213.766L165.251 213.016L166.735 213.382L166.567 214.131C166.399 214.808 166.246 215.529 166.107 216.221L165.938 216.971L164.425 216.662L164.44 216.634ZM279.333 271.975L278.132 270.992L278.616 270.405C279.085 269.847 279.511 269.304 279.952 268.731L280.408 268.13L281.624 269.085L281.169 269.686C280.728 270.258 280.258 270.816 279.818 271.389L279.333 271.975ZM166.566 208.495L166.806 207.746C167.046 207.07 167.301 206.365 167.54 205.689L167.81 204.955L169.234 205.508L168.964 206.242C168.696 206.903 168.456 207.579 168.245 208.27L167.976 209.004L166.522 208.509L166.566 208.495ZM284.376 265.232L283.056 264.406L283.469 263.746C283.853 263.144 284.236 262.542 284.591 261.925L284.946 261.235L286.309 262.047L285.953 262.737C285.526 263.353 285.172 263.97 284.788 264.572L284.376 265.232ZM169.699 200.658L170.588 198.935L171.403 197.355L172.781 198.066L171.967 199.646L171.093 201.34L169.743 200.644L169.699 200.658ZM287.106 257.259L287.462 256.57C287.73 255.909 288.027 255.262 288.325 254.615L288.623 253.897L290.046 254.521L289.748 255.24C289.464 255.931 289.167 256.577 288.87 257.224L288.514 257.913L287.135 257.274L287.106 257.259ZM175.07 194.193L173.795 193.353L174.236 192.708C174.62 192.106 175.047 191.49 175.459 190.903L175.9 190.258L177.147 191.155L176.705 191.8C176.293 192.387 175.881 192.975 175.497 193.577L175.056 194.222L175.07 194.193ZM290.223 249.668L290.463 248.919C290.674 248.228 290.871 247.566 291.082 246.875L291.279 246.14L292.762 246.578L292.565 247.312C292.354 248.003 292.171 248.709 291.917 249.414L291.676 250.163L290.208 249.696L290.223 249.668ZM179.966 187.592L178.808 186.595L179.321 186.023C179.791 185.465 180.289 184.922 180.772 184.408L181.285 183.837L182.414 184.891L181.901 185.463C181.418 185.977 180.948 186.535 180.493 187.064L179.98 187.636L179.966 187.592ZM292.317 241.731L292.457 240.966C292.596 240.275 292.706 239.568 292.816 238.861L292.927 238.082L294.441 238.318L294.33 239.097C294.22 239.804 294.095 240.539 293.985 241.246L293.846 242.01L292.317 241.731ZM185.634 181.68L184.594 180.525L185.149 180.012C185.69 179.527 186.231 179.043 186.8 178.573L187.385 178.075L188.382 179.243L187.797 179.742C187.271 180.198 186.702 180.667 186.176 181.123L185.62 181.637L185.634 181.68ZM293.388 233.593L293.427 232.813C293.464 232.105 293.502 231.398 293.511 230.675L293.535 229.924L295.081 229.958L295.057 230.709C295.048 231.432 294.996 232.168 294.987 232.89L294.948 233.67L293.403 233.564L293.388 233.593ZM192.044 176.515L191.178 175.232L191.805 174.792C192.417 174.38 193.015 173.998 193.627 173.586L194.283 173.161L195.105 174.458L194.449 174.883C193.852 175.266 193.254 175.648 192.671 176.075L192.044 176.515ZM293.448 225.37L293.4 224.618C293.365 223.91 293.288 223.215 293.224 222.491L293.147 221.724L294.681 221.57L294.758 222.337C294.821 223.061 294.913 223.799 294.948 224.508L294.996 225.26L293.448 225.37ZM199.049 172.238L198.344 170.856L199.028 170.518C199.668 170.194 200.308 169.869 200.976 169.56L201.66 169.222L202.322 170.618L201.638 170.956C201.013 171.251 200.373 171.576 199.733 171.9L199.049 172.238ZM292.424 217.206L292.275 216.438C292.124 215.743 291.974 215.047 291.824 214.351C291.701 213.815 291.562 213.308 291.424 212.8L291.231 212.046L292.739 211.66L292.932 212.414C293.07 212.922 293.194 213.458 293.317 213.995C293.496 214.705 293.631 215.429 293.782 216.125L293.931 216.893L292.424 217.206ZM206.535 168.864L206.019 167.398L206.73 167.147C207.398 166.909 208.109 166.658 208.806 166.436L209.546 166.199L210.018 167.679L209.278 167.916C208.582 168.138 207.914 168.376 207.246 168.613L206.535 168.864ZM289.87 207.708L289.59 206.981C289.353 206.314 289.087 205.631 288.835 204.992L288.555 204.266L289.978 203.691L290.258 204.417C290.524 205.1 290.79 205.783 291.027 206.45L291.307 207.177L289.87 207.708ZM214.384 166.477L214.042 164.955L214.781 164.791C215.491 164.612 216.215 164.477 216.925 164.37L217.693 164.221L217.963 165.742L217.195 165.891C216.499 166.041 215.819 166.163 215.108 166.342L214.369 166.506L214.384 166.477ZM286.641 200.152L286.303 199.468C285.978 198.828 285.639 198.217 285.3 197.605L284.918 196.936L286.258 196.172L286.639 196.842C287.007 197.468 287.332 198.108 287.685 198.763L288.052 199.461L286.67 200.166L286.641 200.152ZM222.509 165.105L222.355 163.571L223.122 163.494C223.845 163.431 224.569 163.368 225.306 163.348L226.087 163.315L226.169 164.848L225.388 164.881C224.679 164.916 223.956 164.979 223.261 165.057L222.494 165.134L222.509 165.105ZM282.481 193.061L282.041 192.434C281.615 191.85 281.218 191.282 280.791 190.698L280.336 190.1L281.576 189.176L282.016 189.803C282.443 190.387 282.869 190.97 283.28 191.582L283.72 192.209L282.467 193.09L282.481 193.061ZM230.722 164.761L230.785 163.23L231.565 163.268C232.316 163.292 233.024 163.33 233.76 163.383L234.525 163.45L234.419 164.995L233.654 164.928C232.946 164.89 232.239 164.852 231.531 164.814L230.751 164.776L230.722 164.761ZM277.461 186.581L276.948 186.025C276.463 185.484 275.993 184.987 275.493 184.475L274.951 183.904L276.049 182.834L276.591 183.405C277.09 183.917 277.603 184.472 278.088 185.013L278.601 185.569L277.446 186.609L277.461 186.581ZM238.922 165.5L239.158 163.986L239.922 164.125C240.629 164.235 241.349 164.389 242.085 164.514L242.849 164.654L242.541 166.167L241.777 166.027C241.085 165.889 240.393 165.75 239.686 165.64L238.922 165.5ZM271.623 180.769L271.037 180.285C270.508 179.83 269.95 179.361 269.406 178.935L268.82 178.451L269.775 177.234L270.361 177.718C270.934 178.159 271.491 178.629 272.049 179.098L272.636 179.583L271.638 180.741L271.623 180.769ZM246.95 167.278L247.387 165.795L248.107 166.021C248.798 166.232 249.489 166.443 250.194 166.697L250.943 166.938L250.448 168.391L249.699 168.151C249.023 167.911 248.36 167.715 247.669 167.504L246.95 167.278ZM265.111 175.773L264.466 175.332C263.863 174.948 263.261 174.565 262.659 174.182L262 173.769L262.797 172.435L263.456 172.848C264.058 173.231 264.69 173.629 265.292 174.013L265.936 174.454L265.097 175.73L265.111 175.773ZM254.675 170.063L255.3 168.64L255.99 168.996C256.695 169.251 257.341 169.548 258.002 169.888L258.691 170.244L258.023 171.609L257.334 171.253C256.702 170.927 256.041 170.659 255.394 170.361L254.705 170.006L254.675 170.063Z" fill="#00E0F7"/>
<path d="M163.708 305.521L162.95 304.876C146.882 290.842 135.871 272.363 131.119 251.477L130.9 250.492L132.871 250.054L133.09 251.04C137.732 271.505 148.517 289.577 164.284 303.346L165.027 304.02L163.693 305.55L163.708 305.521ZM219.079 329.285L219.249 327.264L220.26 327.349C230.51 328.273 240.823 327.594 250.954 325.293C261.129 322.979 270.802 319.17 279.685 313.862L280.545 313.324L281.578 315.057L280.704 315.552C271.633 320.944 261.784 324.881 251.378 327.221C241.044 329.562 230.499 330.268 220.047 329.312L219.037 329.227L219.079 329.285ZM136.325 190.496L136.726 189.576C137.679 187.376 138.704 185.178 139.785 183.082C148.437 166.31 161.519 152.37 177.596 142.773L178.455 142.235L179.488 143.968L178.629 144.506C162.858 153.933 150.04 167.573 141.566 184C140.5 186.068 139.504 188.209 138.566 190.379L138.164 191.299L136.325 190.496ZM319.417 268.982L319.819 268.062C328.097 248.844 330.008 227.868 325.396 207.418L325.108 206.142L327.079 205.705L327.367 206.98C332.075 227.88 330.114 249.303 321.687 268.881L321.286 269.801L319.446 268.997L319.417 268.982ZM237.03 130.819L237.2 128.797L238.211 128.882C251.175 130.043 263.659 133.683 275.261 139.668C282.498 143.402 289.262 147.982 295.352 153.305L296.11 153.95L294.775 155.48L294.017 154.834C288.028 149.599 281.393 145.122 274.328 141.478C262.927 135.596 250.702 132.017 237.969 130.903L236.958 130.818L237.03 130.819Z" fill="#00E0F7"/>
<path opacity="0.15" d="M200.461 139.188C150.776 155.081 123.369 208.21 139.218 257.909C155.111 307.595 208.24 335.002 257.94 319.152C307.654 303.274 335.061 250.145 319.183 200.431C303.333 150.731 250.176 123.31 200.461 139.188ZM255.548 311.664C209.97 326.222 161.235 301.082 146.706 255.518C132.178 209.954 157.289 161.204 202.853 146.675C248.417 132.147 297.167 157.258 311.695 202.822C326.252 248.401 301.112 297.136 255.548 311.664Z" fill="#00ADF9"/>
<path d="M191.927 302.335L192.846 300.554L193.707 300.999C198.146 303.179 202.763 304.943 207.486 306.288L208.465 306.575L207.906 308.505L206.927 308.218C202.074 306.842 197.342 305.019 192.789 302.779L191.899 302.32L191.927 302.335ZM180.741 295.473L179.925 294.87C175.887 291.842 172.086 288.427 168.693 284.713L168.023 283.968L169.5 282.585L170.17 283.33C173.506 286.942 177.193 290.298 181.13 293.238L181.946 293.841L180.741 295.473ZM220.855 310.894L221.024 308.873L222.035 308.958C226.944 309.381 231.915 309.4 236.821 308.913L237.819 308.81L238.01 310.835L237.012 310.938C232.005 311.41 226.903 311.433 221.865 310.979L220.855 310.894ZM160.032 273.519L159.494 272.66C156.86 268.392 154.547 263.854 152.699 259.119L152.349 258.175L154.223 257.432L154.572 258.376C156.379 262.981 158.592 267.431 161.213 271.583L161.751 272.442L160.032 273.519ZM250.919 308.368L250.35 306.438L251.322 306.176C253.672 305.497 256.009 304.703 258.289 303.807C260.598 302.926 262.88 301.885 265.091 300.771L265.978 300.32L266.866 302.123L265.979 302.574C263.725 303.702 261.37 304.742 259.003 305.666C256.679 306.576 254.27 307.369 251.876 308.062L250.905 308.324L250.919 308.368ZM148.722 245.541L148.547 244.542C147.612 239.587 147.098 234.522 147.089 229.464L147.102 228.452L149.111 228.434L149.098 229.446C149.108 234.36 149.595 239.338 150.532 244.148L150.707 245.147L148.722 245.541ZM278.082 295.183L276.874 293.578L277.662 292.966C281.587 290.009 285.257 286.63 288.555 282.987L289.229 282.244L290.715 283.592L290.041 284.335C286.655 288.079 282.883 291.514 278.87 294.571L278.082 295.183ZM148.249 215.373L148.435 214.378C149.35 209.432 150.728 204.507 152.536 199.804L152.909 198.869L154.793 199.586L154.42 200.521C152.671 205.109 151.324 209.905 150.425 214.75L150.239 215.745L148.249 215.373ZM298.609 273.083L296.902 272.021L297.419 271.161C298.481 269.454 299.472 267.674 300.375 265.923C301.723 263.309 302.928 260.622 303.959 257.918L304.332 256.983L306.217 257.701L305.843 258.635C304.783 261.397 303.534 264.17 302.156 266.841C301.223 268.65 300.202 270.487 299.125 272.223L298.609 273.083ZM160.444 188.139L158.737 187.077L159.254 186.216C161.91 181.914 164.924 177.833 168.309 174.089L168.984 173.346L170.47 174.694L169.796 175.437C166.498 179.081 163.528 183.076 160.96 187.278L160.444 188.139ZM307.825 244.714L308.012 243.719C308.911 238.874 309.349 233.937 309.353 228.994L309.366 227.982L311.375 227.964L311.362 228.976C311.371 234.034 310.902 239.101 309.987 244.047L309.801 245.042L307.812 244.67L307.825 244.714ZM179.9 166.069L178.692 164.464L179.48 163.853C183.493 160.796 187.819 158.119 192.343 155.835L193.23 155.384L194.118 157.187L193.231 157.638C188.824 159.837 184.585 162.486 180.688 165.458L179.9 166.069ZM308.139 215.278L307.963 214.278C307.056 209.483 305.671 204.696 303.879 200.063L304.725 199.481L305.724 199.306C307.586 204.085 308.999 208.958 309.934 213.913L310.109 214.912L308.139 215.278ZM206.013 152.524L205.445 150.595L206.417 150.332C211.262 148.905 216.26 147.956 221.31 147.471L222.308 147.368L222.515 149.365L221.516 149.468C216.61 149.955 211.728 150.891 206.985 152.262L206.013 152.524ZM297.649 187.541L297.11 186.682C294.504 182.501 291.49 178.546 288.153 174.935L287.484 174.189L288.961 172.806L289.631 173.551C293.052 177.28 296.138 181.308 298.801 185.59L299.339 186.45L297.62 187.526L297.649 187.541ZM235.233 149.308L235.403 147.287L236.414 147.372C241.423 147.811 246.441 148.727 251.323 150.118L252.302 150.405L251.772 152.349L250.793 152.062C246.055 150.745 241.138 149.845 236.273 149.408L235.262 149.323L235.233 149.308ZM277.995 165.658L277.178 165.055C273.241 162.115 269.025 159.504 264.572 157.352L263.682 156.893L264.571 155.098L265.462 155.557C270.015 157.797 274.361 160.438 278.413 163.438L279.229 164.041L278.023 165.673L277.995 165.658Z" fill="#00E0F7"/>
<path opacity="0.15" d="M252.115 221.828C256.161 234.496 249.183 248.022 236.515 252.068C223.847 256.115 210.321 249.137 206.275 236.469C202.229 223.801 209.206 210.275 221.874 206.229C234.542 202.183 248.069 209.16 252.115 221.828Z" fill="#00ADF9"/>
<path d="M240.101 225.666C242.02 231.674 238.701 238.107 232.694 240.026C226.686 241.944 220.253 238.626 218.335 232.618C216.416 226.611 219.734 220.178 225.742 218.259C231.749 216.34 238.182 219.659 240.101 225.666Z" fill="#00E0F7"/>
<path d="M257.656 235.195L257.719 234.791C259.748 224.093 255.708 213.246 247.208 206.462L246.893 206.226L247.407 205.582L247.722 205.818C256.45 212.793 260.602 223.916 258.527 234.917L258.464 235.321L257.671 235.166L257.656 235.195Z" fill="#00E0F7"/>
<path d="M208.341 251.352L208.056 251.059C200.016 243.312 196.924 231.827 199.993 221.084L200.113 220.71L200.905 220.936L200.785 221.311C197.792 231.765 200.802 242.917 208.612 250.473L208.897 250.766L208.341 251.352Z" fill="#00E0F7"/>
<path d="M121.033 251.219C123.497 263.289 127.88 274.458 133.721 284.562L135.989 282.35C130.531 272.771 126.459 262.199 124.117 250.81L121.033 251.219ZM119.054 236.235L122.109 235.812C121.229 221.868 123.092 208.248 127.284 195.54L124.572 194.031C120.068 207.343 118.082 221.626 119.04 236.192L119.054 236.235ZM241.844 122.611C257.054 124.421 271.515 129.445 284.353 137.122L286.578 134.925C272.91 126.601 257.47 121.218 241.205 119.409L241.858 122.582L241.844 122.611ZM146.525 160.778C154.729 150.866 164.692 142.407 176.12 135.903L175.466 132.729C163.211 139.57 152.503 148.627 143.813 159.27L146.525 160.778ZM331.084 262.783L333.797 264.291C338.3 250.98 340.287 236.697 339.344 222.102L336.289 222.526C337.168 236.47 335.306 250.089 331.113 262.798L331.084 262.783ZM337.365 207.119C334.901 195.049 330.518 183.88 324.676 173.776L322.408 175.988C327.866 185.566 331.939 196.139 334.281 207.528L337.365 207.119ZM171.806 323.37C185.474 331.693 200.914 337.076 217.179 338.885L216.525 335.712C201.315 333.902 186.854 328.878 174.015 321.201L171.791 323.398L171.806 323.37ZM282.293 322.406L282.947 325.58C295.202 318.739 305.91 309.682 314.6 299.039L311.887 297.531C303.683 307.443 293.72 315.902 282.293 322.406Z" fill="#00E0F7"/>
<path d="M285.596 407.012L285.471 406.62L172.071 51.5674L172.826 51.3024L172.951 51.6942L286.351 406.747L285.596 407.012Z" fill="#00E0F7"/>
<path d="M51.6006 286.304L51.3791 285.535L51.7708 285.41L200.13 238.026L200.381 238.81L199.989 238.935L51.6006 286.304Z" fill="#00E0F7"/>
<path d="M256.502 220.856L256.281 220.087L256.629 219.976L406.469 172.119L406.719 172.903L406.327 173.028L256.502 220.856Z" fill="#00E0F7"/>
<path d="M101.971 163.065L78.25 150.828L77.8796 151.546L101.601 163.783L101.971 163.065Z" fill="#00E0F7"/>
<path d="M380.767 306.883L356.672 294.453L356.302 295.171L380.396 307.601L380.767 306.883Z" fill="#00E0F7"/>
<path d="M179.247 326.918L178.529 326.548L150.797 380.308L151.515 380.679L179.247 326.918Z" fill="#00E0F7"/>
<path d="M307.571 78.1602L306.854 77.7898L278.025 133.676L278.743 134.046L307.571 78.1602Z" fill="#00E0F7"/>
<path d="M173.19 44.9455C173.649 46.3821 172.864 47.9042 171.442 48.3343C170.005 48.7931 168.512 48.0227 168.053 46.5862C167.594 45.1496 168.365 43.6563 169.801 43.1974C171.238 42.7386 172.731 43.5089 173.19 44.9455Z" fill="#00E0F7"/>
<path d="M290.36 411.724C290.819 413.16 290.048 414.654 288.612 415.113C287.175 415.571 285.682 414.801 285.223 413.364C284.764 411.928 285.534 410.435 286.971 409.976C288.408 409.517 289.901 410.287 290.36 411.724Z" fill="#00E0F7"/>
<path d="M413.417 173.161C411.981 173.62 410.487 172.849 410.029 171.413C409.57 169.976 410.34 168.483 411.777 168.024C413.213 167.565 414.707 168.336 415.165 169.772C415.624 171.209 414.839 172.731 413.417 173.161Z" fill="#00E0F7"/>
<path d="M46.6244 290.286C45.1878 290.745 43.6945 289.974 43.2357 288.538C42.7768 287.101 43.5472 285.608 44.9838 285.149C46.4203 284.69 47.9137 285.461 48.3725 286.897C48.8313 288.334 48.061 289.827 46.6244 290.286Z" fill="#00E0F7"/>
<path d="M215.056 77.7042L215.72 86.9189C233.938 85.1541 252.227 86.9166 269.779 92.1528L272.261 83.2524C254.004 77.8338 234.633 75.8409 215.056 77.7042ZM188.614 366.147L186.132 375.047C204.39 380.465 223.76 382.458 243.337 380.595L242.673 371.38C224.455 373.145 206.166 371.383 188.614 366.147ZM119.523 123.688C100.895 143.094 87.7443 167.107 81.3604 193.157L90.2921 195.437C92.9584 184.559 96.9086 173.871 102.183 163.647C108.642 151.126 116.762 139.825 126.266 129.93L119.495 123.673L119.523 123.688ZM86.7737 240.673L77.586 241.496C78.5129 252.81 80.6819 264.182 84.2978 275.429C91.6947 298.588 104.116 318.704 119.981 335.032L126.695 328.715C111.457 313.073 99.947 294.009 93.0915 272.62C89.7268 262.085 87.6504 251.379 86.7737 240.673ZM338.412 123.267L331.698 129.585C346.937 145.226 358.446 164.29 365.302 185.679C368.653 196.171 370.714 206.906 371.62 217.627L380.807 216.803C379.88 205.489 377.711 194.117 374.095 182.871C366.698 159.711 354.277 139.596 338.412 123.267ZM377.004 265.128L368.072 262.847C365.391 273.754 361.456 284.414 356.182 294.637C349.723 307.159 341.603 318.459 332.098 328.355L338.87 334.612C357.498 315.205 370.649 291.192 377.033 265.142L377.004 265.128Z" fill="#00E0F7"/>
</g>
</svg>
