<svg width="295" height="20" viewBox="0 0 295 20" fill="none" xmlns="http://www.w3.org/2000/svg">
<path d="M270.48 3.37L275.27 8.34H279L274.21 3.37H270.48Z" fill="#00E0F7"/>
<path d="M275.691 3.37L280.481 8.34H284.211L279.421 3.37H275.691Z" fill="#00E0F7"/>
<path d="M280.9 3.37L285.69 8.34H289.42L284.63 3.37H280.9Z" fill="#00E0F7"/>
<path d="M286.111 3.37L290.901 8.34H294.631L289.841 3.37H286.111Z" fill="#00E0F7"/>
<path d="M270.48 14.31L275.27 9.33997H279L274.21 14.31H270.48Z" fill="#00E0F7"/>
<path d="M275.689 14.31L280.479 9.33997H284.209L279.419 14.31H275.689Z" fill="#00E0F7"/>
<path d="M280.9 14.31L285.69 9.33997H289.42L284.63 14.31H280.9Z" fill="#00E0F7"/>
<path d="M286.109 14.31L290.899 9.33997H294.629L289.839 14.31H286.109Z" fill="#00E0F7"/>
<path d="M206.61 1L210.61 4.82999H240.84V6.82999H209.81L205.81 3H88.5302L85.5302 6.82999H53.6702V4.82999H84.5602L87.5602 1H206.62H206.61ZM207.01 0H87.0602L86.7601 0.380005L84.0602 3.82999H52.6602V7.82999H86.0101L86.3102 7.45001L89.0101 4H205.4L209.11 7.54999L209.4 7.82999H241.84V3.82999H211.01L207.3 0.279999L207.01 0Z" fill="#00E0F7"/>
<path d="M274.08 5.34998H241.08V6.34998H274.08V5.34998Z" fill="#00E0F7"/>
<path d="M197.15 17.73H100.33L96.0101 13.58H75.1801L74.1801 12.33H20.8301V11.33H74.6601L75.6601 12.58H96.4101L100.73 16.73H196.67L199.91 12.58H217.84L218.84 11.33H274.08V12.33H219.33L218.33 13.58H200.4L197.15 17.73Z" fill="#00E0F7"/>
<path d="M24.1508 3.37L19.3609 8.34H15.6309L20.4209 3.37H24.1508Z" fill="#00E0F7"/>
<path d="M18.9399 3.37L14.1499 8.34H10.4199L15.2099 3.37H18.9399Z" fill="#00E0F7"/>
<path d="M13.731 3.37L8.94095 8.34H5.21094L10.0009 3.37H13.731Z" fill="#00E0F7"/>
<path d="M8.51999 3.37L3.73001 8.34H0L4.79001 3.37H8.51999Z" fill="#00E0F7"/>
<path d="M24.1508 14.31L19.3609 9.33997H15.6309L20.4209 14.31H24.1508Z" fill="#00E0F7"/>
<path d="M18.9399 14.31L14.1499 9.33997H10.4199L15.2099 14.31H18.9399Z" fill="#00E0F7"/>
<path d="M13.731 14.31L8.94095 9.33997H5.21094L10.0009 14.31H13.731Z" fill="#00E0F7"/>
<path d="M8.51999 14.31L3.73001 9.33997H0L4.79001 14.31H8.51999Z" fill="#00E0F7"/>
<path d="M53.5391 5.34998H20.5391V6.34998H53.5391V5.34998Z" fill="#00E0F7"/>
<path d="M172.29 19.29H121.94L120.23 17.4H174.69L172.29 19.29Z" fill="#00E0F7"/>
</svg>
