<svg width="514" height="529" viewBox="0 0 514 529" fill="none" xmlns="http://www.w3.org/2000/svg">
<path d="M444.639 325.443C444.639 298.838 439.399 272.493 429.217 247.914C419.036 223.334 404.113 201 385.301 182.188C366.488 163.375 344.155 148.453 319.575 138.271C294.995 128.09 268.651 122.85 242.046 122.85C215.441 122.85 189.097 128.09 164.517 138.271C139.937 148.453 117.604 163.375 98.7912 182.188C79.9787 201 65.0558 223.334 54.8746 247.914C44.6933 272.493 39.4531 298.838 39.4531 325.443L242.046 325.443H444.639Z" fill="url(#paint0_radial_2028_3006)"/>
<g filter="url(#filter0_f_2028_3006)">
<ellipse cx="244.178" cy="143.098" rx="60.9343" ry="45.4992" transform="rotate(5.5411 244.178 143.098)" fill="#FFD72A"/>
</g>
<g filter="url(#filter1_b_2028_3006)">
<g clip-path="url(#clip0_2028_3006)">
<g clip-path="url(#clip1_2028_3006)">
<mask id="mask0_2028_3006" style="mask-type:alpha" maskUnits="userSpaceOnUse" x="16" y="99" width="455" height="227">
<path fill-rule="evenodd" clip-rule="evenodd" d="M403.771 165.656C446.34 208.025 470.255 265.489 470.255 325.407H243.262L16.2695 325.407C16.2695 265.489 40.1848 208.025 82.7542 165.656C125.324 123.288 183.06 99.4851 243.262 99.4851C303.465 99.4851 361.201 123.288 403.771 165.656ZM353.979 214.883C383.36 244.158 399.867 283.863 399.867 325.264H243.197L86.5273 325.264C86.5274 283.863 103.034 244.158 132.415 214.883C161.796 185.609 201.646 169.162 243.197 169.162C284.748 169.162 324.598 185.609 353.979 214.883Z" fill="#040704"/>
</mask>
<g mask="url(#mask0_2028_3006)">
<mask id="path-5-inside-1_2028_3006" fill="white">
<path d="M454.172 323.556C454.172 295.677 448.68 268.071 438.011 242.313C427.342 216.556 411.704 193.152 391.991 173.439C372.277 153.725 348.873 138.087 323.116 127.418C297.359 116.749 269.752 111.258 241.873 111.258C213.993 111.258 186.387 116.749 160.63 127.418C134.872 138.087 111.469 153.725 91.7551 173.439C72.0413 193.152 56.4035 216.556 45.7345 242.313C35.0655 268.071 29.5742 295.677 29.5742 323.557L241.873 323.556H454.172Z"/>
</mask>
<path d="M454.172 323.556C454.172 295.677 448.68 268.071 438.011 242.313C427.342 216.556 411.704 193.152 391.991 173.439C372.277 153.725 348.873 138.087 323.116 127.418C297.359 116.749 269.752 111.258 241.873 111.258C213.993 111.258 186.387 116.749 160.63 127.418C134.872 138.087 111.469 153.725 91.7551 173.439C72.0413 193.152 56.4035 216.556 45.7345 242.313C35.0655 268.071 29.5742 295.677 29.5742 323.557L241.873 323.556H454.172Z" fill="#2D7A08" stroke="#040704" stroke-width="9.56907" mask="url(#path-5-inside-1_2028_3006)"/>
<mask id="path-6-inside-2_2028_3006" fill="white">
<path d="M454.172 323.556C454.172 278.735 439.986 235.064 413.647 198.799C387.308 162.534 350.167 135.535 307.544 121.67C264.921 107.806 219.004 107.787 176.37 121.616C133.736 135.445 96.572 162.413 70.2027 198.656L241.873 323.556H454.172Z"/>
</mask>
<path d="M454.172 323.556C454.172 278.735 439.986 235.064 413.647 198.799C387.308 162.534 350.167 135.535 307.544 121.67C264.921 107.806 219.004 107.787 176.37 121.616C133.736 135.445 96.572 162.413 70.2027 198.656L241.873 323.556H454.172Z" fill="#8CC208" stroke="#040704" stroke-width="9.56907" mask="url(#path-6-inside-2_2028_3006)"/>
<mask id="path-7-inside-3_2028_3006" fill="white">
<path d="M454.172 323.556C454.172 290.024 446.228 256.968 430.992 227.097C415.757 197.225 393.662 171.388 366.517 151.7C339.372 132.013 307.95 119.035 274.823 113.83C241.697 108.626 207.809 111.342 175.935 121.757L241.873 323.556H454.172Z"/>
</mask>
<path d="M454.172 323.556C454.172 290.024 446.228 256.968 430.992 227.097C415.757 197.225 393.662 171.388 366.517 151.7C339.372 132.013 307.95 119.035 274.823 113.83C241.697 108.626 207.809 111.342 175.935 121.757L241.873 323.556H454.172Z" fill="#FFD72A" stroke="#040704" stroke-width="9.56907" mask="url(#path-7-inside-3_2028_3006)"/>
<mask id="path-8-inside-4_2028_3006" fill="white">
<path d="M454.172 323.556C454.172 278.788 440.019 235.166 413.738 198.924C387.456 162.683 350.391 135.677 307.838 121.766L241.873 323.556H454.172Z"/>
</mask>
<path d="M454.172 323.556C454.172 278.788 440.019 235.166 413.738 198.924C387.456 162.683 350.391 135.677 307.838 121.766L241.873 323.556H454.172Z" fill="#FEB334" stroke="#040704" stroke-width="9.56907" mask="url(#path-8-inside-4_2028_3006)"/>
<mask id="path-9-inside-5_2028_3006" fill="white">
<path d="M454.172 323.556C454.172 278.674 439.947 234.947 413.542 198.655L241.873 323.556H454.172Z"/>
</mask>
<path d="M454.172 323.556C454.172 278.674 439.947 234.947 413.542 198.655L241.873 323.556H454.172Z" fill="#FF7F27" stroke="#040704" stroke-width="9.56907" mask="url(#path-9-inside-5_2028_3006)"/>
</g>
<mask id="path-10-outside-6_2028_3006" maskUnits="userSpaceOnUse" x="90.3672" y="174.243" width="303" height="155" fill="black">
<rect fill="white" x="90.3672" y="174.243" width="303" height="155"/>
<path d="M389.542 325.262C389.542 286.27 373.993 248.875 346.315 221.304C318.637 193.732 281.097 178.243 241.955 178.243C202.812 178.243 165.273 193.732 137.595 221.304C109.917 248.875 94.3672 286.27 94.3672 325.262L241.955 325.262H389.542Z"/>
</mask>
<path d="M389.542 325.262C389.542 286.27 373.993 248.875 346.315 221.304C318.637 193.732 281.097 178.243 241.955 178.243C202.812 178.243 165.273 193.732 137.595 221.304C109.917 248.875 94.3672 286.27 94.3672 325.262L241.955 325.262H389.542Z" stroke="white" stroke-width="6.81172" stroke-dasharray="4.54 4.54" mask="url(#path-10-outside-6_2028_3006)"/>
</g>
<g clip-path="url(#clip2_2028_3006)">
<path d="M67.8604 298.389L57.4244 296.598C55.8342 296.326 54.6781 295.708 53.9457 294.744C53.2134 293.78 52.9832 292.534 53.2448 290.999C53.5063 289.465 54.1445 288.365 55.1541 287.705C56.1637 287.04 57.461 286.846 59.0513 287.118L69.4873 288.909C71.0775 289.182 72.2336 289.8 72.966 290.763C73.6983 291.727 73.9285 292.974 73.6669 294.508C73.4054 296.043 72.7672 297.143 71.7576 297.803C70.748 298.468 69.4507 298.661 67.8604 298.389ZM69.1473 292.062L58.3137 290.203C57.0112 289.978 56.2631 290.407 56.08 291.486C55.8969 292.565 56.4567 293.215 57.7592 293.44L68.5928 295.299C69.8953 295.524 70.6434 295.095 70.8265 294.016C71.0095 292.937 70.4498 292.288 69.1473 292.062Z" fill="black"/>
<path d="M75.2368 285.133L74.5097 288.218L54.9141 283.572L55.9864 279.032C56.7136 275.968 58.6909 274.815 61.9185 275.585L63.8488 276.041C67.0763 276.806 68.3318 278.723 67.6047 281.786L67.2594 283.242L75.2368 285.133ZM58.4398 281.153L64.4608 282.577L64.806 281.121C64.9316 280.598 64.8741 280.179 64.6439 279.87C64.4137 279.561 63.9691 279.325 63.3152 279.168L60.9926 278.618C60.3387 278.461 59.8417 278.471 59.4913 278.649C59.146 278.822 58.9106 279.173 58.7851 279.697L58.4398 281.153Z" fill="black"/>
<path d="M78.6324 272.542L77.717 275.575L61.1867 270.584L60.2294 273.757L57.4727 272.925L60.2974 263.55L63.0542 264.383L62.0969 267.556L78.6272 272.548L78.6324 272.542Z" fill="black"/>
<path d="M81.0169 265.43L79.9707 268.421L60.9609 261.754L62.0072 258.763L81.0169 265.43Z" fill="black"/>
<path d="M82.5855 261.157L81.5236 263.707L62.9375 255.945L64.6533 251.824L78.9499 255.516L66.2697 247.943L67.9855 243.821L86.5716 251.583L85.4207 254.348L71.3491 248.472L84.5157 256.532L83.4957 258.978L68.5138 255.28L82.5855 261.157Z" fill="black"/>
<path d="M91.8873 241.15L90.4539 243.973L86.6928 242.674L85.0345 245.937L88.2987 248.215L86.97 250.834L70.5078 238.767L72.4485 234.943L91.8873 241.16V241.15ZM74.3684 238.468L82.7799 244.334L84.072 241.794L74.3684 238.468Z" fill="black"/>
<path d="M96.5953 233.142L92.3634 240.375L74.9805 230.188L76.5812 227.454L91.4793 236.185L94.1105 231.686L96.5953 233.142Z" fill="black"/>
<path d="M222.116 148.411L221.2 137.853C221.059 136.229 221.352 134.946 222.079 134.003C222.806 133.066 223.931 132.526 225.464 132.395C226.991 132.264 228.194 132.594 229.073 133.396C229.952 134.197 230.459 135.412 230.601 137.036L230.752 138.759L227.771 139.021L227.603 137.099C227.488 135.779 226.887 135.166 225.799 135.26C224.711 135.355 224.224 136.062 224.339 137.381L225.291 148.375C225.406 149.674 226.003 150.276 227.096 150.182C228.184 150.087 228.676 149.391 228.561 148.087L228.221 144.153L226.646 144.29L226.395 141.419L230.951 141.021L231.521 147.594C231.663 149.218 231.37 150.501 230.643 151.444C229.915 152.387 228.786 152.921 227.258 153.052C225.731 153.183 224.527 152.853 223.649 152.051C222.77 151.25 222.262 150.035 222.121 148.411H222.116Z" fill="black"/>
<path d="M233.065 147.505L232.809 136.91C232.772 135.297 233.149 134.04 233.955 133.134C234.755 132.233 235.937 131.761 237.491 131.72C239.045 131.678 240.242 132.097 241.09 132.956C241.937 133.82 242.377 135.056 242.419 136.669L242.675 147.264C242.712 148.877 242.33 150.134 241.529 151.04C240.724 151.941 239.547 152.412 237.993 152.454C236.439 152.496 235.242 152.077 234.394 151.218C233.547 150.354 233.107 149.118 233.065 147.505ZM239.515 147.547L239.249 136.548C239.217 135.223 238.652 134.574 237.559 134.6C236.466 134.626 235.937 135.302 235.969 136.627L236.235 147.625C236.267 148.951 236.832 149.6 237.925 149.574C239.018 149.548 239.547 148.872 239.515 147.547Z" fill="black"/>
<path d="M244.269 147.28L244.671 136.685C244.734 135.071 245.195 133.841 246.052 132.992C246.91 132.144 248.113 131.746 249.667 131.803C251.221 131.861 252.392 132.348 253.182 133.265C253.972 134.181 254.338 135.443 254.276 137.051L253.873 147.646C253.81 149.26 253.35 150.49 252.492 151.339C251.634 152.187 250.431 152.585 248.877 152.528C247.324 152.47 246.152 151.983 245.362 151.066C244.572 150.15 244.206 148.888 244.269 147.275V147.28ZM250.703 147.73L251.121 136.732C251.174 135.407 250.651 134.726 249.557 134.684C248.464 134.642 247.894 135.281 247.841 136.606L247.423 147.599C247.371 148.924 247.894 149.605 248.987 149.647C250.08 149.689 250.651 149.05 250.703 147.725V147.73Z" fill="black"/>
<path d="M260.04 153.031L255.232 152.538L257.283 132.479L262.09 132.971C265.219 133.291 266.615 135.103 266.28 138.408L265.245 148.553C264.905 151.857 263.173 153.35 260.045 153.031H260.04ZM260.134 135.669L258.669 149.998L260.27 150.161C261.337 150.271 261.939 149.673 262.069 148.375L263.137 137.942C263.267 136.643 262.802 135.936 261.735 135.831L260.134 135.669Z" fill="black"/>
<path d="M315.093 168.287L307.184 164.825L315.255 146.353L323.165 149.815L322.014 152.454L317.008 150.26L314.873 155.141L318.854 156.885L317.698 159.525L313.717 157.781L311.238 163.453L316.244 165.647L315.093 168.287Z" fill="black"/>
<path d="M318.073 169.775L315.41 168.408L323.361 160.903L324.758 150.548L327.729 152.072L326.641 158.928L331.621 154.073L334.284 155.44L326.694 162.615L325.245 173.462L322.273 171.938L323.445 164.543L318.078 169.78L318.073 169.775Z" fill="black"/>
<path d="M328.705 175.531L325.984 173.912L336.284 156.587L340.291 158.975C342.996 160.589 343.498 162.82 341.798 165.674L340.783 167.381C339.088 170.236 336.886 170.859 334.181 169.246L332.895 168.481L328.699 175.536L328.705 175.531ZM337.535 160.678L334.37 165.999L335.657 166.763C336.117 167.036 336.53 167.114 336.896 166.983C337.263 166.858 337.618 166.502 337.964 165.925L339.182 163.872C339.528 163.296 339.664 162.814 339.606 162.432C339.543 162.05 339.282 161.72 338.821 161.442L337.535 160.678Z" fill="black"/>
<path d="M341.913 184.047L334.977 179.349L346.26 162.647L348.881 164.422L339.208 178.736L343.524 181.658L341.913 184.047Z" fill="black"/>
<path d="M345.314 180.6L351.748 172.179C352.726 170.896 353.814 170.157 355.002 169.958C356.194 169.759 357.403 170.131 358.637 171.074C359.872 172.016 360.547 173.095 360.667 174.295C360.787 175.499 360.358 176.74 359.375 178.024L352.941 186.445C351.963 187.729 350.874 188.467 349.687 188.666C348.494 188.865 347.281 188.493 346.051 187.55C344.817 186.608 344.142 185.529 344.022 184.329C343.901 183.125 344.33 181.884 345.309 180.6H345.314ZM350.309 184.68L356.984 175.939C357.79 174.886 357.759 174.027 356.89 173.362C356.022 172.697 355.185 172.891 354.379 173.944L347.704 182.685C346.899 183.738 346.93 184.597 347.799 185.262C348.667 185.927 349.504 185.733 350.309 184.68Z" fill="black"/>
<path d="M354.143 194.144C352.982 193.138 352.391 192.049 352.37 190.87C352.349 189.692 352.867 188.487 353.939 187.257L354.692 186.387L356.952 188.351L356.047 189.399C355.195 190.383 355.179 191.237 356.005 191.955C356.848 192.683 357.705 192.541 358.584 191.525C359.123 190.902 359.447 190.216 359.557 189.472C359.683 188.744 359.646 187.681 359.453 186.293C359.233 184.554 359.222 183.156 359.416 182.108C359.651 181.045 360.148 180.076 360.902 179.207C361.958 177.986 363.073 177.316 364.244 177.19C365.416 177.065 366.583 177.505 367.744 178.51C368.874 179.49 369.449 180.568 369.475 181.747C369.496 182.925 368.973 184.13 367.906 185.361L367.362 185.994L365.102 184.03L365.782 183.245C366.651 182.244 366.682 181.396 365.887 180.705C365.076 180.003 364.25 180.134 363.407 181.108C362.916 181.674 362.628 182.313 362.544 183.03C362.434 183.8 362.487 184.858 362.691 186.204C362.937 187.943 362.937 189.336 362.685 190.389C362.461 191.441 361.932 192.442 361.106 193.4C360.023 194.647 358.888 195.338 357.695 195.474C356.502 195.605 355.315 195.165 354.143 194.144Z" fill="black"/>
<path d="M361.142 200.151L358.846 197.973L372.692 183.329L374.989 185.508L361.142 200.151Z" fill="black"/>
<path d="M366.964 206.038L364.045 203.011L376.416 186.812L378.634 189.111L368.711 201.628L381.553 192.138L383.573 194.233L366.964 206.043V206.038Z" fill="black"/>
<path d="M375.319 215.518L369.695 208.961L384.975 195.831L390.599 202.388L388.417 204.263L384.855 200.11L380.817 203.582L383.647 206.881L381.465 208.756L378.635 205.457L373.943 209.49L377.505 213.643L375.324 215.518H375.319Z" fill="black"/>
<path d="M397.159 250.289L395.982 247.722L414.291 239.322L415.923 242.883L406.298 250.818L417.257 245.79L418.434 248.356L400.125 256.757L398.797 253.85L410.53 244.156L397.165 250.289H397.159Z" fill="black"/>
<path d="M404.334 267.719L403.209 264.76L406.698 262.843L405.401 259.423L401.525 260.314L400.479 257.569L420.467 253.468L421.994 257.48L404.339 267.719H404.334ZM418.086 256.527L408.095 258.826L409.11 261.492L418.092 256.527H418.086Z" fill="black"/>
<path d="M405.558 271.684L404.574 268.672L423.71 262.393L424.693 265.404L405.558 271.684Z" fill="black"/>
<path d="M407.877 279.624L406.752 275.57L425.338 267.227L426.196 270.306L411.512 276.576L427.321 274.355L428.1 277.157L407.882 279.618L407.877 279.624Z" fill="black"/>
<path d="M410.702 291.942L408.887 283.494L428.577 279.252L430.392 287.7L427.577 288.307L426.427 282.955L421.222 284.075L422.137 288.328L419.323 288.936L418.407 284.683L412.36 285.987L413.511 291.34L410.697 291.947L410.702 291.942Z" fill="black"/>
</g>
<path d="M130.927 193.267L127.713 195.977L113.173 181.879L115.504 179.912L126.767 191.053L117.774 177.999L120.416 175.77L131.74 186.858L122.68 173.857L124.77 172.094L136.189 188.832L133.176 191.375L123.137 181.728L130.932 193.267L130.927 193.267Z" fill="black"/>
<path d="M141.205 185.112L138.668 187.009L126.625 170.847L129.162 168.95L141.205 185.112Z" fill="black"/>
<path d="M146.259 181.91C144.992 182.775 143.783 183.067 142.643 182.783C141.503 182.503 140.474 181.688 139.557 180.336L138.908 179.383L141.38 177.702L142.158 178.846C142.893 179.929 143.708 180.161 144.613 179.544C145.534 178.916 145.619 178.05 144.863 176.936C144.401 176.253 143.823 175.765 143.132 175.467C142.457 175.159 141.428 174.92 140.039 174.749C138.303 174.516 136.953 174.167 135.993 173.707C135.027 173.204 134.219 172.474 133.57 171.521C132.664 170.185 132.303 168.934 132.482 167.768C132.661 166.602 133.387 165.584 134.66 164.719C135.896 163.876 137.084 163.6 138.229 163.879C139.369 164.158 140.398 164.974 141.315 166.326L141.782 167.015L139.309 168.696L138.73 167.836C137.984 166.738 137.18 166.489 136.305 167.08C135.416 167.687 135.335 168.521 136.054 169.583C136.473 170.205 137.019 170.646 137.688 170.912C138.405 171.215 139.439 171.438 140.791 171.588C142.532 171.795 143.877 172.16 144.833 172.673C145.788 173.16 146.622 173.926 147.336 174.978C148.264 176.345 148.636 177.622 148.457 178.809C148.278 180.001 147.547 181.029 146.259 181.905L146.259 181.91Z" fill="black"/>
<path d="M158.489 173.916L151.082 178.351L140.746 161.045L148.153 156.61L149.628 159.083L144.935 161.891L147.665 166.466L151.394 164.234L152.869 166.708L149.14 168.939L152.316 174.255L157.009 171.447L158.484 173.921L158.489 173.916Z" fill="black"/>
</g>
</g>
<defs>
<filter id="filter0_f_2028_3006" x="86.2293" y="0.288094" width="315.898" height="285.62" filterUnits="userSpaceOnUse" color-interpolation-filters="sRGB">
<feFlood flood-opacity="0" result="BackgroundImageFix"/>
<feBlend mode="normal" in="SourceGraphic" in2="BackgroundImageFix" result="shape"/>
<feGaussianBlur stdDeviation="48.569" result="effect1_foregroundBlur_2028_3006"/>
</filter>
<filter id="filter1_b_2028_3006" x="-32.1216" y="44.8784" width="550.351" height="321.216" filterUnits="userSpaceOnUse" color-interpolation-filters="sRGB">
<feFlood flood-opacity="0" result="BackgroundImageFix"/>
<feGaussianBlur in="BackgroundImageFix" stdDeviation="16.0608"/>
<feComposite in2="SourceAlpha" operator="in" result="effect1_backgroundBlur_2028_3006"/>
<feBlend mode="normal" in="SourceGraphic" in2="effect1_backgroundBlur_2028_3006" result="shape"/>
</filter>
<radialGradient id="paint0_radial_2028_3006" cx="0" cy="0" r="1" gradientUnits="userSpaceOnUse" gradientTransform="translate(242.046 325.443) rotate(90) scale(202.593)">
<stop offset="0.555546" stop-color="#222222"/>
<stop offset="1"/>
</radialGradient>
<clipPath id="clip0_2028_3006">
<path d="M0 303.741C0 178.515 101.515 77 226.741 77H259.366C384.592 77 486.107 178.515 486.107 303.741C486.107 320.438 472.572 333.973 455.875 333.973H30.2321C13.5354 333.973 0 320.438 0 303.741Z" fill="white"/>
</clipPath>
<clipPath id="clip1_2028_3006">
<rect width="451.844" height="211.163" fill="white" transform="translate(17.1699 111.263)"/>
</clipPath>
<clipPath id="clip2_2028_3006">
<rect width="377.25" height="377.25" fill="white" transform="translate(53.1406 131.72)"/>
</clipPath>
</defs>
</svg>
