<svg width="651" height="152" viewBox="0 0 651 152" fill="none" xmlns="http://www.w3.org/2000/svg">
<rect x="506.619" y="144.208" width="9.40434" height="9.40434" transform="rotate(-45 506.619 144.208)" stroke="#00DFF6"/>
<rect x="116.457" y="144.208" width="9.40434" height="9.40434" transform="rotate(-45 116.457 144.208)" stroke="#00DFF6"/>
<path fill-rule="evenodd" clip-rule="evenodd" d="M510.166 141.148C462.145 90.7672 394.382 59.3718 319.286 59.3718C243.757 59.3718 175.645 91.1303 127.576 142.022L126.2 142.025C174.486 90.5378 243.129 58.3718 319.286 58.3718C395.007 58.3718 463.301 90.1717 511.542 141.145L510.166 141.148Z" fill="#00DFF6"/>
<rect x="506.372" y="144.208" width="82.5844" height="0.650271" transform="rotate(-45 506.372 144.208)" stroke="#00DFF6" stroke-width="0.650271"/>
<rect x="-0.459811" width="82.5844" height="0.650271" transform="matrix(-0.707107 -0.707107 -0.707107 0.707107 129.629 143.883)" stroke="#00DFF6" stroke-width="0.650271"/>
<path fill-rule="evenodd" clip-rule="evenodd" d="M43.7187 63.523L43.7178 63.5239L50.7071 70.5132L52.1213 71.9274L52.1222 71.9265L43.7187 63.523ZM60.5257 63.523L67.5141 56.5346L68.9283 55.1204L67.5141 53.7062L60.5248 46.7169L59.1106 48.1311L66.0999 55.1204L59.1115 62.1088L60.5257 63.523Z" fill="#4299E1"/>
<path fill-rule="evenodd" clip-rule="evenodd" d="M50.0157 57.2224L50.0166 57.2214L57.0059 64.2107L58.4201 65.6249L57.0059 67.0392L43.0273 81.0177L41.6131 82.432L40.1989 81.0177L33.2096 74.0284L34.6238 72.6142L41.6131 79.6035L48.6014 72.6152L50.0148 74.0285L58.4183 65.625L50.0157 57.2224Z" fill="#4299E1"/>
<path fill-rule="evenodd" clip-rule="evenodd" d="M33.2168 53.0188L33.2158 53.0198L26.2265 46.0305L24.8123 44.6163L26.2265 43.2021L40.2051 29.2235L41.6193 27.8093L43.0335 29.2235L50.0228 36.2128L48.6086 37.627L41.6193 30.6377L34.631 37.626L33.2177 36.2127L24.8142 44.6162L33.2168 53.0188Z" fill="#4299E1"/>
<path fill-rule="evenodd" clip-rule="evenodd" d="M39.5196 46.7182L39.5205 46.7173L32.5312 39.728L31.117 38.3138L31.1161 38.3147L39.5196 46.7182ZM22.7126 46.7182L15.7242 53.7066L14.31 55.1208L15.7242 56.535L22.7135 63.5243L24.1277 62.1101L17.1384 55.1208L24.1268 48.1324L22.7126 46.7182Z" fill="#4299E1"/>
<circle cx="41.6174" cy="55.7709" r="41.1174" stroke="#4AF2DE" stroke-opacity="0.24"/>
<circle cx="41.6164" cy="55.7711" r="35.9152" stroke="#4AF2DE" stroke-opacity="0.24"/>
<circle cx="41.6182" cy="55.7711" r="15.1065" stroke="#FEF147"/>
<path d="M23.077 41.0649L26.9135 37.2284V41.0649H23.077Z" stroke="#4AC0F2" stroke-opacity="0.4" stroke-width="0.8"/>
<path d="M23.077 70.4769L26.9135 74.3134V70.4769H23.077Z" stroke="#4AC0F2" stroke-opacity="0.4" stroke-width="0.8"/>
<path d="M60.1613 41.0649L56.3248 37.2284V41.0649H60.1613Z" stroke="#4AC0F2" stroke-opacity="0.4" stroke-width="0.8"/>
<path d="M60.1613 70.4769L56.3248 74.3134V70.4769H60.1613Z" stroke="#4AC0F2" stroke-opacity="0.4" stroke-width="0.8"/>
<circle cx="41.6173" cy="55.7709" r="30.713" stroke="#FEF147" stroke-linejoin="round" stroke-dasharray="1 15"/>
<circle cx="41.6172" cy="55.771" r="9.90434" stroke="#4AF2DE" stroke-opacity="0.24"/>
<circle cx="41.6167" cy="55.771" r="2.60108" fill="#8CD5FF"/>
<circle cx="594.348" cy="55.7709" r="41.1174" stroke="#4AF2DE" stroke-opacity="0.24"/>
<circle cx="594.349" cy="55.7709" r="35.9152" stroke="#4ACAF2" stroke-opacity="0.08"/>
<g opacity="0.8">
<path d="M609.294 29.8877C605.209 27.5294 600.625 26.1713 595.915 25.9245C591.204 25.6777 586.503 26.5491 582.194 28.4674L594.35 55.7709L609.294 29.8877Z" fill="#8CD5FF"/>
<path d="M564.462 55.7711C564.462 60.4876 565.578 65.1372 567.719 69.3397C569.86 73.5421 572.966 77.1782 576.782 79.9505L594.349 55.7711H564.462Z" fill="#8CD5FF"/>
<path d="M609.289 81.654C613.374 79.2957 616.842 76.0042 619.411 72.0486C621.98 68.093 623.576 63.5855 624.069 58.8948L594.346 55.7708L609.289 81.654Z" fill="#8CD5FF"/>
</g>
<circle cx="594.347" cy="55.7709" r="25.2608" fill="#030128" fill-opacity="0.4" stroke="#141C49" stroke-width="1.5"/>
<circle cx="594.347" cy="55.7708" r="12.5054" stroke="#010E28"/>
<circle cx="594.346" cy="55.7708" r="11.2049" fill="#010E28" stroke="#FEF147"/>
<circle cx="594.347" cy="55.771" r="2.60108" fill="#8CD5FF"/>
<circle cx="594.348" cy="55.7709" r="37.0163" stroke="#FEF147" stroke-width="4" stroke-dasharray="1 8"/>
</svg>
