<svg width="442" height="180" viewBox="0 0 442 180" fill="none" xmlns="http://www.w3.org/2000/svg">
<path fill-rule="evenodd" clip-rule="evenodd" d="M0 179.641C21.1458 115.299 69.6201 63.356 131.692 37.5427L132.458 38.3081C70.4867 63.9488 22.0751 115.728 0.967696 179.9L0 179.641Z" fill="#00E0F7"/>
<path fill-rule="evenodd" clip-rule="evenodd" d="M441.925 179.641C420.779 115.299 372.305 63.3561 310.233 37.5428L309.467 38.3083C371.438 63.949 419.85 115.728 440.957 179.9L441.925 179.641Z" fill="#00E0F7"/>
<path fill-rule="evenodd" clip-rule="evenodd" d="M126.783 32.7075L125.938 31.8621L125.386 30.5877L124.393 28.2935C124.698 28.1613 125.004 28.0296 125.31 27.8986L126.294 30.1969L127.277 32.4952C127.113 32.5658 126.948 32.6366 126.783 32.7075ZM316.473 27.8986C316.779 28.0296 317.085 28.1612 317.39 28.2935L316.397 30.5877L315.404 32.8819C315.104 32.7524 314.805 32.6235 314.505 32.4952L315.489 30.1969L316.473 27.8986ZM306.342 26.5028L307.23 24.1659C306.919 24.0477 306.608 23.9301 306.296 23.8131L305.418 26.1536L304.539 28.4942C304.844 28.6087 305.149 28.7239 305.454 28.8397L306.342 26.5028ZM296.113 22.8786L296.894 20.5037C296.578 20.3998 296.261 20.2964 295.945 20.1937L295.174 22.5718L294.402 24.9498C294.712 25.0504 295.022 25.1516 295.332 25.2534L296.113 22.8786ZM285.729 19.7228L286.402 17.3149C286.081 17.2255 285.761 17.1367 285.44 17.0485L284.777 19.4591L284.115 21.8697C284.429 21.9561 284.743 22.0431 285.057 22.1307L285.729 19.7228ZM275.213 17.042L275.775 14.6061C275.451 14.5313 275.127 14.4572 274.803 14.3837L274.251 16.8219L273.698 19.2602C274.016 19.3321 274.333 19.4047 274.65 19.4779L275.213 17.042ZM264.585 14.8412L265.036 12.3823C264.709 12.3223 264.382 12.263 264.055 12.2044L263.614 14.6651L263.173 17.1259C263.493 17.1833 263.814 17.2414 264.134 17.3001L264.585 14.8412ZM253.867 13.1238L254.206 10.647C253.878 10.6019 253.549 10.5575 253.219 10.5138L252.89 12.992L252.56 15.4701C252.883 15.513 253.205 15.5565 253.527 15.6007L253.867 13.1238ZM243.08 11.8918L243.307 9.40215C242.977 9.37196 242.647 9.34243 242.317 9.31356L242.099 11.8041L241.881 14.2946C242.205 14.3229 242.529 14.3518 242.852 14.3814L243.08 11.8918ZM232.244 11.1451L232.361 8.64777C232.03 8.63241 231.699 8.61772 231.368 8.60368L231.263 11.1014L231.157 13.5992C231.481 13.6129 231.805 13.6273 232.128 13.6424L232.244 11.1451ZM221.388 10.8823L221.393 8.38234C221.226 8.382 221.059 8.38184 220.891 8.38184C220.724 8.38184 220.557 8.382 220.39 8.38234L220.395 10.8823L220.4 13.3823C220.564 13.382 220.728 13.3818 220.891 13.3818C221.055 13.3818 221.219 13.382 221.383 13.3823L221.388 10.8823ZM210.52 11.1014L210.414 8.60367C210.083 8.61771 209.753 8.63241 209.422 8.64777L209.538 11.1451L209.654 13.6424C209.978 13.6273 210.302 13.6129 210.626 13.5992L210.52 11.1014ZM199.684 11.8041L199.466 9.31355C199.136 9.34242 198.806 9.37195 198.476 9.40214L198.703 11.8917L198.931 14.3813C199.254 14.3518 199.578 14.3229 199.901 14.2946L199.684 11.8041ZM188.893 12.9919L188.563 10.5137C188.234 10.5575 187.905 10.6019 187.577 10.647L187.916 13.1238L188.256 15.6007C188.578 15.5565 188.9 15.513 189.222 15.4701L188.893 12.9919ZM178.169 14.6651L177.727 12.2043C177.4 12.263 177.073 12.3223 176.747 12.3823L177.198 14.8412L177.649 17.3001C177.969 17.2414 178.289 17.1833 178.61 17.1259L178.169 14.6651ZM167.532 16.8219L166.98 14.3837C166.656 14.4572 166.331 14.5313 166.008 14.6061L166.57 17.042L167.132 19.4779C167.449 19.4047 167.767 19.3321 168.085 19.2602L167.532 16.8219ZM157.005 19.4591L156.343 17.0485C156.022 17.1366 155.701 17.2255 155.381 17.3149L156.054 19.7228L156.726 22.1307C157.04 22.0431 157.354 21.9561 157.668 21.8697L157.005 19.4591ZM146.609 22.5718L145.838 20.1937C145.521 20.2964 145.205 20.3998 144.889 20.5037L145.67 22.8786L146.451 25.2534C146.761 25.1516 147.07 25.0504 147.381 24.9498L146.609 22.5718ZM136.365 26.1536L135.487 23.8131C135.175 23.9301 134.863 24.0477 134.552 24.1659L135.441 26.5028L136.329 28.8397C136.633 28.7239 136.938 28.6087 137.244 28.4942L136.365 26.1536Z" fill="#FEF147"/>
<path fill-rule="evenodd" clip-rule="evenodd" d="M281.393 3.44049L280.45 4.08785L284.827 13.2564L293.202 7.50461L292.767 6.59513L285.611 10.3225L281.393 3.44049Z" fill="#8CD5FF"/>
</svg>
