<svg width="254" height="39" viewBox="0 0 254 39" fill="none" xmlns="http://www.w3.org/2000/svg">
<g filter="url(#filter0_b_7_10963)">
<g opacity="0.64">
<mask id="path-1-inside-1_7_10963" fill="white">
<path fill-rule="evenodd" clip-rule="evenodd" d="M253.327 32.6877C214.666 11.8349 170.423 0 123.416 0C79.0206 0 37.091 10.5563 0 29.2958L6.32142 35.6172C41.644 18.2376 81.3902 8.47595 123.416 8.47595C168.061 8.47595 210.132 19.4918 247.061 38.9537L253.327 32.6877Z"/>
</mask>
<path fill-rule="evenodd" clip-rule="evenodd" d="M253.327 32.6877C214.666 11.8349 170.423 0 123.416 0C79.0206 0 37.091 10.5563 0 29.2958L6.32142 35.6172C41.644 18.2376 81.3902 8.47595 123.416 8.47595C168.061 8.47595 210.132 19.4918 247.061 38.9537L253.327 32.6877Z" fill="#004899" fill-opacity="0.24"/>
<path d="M253.327 32.6877L254.035 33.3948L254.984 32.4451L253.802 31.8076L253.327 32.6877ZM0 29.2958L-0.450944 28.4032L-1.68386 29.0261L-0.707107 30.0029L0 29.2958ZM6.32142 35.6172L5.61431 36.3243L6.12053 36.8305L6.7629 36.5144L6.32142 35.6172ZM247.061 38.9537L246.595 39.8384L247.247 40.1821L247.768 39.6609L247.061 38.9537ZM253.802 31.8076C214.998 10.8781 170.593 -1 123.416 -1V1C170.253 1 214.333 12.7918 252.853 33.5678L253.802 31.8076ZM123.416 -1C78.8604 -1 36.7766 9.59472 -0.450944 28.4032L0.450944 30.1883C37.4053 11.5179 79.1808 1 123.416 1V-1ZM7.02852 34.9101L0.707107 28.5886L-0.707107 30.0029L5.61431 36.3243L7.02852 34.9101ZM123.416 7.47595C81.2337 7.47595 41.3368 17.2742 5.87994 34.7199L6.7629 36.5144C41.9511 19.2009 81.5466 9.47595 123.416 9.47595V7.47595ZM247.528 38.0691C210.458 18.5332 168.227 7.47595 123.416 7.47595V9.47595C167.895 9.47595 209.807 20.4504 246.595 39.8384L247.528 38.0691ZM252.62 31.9806L246.354 38.2466L247.768 39.6609L254.035 33.3948L252.62 31.9806Z" fill="#00E0F7" mask="url(#path-1-inside-1_7_10963)"/>
</g>
</g>
<defs>
<filter id="filter0_b_7_10963" x="-1.3" y="-1.3" width="255.927" height="41.5539" filterUnits="userSpaceOnUse" color-interpolation-filters="sRGB">
<feFlood flood-opacity="0" result="BackgroundImageFix"/>
<feGaussianBlur in="BackgroundImageFix" stdDeviation="0.65"/>
<feComposite in2="SourceAlpha" operator="in" result="effect1_backgroundBlur_7_10963"/>
<feBlend mode="normal" in="SourceGraphic" in2="effect1_backgroundBlur_7_10963" result="shape"/>
</filter>
</defs>
</svg>
