<svg width="64" height="65" viewBox="0 0 64 65" fill="none" xmlns="http://www.w3.org/2000/svg">
<path d="M50.6667 45.761V51.0943H18.6667V45.761C18.6667 45.761 18.6667 35.0943 34.6667 35.0943C50.6667 35.0943 50.6667 45.761 50.6667 45.761ZM42.6667 21.761C42.6667 20.1787 42.1975 18.632 41.3184 17.3164C40.4394 16.0008 39.1899 14.9755 37.7281 14.37C36.2663 13.7645 34.6578 13.606 33.1059 13.9147C31.5541 14.2234 30.1286 14.9853 29.0098 16.1041C27.891 17.223 27.1291 18.6484 26.8204 20.2003C26.5117 21.7521 26.6701 23.3606 27.2756 24.8225C27.8811 26.2843 28.9065 27.5337 30.2221 28.4127C31.5377 29.2918 33.0844 29.761 34.6667 29.761C36.7884 29.761 38.8232 28.9181 40.3235 27.4178C41.8238 25.9176 42.6667 23.8827 42.6667 21.761ZM51.2 35.2543C52.6577 36.5991 53.8329 38.2208 54.657 40.0248C55.4811 41.8287 55.9377 43.7787 56 45.761V51.0943H64V45.761C64 45.761 64 36.561 51.2 35.2543ZM48 13.761C47.1943 13.761 46.3935 13.887 45.6267 14.1343C47.1868 16.3716 48.0233 19.0335 48.0233 21.761C48.0233 24.4885 47.1868 27.1504 45.6267 29.3877C46.3935 29.635 47.1943 29.7609 48 29.761C50.1217 29.761 52.1566 28.9181 53.6569 27.4178C55.1571 25.9176 56 23.8827 56 21.761C56 19.6393 55.1571 17.6044 53.6569 16.1041C52.1566 14.6038 50.1217 13.761 48 13.761ZM21.3333 27.0943H13.3333V19.0943H8V27.0943H0V32.4277H8V40.4277H13.3333V32.4277H21.3333V27.0943Z" fill="white"/>
</svg>
