<svg width="65" height="65" viewBox="0 0 65 65" fill="none" xmlns="http://www.w3.org/2000/svg">
<path d="M32.6667 21.7611H11.3333C9.91885 21.7611 8.56229 22.3231 7.5621 23.3232C6.5619 24.3234 6 25.68 6 27.0945V37.7611C6 39.1756 6.5619 40.5322 7.5621 41.5324C8.56229 42.5326 9.91885 43.0945 11.3333 43.0945H14V53.7611C14 54.4684 14.281 55.1467 14.781 55.6468C15.2811 56.1469 15.9594 56.4278 16.6667 56.4278H22C22.7072 56.4278 23.3855 56.1469 23.8856 55.6468C24.3857 55.1467 24.6667 54.4684 24.6667 53.7611V43.0945H32.6667L46 53.7611V11.0945L32.6667 21.7611ZM40.6667 42.0278L35.3333 37.7611H11.3333V27.0945H35.3333L40.6667 22.8278V42.0278ZM58 32.4278C58 36.9878 55.44 41.1211 51.3333 43.0945V21.7611C55.4133 23.7611 58 27.8945 58 32.4278Z" fill="white"/>
</svg>
