<svg width="65" height="65" viewBox="0 0 65 65" fill="none" xmlns="http://www.w3.org/2000/svg">
<path d="M10.9994 31.0277C10.9994 34.1832 12.0554 36.8943 14.1673 39.161C16.2794 41.4277 18.9122 42.6943 22.066 42.961L17.9327 38.8277L21.666 35.0943L32.3327 45.761L21.666 56.4277L17.9327 52.6943L22.1993 48.4277C17.5327 48.161 13.61 46.361 10.4314 43.0277C7.25268 39.6943 5.66424 35.7165 5.66602 31.0943C5.66602 26.2499 7.34424 22.1503 10.7007 18.7957C14.0571 15.441 18.1567 13.7628 22.9993 13.761H32.3327V19.0943H22.9993C19.666 19.0943 16.8331 20.2499 14.5007 22.561C12.1682 24.8721 11.0011 27.6943 10.9994 31.0277ZM37.666 48.4277V43.0943H58.9993V48.4277H37.666ZM37.666 33.761V28.4277H58.9993V33.761H37.666ZM37.666 19.0943V13.761H58.9993V19.0943H37.666Z" fill="white"/>
</svg>
