<svg width="64" height="65" viewBox="0 0 64 65" fill="none" xmlns="http://www.w3.org/2000/svg">
<path d="M15.9997 5.76074H47.9997V11.0941H15.9997V5.76074ZM10.6663 16.4274V11.0941H15.9997V16.4274H10.6663ZM10.6663 48.4274V16.4274H5.33301V48.4274H10.6663ZM15.9997 53.7607V48.4274H10.6663V53.7607H15.9997ZM47.9997 53.7607V59.0941H15.9997V53.7607H47.9997ZM53.333 48.4274V53.7607H47.9997V48.4274H53.333ZM53.333 16.4274H58.6663V48.4274H53.333V16.4274ZM53.333 16.4274V11.0941H47.9997V16.4274H53.333ZM29.333 13.7607H34.6663V19.0941H42.6663V24.4274H26.6663V29.7607H42.6663V45.7607H34.6663V51.0941H29.333V45.7607H21.333V40.4274H37.333V35.0941H21.333V19.0941H29.333V13.7607Z" fill="white"/>
</svg>
