<svg width="65" height="65" viewBox="0 0 65 65" fill="none" xmlns="http://www.w3.org/2000/svg">
<path d="M36.09 7.12896C33.6804 6.152 30.985 6.152 28.5753 7.12896L8.58068 15.2356C7.71944 15.5845 6.98194 16.1825 6.46268 16.9531C5.94341 17.7237 5.66601 18.6317 5.66602 19.561V45.3023C5.66654 46.2311 5.94419 47.1385 6.46342 47.9086C6.98265 48.6787 7.71986 49.2763 8.58068 49.625L28.5753 57.7316C28.9362 57.8792 29.3025 58.0036 29.674 58.105L29.666 57.7636V53.857L10.082 45.921C9.95893 45.871 9.85357 45.7854 9.77945 45.6752C9.70533 45.565 9.66583 45.4351 9.66602 45.3023V21.0943L30.3327 29.1316V41.5183C30.7291 40.7009 31.2885 39.9732 31.9763 39.3799C32.6642 38.7865 33.466 38.3399 34.3327 38.0676V29.1343L54.9994 21.1556V31.2303C56.1987 31.8423 57.2064 32.7727 57.9119 33.9195C58.6175 35.0663 58.9937 36.3852 58.9994 37.7316V19.561C58.9994 18.6317 58.722 17.7237 58.2027 16.9531C57.6834 16.1825 56.9459 15.5845 56.0847 15.2356L36.09 7.12896ZM30.0793 10.8356C31.5245 10.25 33.1409 10.25 34.586 10.8356L52.1674 17.9636L45.0473 20.7103L24.9753 12.9076L30.0793 10.8356ZM19.5727 15.0943L39.5114 22.849L32.338 25.6196L12.5727 17.9343L19.5727 15.0943ZM37.666 40.4303H36.3327C35.2718 40.4303 34.2544 40.8517 33.5043 41.6019C32.7541 42.352 32.3327 43.3694 32.3327 44.4303V48.4303H38.9994V47.7636C38.9994 47.2332 39.2101 46.7245 39.5851 46.3494C39.9602 45.9743 40.4689 45.7636 40.9994 45.7636C41.5298 45.7636 42.0385 45.9743 42.4136 46.3494C42.7886 46.7245 42.9994 47.2332 42.9994 47.7636V48.4303H50.9994V47.7636C50.9994 47.2332 51.2101 46.7245 51.5851 46.3494C51.9602 45.9743 52.4689 45.7636 52.9994 45.7636C53.5298 45.7636 54.0385 45.9743 54.4136 46.3494C54.7886 46.7245 54.9994 47.2332 54.9994 47.7636V48.4303H61.666V44.4303C61.666 43.3694 61.2446 42.352 60.4944 41.6019C59.7443 40.8517 58.7269 40.4303 57.666 40.4303H56.3327V37.7636C56.3327 36.526 55.841 35.339 54.9658 34.4638C54.0907 33.5886 52.9037 33.097 51.666 33.097H42.3327C41.095 33.097 39.908 33.5886 39.0329 34.4638C38.1577 35.339 37.666 36.526 37.666 37.7636V40.4303ZM41.666 37.7636C41.666 37.5868 41.7363 37.4172 41.8613 37.2922C41.9863 37.1672 42.1559 37.097 42.3327 37.097H51.666C51.8428 37.097 52.0124 37.1672 52.1374 37.2922C52.2624 37.4172 52.3327 37.5868 52.3327 37.7636V40.4303H41.666V37.7636ZM32.3327 57.7636V52.4303H38.9994V54.4303C38.9994 54.9607 39.2101 55.4694 39.5851 55.8445C39.9602 56.2196 40.4689 56.4303 40.9994 56.4303C41.5298 56.4303 42.0385 56.2196 42.4136 55.8445C42.7886 55.4694 42.9994 54.9607 42.9994 54.4303V52.4303H50.9994V54.4303C50.9994 54.9607 51.2101 55.4694 51.5851 55.8445C51.9602 56.2196 52.4689 56.4303 52.9994 56.4303C53.5298 56.4303 54.0385 56.2196 54.4136 55.8445C54.7886 55.4694 54.9994 54.9607 54.9994 54.4303V52.4303H61.666V57.7636C61.666 58.8245 61.2446 59.8419 60.4944 60.5921C59.7443 61.3422 58.7269 61.7636 57.666 61.7636H36.3327C35.2718 61.7636 34.2544 61.3422 33.5043 60.5921C32.7541 59.8419 32.3327 58.8245 32.3327 57.7636Z" fill="white"/>
</svg>
