<svg width="116" height="116" viewBox="0 0 116 116" fill="none" xmlns="http://www.w3.org/2000/svg">
<g filter="url(#filter0_d_3417_15988)">
<rect x="14.6045" y="0.59375" width="100.799" height="100.799" rx="50.3995" transform="rotate(8.06883 14.6045 0.59375)" fill="#FF532E"/>
<path fill-rule="evenodd" clip-rule="evenodd" d="M54.4289 28.1441C50.3897 29.6016 47.0637 30.8441 47.0653 30.9173C47.0399 31.096 55.4115 37.0116 55.7302 37.0446C55.8711 37.0646 56.9987 36.7139 58.2338 36.2812L60.4774 35.493L62.5862 37.0076L64.695 38.5222L68.6702 37.3474C74.6455 35.5809 75.2731 35.3781 75.191 35.2814C75.0922 35.1337 73.2282 33.751 68.1708 30.0558C65.7285 28.2751 63.3666 26.518 62.9124 26.174C62.4598 25.8181 62.0206 25.537 61.9384 25.5254C61.8562 25.5137 58.4682 26.6867 54.4289 28.1441ZM36.7031 34.481L32.4911 35.9747L31.2139 44.9838C30.5112 49.9412 29.9837 53.9995 30.0542 54.0095C30.1129 54.0178 32.1583 53.4447 34.6065 52.7342L39.0414 51.4422L40.3879 41.9446L42.2603 43.3527C43.7102 44.4456 45.1501 45.525 46.6001 46.618L49.0692 48.4632L50.3327 48.0832C51.1331 47.8441 51.9218 47.6034 52.7105 47.3627C53.3246 47.1701 54.8248 46.7264 56.048 46.3771C57.2713 46.0278 58.4023 45.6532 58.5718 45.5557C58.7933 45.4291 56.5455 43.7124 50.261 39.2111C45.5205 35.8161 41.4721 33.0297 41.2708 33.0133C41.0695 32.9969 39.0122 33.6535 36.7031 34.481ZM75.1556 40.5157C72.3164 41.3653 69.9839 42.1044 69.9755 42.164C69.967 42.2236 71.2979 43.3118 72.9272 44.5761C74.5682 45.842 75.8873 46.9285 75.8772 47C75.867 47.0715 74.1839 47.6231 72.1351 48.22C70.0846 48.8289 64.908 50.3683 60.619 51.6444L46.2754 55.9201C42.6627 56.9883 39.4107 57.9617 39.0483 58.0683C31.6818 60.2697 29.643 60.8803 29.3628 60.9986C29.0825 61.1169 28.8988 61.9904 28.2217 66.4287L27.4112 71.7233L30.6532 74.0307L33.8952 76.338L39.0718 74.7987C41.911 73.9491 44.2569 73.1997 44.2687 73.1163C44.2806 73.0329 43.8331 72.6413 43.2799 72.2346C42.7267 71.828 41.5835 70.9365 40.7337 70.2569C39.8957 69.5789 39.0508 68.9485 38.8614 68.8487C38.6719 68.7489 38.5227 68.6184 38.5346 68.535C38.5447 68.4635 40.8285 67.7296 43.614 66.9211C49.0121 65.3402 53.1383 64.1139 62.0049 61.4687C65.9683 60.2922 69.9334 59.1038 73.9086 57.929C77.3972 56.8919 81.4496 55.6794 82.9145 55.2307L85.5808 54.4174L86.3998 49.0631L87.2187 43.7089L83.9331 41.3711C82.1277 40.0819 80.567 39.0097 80.4849 38.998C80.3909 38.9847 77.9931 39.678 75.1556 40.5157ZM83.6245 61.4581C83.059 61.6453 81.9566 61.9875 81.1696 62.2163C80.3826 62.4451 78.8825 62.8888 77.8438 63.2035L75.9544 63.7745L75.2518 68.4766C74.8617 71.0592 74.4688 73.1551 74.3766 73.1299C74.1703 73.0642 71.0926 70.8652 68.0049 68.5676C65.7721 66.9139 65.628 66.8326 65.0238 67.0388C64.6714 67.159 62.584 67.7748 60.3875 68.3994C58.1894 69.036 56.3134 69.5967 56.2194 69.6684C56.127 69.7283 59.9589 72.6055 64.7498 76.0685L73.4397 82.3574L77.7541 80.8174C80.1253 79.9744 82.1541 79.1801 82.2549 79.0607C82.4967 78.791 84.9769 61.1271 84.7857 61.1243C84.7018 61.1246 84.1783 61.2691 83.6245 61.4581ZM58.4495 79.0288C57.7145 79.2286 56.9662 79.4385 56.2295 79.6501C53.9978 80.2698 54.4037 80.3638 52.082 78.7461C50.5347 77.6637 49.854 77.3119 49.5201 77.3861C49.2718 77.4481 47.134 78.0811 44.7579 78.7897C42.3936 79.5 40.3717 80.0764 40.2777 80.0631C39.3385 79.9299 40.7665 81.0927 46.3202 85.0042L52.831 89.5984L55.9992 88.5402C57.7344 87.9595 61.2532 86.793 63.7921 85.9495C66.3428 85.1076 68.3968 84.3898 68.3683 84.3371C68.3382 84.2964 66.4892 82.9767 64.258 81.3961L60.208 78.5366L58.4495 79.0288Z" fill="#131313"/>
</g>
<defs>
<filter id="filter0_d_3417_15988" x="0.456055" y="0.59375" width="121.906" height="121.149" filterUnits="userSpaceOnUse" color-interpolation-filters="sRGB">
<feFlood flood-opacity="0" result="BackgroundImageFix"/>
<feColorMatrix in="SourceAlpha" type="matrix" values="0 0 0 0 0 0 0 0 0 0 0 0 0 0 0 0 0 0 127 0" result="hardAlpha"/>
<feOffset dx="7.95684" dy="7.19993"/>
<feComposite in2="hardAlpha" operator="out"/>
<feColorMatrix type="matrix" values="0 0 0 0 0.366667 0 0 0 0 0.1357 0 0 0 0 0.0855556 0 0 0 1 0"/>
<feBlend mode="normal" in2="BackgroundImageFix" result="effect1_dropShadow_3417_15988"/>
<feBlend mode="normal" in="SourceGraphic" in2="effect1_dropShadow_3417_15988" result="shape"/>
</filter>
</defs>
</svg>
