<svg width="132" height="132" viewBox="0 0 132 132" fill="none" xmlns="http://www.w3.org/2000/svg">
<g filter="url(#filter0_d_3417_15977)">
<g clip-path="url(#clip0_3417_15977)">
<rect x="37.6494" y="0.764648" width="100.799" height="100.799" rx="50.3995" transform="rotate(21.6219 37.6494 0.764648)" fill="#FF532E"/>
<g clip-path="url(#clip1_3417_15977)">
<path fill-rule="evenodd" clip-rule="evenodd" d="M74.3965 59.6992C76.5644 59.5141 79.3944 59.0984 82.4221 58.192C82.5081 59.3945 82.2121 60.2967 81.6795 60.9089C81.3033 61.3399 80.7959 61.6435 80.2185 61.8161C79.5935 62.0022 78.8904 62.0394 78.1742 61.9263C76.815 61.7128 75.4231 60.9712 74.3965 59.6992ZM71.0445 69.072L72.8921 71.4059C66.9126 72.2088 63.5642 76.7735 60.0184 81.1067C60.4044 75.521 61.0924 69.9019 57.2869 65.2205L60.2317 64.7861C60.4983 64.7904 60.7593 64.7102 60.9775 64.557C61.1956 64.4039 61.3597 64.1856 61.4462 63.9334C63.0677 59.2017 65.1359 57.6448 67.3388 57.0257C68.1286 56.8042 68.8829 56.8348 69.5364 57.0938C70.1899 57.3529 70.7604 57.8474 71.1842 58.5499C72.3647 60.5101 72.8046 63.0611 70.7441 67.6188C70.6343 67.8618 70.6043 68.1332 70.6583 68.3942C70.7122 68.6553 70.8475 68.8925 71.0445 69.072ZM77.6592 36.6011C80.3995 37.7733 82.9631 39.4116 84.9583 41.4129C86.3396 42.7996 87.5169 44.3748 88.4728 46.0794C88.9045 46.8489 89.2308 47.5564 89.5804 48.3605C91.1167 49.0318 94.0791 48.2036 95.7778 47.0033C91.5954 52.2453 80.5043 55.9971 73.6901 56.414C73.6882 56.4121 73.6871 56.4101 73.6858 56.4082C72.9667 55.212 71.9629 54.3585 70.8029 53.8987C69.6428 53.4389 68.3271 53.373 66.9838 53.7517C66.9816 53.752 66.9793 53.7531 66.9766 53.753C62.2983 48.7808 56.7896 38.4493 57.3343 31.7654C57.7492 33.8035 59.3397 36.4363 60.9188 36.9999C61.7244 36.6539 62.4469 36.3619 63.2884 36.097C65.1525 35.5102 67.0893 35.1694 69.0456 35.1055C71.8702 35.0147 74.8601 35.5776 77.6592 36.6011ZM64.2112 55.6621C62.759 54.042 60.9821 51.8003 59.3978 49.0659C58.5113 49.8829 58.1088 50.7429 58.0771 51.5536C58.0561 52.1254 58.2178 52.6942 58.5199 53.2154C58.8478 53.7793 59.3346 54.2881 59.9337 54.6963C61.0701 55.472 62.5919 55.8853 64.2112 55.6621Z" fill="#131313"/>
<path fill-rule="evenodd" clip-rule="evenodd" d="M85.8319 56.9638C87.6093 56.1859 89.29 55.2112 90.691 54.3024L90.807 55.3433C91.1114 58.8686 90.714 62.1021 89.4067 65.4002L87.3292 70.6324L86.2814 73.3564C83.748 80.059 82.518 87.369 83.3382 94.8298L78.691 86.6148L70.7496 92.5418L67.5668 85.7497L54.2346 95.7002L51.34 79.318L44.3684 82.0853L42.6441 72.3271L33.6305 75.1274C39.3394 70.2544 43.4516 64.0869 46.1983 57.4688L47.3013 54.7667L49.3725 49.532C50.6799 46.2337 52.6054 43.606 55.2427 41.2469L56.0402 40.568C56.4381 42.1899 56.9945 44.0511 57.7563 45.8357L57.0334 46.5021C55.6292 47.7963 54.6652 49.4837 54.5911 51.4224C54.5436 52.6713 54.8772 53.8906 55.503 54.9686C56.1107 56.0154 56.9704 56.8994 57.9676 57.5799C58.6173 58.0232 59.3177 58.3773 60.0486 58.641C59.5016 59.5291 59.0355 60.4904 58.6308 61.4976L50.7127 62.6652L54.58 67.4229C54.889 67.8032 55.1662 68.2084 55.4085 68.6343C58.0488 73.9394 56.1977 85.804 55.7834 91.7934C59.5851 87.1467 66.365 77.2357 71.9231 75.1802C72.3914 75.0359 72.8709 74.9306 73.3566 74.8654L79.4332 74.0491L74.465 67.7739C74.8603 66.7628 75.1793 65.7433 75.3893 64.7216C76.1023 65.0302 76.8552 65.2522 77.6321 65.3744C78.8248 65.5618 80.0569 65.5069 81.2165 65.1606C82.4107 64.8041 83.4892 64.1445 84.3101 63.2022C85.5845 61.7392 86.0381 59.8497 85.9021 57.9448L85.832 56.9641L85.8319 56.9638Z" fill="#131313"/>
</g>
</g>
</g>
<defs>
<filter id="filter0_d_3417_15977" x="0.506836" y="0.764648" width="138.805" height="138.049" filterUnits="userSpaceOnUse" color-interpolation-filters="sRGB">
<feFlood flood-opacity="0" result="BackgroundImageFix"/>
<feColorMatrix in="SourceAlpha" type="matrix" values="0 0 0 0 0 0 0 0 0 0 0 0 0 0 0 0 0 0 127 0" result="hardAlpha"/>
<feOffset dx="7.95684" dy="7.19993"/>
<feComposite in2="hardAlpha" operator="out"/>
<feColorMatrix type="matrix" values="0 0 0 0 0.366667 0 0 0 0 0.1357 0 0 0 0 0.0855556 0 0 0 1 0"/>
<feBlend mode="normal" in2="BackgroundImageFix" result="effect1_dropShadow_3417_15977"/>
<feBlend mode="normal" in="SourceGraphic" in2="effect1_dropShadow_3417_15977" result="shape"/>
</filter>
<clipPath id="clip0_3417_15977">
<rect x="37.6494" y="0.764648" width="100.799" height="100.799" rx="50.3995" transform="rotate(21.6219 37.6494 0.764648)" fill="white"/>
</clipPath>
<clipPath id="clip1_3417_15977">
<rect width="53.47" height="63.6547" fill="white" transform="translate(52.8057 26.7498) rotate(21.6219)"/>
</clipPath>
</defs>
</svg>
