<svg width="145" height="145" viewBox="0 0 145 145" fill="none" xmlns="http://www.w3.org/2000/svg">
<g filter="url(#filter0_d_3417_15981)">
<rect x="0.200195" y="50.2188" width="106.804" height="106.804" rx="53.4022" transform="rotate(-27.9405 0.200195 50.2188)" fill="#FF532E"/>
<path d="M98.7366 66.3499C97.9908 67.6107 96.768 68.4165 95.4937 68.3845C93.8765 68.2984 92.2615 67.0312 91.0568 64.7599L87.3776 57.823C85.6194 54.5081 83.0618 52.797 80.5283 53.3541C76.2013 54.2333 75.8221 60.3336 75.6912 62.6054L74.7004 76.7385L67.7654 63.6628C66.1086 60.6874 64.1832 59.4276 62.0503 59.8509C60.6284 60.1331 58.8862 61.2931 58.5403 64.9374L56.3279 96.4722C52.3793 93.7684 49.1227 90.147 46.8762 85.9113C39.29 71.6078 44.6047 53.9229 58.6489 46.4742C72.693 39.0255 90.315 44.5453 97.9012 58.8487L97.9338 58.91L97.9664 58.9714C99.5542 61.6688 99.8677 64.3342 98.7366 66.3499ZM103.543 55.8562L103.511 55.7948L103.478 55.7334C94.2028 38.3931 72.6989 31.6287 55.5883 40.7037C38.4164 49.8113 31.9547 71.4082 41.234 88.9038C50.4807 106.338 72.0172 113.164 89.1891 104.056C97.1004 99.8602 102.987 92.8838 105.854 84.3627C106.433 82.6397 105.551 80.827 103.828 80.2461C102.167 79.6327 100.356 80.5146 99.744 82.1762C99.744 82.1762 99.744 82.1762 99.7152 82.2701C97.3985 89.1621 92.4779 94.9968 86.0385 98.4121C78.4951 102.413 69.9908 102.676 62.5298 99.8687L64.5075 71.4473L69.7495 81.3308C72.2565 86.0576 74.9104 86.6165 76.6715 86.2331C78.4326 85.8496 80.6003 84.3066 80.9984 78.9828L82.0126 63.2642C82.0626 62.7657 82.0512 62.2998 82.1663 61.9242L85.357 67.9402C87.7013 72.3601 91.3682 74.9773 95.3463 75.0698C98.9526 75.2022 102.351 73.164 104.289 69.855C106.609 65.6356 106.361 60.5757 103.543 55.8562Z" fill="#131313"/>
</g>
<defs>
<filter id="filter0_d_3417_15981" x="0.200195" y="0.175049" width="152.829" height="152.027" filterUnits="userSpaceOnUse" color-interpolation-filters="sRGB">
<feFlood flood-opacity="0" result="BackgroundImageFix"/>
<feColorMatrix in="SourceAlpha" type="matrix" values="0 0 0 0 0 0 0 0 0 0 0 0 0 0 0 0 0 0 127 0" result="hardAlpha"/>
<feOffset dx="8.43089" dy="7.62888"/>
<feComposite in2="hardAlpha" operator="out"/>
<feColorMatrix type="matrix" values="0 0 0 0 0.366667 0 0 0 0 0.1357 0 0 0 0 0.0855556 0 0 0 1 0"/>
<feBlend mode="normal" in2="BackgroundImageFix" result="effect1_dropShadow_3417_15981"/>
<feBlend mode="normal" in="SourceGraphic" in2="effect1_dropShadow_3417_15981" result="shape"/>
</filter>
</defs>
</svg>
