<svg width="123" height="123" viewBox="0 0 123 123" fill="none" xmlns="http://www.w3.org/2000/svg">
<g filter="url(#filter0_d_3417_15984)">
<rect x="30.2041" y="0.367188" width="97.1879" height="97.1879" rx="48.5939" transform="rotate(17.5707 30.2041 0.367188)" fill="#FF532E"/>
<path d="M45.4767 54.6129C45.5786 54.2913 45.743 53.9931 45.9605 53.7352C46.1779 53.4773 46.4442 53.265 46.7439 53.1103C47.0438 52.9557 47.3711 52.8617 47.7073 52.8339C48.0434 52.8061 48.3818 52.845 48.7029 52.9484L52.766 54.2496C53.4144 54.4549 53.9548 54.9095 54.2681 55.5132C54.5815 56.1169 54.6422 56.8204 54.4368 57.4689L49.567 72.8479C50.0679 72.857 50.7019 72.8983 51.3933 72.9506C51.8735 72.9872 52.352 72.8603 52.7511 72.5907C53.1501 72.3211 53.4464 71.9246 53.5916 71.4654L59.6325 52.3885C59.8378 51.7399 60.2924 51.1995 60.8961 50.8861C61.4999 50.5726 62.2034 50.5119 62.852 50.7171L66.9273 52.0076C67.5758 52.2131 68.1161 52.6677 68.4294 53.2715C68.7427 53.8754 68.8034 54.5789 68.598 55.2275L62.9916 72.9327C62.9916 72.9327 64.1427 72.8429 65.2694 72.7381C65.688 72.6989 66.0858 72.5373 66.4132 72.2734C66.7407 72.0096 66.9831 71.6551 67.1104 71.2544L73.7941 50.1471C73.9995 49.4987 74.4539 48.9584 75.0575 48.645C75.6612 48.3317 76.3645 48.2709 77.013 48.4761L81.0884 49.7666C81.7369 49.972 82.2772 50.4265 82.5906 51.0302C82.9039 51.634 82.9646 52.3375 82.7592 52.986L77.2553 70.3674C81.5993 68.9255 86.155 66.9797 90.1691 64.1763C90.7517 63.7694 91.2243 63.2246 91.5449 62.5905C91.8655 61.9565 92.0242 61.2529 92.0069 60.5426C91.8898 56.3418 90.8976 52.2118 89.0928 48.4167C87.288 44.6216 84.7109 41.245 81.5264 38.5031C78.3418 35.7611 74.6199 33.7142 70.5988 32.4932C66.5777 31.2723 62.346 30.9042 58.1746 31.4126C54.0031 31.921 49.9837 33.2946 46.3735 35.4455C42.7634 37.5964 39.642 40.4774 37.2092 43.9039C34.7763 47.3304 33.0856 51.2271 32.2452 55.3445C31.4048 59.462 31.4332 63.7095 32.3286 67.8154C32.4864 68.5247 32.8434 69.1743 33.3576 69.6878C33.8718 70.2013 34.5219 70.5574 35.2314 70.7143C36.0237 70.8907 37.0139 71.0985 38.1975 71.3258C38.7121 71.4267 39.2458 71.3348 39.6969 71.0675C40.1481 70.8002 40.4852 70.3763 40.6439 69.8765L45.4767 54.6129Z" fill="#131313"/>
<path d="M37.5769 79.2518C40.8829 83.7371 45.3654 87.2206 50.5284 89.3165C55.6916 91.412 61.3337 92.039 66.8308 91.1269C72.328 90.2148 77.4654 87.8 81.6753 84.1494C85.8848 80.4986 89.0026 75.7544 90.6833 70.4417C90.8932 69.7788 91.0701 69.1133 91.2325 68.4473C75.7435 80.8065 53.9958 81.991 37.5785 79.2497" fill="#131313"/>
</g>
<defs>
<filter id="filter0_d_3417_15984" x="0.865234" y="0.367188" width="129.664" height="128.935" filterUnits="userSpaceOnUse" color-interpolation-filters="sRGB">
<feFlood flood-opacity="0" result="BackgroundImageFix"/>
<feColorMatrix in="SourceAlpha" type="matrix" values="0 0 0 0 0 0 0 0 0 0 0 0 0 0 0 0 0 0 127 0" result="hardAlpha"/>
<feOffset dx="7.67179" dy="6.94199"/>
<feComposite in2="hardAlpha" operator="out"/>
<feColorMatrix type="matrix" values="0 0 0 0 0.366667 0 0 0 0 0.1357 0 0 0 0 0.0855556 0 0 0 1 0"/>
<feBlend mode="normal" in2="BackgroundImageFix" result="effect1_dropShadow_3417_15984"/>
<feBlend mode="normal" in="SourceGraphic" in2="effect1_dropShadow_3417_15984" result="shape"/>
</filter>
</defs>
</svg>
