<svg width="111" height="111" viewBox="0 0 111 111" fill="none" xmlns="http://www.w3.org/2000/svg">
<g filter="url(#filter0_d_3417_15968)">
<rect x="0.626953" y="23.377" width="89.7272" height="89.7272" rx="44.8636" transform="rotate(-14.7611 0.626953 23.377)" fill="#FF532E"/>
<path d="M66.4836 33.2312C64.0896 33.1889 61.5341 32.875 58.9366 32.5722C58.6557 32.0179 57.9212 31.4486 56.6269 30.8024C54.7596 29.8585 51.8699 30.6648 49.5442 31.9058C46.6457 31.9964 43.8467 32.4646 41.406 33.7808C23.2577 44.3304 35.1105 54.5401 34.0568 68.8742C33.873 71.3746 34.4616 73.8976 36.5972 75.211C40.9046 77.8601 48.9665 81.3053 58.1313 80.0429C63.04 79.3668 64.339 73.3587 63.5967 68.4595C62.9479 64.1777 63.7895 58.9298 69.1219 54.165C78.5512 45.7573 83.6511 33.3746 66.4836 33.2312Z" fill="#131313"/>
<path d="M49.5452 31.905C51.1339 31.621 57.2428 31.941 58.9375 32.5714C56.8007 29.4099 52.6431 30.0118 49.5452 31.905Z" fill="#131313"/>
<path d="M71.5967 41.8901C71.8953 43.023 70.6627 43.976 69.6538 43.3893C68.645 42.8025 68.8267 41.2738 69.9507 40.9327C70.6765 40.7864 71.4088 41.1768 71.5967 41.8901ZM53.3475 40.3713C53.9777 42.7631 53.0812 45.3327 51.0962 46.8429C49.1113 48.3532 46.4141 48.5254 44.2371 47.2591C42.0601 45.9929 40.8812 43.5663 41.2202 41.0987C41.5591 38.6311 43.3583 36.5864 45.7546 35.955C47.3522 35.5341 49.0315 35.7647 50.4121 36.5677C51.8988 37.4324 52.9274 38.7769 53.3475 40.3713Z" fill="#FF532E"/>
<path d="M50.9837 41.1117C51.361 42.5433 50.8492 44.0944 49.628 44.9903C48.4427 45.8767 46.8253 45.9967 45.5119 45.2327C44.1985 44.4688 43.5155 43.0412 43.695 41.5394C43.884 40.0734 44.9751 38.8291 46.4095 38.4511C48.427 37.9578 50.4651 39.1432 50.9837 41.1117Z" fill="#131313"/>
<path d="M50.5188 38.9964C50.7568 39.8997 50.434 40.8782 49.6635 41.4435C48.9156 42.0028 47.8952 42.0784 47.0665 41.5965C46.2379 41.1145 45.807 40.2138 45.9203 39.2663C46.0395 38.3413 46.7279 37.5563 47.6328 37.3178C48.9058 37.0066 50.1916 37.7545 50.5188 38.9964Z" fill="#FF532E"/>
<path d="M76.9744 43.5266C75.8258 45.3101 74.3254 46.7823 72.7498 48.1398C71.1322 49.5084 69.4172 50.6782 67.585 51.7443C65.7418 52.7685 63.7812 53.6889 61.677 54.0639C59.5307 54.4499 57.2407 54.2904 55.4443 53.1034L55.5063 52.9974C57.4754 53.6452 59.5508 53.5023 61.5068 53.0766C63.4938 52.598 65.4366 51.9515 67.2709 51.0643C69.0943 50.1351 70.8734 49.0381 72.5242 47.7954C74.175 46.5527 75.7506 45.1953 77.0165 43.5155L76.9744 43.5266Z" fill="#FF532E"/>
</g>
<defs>
<filter id="filter0_d_3417_15968" x="0.626953" y="0.515381" width="116.71" height="116.037" filterUnits="userSpaceOnUse" color-interpolation-filters="sRGB">
<feFlood flood-opacity="0" result="BackgroundImageFix"/>
<feColorMatrix in="SourceAlpha" type="matrix" values="0 0 0 0 0 0 0 0 0 0 0 0 0 0 0 0 0 0 127 0" result="hardAlpha"/>
<feOffset dx="7.08286" dy="6.40908"/>
<feComposite in2="hardAlpha" operator="out"/>
<feColorMatrix type="matrix" values="0 0 0 0 0.366667 0 0 0 0 0.1357 0 0 0 0 0.0855556 0 0 0 1 0"/>
<feBlend mode="normal" in2="BackgroundImageFix" result="effect1_dropShadow_3417_15968"/>
<feBlend mode="normal" in="SourceGraphic" in2="effect1_dropShadow_3417_15968" result="shape"/>
</filter>
</defs>
</svg>
