<svg width="1107" height="1107" viewBox="0 0 1107 1107" fill="none" xmlns="http://www.w3.org/2000/svg">
<path d="M782.098 658.132C734.194 762.791 674.958 850.16 617.994 906.826C589.505 935.166 561.679 955.731 536.217 966.985C510.751 978.241 487.925 980.076 469.121 971.469C450.317 962.862 436.787 944.387 428.663 917.756C420.539 891.129 417.918 856.627 420.748 816.543C426.406 736.394 453.818 634.458 501.722 529.8C549.626 425.142 608.861 337.773 665.826 281.107C694.314 252.767 722.14 232.202 747.603 220.947C773.069 209.691 795.894 207.857 814.699 216.464C833.503 225.071 847.033 243.546 855.157 270.177C863.281 296.804 865.902 331.305 863.072 371.39C857.413 451.539 830.001 553.474 782.098 658.132Z" stroke="url(#paint0_linear_3417_15957)" stroke-width="4.8416"/>
<path d="M624.252 398.924C728.91 446.828 816.279 506.063 872.945 563.028C901.285 591.517 921.85 619.343 933.105 644.805C944.361 670.271 946.195 693.097 937.588 711.901C928.981 730.705 910.506 744.235 883.875 752.359C857.248 760.483 822.747 763.104 782.662 760.274C702.513 754.615 600.578 727.203 495.92 679.3C391.261 631.396 303.892 572.16 247.226 515.196C218.886 486.707 198.321 458.881 187.067 433.419C175.811 407.953 173.976 385.127 182.583 366.323C191.19 347.519 209.665 333.989 236.296 325.865C262.923 317.741 297.425 315.12 337.509 317.95C417.658 323.608 519.594 351.021 624.252 398.924Z" stroke="url(#paint1_linear_3417_15957)" stroke-width="4.8416"/>
<path d="M786.392 539.317C826.523 647.194 846.417 750.859 846.206 831.208C846.101 871.392 840.966 905.61 830.92 931.573C820.872 957.539 806.029 974.976 786.646 982.187C767.264 989.397 744.633 985.901 720.057 972.815C695.485 959.73 669.235 937.188 642.892 906.843C590.219 846.167 537.523 754.705 497.392 646.827C457.26 538.95 437.367 435.285 437.578 354.936C437.683 314.752 442.817 280.534 452.864 254.572C462.912 228.605 477.755 211.168 497.138 203.957C516.52 196.747 539.151 200.244 563.727 213.33C588.299 226.414 614.549 248.957 640.891 279.301C693.565 339.977 746.26 431.439 786.392 539.317Z" stroke="url(#paint2_linear_3417_15957)" stroke-width="4.8416"/>
<path d="M170.981 683.878C163.771 664.496 167.268 641.865 180.354 617.289C193.438 592.717 215.98 566.467 246.325 540.124C307.001 487.451 398.463 434.755 506.341 394.624C614.218 354.492 717.883 334.599 798.232 334.81C838.416 334.915 872.634 340.049 898.597 350.096C924.563 360.144 942 374.987 949.211 394.369C956.421 413.752 952.924 436.383 939.839 460.959C926.754 485.531 904.212 511.781 873.867 538.123C813.191 590.797 721.729 643.492 613.851 683.624C505.974 723.755 402.309 743.649 321.96 743.438C281.776 743.333 247.558 738.198 221.595 728.152C195.629 718.104 178.192 703.261 170.981 683.878Z" stroke="url(#paint3_linear_3417_15957)" stroke-width="4.8416"/>
<defs>
<linearGradient id="paint0_linear_3417_15957" x1="815.706" y1="214.263" x2="625.318" y2="345.858" gradientUnits="userSpaceOnUse">
<stop stop-color="white"/>
<stop offset="1" stop-color="white" stop-opacity="0"/>
</linearGradient>
<linearGradient id="paint1_linear_3417_15957" x1="180.382" y1="365.316" x2="939.789" y2="712.908" gradientUnits="userSpaceOnUse">
<stop stop-color="white"/>
<stop offset="1" stop-color="white" stop-opacity="0"/>
</linearGradient>
<linearGradient id="paint2_linear_3417_15957" x1="496.293" y1="201.689" x2="400.069" y2="339.555" gradientUnits="userSpaceOnUse">
<stop stop-color="white"/>
<stop offset="1" stop-color="white" stop-opacity="0"/>
</linearGradient>
<linearGradient id="paint3_linear_3417_15957" x1="488.739" y1="365.61" x2="549.232" y2="645.145" gradientUnits="userSpaceOnUse">
<stop stop-color="white"/>
<stop offset="1" stop-color="white" stop-opacity="0"/>
</linearGradient>
</defs>
</svg>
