<svg width="283" height="18" viewBox="0 0 283 18" fill="none" xmlns="http://www.w3.org/2000/svg">
<g opacity="0.2" clip-path="url(#clip0_7_5046)">
<path d="M0.765991 17.7886V0" stroke="white" stroke-width="1.04808" stroke-miterlimit="10"/>
<path d="M14.8417 17.7888V8.89453" stroke="white" stroke-width="1.04808" stroke-miterlimit="10"/>
<path d="M28.9171 17.7888V8.89453" stroke="white" stroke-width="1.04808" stroke-miterlimit="10"/>
<path d="M42.9924 17.7888V8.89453" stroke="white" stroke-width="1.04808" stroke-miterlimit="10"/>
<path d="M57.0532 17.7888V8.89453" stroke="white" stroke-width="1.04808" stroke-miterlimit="10"/>
<path d="M71.129 17.7886V0" stroke="white" stroke-width="1.04808" stroke-miterlimit="10"/>
<path d="M85.2048 17.7888V8.89453" stroke="white" stroke-width="1.04808" stroke-miterlimit="10"/>
<path d="M99.2802 17.7888V8.89453" stroke="white" stroke-width="1.04808" stroke-miterlimit="10"/>
<path d="M113.356 17.7888V8.89453" stroke="white" stroke-width="1.04808" stroke-miterlimit="10"/>
<path d="M127.432 17.7888V8.89453" stroke="white" stroke-width="1.04808" stroke-miterlimit="10"/>
<path d="M141.508 17.7886V0" stroke="white" stroke-width="1.04808" stroke-miterlimit="10"/>
<path d="M155.568 17.7888V8.89453" stroke="white" stroke-width="1.04808" stroke-miterlimit="10"/>
<path d="M169.644 17.7888V8.89453" stroke="white" stroke-width="1.04808" stroke-miterlimit="10"/>
<path d="M183.72 17.7888V8.89453" stroke="white" stroke-width="1.04808" stroke-miterlimit="10"/>
<path d="M197.795 17.7888V8.89453" stroke="white" stroke-width="1.04808" stroke-miterlimit="10"/>
<path d="M211.871 17.7886V0" stroke="white" stroke-width="1.04808" stroke-miterlimit="10"/>
<path d="M225.947 17.7888V8.89453" stroke="white" stroke-width="1.04808" stroke-miterlimit="10"/>
<path d="M240.022 17.7888V8.89453" stroke="white" stroke-width="1.04808" stroke-miterlimit="10"/>
<path d="M254.098 17.7888V8.89453" stroke="white" stroke-width="1.04808" stroke-miterlimit="10"/>
<path d="M268.159 17.7888V8.89453" stroke="white" stroke-width="1.04808" stroke-miterlimit="10"/>
<path d="M282.234 17.7886V0" stroke="white" stroke-width="1.04808" stroke-miterlimit="10"/>
</g>
<defs>
<clipPath id="clip0_7_5046">
<rect width="283" height="17.7886" fill="white"/>
</clipPath>
</defs>
</svg>
