<svg width="190" height="189" viewBox="0 0 190 189" fill="none" xmlns="http://www.w3.org/2000/svg">
<g filter="url(#filter0_f_7_7606)">
<circle cx="95.2816" cy="94.959" r="9.11884" transform="rotate(-48.673 95.2816 94.959)" fill="white"/>
</g>
<circle cx="95.2829" cy="94.9586" r="11.0794" transform="rotate(-48.673 95.2829 94.9586)" fill="white"/>
<path d="M145.729 94.46C145.729 92.9184 144.48 91.6651 142.934 91.6651L131.091 91.6651C129.733 91.6651 128.551 90.6917 128.346 89.3507C127.749 85.432 126.474 81.7348 124.632 78.3884L120.467 82.5536C122.184 86.1631 123.174 90.1862 123.174 94.4558C123.174 98.7254 122.184 102.748 120.467 106.358L124.632 110.523C126.474 107.177 127.749 103.484 128.346 99.5609C128.551 98.2199 129.733 97.2464 131.091 97.2464L142.934 97.2464C144.476 97.2464 145.729 95.9973 145.729 94.4516L145.729 94.46Z" fill="white"/>
<path d="M107.684 119.53C104.075 121.247 100.052 122.237 95.7822 122.237C91.5126 122.237 87.4895 121.247 83.88 119.53L79.7148 123.695C83.0612 125.537 86.7542 126.811 90.6771 127.409C92.0181 127.614 92.9915 128.796 92.9915 130.154L92.9915 141.997C92.9915 143.539 94.2406 144.792 95.7864 144.792C97.3321 144.792 98.5812 143.543 98.5812 141.997L98.5812 130.154C98.5812 128.796 99.5546 127.614 100.896 127.409C104.814 126.811 108.512 125.537 111.854 123.695L107.689 119.53L107.684 119.53Z" fill="white"/>
<path d="M69.4477 106.358C67.7307 102.749 66.7406 98.7256 66.7406 94.456C66.7406 90.1822 67.7307 86.1633 69.4477 82.5538L65.2826 78.3887C63.4402 81.735 62.1701 85.4322 61.5685 89.3509C61.3638 90.6919 60.1816 91.6654 58.8239 91.6654L46.9843 91.6654C45.4427 91.6654 44.1895 92.9145 44.1895 94.4602C44.1895 96.0059 45.4386 97.255 46.9843 97.255L58.8239 97.255C60.1816 97.255 61.3638 98.2285 61.5685 99.5695C62.166 103.492 63.4402 107.185 65.2826 110.532L69.4477 106.367L69.4477 106.358Z" fill="white"/>
<path d="M83.8822 69.3903C87.4917 67.6733 91.5148 66.6832 95.7844 66.6832C100.054 66.6832 104.077 67.6733 107.687 69.3903L111.852 65.2252C108.505 63.3828 104.812 62.1128 100.894 61.5112C99.5527 61.3065 98.5793 60.1243 98.5793 58.7665L98.5793 46.9269C98.5793 45.3854 97.3302 44.1321 95.7844 44.1321C94.2387 44.1321 92.9896 45.3812 92.9896 46.9269L92.9896 58.7665C92.9896 60.1243 92.0162 61.3065 90.6751 61.5112C86.7523 62.1128 83.0592 63.3828 79.7129 65.2252L83.878 69.3903L83.8822 69.3903Z" fill="white"/>
<defs>
<filter id="filter0_f_7_7606" x="70.9631" y="70.6401" width="48.6373" height="48.6378" filterUnits="userSpaceOnUse" color-interpolation-filters="sRGB">
<feFlood flood-opacity="0" result="BackgroundImageFix"/>
<feBlend mode="normal" in="SourceGraphic" in2="BackgroundImageFix" result="shape"/>
<feGaussianBlur stdDeviation="7.6" result="effect1_foregroundBlur_7_7606"/>
</filter>
</defs>
</svg>
