<svg width="65" height="65" viewBox="0 0 65 65" fill="none" xmlns="http://www.w3.org/2000/svg">
<path d="M51.3518 13.2962C51.2151 12.9409 50.9743 12.6354 50.6612 12.42C50.348 12.2045 49.9771 12.0892 49.5973 12.0892C49.2175 12.0892 48.8466 12.2045 48.5334 12.42C48.2202 12.6354 47.9795 12.9409 47.8428 13.2962C46.3948 17.0672 43.6417 18.6793 41.135 18.6793C38.6283 18.6793 35.8734 17.0672 34.4273 13.3C34.2906 12.9447 34.0498 12.6392 33.7366 12.4238C33.4235 12.2083 33.0526 12.093 32.6728 12.093C32.293 12.093 31.9221 12.2083 31.6089 12.4238C31.2957 12.6392 31.0549 12.9447 30.9182 13.3C29.4703 17.0653 26.7172 18.6811 24.2105 18.6811C21.7038 18.6811 18.9488 17.0653 17.5027 13.3C17.3661 12.9447 17.1253 12.6392 16.8121 12.4238C16.4989 12.2083 16.128 12.093 15.7482 12.093C15.3684 12.093 14.9975 12.2083 14.6843 12.4238C14.3712 12.6392 14.1304 12.9447 13.9937 13.3C12.495 17.2067 9.74941 18.6887 8.22621 18.6887C7.72747 18.6887 7.24915 18.8873 6.89649 19.2409C6.54383 19.5945 6.3457 20.0741 6.3457 20.5742C6.3457 21.0742 6.54383 21.5538 6.89649 21.9074C7.24915 22.261 7.72747 22.4597 8.22621 22.4597C10.8777 22.4597 13.7173 20.8193 15.7614 17.9345C17.9052 20.8683 20.9892 22.4521 24.2105 22.4521C27.4393 22.4521 30.5271 20.8627 32.6728 17.9156C34.8184 20.8627 37.9062 22.4521 41.135 22.4502C44.3582 22.4502 47.4403 20.8664 49.586 17.9307C51.6301 20.8118 54.4697 22.4502 57.1193 22.4502C57.618 22.4502 58.0964 22.2516 58.449 21.898C58.8017 21.5444 58.9998 21.0648 58.9998 20.5648C58.9998 20.0647 58.8017 19.5851 58.449 19.2315C58.0964 18.8779 57.618 18.6793 57.1193 18.6793C55.5942 18.6793 52.8506 17.1973 51.3518 13.2962ZM49.5973 27.1734C49.9771 27.1734 50.3479 27.2887 50.6611 27.5041C50.9743 27.7194 51.2151 28.0249 51.3518 28.3801C52.8506 32.2831 55.5942 33.7632 57.1193 33.7632C57.618 33.7632 58.0964 33.9618 58.449 34.3154C58.8017 34.669 58.9998 35.1486 58.9998 35.6487C58.9998 36.1488 58.8017 36.6283 58.449 36.9819C58.0964 37.3355 57.618 37.5342 57.1193 37.5342C54.4697 37.5342 51.6301 35.8957 49.586 33.0147C47.4403 35.9504 44.3582 37.5342 41.135 37.5342C37.9062 37.5342 34.8184 35.9466 32.6728 32.9996C30.5271 35.9466 27.4393 37.5361 24.2105 37.5361C20.9873 37.5361 17.907 35.9523 15.7614 33.0184C13.7173 35.9032 10.8758 37.5436 8.22621 37.5436C7.72747 37.5436 7.24915 37.345 6.89649 36.9914C6.54383 36.6378 6.3457 36.1582 6.3457 35.6581C6.3457 35.1581 6.54383 34.6785 6.89649 34.3249C7.24915 33.9713 7.72747 33.7726 8.22621 33.7726C9.74941 33.7726 12.495 32.2925 13.9937 28.3839C14.1304 28.0286 14.3712 27.7231 14.6843 27.5077C14.9975 27.2922 15.3684 27.1769 15.7482 27.1769C16.128 27.1769 16.4989 27.2922 16.8121 27.5077C17.1253 27.7231 17.3661 28.0286 17.5027 28.3839C18.9507 32.1511 21.7038 33.7651 24.2105 33.7651C26.7172 33.7651 29.4721 32.1511 30.9182 28.3839C31.0549 28.0286 31.2957 27.7231 31.6089 27.5077C31.9221 27.2922 32.293 27.1769 32.6728 27.1769C33.0526 27.1769 33.4235 27.2922 33.7366 27.5077C34.0498 27.7231 34.2906 28.0286 34.4273 28.3839C35.8753 32.1511 38.6283 33.7651 41.135 33.7632C43.6417 33.7613 46.3967 32.1492 47.8428 28.382C47.9792 28.0264 48.2199 27.7206 48.5331 27.5048C48.8463 27.2891 49.2173 27.1735 49.5973 27.1734ZM49.5973 42.2573C49.9771 42.2573 50.3479 42.3726 50.6611 42.588C50.9743 42.8034 51.2151 43.1088 51.3518 43.464C52.8506 47.367 55.5942 48.8471 57.1193 48.8471C57.618 48.8471 58.0964 49.0458 58.449 49.3994C58.8017 49.753 58.9998 50.2326 58.9998 50.7326C58.9998 51.2327 58.8017 51.7123 58.449 52.0659C58.0964 52.4195 57.618 52.6181 57.1193 52.6181C54.4697 52.6181 51.6301 50.9796 49.586 48.0986C47.4403 51.0343 44.3582 52.6181 41.135 52.6181C37.9062 52.6181 34.8184 51.0305 32.6728 48.0835C30.5271 51.0305 27.4393 52.62 24.2105 52.62C20.9873 52.62 17.907 51.0362 15.7614 48.1024C13.7173 50.9872 10.8758 52.6275 8.22621 52.6275C7.72747 52.6275 7.24915 52.4289 6.89649 52.0753C6.54383 51.7217 6.3457 51.2421 6.3457 50.742C6.3457 50.242 6.54383 49.7624 6.89649 49.4088C7.24915 49.0552 7.72747 48.8566 8.22621 48.8566C9.74941 48.8566 12.495 47.3764 13.9937 43.4678C14.1304 43.1125 14.3712 42.8071 14.6843 42.5916C14.9975 42.3762 15.3684 42.2609 15.7482 42.2609C16.128 42.2609 16.4989 42.3762 16.8121 42.5916C17.1253 42.8071 17.3661 43.1125 17.5027 43.4678C18.9507 47.235 21.7038 48.849 24.2105 48.849C26.7172 48.849 29.4721 47.235 30.9182 43.4678C31.0549 43.1125 31.2957 42.8071 31.6089 42.5916C31.9221 42.3762 32.293 42.2609 32.6728 42.2609C33.0526 42.2609 33.4235 42.3762 33.7366 42.5916C34.0498 42.8071 34.2906 43.1125 34.4273 43.4678C35.8753 47.235 38.6283 48.849 41.135 48.8471C43.6417 48.8452 46.3967 47.2332 47.8428 43.4659C47.9792 43.1103 48.2199 42.8045 48.5331 42.5888C48.8463 42.373 49.2173 42.2575 49.5973 42.2573Z" fill="white"/>
</svg>
