<svg width="65" height="65" viewBox="0 0 65 65" fill="none" xmlns="http://www.w3.org/2000/svg">
<path d="M40.0566 32.864L42.9433 29.2936V28.7923L40.0566 25.2371H42.3812L44.3715 27.9262L46.3466 25.2371H48.6712L45.7845 28.7923V29.2936L48.6712 32.864H46.3466L44.3715 30.1596L42.3812 32.864H40.0566Z" fill="white"/>
<path d="M31.0117 30.7674C31.0117 30.1091 31.2295 29.5874 31.665 29.2025C32.1107 28.8177 32.84 28.5644 33.8528 28.4429L36.4964 28.1238C36.4661 27.1717 35.8786 26.6957 34.734 26.6957C34.1972 26.6957 33.7667 26.8172 33.4426 27.0603C33.1286 27.2933 32.9716 27.6478 32.9716 28.1238H31.1181C31.1181 27.2224 31.4523 26.4931 32.1208 25.936C32.7893 25.3688 33.6604 25.0852 34.734 25.0852C35.8381 25.0852 36.7345 25.3891 37.4232 25.9968C38.112 26.5944 38.4564 27.4553 38.4564 28.5796V31.1625H39.5655V32.8641H38.0158C37.6815 32.8641 37.4232 32.7729 37.2409 32.5906C37.0687 32.4083 36.9826 32.1551 36.9826 31.831V31.5727L37.2865 30.7067H36.7699C36.4053 32.2462 35.3823 33.016 33.7009 33.016C33.154 33.016 32.688 32.9401 32.3031 32.7881C31.9284 32.6362 31.6549 32.4336 31.4827 32.1804C31.3105 31.9272 31.189 31.6892 31.1181 31.4663C31.0472 31.2334 31.0117 31.0004 31.0117 30.7674ZM32.9716 30.4332C32.9716 30.7269 33.0679 30.9498 33.2603 31.1017C33.4629 31.2435 33.7262 31.3144 34.0503 31.3144C34.7897 31.3144 35.3823 31.1321 35.8279 30.7674C36.2736 30.3927 36.4964 29.9065 36.4964 29.3089L34.2023 29.5976C33.7667 29.6482 33.4527 29.7343 33.2603 29.8559C33.0679 29.9673 32.9716 30.1597 32.9716 30.4332Z" fill="white"/>
<path d="M17.2402 32.864V22.1528H21.1145L23.2719 32.3626H23.7733L25.9307 22.1528H29.805V32.864H27.845V23.9304L28.2097 22.6542H27.6931L25.4445 32.864H21.6159L19.3521 22.6542H18.8507L19.2001 23.9304V32.864H17.2402Z" fill="white"/>
<path d="M17.8338 46.1414L8.92969 52.6885V10.6416H56.1297V45.7527H19.0186H18.3624L17.8338 46.1414Z" stroke="white" stroke-width="4"/>
</svg>
