<svg width="64" height="65" viewBox="0 0 64 65" fill="none" xmlns="http://www.w3.org/2000/svg">
<path d="M22.5757 30.6147C25.597 27.5933 30.8663 27.5933 33.8877 30.6147L35.773 32.5L39.5437 28.7293L37.6583 26.844C35.1437 24.3267 31.7943 22.9373 28.2317 22.9373C24.669 22.9373 21.3197 24.3267 18.805 26.844L13.1463 32.5C10.6511 35.0032 9.25 38.3935 9.25 41.928C9.25 45.4624 10.6511 48.8527 13.1463 51.356C14.3833 52.5948 15.8529 53.5769 17.4707 54.2459C19.0884 54.915 20.8224 55.2578 22.573 55.2547C24.3241 55.2583 26.0586 54.9157 27.6769 54.2467C29.2951 53.5776 30.7651 52.5952 32.0023 51.356L33.8877 49.4707L30.117 45.7L28.2317 47.5853C26.7289 49.0813 24.6948 49.9212 22.5743 49.9212C20.4539 49.9212 18.4198 49.0813 16.917 47.5853C15.4197 46.0833 14.5789 44.0489 14.5789 41.928C14.5789 39.8071 15.4197 37.7727 16.917 36.2707L22.5757 30.6147Z" fill="white"/>
<path d="M32.0003 13.644L30.115 15.5293L33.8856 19.3L35.771 17.4146C37.2737 15.9186 39.3079 15.0787 41.4283 15.0787C43.5488 15.0787 45.5829 15.9186 47.0856 17.4146C48.583 18.9167 49.4238 20.9511 49.4238 23.072C49.4238 25.1929 48.583 27.2272 47.0856 28.7293L41.427 34.3853C38.4057 37.4066 33.1363 37.4066 30.115 34.3853L28.2297 32.5L24.459 36.2706L26.3443 38.156C28.859 40.6733 32.2083 42.0626 35.771 42.0626C39.3336 42.0626 42.683 40.6733 45.1976 38.156L50.8563 32.5C53.3515 29.9967 54.7527 26.6064 54.7527 23.072C54.7527 19.5375 53.3515 16.1472 50.8563 13.644C48.3538 11.1474 44.9632 9.74542 41.4283 9.74542C37.8934 9.74542 34.5029 11.1474 32.0003 13.644Z" fill="white"/>
</svg>
