<svg width="712" height="601" viewBox="0 0 712 601" fill="none" xmlns="http://www.w3.org/2000/svg">
<g filter="url(#filter0_d_2002_2999)">
<circle cx="567.377" cy="510.813" r="60.3251" transform="rotate(-13.3705 567.377 510.813)" fill="#222121" stroke="white" stroke-width="3.28145"/>
<mask id="mask0_2002_2999" style="mask-type:alpha" maskUnits="userSpaceOnUse" x="505" y="448" width="125" height="125">
<g opacity="0.39">
<circle cx="567.377" cy="510.813" r="61.9658" transform="rotate(-13.3705 567.377 510.813)" fill="#1E77C8"/>
<circle cx="567.377" cy="510.813" r="60.0166" transform="rotate(-13.3705 567.377 510.813)" stroke="white" stroke-opacity="0.18" stroke-width="3.89829"/>
</g>
</mask>
<g mask="url(#mask0_2002_2999)">
<rect opacity="0.29" x="575.652" y="338.13" width="134.495" height="167.074" transform="rotate(61.2667 575.652 338.13)" fill="#D9D9D9"/>
</g>
<g clip-path="url(#clip0_2002_2999)">
<g clip-path="url(#clip1_2002_2999)">
<path d="M567.461 541.427L565.672 537.92L565.594 537.766L565.426 537.723L564.738 537.548C562.147 536.888 559.819 535.495 558.005 533.521C554.065 529.232 553.304 522.956 555.896 517.882C563.076 523.8 573.435 524.215 581.122 518.897C583.241 524.158 581.916 530.349 577.6 534.308C575.613 536.13 573.166 537.331 570.524 537.781L567.461 541.427ZM567.461 541.427L569.563 538.074L569.654 537.928L569.823 537.9L570.524 537.781L567.461 541.427ZM540.119 500.87L548.798 506.272C549.496 509.478 550.943 512.46 553.026 515.001C548.984 521.683 549.763 530.352 555.112 536.174C557.234 538.485 559.907 540.175 562.887 541.097L566.797 548.761L567.103 549.362L567.461 548.791L572.052 541.467C575.105 540.787 577.921 539.318 580.245 537.187C586.098 531.818 587.662 523.245 584.241 516.261C591.947 508.36 592.253 495.715 584.73 487.526C576.94 479.046 563.666 478.514 555.14 486.334C552.401 488.846 550.389 492.007 549.285 495.521L540.147 500.206L539.546 500.514L540.119 500.87ZM552.37 504.023L552.34 503.855L552.195 503.764L547.489 500.836L552.446 498.295L552.597 498.217L552.641 498.054L552.823 497.375C552.823 497.374 552.823 497.374 552.823 497.374C553.662 494.243 555.378 491.421 557.784 489.213C564.718 482.854 575.508 483.29 581.837 490.18C588.166 497.069 587.679 507.849 580.745 514.208C573.812 520.568 563.021 520.132 556.692 513.242C554.495 510.85 553.043 507.902 552.489 504.715L552.37 504.023Z" fill="white" stroke="white" stroke-width="0.764195"/>
<path d="M562.285 505.82L562.027 505.539L561.745 505.797L559.415 507.934L559.134 508.193L559.392 508.474L561.52 510.79L561.779 511.072L562.06 510.814L564.39 508.677L564.672 508.418L564.413 508.137L562.285 505.82Z" fill="white" stroke="white" stroke-width="0.764195"/>
<path d="M572.214 501.377L572.214 501.377L567.21 500.954L567.043 500.94L566.92 501.053L564.077 503.661L563.795 503.919L564.054 504.201L566.181 506.517L566.44 506.798L566.722 506.54L568.415 504.987L571.868 505.279C573.735 505.437 575.598 504.801 576.981 503.532C579.705 501.034 579.899 496.797 577.408 494.086C574.918 491.374 570.676 491.206 567.953 493.704L567.671 493.962L567.929 494.244L570.057 496.56L570.316 496.841L570.597 496.583C571.728 495.546 573.486 495.619 574.515 496.739C575.545 497.86 575.467 499.616 574.336 500.653C573.753 501.188 573.002 501.444 572.214 501.377Z" fill="white" stroke="white" stroke-width="0.764195"/>
</g>
</g>
</g>
<g opacity="0.52" filter="url(#filter1_f_2002_2999)">
<ellipse cx="528.466" cy="560.491" rx="63.6367" ry="49.688" transform="rotate(2.16295 528.466 560.491)" fill="#00C600"/>
</g>
<g opacity="0.91" filter="url(#filter2_f_2002_2999)">
<ellipse cx="368.116" cy="700.354" rx="397.851" ry="226.5" transform="rotate(2.16295 368.116 700.354)" fill="#00C600"/>
</g>
<path d="M384.506 414.984C461.794 388.227 535.787 375.769 592.917 377.225C621.486 377.954 645.778 382.16 664.141 389.753C682.506 397.347 694.821 408.271 699.704 422.376C704.587 436.482 701.663 452.681 691.924 470.005C682.186 487.327 665.695 505.652 643.691 523.889C599.691 560.356 533.833 596.314 456.545 623.071C379.257 649.828 305.264 662.286 248.134 660.83C219.565 660.101 195.273 655.895 176.909 648.301C158.544 640.708 146.23 629.784 141.347 615.678C136.464 601.573 139.388 585.374 149.127 568.05C158.865 550.728 175.356 532.403 197.359 514.166C241.36 477.699 307.218 441.741 384.506 414.984Z" stroke="url(#paint0_linear_2002_2999)" stroke-width="2.1971"/>
<path d="M466.148 609.97C398.543 643.886 332.226 664.292 279.682 669.894C253.406 672.696 230.634 671.789 212.889 667.061C195.141 662.333 182.549 653.823 176.373 641.513C170.197 629.202 170.904 614.021 177.724 596.968C184.544 579.916 197.431 561.12 215.386 541.732C251.29 502.962 307.295 462.001 374.9 428.085C442.505 394.169 508.822 373.763 561.366 368.161C587.642 365.359 610.414 366.266 628.159 370.994C645.907 375.722 658.499 384.231 664.675 396.542C670.851 408.852 670.144 424.034 663.324 441.087C656.504 458.138 643.618 476.935 625.662 496.323C589.758 535.093 533.753 576.054 466.148 609.97Z" stroke="url(#paint1_linear_2002_2999)" stroke-width="2.1971"/>
<path opacity="0.15" d="M449.157 239.115C342.14 203.223 249.724 157.534 186.822 112.709C155.364 90.292 131.341 68.1284 116.553 47.5576C101.746 26.961 96.3401 8.17254 101.641 -7.63178C106.941 -23.4361 122.583 -35.1654 146.814 -42.669C171.015 -50.1633 203.544 -53.3599 242.156 -52.2762C319.366 -50.1092 420.641 -30.8362 527.658 5.05624C634.675 40.9486 727.09 86.6374 789.993 131.463C821.45 153.88 845.473 176.043 860.261 196.614C875.068 217.211 880.474 235.999 875.174 251.804C869.873 267.608 854.232 279.337 830 286.841C805.799 294.335 773.27 297.532 734.658 296.448C657.448 294.281 556.173 275.008 449.157 239.115Z" stroke="url(#paint2_linear_2002_2999)" stroke-width="2.1971"/>
<path d="M129.218 527.46L172.37 518.292L181.897 475.218L191.065 518.369L234.139 527.897L190.988 537.065L181.46 580.139L172.292 536.988L129.218 527.46Z" fill="white"/>
<path d="M542.625 354.654L564.957 359.814L578.904 341.625L573.743 363.957L591.932 377.904L569.6 372.743L555.654 390.932L560.814 368.6L542.625 354.654Z" fill="white"/>
<path d="M395.45 817.711C264.692 844.203 142.334 848.302 50.2277 833.545C4.17023 826.165 -34.2627 814.081 -62.3911 797.771C-90.5209 781.461 -108.231 760.997 -113.118 736.881C-118.004 712.764 -109.655 687.021 -90.0928 661.047C-70.5312 635.075 -39.833 608.984 -0.280098 584.259C78.8184 534.814 193.122 490.962 323.88 464.469C454.637 437.977 576.996 433.878 669.102 448.635C715.159 456.015 753.592 468.099 781.721 484.409C809.851 500.719 827.561 521.183 832.447 545.299C837.334 569.416 828.985 595.16 809.422 621.133C789.861 647.105 759.163 673.196 719.61 697.921C640.511 747.366 526.208 791.218 395.45 817.711Z" stroke="url(#paint3_linear_2002_2999)" stroke-width="2.1971"/>
<g filter="url(#filter3_d_2002_2999)">
<circle cx="364.916" cy="441.113" r="94.5679" transform="rotate(11.3921 364.916 441.113)" fill="#02EB02" stroke="#1C531C" stroke-width="7"/>
<mask id="mask1_2002_2999" style="mask-type:alpha" maskUnits="userSpaceOnUse" x="266" y="343" width="198" height="197">
<g opacity="0.39">
<circle cx="364.916" cy="441.113" r="98.0679" transform="rotate(11.3921 364.916 441.113)" fill="#1E77C8"/>
<circle cx="364.916" cy="441.113" r="95.7242" transform="rotate(11.3921 364.916 441.113)" stroke="white" stroke-opacity="0.18" stroke-width="4.68736"/>
</g>
</mask>
<g mask="url(#mask1_2002_2999)">
<rect opacity="0.47" x="274.697" y="199.566" width="212.854" height="264.414" transform="rotate(37.8371 274.697 199.566)" fill="#D9D9D9"/>
</g>
<g clip-path="url(#clip2_2002_2999)">
<g filter="url(#filter4_i_2002_2999)">
<path d="M368.911 384.184C366.47 385.577 364.483 387.644 363.188 390.138L360.347 385.171C358.543 382.019 355.638 379.645 352.19 378.506C348.742 377.366 344.994 377.542 341.668 378.999C338.342 380.457 335.672 383.092 334.171 386.4C332.671 389.707 332.447 393.452 333.542 396.915C330.877 396.712 328.207 397.238 325.819 398.438C323.43 399.637 321.414 401.465 319.985 403.724C318.557 405.983 317.771 408.588 317.712 411.26C317.652 413.932 318.321 416.57 319.648 418.891L339.604 453.77L332.504 449.942C329.137 447.968 325.124 447.412 321.347 448.396C317.571 449.381 314.34 451.825 312.365 455.192C310.391 458.559 309.835 462.572 310.819 466.348C311.803 470.125 314.248 473.356 317.615 475.331C351.656 499.041 367.965 507.316 392.277 493.406C403.471 486.984 411.66 476.385 415.049 463.933C418.438 451.481 416.749 438.193 410.353 426.985L388.991 389.649C388.032 387.971 386.751 386.5 385.223 385.317C383.694 384.135 381.948 383.265 380.083 382.757C378.218 382.25 376.272 382.115 374.355 382.36C372.438 382.604 370.588 383.224 368.911 384.184ZM404.458 430.358C409.961 440.002 411.414 451.435 408.498 462.15C405.582 472.864 398.536 481.984 388.904 487.51C378.588 493.413 370.532 494.73 361.033 492.078C350.622 489.199 338.13 481.349 321.39 469.689L321.156 469.542C319.34 468.484 318.019 466.748 317.483 464.716C316.947 462.684 317.24 460.522 318.298 458.706C319.356 456.89 321.092 455.569 323.124 455.033C325.156 454.497 327.318 454.79 329.134 455.848L329.231 455.904L346.84 465.391C347.49 465.743 348.237 465.873 348.967 465.762C349.698 465.651 350.372 465.305 350.888 464.776C351.404 464.247 351.733 463.564 351.826 462.831C351.919 462.098 351.77 461.355 351.402 460.714L325.543 415.518C324.499 413.694 324.223 411.53 324.775 409.502C325.327 407.474 326.661 405.749 328.486 404.705C330.31 403.661 332.474 403.385 334.501 403.937C336.529 404.489 338.255 405.824 339.298 407.648L356.163 437.123C356.61 437.905 357.35 438.477 358.219 438.714C359.088 438.95 360.015 438.832 360.797 438.384C361.579 437.937 362.151 437.198 362.387 436.329C362.624 435.459 362.505 434.532 362.058 433.75L340.696 396.414C339.653 394.59 339.376 392.426 339.928 390.399C340.48 388.371 341.815 386.645 343.639 385.602C345.463 384.558 347.627 384.282 349.655 384.834C351.682 385.386 353.408 386.72 354.451 388.544L375.813 425.88C376.261 426.662 377 427.234 377.869 427.47C378.738 427.707 379.666 427.589 380.447 427.141C381.229 426.694 381.801 425.955 382.038 425.085C382.274 424.216 382.156 423.289 381.708 422.507L369.341 400.892C368.297 399.068 368.021 396.904 368.573 394.876C369.125 392.848 370.46 391.123 372.284 390.079C374.108 389.035 376.272 388.759 378.299 389.311C380.327 389.863 382.053 391.198 383.096 393.022L404.458 430.358Z" fill="#123812"/>
</g>
</g>
</g>
<defs>
<filter id="filter0_d_2002_2999" x="505.397" y="448.833" width="128.96" height="131.96" filterUnits="userSpaceOnUse" color-interpolation-filters="sRGB">
<feFlood flood-opacity="0" result="BackgroundImageFix"/>
<feColorMatrix in="SourceAlpha" type="matrix" values="0 0 0 0 0 0 0 0 0 0 0 0 0 0 0 0 0 0 127 0" result="hardAlpha"/>
<feOffset dx="5" dy="8"/>
<feColorMatrix type="matrix" values="0 0 0 0 0.278431 0 0 0 0 0.278431 0 0 0 0 0.278431 0 0 0 1 0"/>
<feBlend mode="normal" in2="BackgroundImageFix" result="effect1_dropShadow_2002_2999"/>
<feBlend mode="normal" in="SourceGraphic" in2="effect1_dropShadow_2002_2999" result="shape"/>
</filter>
<filter id="filter1_f_2002_2999" x="385.447" y="431.379" width="286.039" height="258.223" filterUnits="userSpaceOnUse" color-interpolation-filters="sRGB">
<feFlood flood-opacity="0" result="BackgroundImageFix"/>
<feBlend mode="normal" in="SourceGraphic" in2="BackgroundImageFix" result="shape"/>
<feGaussianBlur stdDeviation="39.7" result="effect1_foregroundBlur_2002_2999"/>
</filter>
<filter id="filter2_f_2002_2999" x="-212.445" y="290.61" width="1161.12" height="819.489" filterUnits="userSpaceOnUse" color-interpolation-filters="sRGB">
<feFlood flood-opacity="0" result="BackgroundImageFix"/>
<feBlend mode="normal" in="SourceGraphic" in2="BackgroundImageFix" result="shape"/>
<feGaussianBlur stdDeviation="91.45" result="effect1_foregroundBlur_2002_2999"/>
</filter>
<filter id="filter3_d_2002_2999" x="266.829" y="343.026" width="198.298" height="207.174" filterUnits="userSpaceOnUse" color-interpolation-filters="sRGB">
<feFlood flood-opacity="0" result="BackgroundImageFix"/>
<feColorMatrix in="SourceAlpha" type="matrix" values="0 0 0 0 0 0 0 0 0 0 0 0 0 0 0 0 0 0 127 0" result="hardAlpha"/>
<feOffset dx="2.12458" dy="11"/>
<feColorMatrix type="matrix" values="0 0 0 0 0.0784314 0 0 0 0 0.243137 0 0 0 0 0.0784314 0 0 0 1 0"/>
<feBlend mode="normal" in2="BackgroundImageFix" result="effect1_dropShadow_2002_2999"/>
<feBlend mode="normal" in="SourceGraphic" in2="effect1_dropShadow_2002_2999" result="shape"/>
</filter>
<filter id="filter4_i_2002_2999" x="310.343" y="377.762" width="106.416" height="124.409" filterUnits="userSpaceOnUse" color-interpolation-filters="sRGB">
<feFlood flood-opacity="0" result="BackgroundImageFix"/>
<feBlend mode="normal" in="SourceGraphic" in2="BackgroundImageFix" result="shape"/>
<feColorMatrix in="SourceAlpha" type="matrix" values="0 0 0 0 0 0 0 0 0 0 0 0 0 0 0 0 0 0 127 0" result="hardAlpha"/>
<feOffset dy="2"/>
<feGaussianBlur stdDeviation="2"/>
<feComposite in2="hardAlpha" operator="arithmetic" k2="-1" k3="1"/>
<feColorMatrix type="matrix" values="0 0 0 0 0 0 0 0 0 0 0 0 0 0 0 0 0 0 0.69 0"/>
<feBlend mode="normal" in2="shape" result="effect1_innerShadow_2002_2999"/>
</filter>
<linearGradient id="paint0_linear_2002_2999" x1="140.309" y1="616.038" x2="700.742" y2="422.017" gradientUnits="userSpaceOnUse">
<stop stop-color="white"/>
<stop offset="1" stop-color="white" stop-opacity="0"/>
</linearGradient>
<linearGradient id="paint1_linear_2002_2999" x1="615.5" y1="352.437" x2="175.391" y2="642.006" gradientUnits="userSpaceOnUse">
<stop stop-color="white"/>
<stop offset="0.668963" stop-color="white" stop-opacity="0"/>
</linearGradient>
<linearGradient id="paint2_linear_2002_2999" x1="876.215" y1="252.153" x2="100.599" y2="-7.9811" gradientUnits="userSpaceOnUse">
<stop stop-color="white"/>
<stop offset="1" stop-color="white" stop-opacity="0"/>
</linearGradient>
<linearGradient id="paint3_linear_2002_2999" x1="33.5" y1="579.937" x2="571.532" y2="869.869" gradientUnits="userSpaceOnUse">
<stop offset="0.265752" stop-color="white"/>
<stop offset="0.921806" stop-color="white" stop-opacity="0"/>
</linearGradient>
<clipPath id="clip0_2002_2999">
<rect width="79.664" height="85.9817" fill="white" transform="translate(520.764 481.533) rotate(-17.7242)"/>
</clipPath>
<clipPath id="clip1_2002_2999">
<rect width="58.8819" height="57.6363" fill="white" transform="matrix(0.676506 0.736437 -0.736964 0.675932 570.201 469.677)"/>
</clipPath>
<clipPath id="clip2_2002_2999">
<rect width="144.722" height="154.897" fill="white" transform="translate(274.686 375.358) rotate(-8.24676)"/>
</clipPath>
</defs>
</svg>
