<svg width="24" height="24" viewBox="0 0 24 24" fill="none" xmlns="http://www.w3.org/2000/svg">
<g clip-path="url(#clip0_7_8326)">
<path d="M22.8977 15.7912C22.9002 12.6376 20.7884 9.88231 17.808 9.05203C17.624 4.66243 14.0159 1.14917 9.60355 1.14917C5.07162 1.14917 1.38188 4.85506 1.37833 9.41039C1.37717 10.895 1.76918 12.3405 2.51473 13.6095L1.40213 17.6411L5.41402 16.526C6.57401 17.2159 7.88286 17.6044 9.234 17.663C10.0575 20.6596 12.7971 22.7847 15.9347 22.7847C17.187 22.7847 18.4051 22.4494 19.4757 21.8124L22.8619 22.7541L21.9277 19.3497C22.5623 18.2741 22.8967 17.05 22.8977 15.7912ZM5.61412 15.1553L3.21241 15.823L3.87855 13.4094L3.72733 13.1714C3.01467 12.0493 2.63848 10.7487 2.63952 9.41039C2.64253 5.55412 5.7661 2.41688 9.60256 2.41688C13.439 2.41688 16.5577 5.55412 16.5547 9.41039C16.5517 13.2667 13.4281 16.4039 9.59166 16.4039C8.26018 16.4039 6.96677 16.0247 5.85081 15.3075L5.61412 15.1553ZM21.0546 20.9361L19.2733 20.4406L19.0352 20.5962C18.1123 21.1986 17.0404 21.517 15.9357 21.517C13.4698 21.517 11.3042 19.9144 10.5383 17.6163C14.3146 17.1787 17.3218 14.1583 17.7603 10.3627C20.0458 11.1345 21.6385 13.3125 21.6365 15.7912C21.6357 16.9016 21.3181 17.9788 20.7181 18.906L20.5631 19.1451L21.0546 20.9361Z" fill="#00FF00"/>
<path d="M8.91797 12.7396H10.1792L10.1782 14.0073H8.91698L8.91797 12.7396Z" fill="#00FF00"/>
<path d="M10.8148 7.62648C10.8145 7.98648 10.6684 8.31876 10.4035 8.56223L8.92123 9.92502L8.92002 11.4719H10.1812L10.182 10.4833L11.2543 9.4975C11.7759 9.01798 12.0755 8.33609 12.076 7.62648C12.0771 6.22837 10.9465 5.09106 9.55559 5.09106C8.16466 5.09106 7.03232 6.22837 7.03123 7.62648H8.29242C8.29297 6.92742 8.85914 6.35877 9.5546 6.35877C10.2501 6.35877 10.8154 6.92742 10.8148 7.62648Z" fill="#00FF00"/>
</g>
<defs>
<clipPath id="clip0_7_8326">
<rect width="24" height="24" fill="white"/>
</clipPath>
</defs>
</svg>
