<svg width="350" height="350" viewBox="0 0 350 350" fill="none" xmlns="http://www.w3.org/2000/svg">
<g filter="url(#filter0_d_7_8422)">
<circle cx="175.029" cy="172.946" r="74.1492" transform="rotate(64.7093 175.029 172.946)" fill="white" stroke="#A7A8A7" stroke-width="4"/>
</g>
<g clip-path="url(#clip0_7_8422)">
<g filter="url(#filter1_i_7_8422)">
<path fill-rule="evenodd" clip-rule="evenodd" d="M193.583 136.526L167.92 126.644L164.327 135.976L180.658 142.265L177.603 150.196L146.342 138.158L136.999 162.422L130.465 159.906L126.872 169.238L133.405 171.754L123.702 196.95L196.492 224.98L206.194 199.784L212.726 202.299L216.32 192.967L209.788 190.452L219.132 166.189L186.935 153.79L193.583 136.526ZM200.456 186.858L206.206 171.927L152.081 151.084L136.628 191.211L190.753 212.054L196.862 196.19L196.862 196.19L200.456 186.858L200.456 186.858ZM150.632 182.673L156.741 166.809L166.073 170.403L159.963 186.267L150.632 182.673ZM181.936 176.512L175.827 192.376L185.159 195.97L191.268 180.105L181.936 176.512Z" fill="#9B9C9B"/>
</g>
</g>
<mask id="mask0_7_8422" style="mask-type:alpha" maskUnits="userSpaceOnUse" x="99" y="101" width="153" height="153">
<circle cx="175.392" cy="177.248" r="76.1492" transform="rotate(64.7093 175.392 177.248)" fill="#181818"/>
</mask>
<g mask="url(#mask0_7_8422)">
<path d="M269.771 -44.2319L391.609 136.32L-88.8336 192.543L-206.758 70.6837L269.771 -44.2319Z" fill="#D9D9D9" fill-opacity="0.2"/>
</g>
<defs>
<filter id="filter0_d_7_8422" x="98.8623" y="96.7788" width="152.334" height="163.334" filterUnits="userSpaceOnUse" color-interpolation-filters="sRGB">
<feFlood flood-opacity="0" result="BackgroundImageFix"/>
<feColorMatrix in="SourceAlpha" type="matrix" values="0 0 0 0 0 0 0 0 0 0 0 0 0 0 0 0 0 0 127 0" result="hardAlpha"/>
<feOffset dy="11"/>
<feColorMatrix type="matrix" values="0 0 0 0 0.709804 0 0 0 0 0.709804 0 0 0 0 0.709804 0 0 0 1 0"/>
<feBlend mode="normal" in2="BackgroundImageFix" result="effect1_dropShadow_7_8422"/>
<feBlend mode="normal" in="SourceGraphic" in2="effect1_dropShadow_7_8422" result="shape"/>
</filter>
<filter id="filter1_i_7_8422" x="123.702" y="126.644" width="95.4297" height="101.336" filterUnits="userSpaceOnUse" color-interpolation-filters="sRGB">
<feFlood flood-opacity="0" result="BackgroundImageFix"/>
<feBlend mode="normal" in="SourceGraphic" in2="BackgroundImageFix" result="shape"/>
<feColorMatrix in="SourceAlpha" type="matrix" values="0 0 0 0 0 0 0 0 0 0 0 0 0 0 0 0 0 0 127 0" result="hardAlpha"/>
<feOffset dy="3"/>
<feGaussianBlur stdDeviation="2"/>
<feComposite in2="hardAlpha" operator="arithmetic" k2="-1" k3="1"/>
<feColorMatrix type="matrix" values="0 0 0 0 0 0 0 0 0 0 0 0 0 0 0 0 0 0 0.18 0"/>
<feBlend mode="normal" in2="shape" result="effect1_innerShadow_7_8422"/>
</filter>
<clipPath id="clip0_7_8422">
<rect width="92.2282" height="82.2551" fill="white" transform="translate(146.424 117.831) rotate(20.9022)"/>
</clipPath>
</defs>
</svg>
