<svg width="389" height="154" viewBox="0 0 389 154" fill="none" xmlns="http://www.w3.org/2000/svg">
<g filter="url(#filter0_i_7_7630)">
<g clip-path="url(#clip0_7_7630)">
<rect x="0.289062" y="41.2407" width="378.025" height="112.907" rx="10.2643" transform="rotate(-6.22377 0.289062 41.2407)" fill="#00C600"/>
<path d="M34.4021 131.729L26.1158 55.7455L77.5258 50.139L78.8422 62.2101L41.3356 66.3004L43.4982 86.1315L75.616 82.6289L76.9324 94.7L44.8146 98.2026L46.9891 118.141L84.4957 114.051L85.8121 126.122L34.4021 131.729ZM91.4502 125.507L109.166 97.9465L108.778 94.3899L85.5499 71.4031L102.04 69.6048L118.239 87.1417L130.17 66.5371L146.66 64.7387L128.932 92.1919L129.32 95.7486L152.56 118.843L136.07 120.641L119.967 102.985L107.94 123.709L91.4502 125.507ZM181.203 104.595L200.593 101.39L201.91 113.461L177.023 117.266C174.3 117.636 172.142 117.18 170.548 115.9C168.955 114.62 168.005 112.578 167.699 109.776L163.915 75.0717L151.413 76.4351L150.096 64.364L162.598 63.0006L161.329 51.3606L174.762 45.5333L176.502 61.4844L193.854 59.592L195.17 71.6631L177.818 73.5555L181.203 104.595ZM210.194 112.558L205.105 65.8901C204.807 63.1598 205.299 60.9977 206.579 59.404C207.931 57.8024 209.976 56.8886 212.714 56.6627L246.112 53.8931L247.428 65.9642L219.431 68.2539L224.098 111.042L210.194 112.558ZM254.384 92.6886C253.874 88.0183 255.016 84.1494 257.808 81.0821C260.671 78.007 265.649 75.6465 272.74 74.0007L291.246 69.6922C290.294 62.9617 285.759 60.0391 277.639 60.9246C273.831 61.3399 270.871 62.5351 268.76 64.5103C266.713 66.4058 265.874 69.0421 266.242 72.4191L253.093 73.853C252.396 67.4582 254.203 62.0263 258.514 57.5573C262.817 53.0164 268.777 50.3307 276.393 49.5001C284.225 48.646 290.819 50.1081 296.175 53.8864C301.524 57.5928 304.633 63.4338 305.502 71.4094L307.5 89.7316L315.368 88.8736L316.685 100.945L305.691 102.144C303.32 102.402 301.417 101.955 299.983 100.803C298.621 99.6428 297.814 97.9132 297.563 95.6139L297.363 93.7817L298.849 87.4033L295.184 87.8029C293.789 99.0065 287.127 105.259 275.2 106.559C271.32 106.982 267.956 106.804 265.108 106.024C262.332 105.236 260.235 104.011 258.818 102.348C257.401 100.685 256.354 99.09 255.679 97.5641C254.996 95.9664 254.564 94.3412 254.384 92.6886ZM268.028 88.8013C268.256 90.885 269.111 92.3913 270.593 93.3202C272.14 94.1694 274.063 94.4686 276.362 94.2179C281.608 93.6459 285.67 91.8942 288.549 88.9627C291.421 85.9594 292.625 82.3382 292.163 78.0989L276.112 81.9215C273.062 82.6177 270.901 83.4713 269.63 84.4824C268.351 85.4217 267.817 86.8613 268.028 88.8013ZM368.909 80.5263C370.045 90.9448 362.746 97.0121 347.01 98.7281C337.813 99.7311 330.791 98.6792 325.945 95.5724C321.162 92.386 318.41 87.4875 317.69 80.8772L331.593 79.361C332.329 86.115 337.188 89.0023 346.17 88.0229C352.421 87.3411 355.359 85.2758 354.982 81.827C354.787 80.0307 353.847 78.7517 352.165 77.99C350.482 77.2283 347.522 76.4241 343.286 75.5774C342.177 75.4075 341.323 75.2462 340.725 75.0933C333.353 73.4979 328.479 72.1391 326.102 71.0168C321.262 68.6364 318.536 64.9712 317.923 60.0213C317.414 55.3509 318.958 51.5108 322.556 48.5011C326.146 45.4194 331.426 43.4985 338.396 42.7385C346.659 41.8374 352.966 43.0035 357.318 46.237C361.661 49.3986 364.131 53.7098 364.726 59.1706L350.823 60.6868C350.212 55.0823 346.421 52.6602 339.452 53.4202C334.063 54.0079 331.533 55.8106 331.862 58.8284C332.042 60.481 333.157 61.7045 335.207 62.4988C337.257 63.2932 340.886 64.2424 346.096 65.3465C353.54 66.934 358.37 68.2249 360.587 69.2192C365.571 71.5839 368.345 75.353 368.909 80.5263Z" fill="#EEEEEE"/>
</g>
</g>
<defs>
<filter id="filter0_i_7_7630" x="0.289062" y="0.258423" width="388.037" height="153.224" filterUnits="userSpaceOnUse" color-interpolation-filters="sRGB">
<feFlood flood-opacity="0" result="BackgroundImageFix"/>
<feBlend mode="normal" in="SourceGraphic" in2="BackgroundImageFix" result="shape"/>
<feColorMatrix in="SourceAlpha" type="matrix" values="0 0 0 0 0 0 0 0 0 0 0 0 0 0 0 0 0 0 127 0" result="hardAlpha"/>
<feOffset dx="-10" dy="11"/>
<feComposite in2="hardAlpha" operator="arithmetic" k2="-1" k3="1"/>
<feColorMatrix type="matrix" values="0 0 0 0 0 0 0 0 0 0 0 0 0 0 0 0 0 0 0.12 0"/>
<feBlend mode="normal" in2="shape" result="effect1_innerShadow_7_7630"/>
</filter>
<clipPath id="clip0_7_7630">
<rect x="0.289062" y="41.2407" width="378.025" height="112.907" rx="10.2643" transform="rotate(-6.22377 0.289062 41.2407)" fill="white"/>
</clipPath>
</defs>
</svg>
