<svg width="1440" height="500" viewBox="0 0 1440 500" fill="none" xmlns="http://www.w3.org/2000/svg">
<g opacity="0.8">
<path opacity="0.53" d="M648.077 177.785C739.229 120.4 830.433 82.33 904.177 67.1434C941.054 59.5493 973.504 57.6897 999.374 61.9575C1025.25 66.2255 1044.41 76.594 1054.95 93.339C1065.49 110.084 1066.56 131.843 1059.22 157.017C1051.88 182.19 1036.18 210.647 1013.39 240.616C967.813 300.548 894.056 366.33 802.904 423.715C711.752 481.101 620.548 519.17 546.804 534.357C509.928 541.951 477.477 543.811 451.607 539.543C425.735 535.275 406.576 524.906 396.034 508.161C385.492 491.416 384.425 469.658 391.762 444.483C399.098 419.31 414.803 390.853 437.593 360.884C483.168 300.953 556.926 235.17 648.077 177.785Z" stroke="url(#paint0_linear_7_7616)" stroke-width="2.1971"/>
<path d="M811.345 404.025C734.748 467.704 655.76 513.68 590.005 536.557C557.123 547.996 527.607 553.64 503.383 552.869C479.158 552.099 460.359 544.924 448.681 530.877C437.002 516.83 433.381 497.037 437.048 473.078C440.714 449.121 451.652 421.132 468.904 390.892C503.404 330.42 563.031 261.156 639.628 197.477C716.224 133.797 795.212 87.8211 860.968 64.9445C893.85 53.5048 923.365 47.8616 947.589 48.6319C971.815 49.4022 990.613 56.5768 1002.29 70.6243C1013.97 84.6718 1017.59 104.465 1013.92 128.423C1010.26 152.38 999.32 180.369 982.068 210.609C947.568 271.081 887.941 340.345 811.345 404.025Z" stroke="url(#paint1_linear_7_7616)" stroke-width="2.1971"/>
<path opacity="0.42" d="M697.323 180.632C796.205 164.701 888.858 163.84 958.705 175.297C993.635 181.026 1022.8 189.826 1044.17 201.316C1065.56 212.812 1078.98 226.907 1082.8 243.184C1086.62 259.461 1080.54 276.699 1065.9 293.998C1051.28 311.288 1028.21 328.502 998.417 344.659C938.831 376.969 852.535 404.938 753.653 420.869C654.771 436.8 562.118 437.661 492.271 426.204C457.341 420.475 428.179 411.676 406.805 400.185C385.42 388.689 371.993 374.595 368.176 358.317C364.359 342.04 370.44 324.802 385.073 307.503C399.699 290.213 422.762 273 452.559 256.842C512.145 224.533 598.441 196.563 697.323 180.632Z" stroke="url(#paint2_linear_7_7616)" stroke-width="2.1971"/>
<path d="M767.464 408.207C679.353 433.64 594.889 444.521 529.58 441.58C496.92 440.109 469.114 435.185 448.056 426.94C426.988 418.691 412.836 407.188 407.151 392.637C401.467 378.085 404.675 361.571 415.682 344.065C426.683 326.565 445.396 308.213 470.405 290.097C520.414 253.87 595.399 218.726 683.51 193.293C771.621 167.86 856.084 156.979 921.394 159.92C954.054 161.391 981.859 166.315 1002.92 174.56C1023.98 182.809 1038.14 194.312 1043.82 208.863C1049.51 223.415 1046.3 239.929 1035.29 257.435C1024.29 274.935 1005.58 293.287 980.569 311.403C930.56 347.63 855.574 382.774 767.464 408.207Z" stroke="url(#paint3_linear_7_7616)" stroke-width="2.1971"/>
<path d="M676.697 92.7114C847.38 65.2127 1007.34 63.7197 1127.97 83.5062C1188.3 93.4003 1238.72 108.605 1275.72 128.494C1312.72 148.389 1336.14 172.876 1342.8 201.293C1349.47 229.71 1338.82 259.684 1313.5 289.622C1288.18 319.55 1248.3 349.304 1196.84 377.207C1093.93 433.008 944.94 481.291 774.257 508.79C603.575 536.288 443.611 537.781 322.98 517.995C262.658 508.101 212.236 492.896 175.238 473.007C138.229 453.112 114.815 428.625 108.152 400.208C101.489 371.791 112.133 341.817 137.458 311.879C162.774 281.951 202.655 252.197 254.114 224.294C357.022 168.493 506.015 120.21 676.697 92.7114Z" stroke="url(#paint4_linear_7_7616)" stroke-width="2.1971"/>
<path opacity="0.76" d="M661.091 95.848C324.566 176.018 80.5843 332.747 116.142 445.911C151.701 559.076 453.334 585.824 789.859 505.654" stroke="url(#paint5_linear_7_7616)" stroke-width="2.1971"/>
<path d="M648.006 143.999C764.646 167.79 868.05 205.664 940.937 247.632C977.385 268.619 1006.15 290.598 1025.12 312.304C1044.1 334.02 1053.16 355.316 1050.57 375.025C1047.99 394.734 1033.94 411.317 1010.4 424.359C986.858 437.394 953.975 446.798 914.058 452.209C834.236 463.028 726.537 457.842 609.897 434.05C493.258 410.259 389.854 372.385 316.967 330.417C280.519 309.43 251.758 287.451 232.786 265.745C213.805 244.029 204.74 222.733 207.329 203.024C209.919 183.315 223.96 166.732 247.508 153.691C271.045 140.655 303.929 131.251 343.846 125.84C423.668 115.021 531.367 120.207 648.006 143.999Z" stroke="url(#paint6_linear_7_7616)" stroke-width="2.1971"/>
<path opacity="0.56" d="M798.197 486.909C646.1 530.811 500.266 549.603 387.461 544.524C331.053 541.984 282.968 533.478 246.506 519.201C210.036 504.921 185.355 484.938 175.426 459.52C165.497 434.102 171.145 405.365 190.199 375.058C209.247 344.758 241.615 313.029 284.808 281.74C371.186 219.167 500.658 158.493 652.756 114.591C804.853 70.6881 950.686 51.8957 1063.49 56.975C1119.9 59.5149 1167.98 68.0213 1204.45 82.2979C1240.92 96.578 1265.6 116.561 1275.53 141.979C1285.46 167.397 1279.81 196.134 1260.75 226.441C1241.7 256.741 1209.34 288.47 1166.14 319.759C1079.77 382.332 950.294 443.006 798.197 486.909Z" stroke="url(#paint7_linear_7_7616)" stroke-width="2.1971"/>
<path d="M676.649 494.548C527.314 442.014 397.654 372.669 308.745 303.056C264.286 268.246 230.068 233.408 208.664 200.619C187.254 167.821 178.756 137.224 185.425 110.762C192.093 84.3006 213.373 64.1785 246.48 50.5591C279.578 36.9428 324.352 29.8937 377.686 29.4858C484.343 28.6702 624.991 54.415 774.327 106.949C923.662 159.483 1053.32 228.829 1142.23 298.442C1186.69 333.252 1220.91 368.089 1242.31 400.879C1263.72 433.676 1272.22 464.274 1265.55 490.735C1258.88 517.197 1237.6 537.319 1204.5 550.939C1171.4 564.555 1126.62 571.604 1073.29 572.012C966.633 572.827 825.985 547.083 676.649 494.548Z" stroke="url(#paint8_linear_7_7616)" stroke-width="2.1971"/>
</g>
<defs>
<linearGradient id="paint0_linear_7_7616" x1="395.104" y1="508.747" x2="1055.88" y2="92.7537" gradientUnits="userSpaceOnUse">
<stop stop-color="white"/>
<stop offset="1" stop-color="white" stop-opacity="0"/>
</linearGradient>
<linearGradient id="paint1_linear_7_7616" x1="1003.14" y1="69.922" x2="447.836" y2="531.579" gradientUnits="userSpaceOnUse">
<stop stop-color="white"/>
<stop offset="1" stop-color="white" stop-opacity="0"/>
</linearGradient>
<linearGradient id="paint2_linear_7_7616" x1="367.091" y1="358.492" x2="1072.2" y2="193.162" gradientUnits="userSpaceOnUse">
<stop stop-color="white"/>
<stop offset="1" stop-color="white" stop-opacity="0"/>
</linearGradient>
<linearGradient id="paint3_linear_7_7616" x1="1044.88" y1="208.559" x2="428.176" y2="449.465" gradientUnits="userSpaceOnUse">
<stop stop-color="white"/>
<stop offset="1" stop-color="white" stop-opacity="0"/>
</linearGradient>
<linearGradient id="paint4_linear_7_7616" x1="87.433" y1="242.362" x2="1399.28" y2="335.022" gradientUnits="userSpaceOnUse">
<stop stop-color="white"/>
<stop offset="1" stop-color="white" stop-opacity="0"/>
</linearGradient>
<linearGradient id="paint5_linear_7_7616" x1="-442.551" y1="900.63" x2="591.759" y2="40.9588" gradientUnits="userSpaceOnUse">
<stop stop-color="white"/>
<stop offset="0.937763" stop-color="white" stop-opacity="0"/>
</linearGradient>
<linearGradient id="paint6_linear_7_7616" x1="143.436" y1="49.5374" x2="1057.04" y2="469.573" gradientUnits="userSpaceOnUse">
<stop stop-color="white" stop-opacity="0"/>
<stop offset="1" stop-color="white"/>
</linearGradient>
<linearGradient id="paint7_linear_7_7616" x1="1287.86" y1="-384.538" x2="260.392" y2="553.997" gradientUnits="userSpaceOnUse">
<stop stop-color="white"/>
<stop offset="0.610326" stop-color="white" stop-opacity="0"/>
</linearGradient>
<linearGradient id="paint8_linear_7_7616" x1="1266.59" y1="491.1" x2="158.801" y2="211.932" gradientUnits="userSpaceOnUse">
<stop stop-color="white" stop-opacity="0"/>
<stop offset="1" stop-color="white"/>
</linearGradient>
</defs>
</svg>
