<svg width="76" height="65" viewBox="0 0 76 65" fill="none" xmlns="http://www.w3.org/2000/svg">
<g clip-path="url(#clip0_7_7835)">
<path d="M52.5898 15.6021H63.064M12.7881 15.6021H44.2105M52.5898 49.398H63.064M12.7881 49.398H44.2105M31.6415 32.5H63.064M12.7881 32.5H23.2622" stroke="white" stroke-width="4" stroke-linecap="square" stroke-linejoin="round"/>
<path d="M48.4016 19.8265C50.7155 19.8265 52.5912 17.9352 52.5912 15.6021C52.5912 13.2689 50.7155 11.3776 48.4016 11.3776C46.0877 11.3776 44.2119 13.2689 44.2119 15.6021C44.2119 17.9352 46.0877 19.8265 48.4016 19.8265Z" stroke="white" stroke-width="4" stroke-linecap="round" stroke-linejoin="round"/>
<path d="M27.4524 36.7245C29.7662 36.7245 31.642 34.8331 31.642 32.5C31.642 30.1669 29.7662 28.2755 27.4524 28.2755C25.1385 28.2755 23.2627 30.1669 23.2627 32.5C23.2627 34.8331 25.1385 36.7245 27.4524 36.7245Z" stroke="white" stroke-width="4" stroke-linecap="round" stroke-linejoin="round"/>
<path d="M48.4016 53.6224C50.7155 53.6224 52.5912 51.7311 52.5912 49.398C52.5912 47.0648 50.7155 45.1735 48.4016 45.1735C46.0877 45.1735 44.2119 47.0648 44.2119 49.398C44.2119 51.7311 46.0877 53.6224 48.4016 53.6224Z" stroke="white" stroke-width="4" stroke-linecap="round" stroke-linejoin="round"/>
</g>
<defs>
<clipPath id="clip0_7_7835">
<rect width="54" height="46" fill="white" transform="translate(10.9268 9.5)"/>
</clipPath>
</defs>
</svg>
