<svg width="97" height="98" viewBox="0 0 97 98" fill="none" xmlns="http://www.w3.org/2000/svg">
<path d="M96.9993 16.3804C96.9993 15.8809 96.5946 15.4749 96.0938 15.4749L92.2565 15.4749C91.8166 15.4749 91.4336 15.1595 91.3672 14.725C91.1737 13.4554 90.7608 12.2575 90.1639 11.1733L88.8145 12.5228C89.3708 13.6923 89.6915 14.9957 89.6915 16.379C89.6915 17.7623 89.3708 19.0658 88.8145 20.2352L90.1639 21.5847C90.7608 20.5005 91.1737 19.304 91.3672 18.033C91.4336 17.5986 91.8166 17.2832 92.2565 17.2832L96.0938 17.2832C96.5932 17.2832 96.9993 16.8785 96.9993 16.3777L96.9993 16.3804Z" fill="white"/>
<path d="M84.6732 24.5029C83.5038 25.0592 82.2003 25.38 80.817 25.38C79.4337 25.38 78.1302 25.0592 76.9608 24.5029L75.6113 25.8524C76.6955 26.4493 77.892 26.8621 79.163 27.0557C79.5975 27.122 79.9129 27.5051 79.9129 27.945L79.9129 31.7822C79.9129 32.2817 80.3176 32.6877 80.8184 32.6877C81.3192 32.6877 81.7239 32.283 81.7239 31.7822L81.7239 27.945C81.7239 27.5051 82.0393 27.122 82.4737 27.0557C83.7434 26.8621 84.9412 26.4493 86.0241 25.8524L84.6746 24.5029L84.6732 24.5029Z" fill="white"/>
<path d="M72.285 20.2355C71.7287 19.066 71.4079 17.7626 71.4079 16.3793C71.4079 14.9946 71.7287 13.6925 72.285 12.5231L70.9356 11.1736C70.3386 12.2578 69.9272 13.4556 69.7322 14.7253C69.6659 15.1597 69.2829 15.4751 68.843 15.4751L65.0071 15.4751C64.5076 15.4751 64.1016 15.8798 64.1016 16.3806C64.1016 16.8814 64.5063 17.2861 65.0071 17.2861L68.843 17.2861C69.2829 17.2861 69.6659 17.6015 69.7322 18.036C69.9258 19.307 70.3386 20.5035 70.9356 21.5877L72.285 20.2382L72.285 20.2355Z" fill="white"/>
<path d="M76.9622 8.25817C78.1316 7.70186 79.4351 7.38108 80.8184 7.38108C82.2017 7.38108 83.5051 7.70186 84.6746 8.25817L86.0241 6.9087C84.9399 6.31179 83.7434 5.9003 82.4737 5.70539C82.0393 5.63906 81.7239 5.25604 81.7239 4.81614L81.7239 0.980213C81.7239 0.480759 81.3192 0.074707 80.8184 0.074707C80.3176 0.074707 79.9129 0.479406 79.9129 0.980213L79.9129 4.81614C79.9129 5.25604 79.5975 5.63906 79.163 5.70539C77.892 5.9003 76.6955 6.31179 75.6113 6.9087L76.9608 8.25817L76.9622 8.25817Z" fill="white"/>
<rect x="0.101562" y="22" width="76" height="76" rx="38" fill="#00FF00"/>
<path fill-rule="evenodd" clip-rule="evenodd" d="M40.3522 39.4595H26.8224V44.3794H35.4323V48.5614H18.9492V61.3531H15.5059V66.273H18.9492V79.557H57.3247V66.273H60.7699V61.3531H57.3247V48.5614H40.3522V39.4595ZM23.8697 66.273H23.8692V74.637H52.4048V53.4813H23.8692V61.3531H23.8697V66.273ZM28.7891 68.2411L28.7891 59.8772H33.7091V68.2411H28.7891ZM42.0742 59.8772V68.2411H46.9941V59.8772H42.0742Z" fill="#070504"/>
</svg>
