<svg width="617" height="498" viewBox="0 0 617 498" fill="none" xmlns="http://www.w3.org/2000/svg">
<path d="M261.269 216.686C200.574 246.894 150.253 283.453 117.952 318.11C101.799 335.441 90.1864 352.263 84.0187 367.544C77.8505 382.826 77.1641 396.468 82.6849 407.56C88.2057 418.653 99.5033 426.331 115.414 430.624C131.324 434.917 151.746 435.794 175.311 433.357C222.436 428.484 281.942 410.379 342.637 380.171C403.332 349.962 453.654 313.404 485.954 278.747C502.107 261.415 513.72 244.594 519.887 229.313C526.056 214.031 526.742 200.389 521.221 189.296C515.7 178.204 504.403 170.526 488.492 166.233C472.582 161.94 452.16 161.063 428.595 163.5C381.47 168.373 321.964 186.478 261.269 216.686Z" stroke="url(#paint0_linear_7_7765)" stroke-width="1.72776"/>
<path d="M234.823 191.975C175.807 236.622 129.797 286.758 103.099 331.685C89.7482 354.152 81.2584 375.262 78.3527 393.695C75.4477 412.123 78.1353 427.769 86.9924 439.477C95.8495 451.184 110.175 458.027 128.698 460.244C147.226 462.462 169.849 460.035 195.1 453.299C245.596 439.828 306.357 409.191 365.374 364.545C424.39 319.898 470.4 269.762 497.098 224.835C510.449 202.368 518.938 181.258 521.844 162.825C524.749 144.398 522.061 128.751 513.204 117.044C504.347 105.336 490.022 98.4934 471.499 96.2761C452.971 94.0584 430.347 96.4856 405.097 103.222C354.601 116.692 293.84 147.329 234.823 191.975Z" stroke="url(#paint1_linear_7_7765)" stroke-width="2.35915"/>
<g filter="url(#filter0_d_7_7765)">
<circle cx="396.554" cy="369.155" r="50.0119" transform="rotate(40.5646 396.554 369.155)" fill="#222121" stroke="white" stroke-width="2.72045"/>
<mask id="mask0_7_7765" style="mask-type:alpha" maskUnits="userSpaceOnUse" x="345" y="317" width="103" height="104">
<g opacity="0.39">
<circle cx="396.554" cy="369.156" r="51.3722" transform="rotate(40.5646 396.554 369.156)" fill="#1E77C8"/>
<circle cx="396.554" cy="369.156" r="49.7562" transform="rotate(40.5646 396.554 369.156)" stroke="white" stroke-opacity="0.18" stroke-width="3.23184"/>
</g>
</mask>
<g mask="url(#mask0_7_7765)">
<rect opacity="0.39" x="453.979" y="243.289" width="111.502" height="138.511" transform="rotate(83.0693 453.979 243.289)" fill="#D9D9D9"/>
</g>
<g clip-path="url(#clip0_7_7765)">
<mask id="path-7-outside-1_7_7765" maskUnits="userSpaceOnUse" x="359.984" y="330.299" width="77.5542" height="77.5542" fill="black">
<rect fill="white" x="359.984" y="330.299" width="77.5542" height="77.5542"/>
<path d="M391.258 361.106L398.971 361.182C399.216 358.324 400.392 355.625 402.319 353.5C404.246 351.375 406.816 349.941 409.637 349.417C412.457 348.893 415.371 349.31 417.932 350.602C420.493 351.894 422.56 353.991 423.814 356.57C429.557 368.545 415.954 380.457 404.883 373.306L400.195 379.43C407.082 385.333 405.481 397.169 397.196 400.989C394.067 402.502 390.466 402.716 387.18 401.585C383.893 400.453 381.188 398.067 379.654 394.947C373.954 382.876 387.521 371.089 398.585 378.212L403.274 372.087C400.727 369.803 399.172 366.614 398.94 363.2L391.227 363.124C391.033 365.379 390.259 367.545 388.979 369.412C387.7 371.278 385.959 372.782 383.926 373.777C373.01 379.037 361.381 367.909 366.125 356.841C371.532 344.279 390.256 347.396 391.258 361.106ZM381.076 385.28C380.537 386.693 380.294 388.201 380.361 389.712C380.429 391.223 380.805 392.703 381.468 394.063C382.131 395.422 383.066 396.631 384.215 397.614C385.364 398.597 386.702 399.334 388.147 399.78L389.682 399.031C390.241 398.759 390.7 398.318 390.993 397.769C391.286 397.221 391.398 396.594 391.313 395.978C391.065 394.703 390.868 390.906 390.21 389.799C389.749 388.619 386.862 386.077 386.018 385.123C385.585 384.678 385.022 384.381 384.41 384.274C383.799 384.168 383.169 384.258 382.611 384.531L381.076 385.28ZM398.708 385.655C398.269 384.781 397.503 384.115 396.577 383.801C395.65 383.487 394.637 383.551 393.758 383.979C392.878 384.407 392.203 385.165 391.878 386.087C391.553 387.01 391.605 388.024 392.022 388.909C392.461 389.783 393.226 390.449 394.153 390.763C395.079 391.077 396.092 391.013 396.972 390.585C397.852 390.157 398.527 389.399 398.852 388.476C399.177 387.554 399.125 386.54 398.708 385.655ZM386.58 379.219C385.065 379.96 383.74 381.039 382.707 382.373C383.547 382.16 384.429 382.172 385.263 382.406C386.097 382.641 386.855 383.091 387.46 383.711L389.769 386.061C390.023 384.897 390.633 383.842 391.514 383.041C392.396 382.24 393.504 381.734 394.687 381.592C395.869 381.45 397.066 381.68 398.112 382.25C399.157 382.819 400 383.7 400.522 384.771C401.044 385.841 401.219 387.047 401.024 388.222C400.829 389.397 400.274 390.482 399.434 391.326C398.594 392.17 397.512 392.732 396.339 392.933C395.165 393.135 393.958 392.966 392.885 392.449L393.314 395.711C393.43 396.571 393.318 397.445 392.99 398.248C392.661 399.051 392.127 399.753 391.442 400.284C409.482 399.1 403.546 372.441 386.58 379.219ZM412.018 373.408C420.039 373.588 425.66 364.629 422 357.455C418.601 350.155 408.079 349.065 403.284 355.497C404.124 355.284 405.005 355.295 405.839 355.53C406.674 355.765 407.431 356.215 408.037 356.835L410.345 359.184C410.599 358.021 411.21 356.965 412.091 356.165C412.972 355.364 414.081 354.857 415.263 354.716C416.445 354.574 417.643 354.804 418.688 355.373C419.734 355.943 420.576 356.824 421.098 357.894C421.62 358.965 421.796 360.171 421.601 361.346C421.406 362.52 420.85 363.605 420.01 364.45C419.171 365.294 418.089 365.856 416.915 366.057C415.742 366.258 414.534 366.089 413.461 365.573L413.891 368.835C414.007 369.694 413.895 370.569 413.566 371.372C413.238 372.174 412.704 372.876 412.018 373.408ZM412.604 362.043C413.044 362.917 413.811 363.582 414.738 363.895C415.665 364.207 416.678 364.142 417.557 363.712C418.436 363.282 419.11 362.524 419.434 361.6C419.757 360.677 419.703 359.663 419.284 358.779C418.844 357.905 418.078 357.24 417.15 356.928C416.223 356.615 415.21 356.681 414.331 357.11C413.452 357.54 412.778 358.299 412.454 359.222C412.131 360.146 412.185 361.159 412.604 362.043ZM408.724 372.903L410.259 372.155C410.818 371.883 411.277 371.441 411.57 370.893C411.863 370.345 411.975 369.718 411.89 369.102L411.299 364.613C411.18 362.199 408.06 359.885 406.594 358.246C406.161 357.801 405.599 357.504 404.987 357.398C404.375 357.292 403.745 357.382 403.188 357.655L401.653 358.404C399.283 364.036 402.826 371.303 408.724 372.903ZM367.806 358.068C367.267 359.481 367.023 360.989 367.091 362.5C367.158 364.011 367.535 365.492 368.198 366.851C368.861 368.21 369.796 369.419 370.944 370.402C372.093 371.385 373.432 372.123 374.877 372.568L376.412 371.819C376.971 371.547 377.43 371.106 377.723 370.558C378.016 370.009 378.128 369.382 378.043 368.767C377.794 367.491 377.598 363.694 376.94 362.588C376.479 361.407 373.591 358.865 372.747 357.911C372.314 357.466 371.752 357.169 371.14 357.063C370.528 356.956 369.898 357.046 369.341 357.32L367.806 358.068ZM385.437 358.444C384.998 357.568 384.231 356.901 383.304 356.588C382.376 356.275 381.362 356.34 380.482 356.77C379.602 357.2 378.927 357.96 378.604 358.884C378.281 359.809 378.336 360.823 378.757 361.708C379.196 362.583 379.963 363.25 380.891 363.563C381.818 363.877 382.832 363.811 383.712 363.381C384.592 362.951 385.267 362.192 385.59 361.267C385.913 360.343 385.858 359.328 385.437 358.444ZM374.19 356.499L376.499 358.849C376.753 357.685 377.363 356.63 378.244 355.829C379.125 355.028 380.234 354.522 381.416 354.38C382.599 354.238 383.796 354.468 384.841 355.038C385.887 355.607 386.729 356.489 387.251 357.559C387.773 358.629 387.949 359.835 387.754 361.01C387.559 362.185 387.003 363.27 386.163 364.114C385.324 364.958 384.242 365.52 383.068 365.721C381.895 365.923 380.687 365.754 379.614 365.238L380.044 368.499C380.16 369.359 380.048 370.234 379.719 371.036C379.391 371.839 378.857 372.541 378.171 373.072C386.192 373.252 391.813 364.294 388.153 357.119C384.754 349.819 374.232 348.73 369.437 355.162C370.277 354.949 371.158 354.96 371.992 355.195C372.827 355.429 373.584 355.879 374.19 356.499Z"/>
</mask>
<path d="M391.258 361.106L398.971 361.182C399.216 358.324 400.392 355.625 402.319 353.5C404.246 351.375 406.816 349.941 409.637 349.417C412.457 348.893 415.371 349.31 417.932 350.602C420.493 351.894 422.56 353.991 423.814 356.57C429.557 368.545 415.954 380.457 404.883 373.306L400.195 379.43C407.082 385.333 405.481 397.169 397.196 400.989C394.067 402.502 390.466 402.716 387.18 401.585C383.893 400.453 381.188 398.067 379.654 394.947C373.954 382.876 387.521 371.089 398.585 378.212L403.274 372.087C400.727 369.803 399.172 366.614 398.94 363.2L391.227 363.124C391.033 365.379 390.259 367.545 388.979 369.412C387.7 371.278 385.959 372.782 383.926 373.777C373.01 379.037 361.381 367.909 366.125 356.841C371.532 344.279 390.256 347.396 391.258 361.106ZM381.076 385.28C380.537 386.693 380.294 388.201 380.361 389.712C380.429 391.223 380.805 392.703 381.468 394.063C382.131 395.422 383.066 396.631 384.215 397.614C385.364 398.597 386.702 399.334 388.147 399.78L389.682 399.031C390.241 398.759 390.7 398.318 390.993 397.769C391.286 397.221 391.398 396.594 391.313 395.978C391.065 394.703 390.868 390.906 390.21 389.799C389.749 388.619 386.862 386.077 386.018 385.123C385.585 384.678 385.022 384.381 384.41 384.274C383.799 384.168 383.169 384.258 382.611 384.531L381.076 385.28ZM398.708 385.655C398.269 384.781 397.503 384.115 396.577 383.801C395.65 383.487 394.637 383.551 393.758 383.979C392.878 384.407 392.203 385.165 391.878 386.087C391.553 387.01 391.605 388.024 392.022 388.909C392.461 389.783 393.226 390.449 394.153 390.763C395.079 391.077 396.092 391.013 396.972 390.585C397.852 390.157 398.527 389.399 398.852 388.476C399.177 387.554 399.125 386.54 398.708 385.655ZM386.58 379.219C385.065 379.96 383.74 381.039 382.707 382.373C383.547 382.16 384.429 382.172 385.263 382.406C386.097 382.641 386.855 383.091 387.46 383.711L389.769 386.061C390.023 384.897 390.633 383.842 391.514 383.041C392.396 382.24 393.504 381.734 394.687 381.592C395.869 381.45 397.066 381.68 398.112 382.25C399.157 382.819 400 383.7 400.522 384.771C401.044 385.841 401.219 387.047 401.024 388.222C400.829 389.397 400.274 390.482 399.434 391.326C398.594 392.17 397.512 392.732 396.339 392.933C395.165 393.135 393.958 392.966 392.885 392.449L393.314 395.711C393.43 396.571 393.318 397.445 392.99 398.248C392.661 399.051 392.127 399.753 391.442 400.284C409.482 399.1 403.546 372.441 386.58 379.219ZM412.018 373.408C420.039 373.588 425.66 364.629 422 357.455C418.601 350.155 408.079 349.065 403.284 355.497C404.124 355.284 405.005 355.295 405.839 355.53C406.674 355.765 407.431 356.215 408.037 356.835L410.345 359.184C410.599 358.021 411.21 356.965 412.091 356.165C412.972 355.364 414.081 354.857 415.263 354.716C416.445 354.574 417.643 354.804 418.688 355.373C419.734 355.943 420.576 356.824 421.098 357.894C421.62 358.965 421.796 360.171 421.601 361.346C421.406 362.52 420.85 363.605 420.01 364.45C419.171 365.294 418.089 365.856 416.915 366.057C415.742 366.258 414.534 366.089 413.461 365.573L413.891 368.835C414.007 369.694 413.895 370.569 413.566 371.372C413.238 372.174 412.704 372.876 412.018 373.408ZM412.604 362.043C413.044 362.917 413.811 363.582 414.738 363.895C415.665 364.207 416.678 364.142 417.557 363.712C418.436 363.282 419.11 362.524 419.434 361.6C419.757 360.677 419.703 359.663 419.284 358.779C418.844 357.905 418.078 357.24 417.15 356.928C416.223 356.615 415.21 356.681 414.331 357.11C413.452 357.54 412.778 358.299 412.454 359.222C412.131 360.146 412.185 361.159 412.604 362.043ZM408.724 372.903L410.259 372.155C410.818 371.883 411.277 371.441 411.57 370.893C411.863 370.345 411.975 369.718 411.89 369.102L411.299 364.613C411.18 362.199 408.06 359.885 406.594 358.246C406.161 357.801 405.599 357.504 404.987 357.398C404.375 357.292 403.745 357.382 403.188 357.655L401.653 358.404C399.283 364.036 402.826 371.303 408.724 372.903ZM367.806 358.068C367.267 359.481 367.023 360.989 367.091 362.5C367.158 364.011 367.535 365.492 368.198 366.851C368.861 368.21 369.796 369.419 370.944 370.402C372.093 371.385 373.432 372.123 374.877 372.568L376.412 371.819C376.971 371.547 377.43 371.106 377.723 370.558C378.016 370.009 378.128 369.382 378.043 368.767C377.794 367.491 377.598 363.694 376.94 362.588C376.479 361.407 373.591 358.865 372.747 357.911C372.314 357.466 371.752 357.169 371.14 357.063C370.528 356.956 369.898 357.046 369.341 357.32L367.806 358.068ZM385.437 358.444C384.998 357.568 384.231 356.901 383.304 356.588C382.376 356.275 381.362 356.34 380.482 356.77C379.602 357.2 378.927 357.96 378.604 358.884C378.281 359.809 378.336 360.823 378.757 361.708C379.196 362.583 379.963 363.25 380.891 363.563C381.818 363.877 382.832 363.811 383.712 363.381C384.592 362.951 385.267 362.192 385.59 361.267C385.913 360.343 385.858 359.328 385.437 358.444ZM374.19 356.499L376.499 358.849C376.753 357.685 377.363 356.63 378.244 355.829C379.125 355.028 380.234 354.522 381.416 354.38C382.599 354.238 383.796 354.468 384.841 355.038C385.887 355.607 386.729 356.489 387.251 357.559C387.773 358.629 387.949 359.835 387.754 361.01C387.559 362.185 387.003 363.27 386.163 364.114C385.324 364.958 384.242 365.52 383.068 365.721C381.895 365.923 380.687 365.754 379.614 365.238L380.044 368.499C380.16 369.359 380.048 370.234 379.719 371.036C379.391 371.839 378.857 372.541 378.171 373.072C386.192 373.252 391.813 364.294 388.153 357.119C384.754 349.819 374.232 348.73 369.437 355.162C370.277 354.949 371.158 354.96 371.992 355.195C372.827 355.429 373.584 355.879 374.19 356.499Z" fill="white"/>
<path d="M391.258 361.106L398.971 361.182C399.216 358.324 400.392 355.625 402.319 353.5C404.246 351.375 406.816 349.941 409.637 349.417C412.457 348.893 415.371 349.31 417.932 350.602C420.493 351.894 422.56 353.991 423.814 356.57C429.557 368.545 415.954 380.457 404.883 373.306L400.195 379.43C407.082 385.333 405.481 397.169 397.196 400.989C394.067 402.502 390.466 402.716 387.18 401.585C383.893 400.453 381.188 398.067 379.654 394.947C373.954 382.876 387.521 371.089 398.585 378.212L403.274 372.087C400.727 369.803 399.172 366.614 398.94 363.2L391.227 363.124C391.033 365.379 390.259 367.545 388.979 369.412C387.7 371.278 385.959 372.782 383.926 373.777C373.01 379.037 361.381 367.909 366.125 356.841C371.532 344.279 390.256 347.396 391.258 361.106ZM381.076 385.28C380.537 386.693 380.294 388.201 380.361 389.712C380.429 391.223 380.805 392.703 381.468 394.063C382.131 395.422 383.066 396.631 384.215 397.614C385.364 398.597 386.702 399.334 388.147 399.78L389.682 399.031C390.241 398.759 390.7 398.318 390.993 397.769C391.286 397.221 391.398 396.594 391.313 395.978C391.065 394.703 390.868 390.906 390.21 389.799C389.749 388.619 386.862 386.077 386.018 385.123C385.585 384.678 385.022 384.381 384.41 384.274C383.799 384.168 383.169 384.258 382.611 384.531L381.076 385.28ZM398.708 385.655C398.269 384.781 397.503 384.115 396.577 383.801C395.65 383.487 394.637 383.551 393.758 383.979C392.878 384.407 392.203 385.165 391.878 386.087C391.553 387.01 391.605 388.024 392.022 388.909C392.461 389.783 393.226 390.449 394.153 390.763C395.079 391.077 396.092 391.013 396.972 390.585C397.852 390.157 398.527 389.399 398.852 388.476C399.177 387.554 399.125 386.54 398.708 385.655ZM386.58 379.219C385.065 379.96 383.74 381.039 382.707 382.373C383.547 382.16 384.429 382.172 385.263 382.406C386.097 382.641 386.855 383.091 387.46 383.711L389.769 386.061C390.023 384.897 390.633 383.842 391.514 383.041C392.396 382.24 393.504 381.734 394.687 381.592C395.869 381.45 397.066 381.68 398.112 382.25C399.157 382.819 400 383.7 400.522 384.771C401.044 385.841 401.219 387.047 401.024 388.222C400.829 389.397 400.274 390.482 399.434 391.326C398.594 392.17 397.512 392.732 396.339 392.933C395.165 393.135 393.958 392.966 392.885 392.449L393.314 395.711C393.43 396.571 393.318 397.445 392.99 398.248C392.661 399.051 392.127 399.753 391.442 400.284C409.482 399.1 403.546 372.441 386.58 379.219ZM412.018 373.408C420.039 373.588 425.66 364.629 422 357.455C418.601 350.155 408.079 349.065 403.284 355.497C404.124 355.284 405.005 355.295 405.839 355.53C406.674 355.765 407.431 356.215 408.037 356.835L410.345 359.184C410.599 358.021 411.21 356.965 412.091 356.165C412.972 355.364 414.081 354.857 415.263 354.716C416.445 354.574 417.643 354.804 418.688 355.373C419.734 355.943 420.576 356.824 421.098 357.894C421.62 358.965 421.796 360.171 421.601 361.346C421.406 362.52 420.85 363.605 420.01 364.45C419.171 365.294 418.089 365.856 416.915 366.057C415.742 366.258 414.534 366.089 413.461 365.573L413.891 368.835C414.007 369.694 413.895 370.569 413.566 371.372C413.238 372.174 412.704 372.876 412.018 373.408ZM412.604 362.043C413.044 362.917 413.811 363.582 414.738 363.895C415.665 364.207 416.678 364.142 417.557 363.712C418.436 363.282 419.11 362.524 419.434 361.6C419.757 360.677 419.703 359.663 419.284 358.779C418.844 357.905 418.078 357.24 417.15 356.928C416.223 356.615 415.21 356.681 414.331 357.11C413.452 357.54 412.778 358.299 412.454 359.222C412.131 360.146 412.185 361.159 412.604 362.043ZM408.724 372.903L410.259 372.155C410.818 371.883 411.277 371.441 411.57 370.893C411.863 370.345 411.975 369.718 411.89 369.102L411.299 364.613C411.18 362.199 408.06 359.885 406.594 358.246C406.161 357.801 405.599 357.504 404.987 357.398C404.375 357.292 403.745 357.382 403.188 357.655L401.653 358.404C399.283 364.036 402.826 371.303 408.724 372.903ZM367.806 358.068C367.267 359.481 367.023 360.989 367.091 362.5C367.158 364.011 367.535 365.492 368.198 366.851C368.861 368.21 369.796 369.419 370.944 370.402C372.093 371.385 373.432 372.123 374.877 372.568L376.412 371.819C376.971 371.547 377.43 371.106 377.723 370.558C378.016 370.009 378.128 369.382 378.043 368.767C377.794 367.491 377.598 363.694 376.94 362.588C376.479 361.407 373.591 358.865 372.747 357.911C372.314 357.466 371.752 357.169 371.14 357.063C370.528 356.956 369.898 357.046 369.341 357.32L367.806 358.068ZM385.437 358.444C384.998 357.568 384.231 356.901 383.304 356.588C382.376 356.275 381.362 356.34 380.482 356.77C379.602 357.2 378.927 357.96 378.604 358.884C378.281 359.809 378.336 360.823 378.757 361.708C379.196 362.583 379.963 363.25 380.891 363.563C381.818 363.877 382.832 363.811 383.712 363.381C384.592 362.951 385.267 362.192 385.59 361.267C385.913 360.343 385.858 359.328 385.437 358.444ZM374.19 356.499L376.499 358.849C376.753 357.685 377.363 356.63 378.244 355.829C379.125 355.028 380.234 354.522 381.416 354.38C382.599 354.238 383.796 354.468 384.841 355.038C385.887 355.607 386.729 356.489 387.251 357.559C387.773 358.629 387.949 359.835 387.754 361.01C387.559 362.185 387.003 363.27 386.163 364.114C385.324 364.958 384.242 365.52 383.068 365.721C381.895 365.923 380.687 365.754 379.614 365.238L380.044 368.499C380.16 369.359 380.048 370.234 379.719 371.036C379.391 371.839 378.857 372.541 378.171 373.072C386.192 373.252 391.813 364.294 388.153 357.119C384.754 349.819 374.232 348.73 369.437 355.162C370.277 354.949 371.158 354.96 371.992 355.195C372.827 355.429 373.584 355.879 374.19 356.499Z" stroke="white" stroke-width="0.441722" mask="url(#path-7-outside-1_7_7765)"/>
</g>
</g>
<g filter="url(#filter1_d_7_7765)">
<circle cx="336.185" cy="201.26" r="78.9394" transform="rotate(-7.00998 336.185 201.26)" fill="#222121" stroke="white" stroke-width="4.29399"/>
<mask id="mask1_7_7765" style="mask-type:alpha" maskUnits="userSpaceOnUse" x="255" y="120" width="163" height="163">
<g opacity="0.39">
<circle cx="336.185" cy="201.26" r="81.0864" transform="rotate(-7.00998 336.185 201.26)" fill="#1E77C8"/>
<circle cx="336.185" cy="201.26" r="78.5358" transform="rotate(-7.00998 336.185 201.26)" stroke="white" stroke-opacity="0.18" stroke-width="5.10118"/>
</g>
</mask>
<g mask="url(#mask1_7_7765)">
<rect opacity="0.29" x="250.684" y="0.326904" width="175.996" height="218.628" transform="rotate(35.4947 250.684 0.326904)" fill="#D9D9D9"/>
</g>
<path d="M353.909 217.319L325.267 210.893L326.873 203.732L355.515 210.159L353.909 217.319ZM356.319 206.578L313.356 196.939L314.962 189.778L357.925 199.418L356.319 206.578ZM358.728 195.838L315.766 186.198L317.372 179.038L360.335 188.677L358.728 195.838ZM361.803 249.174L376.263 184.73C376.704 182.761 376.381 180.918 375.292 179.202C374.203 177.486 372.675 176.406 370.709 175.963L313.425 163.11C311.456 162.668 309.612 162.992 307.894 164.08C306.175 165.169 305.097 166.697 304.658 168.664L295.018 211.627C294.576 213.596 294.899 215.439 295.985 217.157C297.071 218.875 298.6 219.954 300.572 220.394L350.695 231.64L361.803 249.174ZM355.345 225.162L302.179 213.233L311.818 170.271L369.102 183.123L358.559 230.114L355.345 225.162Z" fill="white"/>
</g>
<g opacity="0.57" filter="url(#filter2_f_7_7765)">
<ellipse cx="277.357" cy="272.154" rx="73.1365" ry="103.748" transform="rotate(-47.2085 277.357 272.154)" fill="#181818"/>
</g>
<g filter="url(#filter3_f_7_7765)">
<circle cx="500.981" cy="98.7987" r="11.4593" transform="rotate(7.69188 500.981 98.7987)" fill="white"/>
</g>
<g style="mix-blend-mode:hard-light">
<path d="M502.817 25.398C502.817 25.398 498.552 63.1267 497.066 92.453C480.762 76.0175 459.002 57.0723 459.002 57.0723C459.002 57.0723 476.423 80.0343 491.716 97.4081C465.591 97.2449 432.51 99.2687 432.51 99.2687C432.51 99.2687 465.469 103.332 491.566 104.773C475.234 121.173 456.434 143.018 456.434 143.018C456.434 143.018 479.249 125.502 496.524 110.118C496.206 139.469 498.138 177.326 498.138 177.326C498.138 177.326 502.389 139.723 503.882 110.417C520.169 126.818 541.796 145.647 541.796 145.647C541.796 145.647 524.377 122.688 509.085 105.315C535.234 105.487 568.446 103.455 568.446 103.455C568.446 103.455 535.487 99.3915 509.389 97.9505C525.722 81.5509 544.522 59.706 544.522 59.706C544.522 59.706 521.707 77.2226 504.432 92.6065C504.75 63.2547 502.817 25.398 502.817 25.398Z" fill="url(#paint2_radial_7_7765)"/>
</g>
<g opacity="0.15" filter="url(#filter4_f_7_7765)">
<ellipse cx="260.867" cy="277.133" rx="61.524" ry="87.2754" transform="rotate(-34.325 260.867 277.133)" fill="#00FF00"/>
</g>
<g filter="url(#filter5_d_7_7765)">
<circle cx="190.655" cy="289.945" r="117.52" transform="rotate(15.7684 190.655 289.945)" fill="#1E77C8"/>
<circle cx="190.655" cy="289.945" r="114.408" transform="rotate(15.7684 190.655 289.945)" stroke="white" stroke-opacity="0.18" stroke-width="6.22335"/>
<mask id="mask2_7_7765" style="mask-type:alpha" maskUnits="userSpaceOnUse" x="73" y="172" width="236" height="236">
<g opacity="0.39">
<circle cx="190.655" cy="289.945" r="117.52" transform="rotate(15.7684 190.655 289.945)" fill="#1E77C8"/>
<circle cx="190.655" cy="289.945" r="114.408" transform="rotate(15.7684 190.655 289.945)" stroke="white" stroke-opacity="0.18" stroke-width="6.22335"/>
</g>
</mask>
<g mask="url(#mask2_7_7765)">
<rect opacity="0.39" x="155.852" y="-23.8069" width="255.074" height="316.861" transform="rotate(52.543 155.852 -23.8069)" fill="#D9D9D9"/>
</g>
<g clip-path="url(#clip1_7_7765)">
<path d="M252.405 266.318L214.19 354.529C211.397 360.735 207.213 361.575 202.35 357.404L176.908 329.429L159.703 340.338C157.787 341.606 156.184 342.667 153.11 342.046L161.379 312.152L226.815 273.458C229.654 271.805 226.964 270.028 223.313 271.518L146.192 300.66L118.581 285.517C112.574 282.228 113.345 277.81 121.824 276.332L246.019 255.34C251.758 254.423 255.785 258.546 252.405 266.318Z" fill="white" fill-opacity="0.9"/>
</g>
</g>
<defs>
<filter id="filter0_d_7_7765" x="342.733" y="317.782" width="109.278" height="112.37" filterUnits="userSpaceOnUse" color-interpolation-filters="sRGB">
<feFlood flood-opacity="0" result="BackgroundImageFix"/>
<feColorMatrix in="SourceAlpha" type="matrix" values="0 0 0 0 0 0 0 0 0 0 0 0 0 0 0 0 0 0 127 0" result="hardAlpha"/>
<feOffset dx="1.46486" dy="4.12508"/>
<feColorMatrix type="matrix" values="0 0 0 0 0.278431 0 0 0 0 0.278431 0 0 0 0 0.278431 0 0 0 1 0"/>
<feBlend mode="normal" in2="BackgroundImageFix" result="effect1_dropShadow_7_7765"/>
<feBlend mode="normal" in="SourceGraphic" in2="effect1_dropShadow_7_7765" result="shape"/>
</filter>
<filter id="filter1_d_7_7765" x="255.09" y="120.165" width="164.502" height="168.701" filterUnits="userSpaceOnUse" color-interpolation-filters="sRGB">
<feFlood flood-opacity="0" result="BackgroundImageFix"/>
<feColorMatrix in="SourceAlpha" type="matrix" values="0 0 0 0 0 0 0 0 0 0 0 0 0 0 0 0 0 0 127 0" result="hardAlpha"/>
<feOffset dx="2.31215" dy="6.51107"/>
<feColorMatrix type="matrix" values="0 0 0 0 0.278431 0 0 0 0 0.278431 0 0 0 0 0.278431 0 0 0 1 0"/>
<feBlend mode="normal" in2="BackgroundImageFix" result="effect1_dropShadow_7_7765"/>
<feBlend mode="normal" in="SourceGraphic" in2="effect1_dropShadow_7_7765" result="shape"/>
</filter>
<filter id="filter2_f_7_7765" x="99.4612" y="96.587" width="355.791" height="351.134" filterUnits="userSpaceOnUse" color-interpolation-filters="sRGB">
<feFlood flood-opacity="0" result="BackgroundImageFix"/>
<feBlend mode="normal" in="SourceGraphic" in2="BackgroundImageFix" result="shape"/>
<feGaussianBlur stdDeviation="43.4872" result="effect1_foregroundBlur_7_7765"/>
</filter>
<filter id="filter3_f_7_7765" x="472.355" y="70.1734" width="57.2513" height="57.2508" filterUnits="userSpaceOnUse" color-interpolation-filters="sRGB">
<feFlood flood-opacity="0" result="BackgroundImageFix"/>
<feBlend mode="normal" in="SourceGraphic" in2="BackgroundImageFix" result="shape"/>
<feGaussianBlur stdDeviation="8.58236" result="effect1_foregroundBlur_7_7765"/>
</filter>
<filter id="filter4_f_7_7765" x="103.157" y="110.148" width="315.42" height="333.968" filterUnits="userSpaceOnUse" color-interpolation-filters="sRGB">
<feFlood flood-opacity="0" result="BackgroundImageFix"/>
<feBlend mode="normal" in="SourceGraphic" in2="BackgroundImageFix" result="shape"/>
<feGaussianBlur stdDeviation="43.4872" result="effect1_foregroundBlur_7_7765"/>
</filter>
<filter id="filter5_d_7_7765" x="73.1055" y="172.396" width="238.451" height="244.536" filterUnits="userSpaceOnUse" color-interpolation-filters="sRGB">
<feFlood flood-opacity="0" result="BackgroundImageFix"/>
<feColorMatrix in="SourceAlpha" type="matrix" values="0 0 0 0 0 0 0 0 0 0 0 0 0 0 0 0 0 0 127 0" result="hardAlpha"/>
<feOffset dx="3.35103" dy="9.4366"/>
<feColorMatrix type="matrix" values="0 0 0 0 0.10992 0 0 0 0 0.375043 0 0 0 0 0.594553 0 0 0 1 0"/>
<feBlend mode="normal" in2="BackgroundImageFix" result="effect1_dropShadow_7_7765"/>
<feBlend mode="normal" in="SourceGraphic" in2="effect1_dropShadow_7_7765" result="shape"/>
</filter>
<linearGradient id="paint0_linear_7_7765" x1="521.995" y1="188.911" x2="81.9115" y2="407.945" gradientUnits="userSpaceOnUse">
<stop stop-color="white"/>
<stop offset="1" stop-color="white" stop-opacity="0"/>
</linearGradient>
<linearGradient id="paint1_linear_7_7765" x1="558.93" y1="77.4617" x2="72.115" y2="440.442" gradientUnits="userSpaceOnUse">
<stop stop-color="white" stop-opacity="0"/>
<stop offset="1" stop-color="white"/>
</linearGradient>
<radialGradient id="paint2_radial_7_7765" cx="0" cy="0" r="1" gradientUnits="userSpaceOnUse" gradientTransform="translate(500.566 98.5133) rotate(124.172) scale(93.3964 72.0777)">
<stop stop-color="white"/>
<stop offset="1" stop-color="#3A3A3A" stop-opacity="0.73"/>
</radialGradient>
<clipPath id="clip0_7_7765">
<rect width="76.5158" height="77.996" fill="white" transform="translate(388.811 317.894) rotate(36.2109)"/>
</clipPath>
<clipPath id="clip1_7_7765">
<rect width="132.555" height="151.012" fill="white" transform="translate(128.607 211.654) rotate(11.4146)"/>
</clipPath>
</defs>
</svg>
