<svg width="64" height="65" viewBox="0 0 64 65" fill="none" xmlns="http://www.w3.org/2000/svg">
<path d="M5.90137 54.1H58.7014V10.9H5.90137V54.1ZM5.90137 54.1L25.1014 34.9L32.3014 42.1L46.7014 25.3L58.7014 39.7M17.9014 25.3C18.5379 25.3 19.1483 25.0472 19.5984 24.5971C20.0485 24.147 20.3014 23.5365 20.3014 22.9C20.3014 22.2635 20.0485 21.6531 19.5984 21.203C19.1483 20.7529 18.5379 20.5 17.9014 20.5C17.2648 20.5 16.6544 20.7529 16.2043 21.203C15.7542 21.6531 15.5014 22.2635 15.5014 22.9C15.5014 23.5365 15.7542 24.147 16.2043 24.5971C16.6544 25.0472 17.2648 25.3 17.9014 25.3Z" stroke="white" stroke-width="4"/>
</svg>
