<svg width="65" height="65" viewBox="0 0 65 65" fill="none" xmlns="http://www.w3.org/2000/svg">
<path d="M23.2905 30.6147C26.3118 27.5933 31.5812 27.5933 34.6025 30.6147L36.4878 32.5L40.2585 28.7293L38.3732 26.844C35.8585 24.3267 32.5092 22.9373 28.9465 22.9373C25.3839 22.9373 22.0345 24.3267 19.5199 26.844L13.8612 32.5C11.366 35.0032 9.96484 38.3935 9.96484 41.928C9.96484 45.4624 11.366 48.8527 13.8612 51.356C15.0982 52.5948 16.5678 53.5769 18.1855 54.2459C19.8032 54.915 21.5372 55.2578 23.2878 55.2547C25.0389 55.2583 26.7735 54.9157 28.3917 54.2467C30.01 53.5776 31.48 52.5952 32.7172 51.356L34.6025 49.4707L30.8319 45.7L28.9465 47.5853C27.4438 49.0813 25.4096 49.9212 23.2892 49.9212C21.1687 49.9212 19.1346 49.0813 17.6319 47.5853C16.1345 46.0833 15.2937 44.0489 15.2937 41.928C15.2937 39.8071 16.1345 37.7727 17.6319 36.2707L23.2905 30.6147Z" fill="#929292"/>
<path d="M32.7152 13.644L30.8298 15.5293L34.6005 19.3L36.4858 17.4146C37.9886 15.9186 40.0227 15.0787 42.1432 15.0787C44.2636 15.0787 46.2977 15.9186 47.8005 17.4146C49.2978 18.9167 50.1386 20.9511 50.1386 23.072C50.1386 25.1929 49.2978 27.2272 47.8005 28.7293L42.1418 34.3853C39.1205 37.4066 33.8512 37.4066 30.8298 34.3853L28.9445 32.5L25.1738 36.2706L27.0592 38.156C29.5738 40.6733 32.9232 42.0626 36.4858 42.0626C40.0485 42.0626 43.3978 40.6733 45.9125 38.156L51.5712 32.5C54.0664 29.9967 55.4675 26.6064 55.4675 23.072C55.4675 19.5375 54.0664 16.1472 51.5712 13.644C49.0686 11.1474 45.678 9.74542 42.1432 9.74542C38.6083 9.74542 35.2177 11.1474 32.7152 13.644Z" fill="#929292"/>
</svg>
