<svg width="65" height="65" viewBox="0 0 65 65" fill="none" xmlns="http://www.w3.org/2000/svg">
<g clip-path="url(#clip0_7_7904)">
<path d="M57.5 32.5C57.5 46.3342 46.5042 57.5 33 57.5C19.4958 57.5 8.5 46.3342 8.5 32.5C8.5 18.6658 19.4958 7.5 33 7.5C46.5042 7.5 57.5 18.6658 57.5 32.5Z" stroke="white" stroke-width="3"/>
<path d="M50.1783 14.5179L14.8926 50.4822" stroke="white" stroke-width="3"/>
<path d="M18.5546 20.1293L18.6052 20.0971L25.0042 16.8839L31.911 26.27L28.7334 30.5885C28.8284 32.2172 29.5061 33.7538 30.638 34.9074C31.7699 36.0611 33.2775 36.7517 34.8754 36.8486L39.1124 33.6099L48.3213 40.6493L45.195 47.1169L45.1687 47.1715L45.1369 47.223C44.9701 47.497 44.7373 47.7229 44.4605 47.8792C44.1838 48.0355 43.8724 48.1171 43.556 48.116H41.9049C38.7234 48.116 35.5731 47.4774 32.6338 46.2364C29.6945 44.9955 27.0238 43.1767 24.7742 40.8838C22.5245 38.5909 20.74 35.8688 19.5225 32.873C18.3051 29.8772 17.6784 26.6663 17.6784 23.4236V21.7406C17.6774 21.4182 17.7574 21.1008 17.9108 20.8188C18.0641 20.5367 18.2858 20.2994 18.5546 20.1293ZM20.0432 23.4236C20.0432 35.7101 29.8503 45.7058 41.9049 45.7058H43.2409L45.3327 41.3778L39.112 36.6225L35.6486 39.2699H35.2545C32.8956 39.2672 30.6341 38.3109 28.9661 36.6108C27.2981 34.9108 26.3598 32.6057 26.3572 30.2015V29.7998L28.9546 26.2699L24.2896 19.9299L20.0432 22.0623V23.4236Z" fill="white"/>
</g>
<defs>
<clipPath id="clip0_7_7904">
<rect width="52" height="53" fill="white" transform="translate(7 6)"/>
</clipPath>
</defs>
</svg>
