<svg width="65" height="29" viewBox="0 0 65 29" fill="none" xmlns="http://www.w3.org/2000/svg">
<path d="M64.8578 16.5782V19.5189H56.9906V27.3861H54.0499V19.5189H46.1826V16.5782H54.0499V8.71094H56.9906V16.5782H64.8578Z" fill="#9B9C9B"/>
<path d="M19.4561 20.3591C19.4561 18.4496 20.0289 16.9602 21.1746 15.8908C22.3203 14.8215 23.988 14.0195 26.1776 13.4848V12.4919C24.4972 12.0336 23.2115 11.3843 22.3204 10.5441C21.4292 9.70394 20.9837 8.46911 20.9837 6.83964C20.9837 4.70097 21.8875 3.10969 23.6952 2.06582C25.5029 1.02194 27.8325 0.5 30.6841 0.5C33.5102 0.5 35.8144 1.02194 37.5966 2.06582C39.4043 3.10969 40.3081 4.70097 40.3081 6.83964C40.3081 8.46911 39.8626 9.71667 38.9715 10.5823C38.1058 11.4225 36.8328 12.059 35.1524 12.4919V13.4848C37.3165 14.0195 38.9715 14.8342 40.1172 15.929C41.2629 16.9983 41.8358 18.475 41.8358 20.3591C41.8358 22.7779 40.8428 24.6874 38.8569 26.0877C36.8964 27.488 34.1722 28.1882 30.6841 28.1882C27.196 28.1882 24.4463 27.488 22.4349 26.0877C20.449 24.6874 19.4561 22.7779 19.4561 20.3591ZM24.6882 7.56526C24.6882 8.96558 25.1846 9.95854 26.1776 10.5441C27.1706 11.1297 28.6727 11.4225 30.6841 11.4225C32.6445 11.4225 34.1212 11.1297 35.1142 10.5441C36.1072 9.95854 36.6036 8.96558 36.6036 7.56526C36.6036 6.1904 36.1072 5.21017 35.1142 4.62459C34.1212 4.01354 32.6445 3.70801 30.6841 3.70801C28.6982 3.70801 27.196 4.01354 26.1776 4.62459C25.1846 5.21017 24.6882 6.1904 24.6882 7.56526ZM25.0319 16.0054C23.7843 16.8965 23.1605 18.1568 23.1605 19.7863C23.1605 21.4157 23.7843 22.6887 25.0319 23.6053C26.2794 24.5219 28.1635 24.9802 30.6841 24.9802C33.1792 24.9802 35.0378 24.5219 36.2599 23.6053C37.5075 22.6887 38.1313 21.4157 38.1313 19.7863C38.1313 18.1568 37.5075 16.8965 36.2599 16.0054C35.0378 15.0888 33.1792 14.6305 30.6841 14.6305C28.1635 14.6305 26.2794 15.0888 25.0319 16.0054Z" fill="#9B9C9B"/>
<path d="M0.857422 12.6065C3.30162 11.6135 5.05839 10.1368 6.12773 8.17637C7.19706 6.21591 7.75719 3.78444 7.80811 0.881958H15.2553V27.8063H11.5508V4.31911L12.1618 1.9131H11.1689C11.0416 3.61895 10.8252 5.12112 10.5196 6.4196C10.2396 7.71808 9.76856 9.01656 9.10659 10.315C8.47008 11.5881 7.55351 12.6956 6.35687 13.6376C5.18569 14.5797 3.75991 15.318 2.07952 15.8527L0.857422 12.6065Z" fill="#9B9C9B"/>
</svg>
