<svg width="81" height="65" viewBox="0 0 81 65" fill="none" xmlns="http://www.w3.org/2000/svg">
<path d="M37.4233 32.2549V34.3308C37.4652 35.6761 37.1429 37.0077 36.4907 38.1849C35.8749 39.2439 34.9671 40.103 33.876 40.6595C32.7068 41.2549 31.4048 41.5526 30.0948 41.5233C28.626 41.5534 27.1758 41.1909 25.8938 40.4734C24.6853 39.7659 23.7113 38.7187 23.0931 37.4619C22.3766 36.0117 22.0237 34.4089 22.0647 32.7918C22.0488 31.5345 22.2507 30.2853 22.6706 29.1025C23.0334 28.0837 23.6065 27.1527 24.3526 26.37C25.0674 25.6178 25.9336 25.0304 26.8955 24.6423C27.8893 24.2436 28.9549 24.0443 30.0257 24.0576C30.9371 24.0523 31.8432 24.1931 32.7095 24.4802C33.4987 24.746 34.24 25.1394 34.9017 25.6471C35.5394 26.1521 36.0788 26.7687 36.4907 27.4678C36.9025 28.1855 37.1709 28.9829 37.2825 29.8015H33.6209C33.5232 29.4214 33.3663 29.059 33.1559 28.7277C32.9547 28.4147 32.6926 28.1453 32.3853 27.9356C32.0757 27.7043 31.7275 27.5297 31.357 27.4199C30.9358 27.3277 30.5036 27.2964 30.0735 27.3269C29.2498 27.3003 28.4394 27.521 27.7405 27.9569C27.0617 28.4269 26.5345 29.0845 26.2232 29.8494C25.8247 30.8009 25.6307 31.8296 25.6626 32.8609C25.6413 33.8922 25.822 34.9155 26.1993 35.8724C26.5262 36.6353 27.0603 37.2891 27.7405 37.7649C28.4314 38.2168 29.2471 38.4454 30.0735 38.4188C30.791 38.44 31.5058 38.2859 32.1515 37.9749C32.7374 37.6962 33.2195 37.2382 33.5279 36.6672C33.8149 36.1196 33.9663 35.5109 33.9716 34.8916H30.2356V32.2549H37.4233ZM43.9654 24.5945V41.1034C43.9654 41.1649 43.9411 41.224 43.8978 41.2678C43.8545 41.3116 43.7958 41.3366 43.7342 41.3373H40.6067C40.5751 41.3406 40.5433 41.3369 40.5134 41.3263C40.4835 41.3157 40.4564 41.2986 40.434 41.2761C40.4115 41.2537 40.3944 41.2266 40.3838 41.1967C40.3733 41.1668 40.3695 41.1349 40.3728 41.1034V24.5971C40.3671 24.5491 40.3779 24.5005 40.4035 24.4594C40.4291 24.4183 40.468 24.3872 40.5137 24.3712C40.5437 24.3617 40.5755 24.359 40.6067 24.3632H43.7342C43.7958 24.3632 43.8548 24.3875 43.8986 24.4308C43.9424 24.4741 43.9673 24.5329 43.968 24.5945M46.9122 41.1034V24.5971C46.9122 24.5351 46.9368 24.4756 46.9807 24.4317C47.0245 24.3879 47.084 24.3632 47.146 24.3632H58.1628V27.3269H50.8342C50.7722 27.3269 50.7127 27.3516 50.6689 27.3954C50.625 27.4393 50.6004 27.4988 50.6004 27.5608V31.1332C50.6058 31.1934 50.6321 31.2498 50.6749 31.2926C50.7176 31.3354 50.774 31.3617 50.8342 31.3671H57.5091V34.3308H50.8342C50.7722 34.3308 50.7127 34.3554 50.6689 34.3993C50.625 34.4431 50.6004 34.5026 50.6004 34.5647V41.1034C50.6037 41.1349 50.6 41.1668 50.5894 41.1967C50.5789 41.2266 50.5617 41.2538 50.5393 41.2762C50.5169 41.2986 50.4898 41.3157 50.4599 41.3263C50.43 41.3369 50.3981 41.3406 50.3666 41.3373H47.239C47.2017 41.3535 47.1608 41.3599 47.1203 41.3557C47.0798 41.3515 47.0411 41.3369 47.0079 41.3134C46.9751 41.2896 46.9491 41.2578 46.9323 41.221C46.9156 41.1842 46.9086 41.1437 46.9122 41.1034Z" fill="white"/>
<rect x="12.999" y="11.5" width="53.6456" height="42" stroke="white" stroke-width="4"/>
</svg>
