<svg width="65" height="65" viewBox="0 0 65 65" fill="none" xmlns="http://www.w3.org/2000/svg">
<path d="M6.57617 54.5365H59.3762V11.3365H6.57617V54.5365ZM6.57617 54.5365L25.7762 35.3365L32.9762 42.5365L47.3762 25.7365L59.3762 40.1365M18.5762 25.7365C19.2127 25.7365 19.8231 25.4837 20.2732 25.0336C20.7233 24.5835 20.9762 23.9731 20.9762 23.3365C20.9762 22.7 20.7233 22.0896 20.2732 21.6395C19.8231 21.1894 19.2127 20.9365 18.5762 20.9365C17.9397 20.9365 17.3292 21.1894 16.8791 21.6395C16.429 22.0896 16.1762 22.7 16.1762 23.3365C16.1762 23.9731 16.429 24.5835 16.8791 25.0336C17.3292 25.4837 17.9397 25.7365 18.5762 25.7365Z" stroke="#929292" stroke-width="4"/>
</svg>
