<svg width="122" height="129" viewBox="0 0 122 129" fill="none" xmlns="http://www.w3.org/2000/svg">
<g filter="url(#filter0_d_7_8418)">
<circle cx="59.6974" cy="59.6972" r="56.8025" transform="rotate(2.99972 59.6974 59.6972)" fill="#429EF3"/>
<circle cx="59.6974" cy="59.6972" r="54.8025" transform="rotate(2.99972 59.6974 59.6972)" stroke="white" stroke-opacity="0.18" stroke-width="4"/>
<g clip-path="url(#clip0_7_8418)">
<path d="M86.2836 41.9629L77.6926 87.6269C77.0392 90.8509 75.1566 91.6939 72.4187 90.2471L57.4367 79.7779L50.492 86.7583C49.7242 87.5607 49.082 88.2319 47.5665 88.2677L48.2711 73.2923L74.9836 48.0624C76.1453 46.9796 74.6875 46.4294 73.1254 47.5216L39.8844 69.4977L25.2512 65.3089C22.0682 64.4002 21.9598 62.2352 25.7987 60.6329L82.1004 37.4701C84.7079 36.4245 87.0468 37.9378 86.2836 41.9629Z" fill="white"/>
</g>
</g>
<defs>
<filter id="filter0_d_7_8418" x="2.89355" y="2.89307" width="118.382" height="125.608" filterUnits="userSpaceOnUse" color-interpolation-filters="sRGB">
<feFlood flood-opacity="0" result="BackgroundImageFix"/>
<feColorMatrix in="SourceAlpha" type="matrix" values="0 0 0 0 0 0 0 0 0 0 0 0 0 0 0 0 0 0 127 0" result="hardAlpha"/>
<feOffset dx="4.77474" dy="12"/>
<feColorMatrix type="matrix" values="0 0 0 0 0.10992 0 0 0 0 0.375043 0 0 0 0 0.594553 0 0 0 1 0"/>
<feBlend mode="normal" in2="BackgroundImageFix" result="effect1_dropShadow_7_8418"/>
<feBlend mode="normal" in="SourceGraphic" in2="effect1_dropShadow_7_8418" result="shape"/>
</filter>
<clipPath id="clip0_7_8418">
<rect width="64.0698" height="72.9909" fill="white" transform="translate(22.0859 29.4199) rotate(-1.35403)"/>
</clipPath>
</defs>
</svg>
