<svg width="101" height="101" viewBox="0 0 101 101" fill="none" xmlns="http://www.w3.org/2000/svg">
<path d="M61.6925 50.7188C61.537 57.0591 56.2691 62.0747 49.9329 61.9193C43.5967 61.7639 38.577 56.4959 38.7325 50.1556C38.888 43.8153 44.1558 38.8038 50.4961 38.9593C56.8364 39.1148 61.848 44.3826 61.6925 50.7188ZM100.251 49.6182L100.161 53.2669L82.1998 52.8263C80.9926 69.1685 67.6053 81.9827 51.2494 82.4983L50.814 100.251L47.1653 100.162L47.6007 82.4088C31.2898 81.0918 18.5469 67.6367 18.1425 51.2549L0.181128 50.8143L0.270632 47.1656L18.2647 47.607C19.6795 31.4786 32.9671 18.8913 49.1714 18.3802L49.6178 0.181516L53.2665 0.27102L52.8201 18.4697C68.9798 19.7747 81.6342 32.9984 82.2565 49.1768L100.251 49.6182ZM78.6313 51.1343C78.8239 43.2806 75.8195 36.1097 70.8 30.8335C65.7763 25.5613 58.7614 22.209 50.9076 22.0164C43.0539 21.8237 35.8829 24.828 30.6068 29.8476C25.3346 34.8713 21.9823 41.8862 21.7897 49.74C21.597 57.5938 24.6013 64.7647 29.6208 70.0408C34.6445 75.313 41.6595 78.6653 49.5133 78.858C57.367 79.0506 64.5379 76.0463 69.8141 71.0268C75.0862 66.0031 78.4386 58.9881 78.6313 51.1343Z" fill="white"/>
</svg>
