<svg width="327" height="147" viewBox="0 0 327 147" fill="none" xmlns="http://www.w3.org/2000/svg">
<g filter="url(#filter0_i_3436_27724)">
<g clip-path="url(#clip0_3436_27724)">
<rect y="25.4502" width="317.282" height="121.914" rx="8.54921" transform="rotate(-4.60079 0 25.4502)" fill="#292929"/>
<path d="M31.4534 115.981L26.3469 52.5244L46.5092 50.9019C55.3901 50.1872 61.9302 50.7782 66.1293 52.675C70.3836 54.5068 72.7522 58.4231 73.2351 64.4238C73.4427 67.0041 73.1965 69.1981 72.4965 71.0059C71.8564 72.8089 70.8225 74.2208 69.3948 75.2416C67.9622 76.2024 66.5403 76.9208 65.1292 77.3967C63.718 77.8726 62.0271 78.2503 60.0565 78.5297L60.3028 81.59C63.0079 81.4327 65.3675 81.4844 67.3815 81.7451C69.4556 82.001 71.4937 82.5617 73.496 83.4273C75.4983 84.2929 77.0916 85.7047 78.2759 87.6629C79.4602 89.621 80.1731 92.1002 80.4145 95.1006C80.685 98.461 80.2218 101.337 79.0252 103.728C77.8837 106.055 76.0411 107.924 73.4974 109.337C70.9537 110.749 68.1109 111.824 64.9692 112.56C61.8875 113.291 58.1864 113.83 53.8659 114.178L31.4534 115.981ZM40.0008 76.9728L49.7219 76.1906C54.1624 75.8332 57.3365 75.1248 59.2443 74.0654C61.2073 72.9411 62.0584 70.7588 61.7976 67.5184C61.6817 66.0782 61.3751 64.895 60.8778 63.9687C60.3757 62.9824 59.7753 62.2758 59.0766 61.8488C58.433 61.3571 57.4715 61.0419 56.1921 60.9032C54.9678 60.6998 53.8432 60.6091 52.8183 60.6312C51.7933 60.6533 50.3507 60.7392 48.4905 60.8889L38.7695 61.6711L40.0008 76.9728ZM42.2535 104.966L54.2248 104.003C59.6254 103.568 63.4524 102.716 65.7057 101.448C67.9591 100.18 68.9336 97.6551 68.6294 93.8747C68.33 90.1543 66.9343 87.8206 64.4423 86.8736C62.0103 85.9218 58.124 85.6608 52.7834 86.0906L40.8121 87.054L42.2535 104.966ZM93.7889 105.53C88.8303 101.701 86.0589 96.1563 85.4746 88.8954C84.8903 81.6346 86.7394 75.7181 91.0219 71.1458C95.3044 66.5735 101.106 63.9928 108.427 63.4037C115.688 62.8194 121.797 64.4416 126.756 68.2702C131.714 72.0989 134.486 77.6436 135.07 84.9044C135.654 92.1652 133.805 98.0817 129.523 102.654C125.24 107.226 119.469 109.805 112.208 110.389C104.887 110.978 98.7474 109.358 93.7889 105.53ZM99.8068 77.8675C97.6597 80.4561 96.7527 83.8206 97.0859 87.9611C97.4191 92.1015 98.8524 95.2777 101.386 97.4897C103.919 99.7016 107.256 100.641 111.397 100.308C115.537 99.9746 118.681 98.5137 120.828 95.9251C122.975 93.3365 123.882 89.972 123.549 85.8315C123.216 81.6911 121.782 78.5149 119.249 76.3029C116.716 74.091 113.379 73.1516 109.238 73.4848C105.098 73.818 101.954 75.2789 99.8068 77.8675ZM166.679 68.8624C162.239 69.2197 158.879 71 156.6 74.2031C154.317 77.3463 153.419 81.9482 153.906 88.0088L155.355 106.011L143.744 106.945L140.108 61.7602L151.719 60.8258L152.233 67.2165L150.721 74.3139L153.691 74.0749C154.308 69.7371 155.953 66.1622 158.626 63.3501C161.354 60.4732 165.058 58.8465 169.738 58.4698C175.319 58.0207 179.812 59.4408 183.217 62.7301C186.678 65.9546 188.674 70.8672 189.205 77.4679L191.269 103.121L179.748 104.048L177.821 80.1052C177.473 75.7848 176.415 72.7596 174.645 71.0298C172.935 69.2951 170.28 68.5727 166.679 68.8624ZM219.593 91.601C223.973 91.2485 227.305 89.5007 229.589 86.3575C231.928 83.1496 232.856 78.5452 232.373 72.5446L230.917 54.4526L242.438 53.5254L246.075 98.7105L234.553 99.6376L234.039 93.2469L235.552 86.1495L232.581 86.3885C231.964 90.7263 230.291 94.3336 227.564 97.2105C224.891 100.023 221.214 101.617 216.534 101.994C210.893 102.448 206.343 101.062 202.882 97.8378C199.477 94.5485 197.511 89.6335 196.985 83.0927L194.913 57.3499L206.524 56.4155L208.451 80.3582C208.804 84.7386 209.835 87.7962 211.545 89.5309C213.25 91.2055 215.933 91.8956 219.593 91.601ZM293.43 82.6696C294.13 91.3706 287.91 96.2498 274.768 97.3074C267.087 97.9255 261.266 96.884 257.304 94.1831C253.397 91.4173 251.222 87.2741 250.778 81.7535L262.389 80.8191C262.843 86.4597 266.82 88.9782 274.321 88.3746C279.542 87.9545 282.036 86.3043 281.804 83.424C281.684 81.9238 280.932 80.8368 279.549 80.163C278.166 79.4891 275.721 78.7497 272.213 77.9449C271.294 77.7773 270.587 77.6228 270.092 77.4814C263.992 75.9792 259.967 74.7329 258.015 73.7425C254.041 71.6465 251.858 68.5306 251.464 64.395C251.151 60.4945 252.527 57.3338 255.593 54.9128C258.655 52.4318 263.096 50.9571 268.917 50.4887C275.818 49.9334 281.041 51.0531 284.588 53.8479C288.13 56.5826 290.084 60.2302 290.451 64.7908L278.84 65.7251C278.463 61.0446 275.365 58.9386 269.544 59.407C265.043 59.7691 262.895 61.2103 263.097 63.7306C263.208 65.1108 264.108 66.1557 265.796 66.8654C267.483 67.5751 270.483 68.4511 274.795 69.4932C280.955 70.9905 284.946 72.1792 286.768 73.0593C290.862 75.1457 293.082 78.3491 293.43 82.6696Z" fill="#EEEEEE"/>
<rect x="64.4905" y="-117.284" width="165.719" height="259.649" transform="rotate(38.4042 64.4905 -117.284)" fill="#D9D9D9" fill-opacity="0.13"/>
</g>
</g>
<defs>
<filter id="filter0_i_3436_27724" x="0" y="0" width="326.038" height="146.972" filterUnits="userSpaceOnUse" color-interpolation-filters="sRGB">
<feFlood flood-opacity="0" result="BackgroundImageFix"/>
<feBlend mode="normal" in="SourceGraphic" in2="BackgroundImageFix" result="shape"/>
<feColorMatrix in="SourceAlpha" type="matrix" values="0 0 0 0 0 0 0 0 0 0 0 0 0 0 0 0 0 0 127 0" result="hardAlpha"/>
<feOffset dx="-8.32907" dy="9.16197"/>
<feComposite in2="hardAlpha" operator="arithmetic" k2="-1" k3="1"/>
<feColorMatrix type="matrix" values="0 0 0 0 0 0 0 0 0 0 0 0 0 0 0 0 0 0 0.12 0"/>
<feBlend mode="normal" in2="shape" result="effect1_innerShadow_3436_27724"/>
</filter>
<clipPath id="clip0_3436_27724">
<rect y="25.4502" width="317.282" height="121.914" rx="8.54921" transform="rotate(-4.60079 0 25.4502)" fill="white"/>
</clipPath>
</defs>
</svg>
