<svg width="147" height="147" viewBox="0 0 147 147" fill="none" xmlns="http://www.w3.org/2000/svg">
<g filter="url(#filter0_d_3436_27756)">
<g clip-path="url(#clip0_3436_27756)">
<rect x="40.2734" y="0.799316" width="113.316" height="113.316" rx="56.6579" transform="rotate(20.5093 40.2734 0.799316)" fill="#00C600"/>
<g clip-path="url(#clip1_3436_27756)">
<path fill-rule="evenodd" clip-rule="evenodd" d="M97.8886 55.5836C97.0074 53.4953 95.3328 51.8425 93.2332 50.9887C91.1336 50.1348 88.7808 50.1498 86.6923 51.0304L81.4425 53.2448C81.2197 53.3387 81.0001 53.4401 80.7888 53.5511C80.7144 53.3228 80.6304 53.0978 80.5371 52.8766L78.3175 47.6246C77.906 46.5557 77.2838 45.5804 76.488 44.7567C75.6922 43.9329 74.739 43.2775 73.6849 42.8294C72.6308 42.3812 71.4975 42.1495 70.3521 42.1479C69.2067 42.1463 68.0727 42.375 67.0174 42.8202C65.9621 43.2655 65.0071 43.9183 64.209 44.7399C63.411 45.5615 62.7862 46.5351 62.3717 47.6028C61.9573 48.6706 61.7616 49.8108 61.7965 50.9556C61.8313 52.1004 62.0958 53.2266 62.5744 54.2672L63.9446 57.5312L48.7496 51.3519L42.3094 67.1882L47.5882 69.335L39.0013 90.4501L86.5103 109.771L95.0972 88.6554L100.376 90.8022L106.816 74.9658L90.0745 68.1575L93.3354 66.7799C95.4237 65.8987 97.0765 64.2242 97.9303 62.1245C98.7842 60.0249 98.7691 57.6721 97.8886 55.5836ZM85.8723 63.7418L91.1221 61.5274C91.8053 61.2251 92.3425 60.6666 92.6179 59.9721C92.8933 59.2777 92.8849 58.5028 92.5946 57.8144C92.3042 57.126 91.7551 56.5792 91.0655 56.2918C90.3759 56.0043 89.601 55.9992 88.9077 56.2776L83.6579 58.492C82.9747 58.7942 82.4375 59.3528 82.1621 60.0472C81.8867 60.7417 81.895 61.5166 82.1854 62.205C82.4757 62.8934 83.0249 63.4401 83.7144 63.7276C84.404 64.015 85.1789 64.0201 85.8723 63.7418ZM75.2858 55.0873L73.0703 49.8401C72.9294 49.489 72.7199 49.1695 72.4541 48.9002C72.1884 48.6309 71.8716 48.4172 71.5224 48.2717C71.1732 48.1261 70.7985 48.0515 70.4201 48.0523C70.0418 48.0531 69.6674 48.1293 69.3188 48.2763C68.9702 48.4234 68.6544 48.6384 68.3898 48.9088C68.1251 49.1792 67.917 49.4996 67.7775 49.8512C67.6381 50.2029 67.57 50.5789 67.5774 50.9572C67.5848 51.3354 67.6674 51.7084 67.8205 52.0544L70.0348 57.3043C70.1758 57.6554 70.3853 57.9749 70.651 58.2442C70.9168 58.5134 71.2335 58.7271 71.5828 58.8727C71.932 59.0182 72.3067 59.0928 72.685 59.092C73.0634 59.0912 73.4378 59.0151 73.7864 58.868C74.135 58.721 74.4508 58.506 74.7154 58.2356C74.98 57.9652 75.1882 57.6448 75.3276 57.2931C75.4671 56.9414 75.5351 56.5654 75.5278 56.1872C75.5204 55.8089 75.4388 55.4333 75.2858 55.0873ZM99.3907 78.0979L97.2439 83.3767L49.7349 64.0562L51.8816 58.7774L99.3907 78.0979ZM73.763 79.9795L89.8184 86.5087L83.3783 102.345L67.3229 95.8158L73.763 79.9795ZM68.9224 78.0109L62.4822 93.8473L46.4268 87.318L52.867 71.4817L68.9224 78.0109Z" fill="#131313"/>
</g>
</g>
</g>
<defs>
<filter id="filter0_d_3436_27756" x="0.572113" y="0.799316" width="154.779" height="153.928" filterUnits="userSpaceOnUse" color-interpolation-filters="sRGB">
<feFlood flood-opacity="0" result="BackgroundImageFix"/>
<feColorMatrix in="SourceAlpha" type="matrix" values="0 0 0 0 0 0 0 0 0 0 0 0 0 0 0 0 0 0 127 0" result="hardAlpha"/>
<feOffset dx="8.94489" dy="8.09398"/>
<feComposite in2="hardAlpha" operator="out"/>
<feColorMatrix type="matrix" values="0 0 0 0 0.0618347 0 0 0 0 0.365965 0 0 0 0 0.0618347 0 0 0 1 0"/>
<feBlend mode="normal" in2="BackgroundImageFix" result="effect1_dropShadow_3436_27756"/>
<feBlend mode="normal" in="SourceGraphic" in2="effect1_dropShadow_3436_27756" result="shape"/>
</filter>
<clipPath id="clip0_3436_27756">
<rect x="40.2734" y="0.799316" width="113.316" height="113.316" rx="56.6579" transform="rotate(20.5093 40.2734 0.799316)" fill="white"/>
</clipPath>
<clipPath id="clip1_3436_27756">
<rect width="68.3831" height="68.3831" fill="white" transform="translate(54.697 29.1636) rotate(22.1301)"/>
</clipPath>
</defs>
</svg>
