<svg width="109" height="109" viewBox="0 0 109 109" fill="none" xmlns="http://www.w3.org/2000/svg">
<g filter="url(#filter0_b_7_10779)">
<circle cx="54.9082" cy="53.9241" r="37" transform="rotate(-9.64803 54.9082 53.9241)" fill="#015276" fill-opacity="0.26"/>
</g>
<path d="M50.5241 29.2874C64.4069 26.9273 77.6199 36.3007 79.98 50.1834C82.34 64.0662 72.9667 77.2793 59.0839 79.6393C45.2012 81.9994 31.9881 72.626 29.628 58.7433C27.268 44.8605 36.6414 31.6474 50.5241 29.2874ZM50.2184 27.4891C35.3286 30.0204 25.2985 44.1592 27.8298 59.049C30.361 73.9387 44.4998 83.9689 59.3896 81.4376C74.2794 78.9063 84.3095 64.7675 81.7783 49.8777C79.247 34.9879 65.1082 24.9578 50.2184 27.4891Z" fill="#FEF147"/>
<path opacity="0.3" d="M48.6883 18.4979C28.8353 21.8729 15.4587 40.7067 18.8368 60.5777C22.2149 80.4488 41.0456 93.8073 60.9166 90.4293C80.7877 87.0512 94.1432 68.2025 90.7682 48.3494C87.3931 28.4964 68.5594 15.1198 48.6883 18.4979ZM60.3816 87.2823C42.255 90.3638 25.0653 78.1694 21.9838 60.0427C18.9023 41.916 31.0966 24.7264 49.2233 21.6449C67.35 18.5634 84.5396 30.7577 87.6212 48.8844C90.7027 67.0111 78.5083 84.2007 60.3816 87.2823Z" fill="#00ADF9"/>
<path opacity="0.3" d="M41.5872 50.9561L30.0784 42.7917C29.8043 43.3564 29.5873 43.9299 29.3523 44.5064L41.2188 52.9245C41.2885 52.2465 41.4184 51.5954 41.5872 50.9561ZM57.8268 41.1274L42.3204 30.1271C41.7246 30.4319 41.135 30.7727 40.5663 31.1284L54.2213 40.8152C55.4506 40.7542 56.6534 40.8643 57.8268 41.1274ZM44.2722 45.7445L33.1211 37.8338C32.7598 38.3208 32.3986 38.8078 32.0583 39.3097L43.2095 47.2203C43.5287 46.7035 43.8869 46.1985 44.2722 45.7445ZM49.0823 42.0404L37.1527 33.5775C36.6652 33.9749 36.1987 34.3872 35.7532 34.8145L47.3042 43.0088C47.8697 42.6351 48.4624 42.3123 49.0823 42.0404ZM65.4517 63.0148L76.6029 70.9255C76.9641 70.4385 77.3224 69.9335 77.6446 69.4347L66.4934 61.5241C66.1742 62.0409 65.834 62.5428 65.4517 63.0148ZM27.6462 57.5446L60.8682 81.1124C61.6354 80.945 62.3934 80.7236 63.1483 80.4843L27.4646 55.1702C27.4851 55.9438 27.5446 56.7293 27.6252 57.5297L27.6462 57.5446ZM30.2422 66.5026L51.5767 81.6373C52.6896 81.7627 53.8263 81.81 54.9718 81.8002L28.9665 63.352C29.3359 64.4364 29.7562 65.4936 30.2422 66.5026ZM52.2969 67.9155L67.5087 78.7069C68.1045 78.4021 68.6942 78.0613 69.2628 77.7056L55.7552 68.1233C54.5859 68.211 53.4221 68.1128 52.2969 67.9155ZM49.024 27.7663C48.2389 27.9368 47.4748 28.1222 46.7199 28.3616L82.1301 53.4816C82.1065 52.69 82.029 51.9076 81.9305 51.1102L49.024 27.7663ZM79.2082 42.0627L58.4629 27.3459C57.3258 27.1877 56.1711 27.1434 55.0046 27.1382L80.547 45.2581C80.1566 44.1588 79.7153 43.0866 79.2082 42.0627ZM41.6163 58.0932L28.1087 48.5108C27.9609 49.165 27.8491 49.8131 27.7433 50.4972L42.9552 61.2885C42.3792 60.2947 41.9229 59.2437 41.6163 58.0932ZM67.8942 50.499L81.549 60.1858C81.6969 59.5316 81.8267 58.8804 81.9145 58.1994L66.4081 47.1991C67.0411 48.2017 67.5455 49.3186 67.8911 50.481L67.8942 50.499ZM68.0916 57.7554L79.6425 65.9497C79.8986 65.3881 80.1306 64.7936 80.3476 64.2201L68.418 55.7572C68.3482 56.4351 68.2574 57.0982 68.0916 57.7554ZM60.7438 66.7756L72.6103 75.1937C73.0768 74.7814 73.5433 74.369 73.9887 73.9418L62.4799 65.7774C61.9323 66.148 61.3606 66.4857 60.7438 66.7756Z" fill="#00ADF9"/>
<path d="M52.7125 42.1631C59.492 41.0106 65.9333 45.5959 67.0827 52.3575C68.2322 59.119 63.65 65.5782 56.8884 66.7277C50.1269 67.8772 43.6676 63.295 42.5182 56.5334C41.3687 49.7719 45.9509 43.3126 52.7125 42.1631ZM52.4068 40.3648C44.6202 41.6886 39.3992 49.0706 40.7199 56.8391C42.0405 64.6077 49.4256 69.8466 57.1941 68.526C64.9627 67.2053 70.2017 59.8203 68.881 52.0518C67.5603 44.2832 60.1753 39.0442 52.4068 40.3648Z" fill="#FEF147"/>
<path d="M28.8804 57.945L8.50586 61.4087L8.81157 63.207L29.1861 59.7433L28.8804 57.945Z" fill="#FEF147"/>
<path d="M100.201 45.8208L79.8262 49.2844L80.1319 51.0827L100.506 47.619L100.201 45.8208Z" fill="#FEF147"/>
<path d="M47.6186 8.50337L45.8203 8.80908L49.284 29.1836L51.0823 28.8779L47.6186 8.50337Z" fill="#FEF147"/>
<path d="M59.7416 79.8232L57.9434 80.1289L61.407 100.503L63.2053 100.198L59.7416 79.8232Z" fill="#FEF147"/>
<path opacity="0.3" d="M58.7043 53.8001C59.0711 55.9581 57.6233 57.9989 55.4654 58.3658C53.3075 58.7326 51.2666 57.2848 50.8997 55.1269C50.5329 52.969 51.9807 50.9281 54.1386 50.5612C56.2966 50.1944 58.3374 51.6422 58.7043 53.8001Z" fill="#FEF147"/>
<defs>
<filter id="filter0_b_7_10779" x="9.60234" y="8.61821" width="90.6117" height="90.6117" filterUnits="userSpaceOnUse" color-interpolation-filters="sRGB">
<feFlood flood-opacity="0" result="BackgroundImageFix"/>
<feGaussianBlur in="BackgroundImageFix" stdDeviation="4.15"/>
<feComposite in2="SourceAlpha" operator="in" result="effect1_backgroundBlur_7_10779"/>
<feBlend mode="normal" in="SourceGraphic" in2="effect1_backgroundBlur_7_10779" result="shape"/>
</filter>
</defs>
</svg>
