<svg width="758" height="606" viewBox="0 0 758 606" fill="none" xmlns="http://www.w3.org/2000/svg">
<mask id="mask0_7_10356" style="mask-type:alpha" maskUnits="userSpaceOnUse" x="0" y="0" width="758" height="606">
<rect x="0.310208" y="0.310208" width="757.38" height="605.281" fill="url(#paint0_radial_7_10356)" stroke="#BDF3FF" stroke-width="0.620415"/>
</mask>
<g mask="url(#mask0_7_10356)">
<g opacity="0.19">
<line y1="-0.623355" x2="814.651" y2="-0.623355" transform="matrix(4.37114e-08 1 1 -4.37114e-08 648.439 -79.2471)" stroke="#BDF3FF" stroke-width="1.24671"/>
<line y1="-0.623355" x2="814.651" y2="-0.623355" transform="matrix(5.65219e-08 1 1 -3.38044e-08 202.062 -79.2471)" stroke="#BDF3FF" stroke-width="1.24671"/>
<line y1="-0.623355" x2="814.651" y2="-0.623355" transform="matrix(-1 0 0 1 758 509.233)" stroke="#BDF3FF" stroke-width="1.24671"/>
<line y1="-0.623355" x2="814.651" y2="-0.623355" transform="matrix(-1 0 0 1 758 411.062)" stroke="#BDF3FF" stroke-width="1.24671"/>
<line y1="-0.623355" x2="814.651" y2="-0.623355" transform="matrix(4.37114e-08 1 1 -4.37114e-08 485.186 -79.2471)" stroke="#BDF3FF" stroke-width="1.24671"/>
<line y1="-0.623355" x2="814.651" y2="-0.623355" transform="matrix(5.65219e-08 1 1 -3.38044e-08 59.9609 -79.2471)" stroke="#BDF3FF" stroke-width="1.24671"/>
<line y1="-0.623355" x2="814.651" y2="-0.623355" transform="matrix(-1 0 0 1 758 312.892)" stroke="#BDF3FF" stroke-width="1.24671"/>
<line y1="-0.623355" x2="814.651" y2="-0.623355" transform="matrix(-1 0 0 1 758 116.551)" stroke="#BDF3FF" stroke-width="1.24671"/>
<line y1="-0.623355" x2="814.651" y2="-0.623355" transform="matrix(-1 0 0 1 755.289 18.3809)" stroke="#BDF3FF" stroke-width="1.24671"/>
<line y1="-0.623355" x2="814.651" y2="-0.623355" transform="matrix(5.65219e-08 1 1 -3.38044e-08 343.623 -79.2471)" stroke="#BDF3FF" stroke-width="1.24671"/>
<line y1="-0.623355" x2="814.651" y2="-0.623355" transform="matrix(-1 0 0 1 758 214.722)" stroke="#BDF3FF" stroke-width="1.24671"/>
</g>
</g>
<defs>
<radialGradient id="paint0_radial_7_10356" cx="0" cy="0" r="1" gradientUnits="userSpaceOnUse" gradientTransform="translate(379 302.951) rotate(90.2208) scale(323.524 404.738)">
<stop offset="0.60354" stop-color="#171717"/>
<stop offset="1" stop-color="#D9D9D9" stop-opacity="0"/>
</radialGradient>
</defs>
</svg>
