<svg width="747" height="464" viewBox="0 0 747 464" fill="none" xmlns="http://www.w3.org/2000/svg">
<line opacity="0.7" x1="-1755" y1="232" x2="745" y2="232" stroke="#28FBFC" stroke-width="2"/>
<path d="M79.5 139.5C54.6035 165.392 31 165.5 29 165V463.5H746.5V380.5C639.5 380.5 642 102.5 552 102.5C469.5 102.5 468.5 301 373 301C277.5 301 267 1.0001 184.5 1C121 0.999924 104.5 113.5 79.5 139.5Z" fill="url(#paint0_linear_7_10374)" fill-opacity="0.2"/>
<path d="M29 165C31 165.5 54.6035 165.392 79.5 139.5C104.5 113.5 121 0.999924 184.5 1C267 1.0001 277.5 301 373 301C468.5 301 469.5 102.5 552 102.5C642 102.5 639.5 380.5 746.5 380.5" stroke="#00E0F7" stroke-width="2" stroke-dasharray="4 4"/>
<line x1="-1781" y1="66.5" x2="719" y2="66.5" stroke="#28FBFC"/>
<rect x="-1" y="1" width="748" height="462" fill="url(#paint1_linear_7_10374)"/>
<defs>
<linearGradient id="paint0_linear_7_10374" x1="387.5" y1="104" x2="387.5" y2="390" gradientUnits="userSpaceOnUse">
<stop stop-color="#00E0F7"/>
<stop offset="1" stop-color="#00E0F7" stop-opacity="0"/>
</linearGradient>
<linearGradient id="paint1_linear_7_10374" x1="405.816" y1="232" x2="-0.999994" y2="232" gradientUnits="userSpaceOnUse">
<stop stop-color="#070504" stop-opacity="0"/>
<stop offset="0.905425" stop-color="#070504"/>
</linearGradient>
</defs>
</svg>
