<svg width="249" height="138" viewBox="0 0 249 138" fill="none" xmlns="http://www.w3.org/2000/svg">
<g filter="url(#filter0_bd_7_10390)">
<rect x="46" y="41" width="156.392" height="44.8582" rx="16.7844" fill="#FEB536" fill-opacity="0.8" shape-rendering="crispEdges"/>
<rect x="47.3684" y="42.3684" width="153.655" height="42.1214" rx="15.416" stroke="black" stroke-opacity="0.04" stroke-width="2.73683" shape-rendering="crispEdges"/>
<path d="M58.8706 73.196V53.2278H71.588V55.607H61.618V62.0082H70.1718V64.3874H61.618V70.8168H71.588V73.196H58.8706ZM73.5308 73.196L78.8557 66.5116V65.7469L73.5308 59.0908H76.7881L80.8667 64.529L84.9736 59.0908H88.2309L82.906 65.7469V66.5116L88.2309 73.196H84.9736L80.8667 67.7296L76.7881 73.196H73.5308ZM90.8862 59.0908H93.6336V60.9035L93.1521 62.6879H93.9169C94.2567 61.5361 94.8987 60.6014 95.8429 59.8839C96.787 59.1663 98.0332 58.8076 99.5816 58.8076C101.602 58.8076 103.207 59.4968 104.397 60.8752C105.605 62.2536 106.209 64.0097 106.209 66.1434C106.209 68.2772 105.605 70.0332 104.397 71.4116C103.207 72.7901 101.602 73.4793 99.5816 73.4793C98.0332 73.4793 96.787 73.1205 95.8429 72.403C94.8987 71.6854 94.2567 70.7413 93.9169 69.5706H93.1521L93.6336 71.3833V78.3793H90.8862V59.0908ZM94.9932 62.433C94.0868 63.245 93.6336 64.4818 93.6336 66.1434C93.6336 67.8051 94.0868 69.0513 94.9932 69.8822C95.9184 70.6941 97.1363 71.1001 98.6469 71.1001C100.12 71.1001 101.29 70.6941 102.159 69.8822C103.028 69.0513 103.462 67.8051 103.462 66.1434C103.462 64.4818 103.028 63.245 102.159 62.433C101.29 61.6022 100.12 61.1868 98.6469 61.1868C97.1363 61.1868 95.9184 61.6022 94.9932 62.433ZM107.289 73.196V70.8168H111.226V54.5024L108.224 54.7573V52.3781L111.934 52.1232C113.294 52.0099 113.973 52.6802 113.973 54.1342V70.8168H117.939V73.196H107.289ZM119.071 66.1151C119.071 63.9814 119.77 62.2348 121.167 60.8752C122.565 59.4968 124.387 58.8076 126.634 58.8076C128.862 58.8076 130.675 59.4968 132.072 60.8752C133.469 62.2348 134.168 63.9814 134.168 66.1151C134.168 68.2677 133.469 70.0332 132.072 71.4116C130.675 72.7901 128.862 73.4793 126.634 73.4793C124.387 73.4793 122.565 72.7995 121.167 71.44C119.77 70.0615 119.071 68.2866 119.071 66.1151ZM121.819 66.1151C121.819 67.5879 122.244 68.787 123.093 69.7122C123.943 70.6375 125.123 71.1001 126.634 71.1001C128.126 71.1001 129.287 70.6375 130.118 69.7122C130.967 68.787 131.392 67.5879 131.392 66.1151C131.392 64.6612 130.967 63.481 130.118 62.5746C129.287 61.6494 128.126 61.1868 126.634 61.1868C125.123 61.1868 123.943 61.6494 123.093 62.5746C122.244 63.481 121.819 64.6612 121.819 66.1151ZM148.364 69.4856C148.364 70.6941 147.91 71.6666 147.004 72.403C146.098 73.1205 144.625 73.4793 142.585 73.4793C138.167 73.4793 135.958 71.6571 135.958 68.0128H138.705C138.705 70.2032 140.017 71.2984 142.642 71.2984C143.662 71.2984 144.408 71.1662 144.88 70.9018C145.371 70.6186 145.616 70.1654 145.616 69.5423C145.616 69.3157 145.588 69.108 145.531 68.9192C145.474 68.7303 145.361 68.5604 145.191 68.4093C145.04 68.2583 144.899 68.1355 144.766 68.0411C144.653 67.9467 144.436 67.8429 144.115 67.7296C143.813 67.5974 143.586 67.503 143.435 67.4463C143.284 67.3897 142.991 67.2953 142.557 67.1631C142.123 67.0309 141.811 66.9365 141.622 66.8798C140.792 66.6155 140.14 66.3983 139.668 66.2284C139.196 66.0396 138.686 65.7752 138.139 65.4353C137.61 65.0955 137.223 64.6895 136.977 64.2174C136.732 63.7454 136.609 63.1883 136.609 62.5463C136.609 61.3945 137.081 60.4881 138.025 59.8272C138.969 59.1475 140.272 58.8076 141.934 58.8076C144.011 58.8076 145.522 59.2702 146.466 60.1954C147.41 61.1018 147.882 62.2348 147.882 63.5943H145.135C145.135 61.8571 144.068 60.9885 141.934 60.9885C140.216 60.9885 139.357 61.5078 139.357 62.5463C139.357 63.1128 139.593 63.5471 140.065 63.8492C140.537 64.1513 141.405 64.5101 142.67 64.9255C142.803 64.9633 143.076 65.0482 143.492 65.1804C143.907 65.3126 144.19 65.407 144.342 65.4637C144.493 65.5203 144.748 65.6147 145.106 65.7469C145.465 65.8791 145.72 65.9829 145.871 66.0585C146.041 66.134 146.268 66.2567 146.551 66.4267C146.834 66.5777 147.042 66.7193 147.174 66.8515C147.306 66.9837 147.467 67.1536 147.655 67.3614C147.844 67.5502 147.976 67.7484 148.052 67.9562C148.127 68.1639 148.194 68.3999 148.25 68.6642C148.326 68.9097 148.364 69.1835 148.364 69.4856ZM155.268 56.9949C154.645 56.9949 154.125 56.806 153.71 56.4284C153.314 56.0319 153.115 55.5409 153.115 54.9555C153.115 54.3702 153.314 53.8887 153.71 53.511C154.125 53.1334 154.645 52.9446 155.268 52.9446C155.91 52.9446 156.439 53.1334 156.854 53.511C157.269 53.8887 157.477 54.3702 157.477 54.9555C157.477 55.5409 157.269 56.0319 156.854 56.4284C156.439 56.806 155.91 56.9949 155.268 56.9949ZM150.368 73.196V70.8168H154.333V61.2151L151.303 61.47V59.0908L154.985 58.8076C156.306 58.6943 156.967 59.2985 156.967 60.6203V70.8168H160.933V73.196H150.368ZM172.163 59.0908H174.882L170.464 73.196H164.827L160.409 59.0908H163.1L167.263 72.4313H168.028L172.163 59.0908ZM175.911 65.9452C175.911 63.717 176.544 61.9704 177.809 60.7053C179.093 59.4401 180.773 58.8076 182.85 58.8076C184.909 58.8076 186.551 59.4213 187.779 60.6486C189.006 61.8571 189.62 63.5282 189.62 65.6619V66.6816H178.573C178.63 68.0222 179.027 69.108 179.763 69.9388C180.518 70.7696 181.67 71.1851 183.219 71.1851C185.484 71.1851 186.863 70.2032 187.354 68.2394H190.101C189.818 69.5989 189.11 70.8168 187.977 71.8932C186.863 72.9506 185.277 73.4793 183.219 73.4793C180.783 73.4793 178.951 72.7712 177.724 71.355C176.515 69.9388 175.911 68.1355 175.911 65.9452ZM178.573 64.7556H186.957C186.957 63.6981 186.599 62.8201 185.881 62.1215C185.182 61.4228 184.172 61.0735 182.85 61.0735C181.529 61.0735 180.481 61.4322 179.706 62.1498C178.951 62.8484 178.573 63.717 178.573 64.7556Z" fill="white"/>
</g>
<defs>
<filter id="filter0_bd_7_10390" x="0.158154" y="0.631807" width="248.075" height="136.542" filterUnits="userSpaceOnUse" color-interpolation-filters="sRGB">
<feFlood flood-opacity="0" result="BackgroundImageFix"/>
<feGaussianBlur in="BackgroundImageFix" stdDeviation="11.221"/>
<feComposite in2="SourceAlpha" operator="in" result="effect1_backgroundBlur_7_10390"/>
<feColorMatrix in="SourceAlpha" type="matrix" values="0 0 0 0 0 0 0 0 0 0 0 0 0 0 0 0 0 0 127 0" result="hardAlpha"/>
<feOffset dy="5.47365"/>
<feGaussianBlur stdDeviation="22.9209"/>
<feComposite in2="hardAlpha" operator="out"/>
<feColorMatrix type="matrix" values="0 0 0 0 0.996078 0 0 0 0 0.709804 0 0 0 0 0.211765 0 0 0 0.59 0"/>
<feBlend mode="normal" in2="effect1_backgroundBlur_7_10390" result="effect2_dropShadow_7_10390"/>
<feBlend mode="normal" in="SourceGraphic" in2="effect2_dropShadow_7_10390" result="shape"/>
</filter>
</defs>
</svg>
