<svg width="166" height="115" viewBox="0 0 166 115" fill="none" xmlns="http://www.w3.org/2000/svg">
<g filter="url(#filter0_bd_7_10790)">
<rect x="39" y="34" width="88.0745" height="37.6622" rx="14.0919" fill="#FFD72A" fill-opacity="0.78" shape-rendering="crispEdges"/>
<rect x="40.1489" y="35.1489" width="85.7767" height="35.3644" rx="12.943" stroke="black" stroke-opacity="0.04" stroke-width="2.29779" shape-rendering="crispEdges"/>
<path d="M52.7748 53.1286C52.7748 50.6237 53.512 48.5628 54.9863 46.9457C56.4607 45.3287 58.3948 44.5202 60.7887 44.5202C62.8338 44.5202 64.4825 45.0909 65.735 46.2323C66.9874 47.3579 67.7404 48.864 67.9941 50.7506H65.6874C65.2752 47.9286 63.6423 46.5177 60.7887 46.5177C58.9497 46.5177 57.5387 47.1122 56.5558 48.3012C55.5729 49.4744 55.0815 51.0835 55.0815 53.1286C55.0815 57.5517 56.8016 59.7632 60.2417 59.7632C63.349 59.7632 64.8789 57.9559 64.8313 54.3414H59.457V52.4865H67.8276C68.8581 52.4865 69.3733 52.97 69.3733 53.9371V61.5229H67.0666V55.3639L67.4471 53.1286H66.8288C66.7971 58.8834 64.5856 61.7608 60.1942 61.7608C57.8003 61.7608 55.9613 60.9681 54.6772 59.3827C53.4089 57.7974 52.7748 55.7127 52.7748 53.1286ZM71.3645 55.5779C71.3645 53.7865 71.9511 52.32 73.1243 51.1786C74.2974 50.0213 75.8273 49.4426 77.7138 49.4426C79.5845 49.4426 81.1065 50.0213 82.2796 51.1786C83.4528 52.32 84.0393 53.7865 84.0393 55.5779C84.0393 57.3852 83.4528 58.8675 82.2796 60.0248C81.1065 61.1821 79.5845 61.7608 77.7138 61.7608C75.8273 61.7608 74.2974 61.19 73.1243 60.0486C71.9511 58.8913 71.3645 57.4011 71.3645 55.5779ZM73.6712 55.5779C73.6712 56.8145 74.0279 57.8212 74.7413 58.598C75.4547 59.3748 76.4455 59.7632 77.7138 59.7632C78.9662 59.7632 79.9412 59.3748 80.6388 58.598C81.3522 57.8212 81.7089 56.8145 81.7089 55.5779C81.7089 54.3572 81.3522 53.3664 80.6388 52.6054C79.9412 51.8286 78.9662 51.4402 77.7138 51.4402C76.4455 51.4402 75.4547 51.8286 74.7413 52.6054C74.0279 53.3664 73.6712 54.3572 73.6712 55.5779ZM85.7797 55.5779C85.7797 53.7865 86.3663 52.32 87.5395 51.1786C88.7126 50.0213 90.2425 49.4426 92.129 49.4426C93.9997 49.4426 95.5217 50.0213 96.6948 51.1786C97.868 52.32 98.4545 53.7865 98.4545 55.5779C98.4545 57.3852 97.868 58.8675 96.6948 60.0248C95.5217 61.1821 93.9997 61.7608 92.129 61.7608C90.2425 61.7608 88.7126 61.19 87.5395 60.0486C86.3663 58.8913 85.7797 57.4011 85.7797 55.5779ZM88.0864 55.5779C88.0864 56.8145 88.4431 57.8212 89.1565 58.598C89.8699 59.3748 90.8608 59.7632 92.129 59.7632C93.3815 59.7632 94.3564 59.3748 95.054 58.598C95.7674 57.8212 96.1241 56.8145 96.1241 55.5779C96.1241 54.3572 95.7674 53.3664 95.054 52.6054C94.3564 51.8286 93.3815 51.4402 92.129 51.4402C90.8608 51.4402 89.8699 51.8286 89.1565 52.6054C88.4431 53.3664 88.0864 54.3572 88.0864 55.5779ZM113.06 61.5229H110.753V60.001L111.158 58.4791H110.516C110.23 59.462 109.683 60.2547 108.875 60.8571C108.082 61.4595 107.036 61.7608 105.736 61.7608C104.055 61.7608 102.708 61.1821 101.693 60.0248C100.694 58.8516 100.195 57.3694 100.195 55.5779C100.195 53.8023 100.694 52.3359 101.693 51.1786C102.708 50.0213 104.055 49.4426 105.736 49.4426C107.036 49.4426 108.082 49.7439 108.875 50.3463C109.683 50.9487 110.23 51.7335 110.516 52.7005H111.158L110.753 51.2024V44.0446H113.06V61.5229ZM110.753 55.5779C110.753 54.1987 110.365 53.1682 109.588 52.4865C108.827 51.789 107.813 51.4402 106.544 51.4402C105.308 51.4402 104.325 51.781 103.596 52.4627C102.866 53.1444 102.502 54.1828 102.502 55.5779C102.502 56.9889 102.866 58.0431 103.596 58.7407C104.325 59.4224 105.308 59.7632 106.544 59.7632C107.813 59.7632 108.827 59.4144 109.588 58.7169C110.365 58.0193 110.753 56.973 110.753 55.5779Z" fill="white"/>
</g>
<defs>
<filter id="filter0_bd_7_10790" x="0.511993" y="-2.8" width="165.05" height="117.546" filterUnits="userSpaceOnUse" color-interpolation-filters="sRGB">
<feFlood flood-opacity="0" result="BackgroundImageFix"/>
<feGaussianBlur in="BackgroundImageFix" stdDeviation="18.4"/>
<feComposite in2="SourceAlpha" operator="in" result="effect1_backgroundBlur_7_10790"/>
<feColorMatrix in="SourceAlpha" type="matrix" values="0 0 0 0 0 0 0 0 0 0 0 0 0 0 0 0 0 0 127 0" result="hardAlpha"/>
<feOffset dy="4.59558"/>
<feGaussianBlur stdDeviation="19.244"/>
<feComposite in2="hardAlpha" operator="out"/>
<feColorMatrix type="matrix" values="0 0 0 0 1 0 0 0 0 0.843137 0 0 0 0 0.164706 0 0 0 0.59 0"/>
<feBlend mode="normal" in2="effect1_backgroundBlur_7_10790" result="effect2_dropShadow_7_10790"/>
<feBlend mode="normal" in="SourceGraphic" in2="effect2_dropShadow_7_10790" result="shape"/>
</filter>
</defs>
</svg>
