<svg width="128" height="128" viewBox="0 0 128 128" fill="none" xmlns="http://www.w3.org/2000/svg">
<g filter="url(#filter0_bd_7_10385)">
<rect x="23.1895" y="35.9919" width="70" height="70" rx="35" transform="rotate(-10.5388 23.1895 35.9919)" fill="#015276" fill-opacity="0.26" shape-rendering="crispEdges"/>
<rect x="24.3555" y="36.7922" width="68" height="68" rx="34" transform="rotate(-10.5388 24.3555 36.7922)" stroke="#FEF147" stroke-width="2" shape-rendering="crispEdges"/>
<path d="M64.3516 71.0094C65.3366 71.334 66.3441 71.2282 67.3743 70.6923C68.4044 70.1563 68.9789 69.3957 69.098 68.4103L71.3299 50.0368L62.2029 66.1385C61.714 67.0011 61.7039 67.9473 62.1726 68.9771C62.6413 70.0069 63.3677 70.6843 64.3516 71.0094ZM57.3947 50.9051C59.0043 50.0933 60.6662 49.5371 62.3804 49.2365C64.0946 48.936 65.8332 48.9064 67.5963 49.1479L65.4768 52.6808C64.3426 52.6711 63.2331 52.7947 62.1485 53.0515C61.0638 53.3083 60.0296 53.6842 59.0458 54.179C55.4173 56.009 52.9707 58.8431 51.7061 62.6813C50.4415 66.5196 50.7245 70.2521 52.555 73.879C53.1329 75.0249 53.8611 76.0778 54.7395 77.0379C55.618 77.9979 56.5908 78.8248 57.658 79.5186L80.2476 68.1256C80.3522 66.7724 80.2659 65.4642 79.9888 64.2008C79.7117 62.9375 79.2698 61.7059 78.6633 60.5061C78.168 59.5239 77.5702 58.6277 76.8699 57.8173C76.1696 57.0069 75.368 56.2819 74.465 55.6423L74.8607 51.5414C76.3258 52.4109 77.662 53.448 78.8693 54.6529C80.0765 55.8578 81.0854 57.2312 81.8959 58.7731C82.7064 60.3149 83.2789 61.8913 83.6136 63.502C83.9482 65.1128 84.07 66.7453 83.979 68.3996C83.9266 69.0421 83.71 69.6304 83.3292 70.1647C82.9485 70.6989 82.4716 71.1105 81.8987 71.3995L59.3091 82.7924C58.7362 83.0814 58.1218 83.2202 57.4658 83.2088C56.8098 83.1974 56.208 83.0218 55.6602 82.6821C54.3317 81.8122 53.1291 80.7849 52.0526 79.6004C50.9761 78.4158 50.0523 77.0591 49.2812 75.5302C48.1391 73.2657 47.4994 70.928 47.362 68.5169C47.2247 66.1058 47.5241 63.7817 48.2602 61.5446C48.9964 59.3076 50.1437 57.2574 51.7021 55.3941C53.2606 53.5308 55.1581 52.0345 57.3947 50.9051Z" fill="#FEF147"/>
</g>
<defs>
<filter id="filter0_bd_7_10385" x="-5.61055" y="-5.61103" width="139.222" height="139.222" filterUnits="userSpaceOnUse" color-interpolation-filters="sRGB">
<feFlood flood-opacity="0" result="BackgroundImageFix"/>
<feGaussianBlur in="BackgroundImageFix" stdDeviation="6.25"/>
<feComposite in2="SourceAlpha" operator="in" result="effect1_backgroundBlur_7_10385"/>
<feColorMatrix in="SourceAlpha" type="matrix" values="0 0 0 0 0 0 0 0 0 0 0 0 0 0 0 0 0 0 127 0" result="hardAlpha"/>
<feOffset/>
<feGaussianBlur stdDeviation="14.4"/>
<feComposite in2="hardAlpha" operator="out"/>
<feColorMatrix type="matrix" values="0 0 0 0 0.996078 0 0 0 0 0.945098 0 0 0 0 0.278431 0 0 0 0.31 0"/>
<feBlend mode="normal" in2="effect1_backgroundBlur_7_10385" result="effect2_dropShadow_7_10385"/>
<feBlend mode="normal" in="SourceGraphic" in2="effect2_dropShadow_7_10385" result="shape"/>
</filter>
</defs>
</svg>
