<svg width="177" height="124" viewBox="0 0 177 124" fill="none" xmlns="http://www.w3.org/2000/svg">
<g filter="url(#filter0_bd_7_10388)">
<rect x="42" y="37" width="93.9255" height="40.1642" rx="15.0281" fill="#81BC07" fill-opacity="0.78" shape-rendering="crispEdges"/>
<rect x="43.2252" y="38.2252" width="91.475" height="37.7137" rx="13.8029" stroke="black" stroke-opacity="0.04" stroke-width="2.45044" shape-rendering="crispEdges"/>
<path d="M57.9349 47.8784H60.2933L63.793 65.0724H64.4524L67.8252 47.8784H72.9479L76.3208 65.0724H76.9801L80.4798 47.8784H82.8383L79.1864 65.7571H74.1145L70.7162 48.5631H70.0569L66.6587 65.7571H61.5867L57.9349 47.8784ZM87.7616 51.2512C87.2037 51.2512 86.7388 51.0822 86.3669 50.744C86.0118 50.389 85.8343 49.9494 85.8343 49.4253C85.8343 48.9012 86.0118 48.4701 86.3669 48.132C86.7388 47.7938 87.2037 47.6248 87.7616 47.6248C88.3365 47.6248 88.8099 47.7938 89.1818 48.132C89.5537 48.4701 89.7397 48.9012 89.7397 49.4253C89.7397 49.9494 89.5537 50.389 89.1818 50.744C88.8099 51.0822 88.3365 51.2512 87.7616 51.2512ZM83.3744 65.7571V63.6268H86.9248V55.0299L84.2113 55.2581V53.1279L87.508 52.8743C88.6915 52.7728 89.2832 53.3138 89.2832 54.4973V63.6268H92.8336V65.7571H83.3744ZM105.069 62.4349C105.069 63.517 104.663 64.3876 103.852 65.047C103.04 65.6895 101.722 66.0107 99.8958 66.0107C95.9396 66.0107 93.9615 64.3792 93.9615 61.1162H96.4215C96.4215 63.0774 97.5965 64.058 99.9465 64.058C100.859 64.058 101.527 63.9396 101.95 63.7029C102.389 63.4493 102.609 63.0436 102.609 62.4857C102.609 62.2828 102.584 62.0968 102.533 61.9277C102.482 61.7587 102.381 61.6065 102.229 61.4713C102.094 61.336 101.967 61.2261 101.848 61.1416C101.747 61.057 101.553 60.9641 101.265 60.8626C100.995 60.7443 100.792 60.6597 100.657 60.609C100.521 60.5583 100.259 60.4738 99.8704 60.3554C99.4815 60.2371 99.2026 60.1525 99.0335 60.1018C98.2896 59.8651 97.7064 59.6707 97.2837 59.5185C96.861 59.3495 96.4045 59.1128 95.9143 58.8085C95.4409 58.5042 95.0943 58.1407 94.8745 57.718C94.6547 57.2953 94.5448 56.7966 94.5448 56.2218C94.5448 55.1905 94.9675 54.3789 95.8128 53.7872C96.6581 53.1786 97.8247 52.8743 99.3125 52.8743C101.172 52.8743 102.525 53.2885 103.37 54.1169C104.215 54.9284 104.638 55.9428 104.638 57.1601H102.178C102.178 55.6047 101.223 54.827 99.3125 54.827C97.774 54.827 97.0047 55.2919 97.0047 56.2218C97.0047 56.729 97.2161 57.1178 97.6387 57.3883C98.0614 57.6588 98.8391 57.98 99.9718 58.352C100.09 58.3858 100.335 58.4619 100.707 58.5802C101.079 58.6986 101.333 58.7831 101.468 58.8338C101.603 58.8846 101.832 58.9691 102.153 59.0874C102.474 59.2058 102.702 59.2988 102.838 59.3664C102.99 59.434 103.193 59.5439 103.446 59.6961C103.7 59.8313 103.886 59.9581 104.004 60.0765C104.122 60.1948 104.266 60.347 104.435 60.5329C104.604 60.702 104.723 60.8795 104.79 61.0655C104.858 61.2515 104.917 61.4628 104.968 61.6995C105.035 61.9193 105.069 62.1644 105.069 62.4349ZM106.789 59.265C106.789 57.27 107.356 55.7061 108.489 54.5734C109.638 53.4406 111.143 52.8743 113.003 52.8743C114.845 52.8743 116.316 53.4237 117.415 54.5227C118.514 55.6047 119.064 57.1009 119.064 59.0114V59.9243H109.173C109.224 61.1247 109.579 62.0968 110.238 62.8407C110.915 63.5846 111.946 63.9565 113.332 63.9565C115.361 63.9565 116.595 63.0774 117.035 61.3191H119.495C119.241 62.5364 118.607 63.6268 117.593 64.5905C116.595 65.5373 115.175 66.0107 113.332 66.0107C111.151 66.0107 109.511 65.3767 108.413 64.1087C107.33 62.8407 106.789 61.2261 106.789 59.265ZM109.173 58.1998H116.68C116.68 57.2531 116.359 56.4669 115.716 55.8414C115.091 55.2158 114.186 54.9031 113.003 54.9031C111.819 54.9031 110.881 55.2243 110.188 55.8667C109.511 56.4923 109.173 57.27 109.173 58.1998Z" fill="white"/>
</g>
<defs>
<filter id="filter0_bd_7_10388" x="0.955162" y="0.856038" width="176.015" height="122.254" filterUnits="userSpaceOnUse" color-interpolation-filters="sRGB">
<feFlood flood-opacity="0" result="BackgroundImageFix"/>
<feGaussianBlur in="BackgroundImageFix" stdDeviation="10.0468"/>
<feComposite in2="SourceAlpha" operator="in" result="effect1_backgroundBlur_7_10388"/>
<feColorMatrix in="SourceAlpha" type="matrix" values="0 0 0 0 0 0 0 0 0 0 0 0 0 0 0 0 0 0 127 0" result="hardAlpha"/>
<feOffset dy="4.90088"/>
<feGaussianBlur stdDeviation="20.5224"/>
<feComposite in2="hardAlpha" operator="out"/>
<feColorMatrix type="matrix" values="0 0 0 0 0.505882 0 0 0 0 0.737255 0 0 0 0 0.027451 0 0 0 0.59 0"/>
<feBlend mode="normal" in2="effect1_backgroundBlur_7_10388" result="effect2_dropShadow_7_10388"/>
<feBlend mode="normal" in="SourceGraphic" in2="effect2_dropShadow_7_10388" result="shape"/>
</filter>
</defs>
</svg>
