<svg width="394" height="209" viewBox="0 0 394 209" fill="none" xmlns="http://www.w3.org/2000/svg">
<g filter="url(#filter0_b_2596_1993)">
<g clip-path="url(#clip0_2596_1993)">
<g clip-path="url(#clip1_2596_1993)">
<mask id="mask0_2596_1993" style="mask-type:alpha" maskUnits="userSpaceOnUse" x="13" y="18" width="368" height="184">
<path fill-rule="evenodd" clip-rule="evenodd" d="M327.08 71.7682C361.54 106.066 380.9 152.584 380.9 201.089H197.146L13.3926 201.089C13.3926 152.584 32.7523 106.066 67.2128 71.7682C101.673 37.4702 148.412 18.2018 197.146 18.2018C245.881 18.2018 292.619 37.4702 327.08 71.7682ZM286.773 111.618C310.558 135.317 323.92 167.459 323.92 200.973H197.094L70.2677 200.973C70.2677 167.459 83.6297 135.317 107.414 111.618C131.199 87.9201 163.457 74.6066 197.094 74.6066C230.73 74.6066 262.989 87.9201 286.773 111.618Z" fill="#040704"/>
</mask>
<g mask="url(#mask0_2596_1993)">
<mask id="path-3-inside-1_2596_1993" fill="white">
<path d="M367.881 199.591C367.881 177.022 363.436 154.674 354.799 133.823C346.162 112.972 333.503 94.0268 317.545 78.0682C301.586 62.1097 282.641 49.4507 261.79 40.814C240.939 32.1773 218.591 27.7321 196.022 27.7321C173.454 27.7321 151.106 32.1773 130.255 40.814C109.404 49.4507 90.4585 62.1097 74.5 78.0682C58.5415 94.0268 45.8825 112.972 37.2458 133.823C28.6091 154.674 24.1638 177.022 24.1638 199.591L196.022 199.591H367.881Z"/>
</mask>
<path d="M367.881 199.591C367.881 177.022 363.436 154.674 354.799 133.823C346.162 112.972 333.503 94.0268 317.545 78.0682C301.586 62.1097 282.641 49.4507 261.79 40.814C240.939 32.1773 218.591 27.7321 196.022 27.7321C173.454 27.7321 151.106 32.1773 130.255 40.814C109.404 49.4507 90.4585 62.1097 74.5 78.0682C58.5415 94.0268 45.8825 112.972 37.2458 133.823C28.6091 154.674 24.1638 177.022 24.1638 199.591L196.022 199.591H367.881Z" fill="#2D7A08" stroke="#040704" stroke-width="7.74628" mask="url(#path-3-inside-1_2596_1993)"/>
<mask id="path-4-inside-2_2596_1993" fill="white">
<path d="M367.881 199.591C367.881 163.307 356.397 127.955 335.076 98.5978C313.754 69.2405 283.688 47.3847 249.184 36.1611C214.68 24.9375 177.51 24.922 142.997 36.1169C108.484 47.3118 78.3994 69.1427 57.0531 98.4822L196.022 199.591H367.881Z"/>
</mask>
<path d="M367.881 199.591C367.881 163.307 356.397 127.955 335.076 98.5978C313.754 69.2405 283.688 47.3847 249.184 36.1611C214.68 24.9375 177.51 24.922 142.997 36.1169C108.484 47.3118 78.3994 69.1427 57.0531 98.4822L196.022 199.591H367.881Z" fill="#8CC208" stroke="#040704" stroke-width="7.74628" mask="url(#path-4-inside-2_2596_1993)"/>
<mask id="path-5-inside-3_2596_1993" fill="white">
<path d="M367.881 199.591C367.881 172.445 361.451 145.686 349.117 121.505C336.783 97.3237 318.897 76.4079 296.923 60.4706C274.949 44.5333 249.512 34.0278 222.696 29.8147C195.88 25.6015 168.447 27.8005 142.645 36.2315L196.022 199.591H367.881Z"/>
</mask>
<path d="M367.881 199.591C367.881 172.445 361.451 145.686 349.117 121.505C336.783 97.3237 318.897 76.4079 296.923 60.4706C274.949 44.5333 249.512 34.0278 222.696 29.8147C195.88 25.6015 168.447 27.8005 142.645 36.2315L196.022 199.591H367.881Z" fill="#FFD72A" stroke="#040704" stroke-width="7.74628" mask="url(#path-5-inside-3_2596_1993)"/>
<mask id="path-6-inside-4_2596_1993" fill="white">
<path d="M367.881 199.591C367.881 163.35 356.424 128.037 335.149 98.6992C313.874 69.3611 283.869 47.4994 249.422 36.2388L196.022 199.591H367.881Z"/>
</mask>
<path d="M367.881 199.591C367.881 163.35 356.424 128.037 335.149 98.6992C313.874 69.3611 283.869 47.4994 249.422 36.2388L196.022 199.591H367.881Z" fill="#FEB334" stroke="#040704" stroke-width="7.74628" mask="url(#path-6-inside-4_2596_1993)"/>
<mask id="path-7-inside-5_2596_1993" fill="white">
<path d="M367.881 199.591C367.881 163.258 356.366 127.86 334.991 98.4809L196.022 199.591H367.881Z"/>
</mask>
<path d="M367.881 199.591C367.881 163.258 356.366 127.86 334.991 98.4809L196.022 199.591H367.881Z" fill="#FF7F27" stroke="#040704" stroke-width="7.74628" mask="url(#path-7-inside-5_2596_1993)"/>
</g>
<mask id="path-8-outside-6_2596_1993" maskUnits="userSpaceOnUse" x="73.6128" y="78.9574" width="245" height="125" fill="black">
<rect fill="white" x="73.6128" y="78.9574" width="245" height="125"/>
<path d="M315.56 200.972C315.56 169.407 302.973 139.135 280.567 116.816C258.162 94.4964 227.773 81.9574 196.087 81.9574C164.4 81.9574 134.012 94.4964 111.606 116.816C89.2002 139.135 76.6128 169.407 76.6128 200.972L196.087 200.972H315.56Z"/>
</mask>
<path d="M315.56 200.972C315.56 169.407 302.973 139.135 280.567 116.816C258.162 94.4964 227.773 81.9574 196.087 81.9574C164.4 81.9574 134.012 94.4964 111.606 116.816C89.2002 139.135 76.6128 169.407 76.6128 200.972L196.087 200.972H315.56Z" stroke="white" stroke-width="5.51418" stroke-dasharray="3.68 3.68" mask="url(#path-8-outside-6_2596_1993)"/>
</g>
<g clip-path="url(#clip2_2596_1993)">
<path d="M55.1571 179.217L46.709 177.767C45.4217 177.547 44.4858 177.046 43.893 176.266C43.3001 175.486 43.1138 174.477 43.3255 173.235C43.5373 171.993 44.0539 171.102 44.8712 170.568C45.6884 170.03 46.7386 169.873 48.026 170.093L56.474 171.543C57.7614 171.764 58.6972 172.264 59.2901 173.044C59.8829 173.824 60.0693 174.833 59.8575 176.076C59.6458 177.318 59.1292 178.208 58.3119 178.742C57.4946 179.281 56.4444 179.438 55.1571 179.217ZM56.1988 174.096L47.4289 172.591C46.3745 172.408 45.7689 172.756 45.6207 173.629C45.4725 174.503 45.9256 175.028 46.98 175.211L55.7499 176.716C56.8044 176.898 57.4099 176.55 57.5581 175.677C57.7063 174.804 57.2532 174.278 56.1988 174.096Z" fill="black"/>
<path d="M61.1278 168.487L60.5392 170.984L44.6763 167.223L45.5444 163.547C46.133 161.067 47.7337 160.134 50.3464 160.758L51.909 161.126C54.5218 161.745 55.5381 163.297 54.9495 165.777L54.67 166.956L61.1278 168.487ZM47.5304 165.264L52.4045 166.418L52.684 165.239C52.7856 164.815 52.739 164.476 52.5527 164.226C52.3664 163.976 52.0064 163.785 51.4771 163.658L49.5969 163.212C49.0676 163.085 48.6653 163.094 48.3816 163.238C48.1021 163.378 47.9115 163.662 47.8099 164.086L47.5304 165.264Z" fill="black"/>
<path d="M63.8762 158.294L63.1351 160.749L49.7537 156.708L48.9787 159.278L46.7471 158.604L49.0338 151.014L51.2654 151.689L50.4905 154.258L63.8719 158.298L63.8762 158.294Z" fill="black"/>
<path d="M65.8071 152.537L64.9602 154.958L49.5715 149.56L50.4185 147.14L65.8071 152.537Z" fill="black"/>
<path d="M67.0774 149.077L66.2178 151.142L51.1721 144.858L52.5611 141.522L64.1343 144.511L53.8696 138.38L55.2585 135.043L70.3042 141.327L69.3726 143.565L57.9814 138.808L68.64 145.333L67.8142 147.313L55.6862 144.32L67.0774 149.077Z" fill="black"/>
<path d="M74.6065 132.881L73.4462 135.166L70.4015 134.115L69.0591 136.756L71.7015 138.601L70.6259 140.721L57.2996 130.952L58.8706 127.857L74.6065 132.89V132.881ZM60.4247 130.711L67.234 135.459L68.28 133.403L60.4247 130.711Z" fill="black"/>
<path d="M78.4179 126.399L74.9921 132.254L60.9204 124.007L62.2162 121.794L74.2764 128.862L76.4065 125.22L78.4179 126.399Z" fill="black"/>
<path d="M180.028 57.8083L179.287 49.261C179.172 47.9467 179.409 46.9079 179.998 46.1448C180.587 45.3859 181.497 44.9492 182.738 44.8432C183.974 44.7372 184.948 45.0043 185.66 45.653C186.371 46.3016 186.782 47.2853 186.896 48.5996L187.019 49.9945L184.605 50.2064L184.47 48.6505C184.377 47.582 183.89 47.086 183.009 47.1623C182.128 47.2386 181.734 47.811 181.827 48.8794L182.598 57.7786C182.691 58.8301 183.174 59.3176 184.059 59.2413C184.94 59.165 185.338 58.6011 185.245 57.5454L184.97 54.3614L183.695 54.4716L183.492 52.1482L187.18 51.826L187.642 57.1469C187.756 58.4612 187.519 59.4999 186.93 60.2631C186.342 61.0262 185.427 61.4587 184.19 61.5647C182.954 61.6707 181.98 61.4036 181.269 60.7549C180.557 60.1062 180.146 59.1226 180.032 57.8083H180.028Z" fill="black"/>
<path d="M188.891 57.0746L188.683 48.4976C188.654 47.1918 188.959 46.1742 189.611 45.4407C190.259 44.7115 191.216 44.3299 192.473 44.296C193.731 44.2621 194.701 44.6013 195.387 45.2966C196.073 45.9961 196.429 46.9967 196.462 48.3026L196.67 56.8795C196.7 58.1854 196.39 59.2029 195.743 59.9364C195.09 60.6656 194.138 61.0472 192.88 61.0811C191.622 61.115 190.652 60.7759 189.966 60.0805C189.28 59.381 188.925 58.3804 188.891 57.0746ZM194.112 57.1085L193.896 48.205C193.871 47.1324 193.413 46.6067 192.528 46.6279C191.643 46.6491 191.216 47.196 191.241 48.2686L191.457 57.1721C191.482 58.2447 191.94 58.7705 192.825 58.7493C193.71 58.7281 194.138 58.1811 194.112 57.1085Z" fill="black"/>
<path d="M197.961 56.8923L198.287 48.3153C198.338 47.0095 198.711 46.0131 199.405 45.3263C200.1 44.6394 201.074 44.3172 202.332 44.3639C203.589 44.4105 204.538 44.8048 205.177 45.5467C205.817 46.2887 206.113 47.3105 206.062 48.6121L205.736 57.189C205.685 58.4949 205.313 59.4912 204.618 60.1781C203.924 60.8649 202.95 61.1871 201.692 61.1405C200.434 61.0938 199.486 60.6995 198.846 59.9576C198.207 59.2156 197.911 58.1939 197.961 56.888V56.8923ZM203.17 57.2569L203.509 48.3534C203.551 47.2808 203.128 46.7296 202.243 46.6957C201.358 46.6618 200.896 47.179 200.854 48.2517L200.515 57.1509C200.473 58.2235 200.896 58.7747 201.781 58.8086C202.666 58.8425 203.128 58.3253 203.17 57.2526V57.2569Z" fill="black"/>
<path d="M210.729 61.5477L206.837 61.1492L208.497 44.911L212.389 45.3095C214.921 45.5682 216.052 47.0351 215.781 49.7104L214.942 57.9227C214.667 60.598 213.266 61.8063 210.733 61.5477H210.729ZM210.805 47.493L209.62 59.0929L210.915 59.2243C211.779 59.3134 212.266 58.8301 212.372 57.7786L213.236 49.3331C213.342 48.2816 212.965 47.7092 212.101 47.6244L210.805 47.493Z" fill="black"/>
<path d="M255.294 73.8978L248.892 71.0954L255.426 56.1418L261.828 58.9443L260.897 61.0811L256.844 59.3047L255.117 63.2561L258.339 64.6679L257.403 66.8048L254.181 65.3929L252.173 69.9846L256.226 71.761L255.294 73.8978Z" fill="black"/>
<path d="M257.708 75.1021L255.552 73.9955L261.989 67.92L263.12 59.538L265.525 60.7718L264.644 66.3216L268.676 62.3914L270.831 63.4979L264.687 69.3064L263.514 78.0869L261.108 76.8531L262.057 70.8666L257.712 75.1063L257.708 75.1021Z" fill="black"/>
<path d="M266.313 79.7617L264.111 78.4517L272.449 64.4266L275.692 66.36C277.882 67.6658 278.288 69.4719 276.912 71.7826L276.09 73.1647C274.718 75.4754 272.936 75.9799 270.746 74.6741L269.705 74.0551L266.308 79.766L266.313 79.7617ZM273.461 67.7379L270.899 72.0454L271.94 72.6644C272.313 72.8849 272.648 72.9485 272.944 72.8425C273.24 72.7408 273.528 72.4524 273.808 71.9861L274.795 70.3241C275.074 69.8577 275.184 69.4677 275.138 69.1582C275.087 68.8487 274.875 68.5816 274.502 68.3569L273.461 67.7379Z" fill="black"/>
<path d="M277.005 86.6555L271.39 82.8525L280.524 69.332L282.646 70.7692L274.816 82.3564L278.31 84.7222L277.005 86.6555Z" fill="black"/>
<path d="M279.758 83.8656L284.966 77.0481C285.758 76.0093 286.639 75.4115 287.6 75.2504C288.566 75.0893 289.544 75.3903 290.543 76.1535C291.542 76.9167 292.089 77.79 292.186 78.7609C292.284 79.7361 291.936 80.7409 291.14 81.7796L285.932 88.5971C285.14 89.6358 284.259 90.2337 283.298 90.3948C282.332 90.5559 281.35 90.2548 280.355 89.4917C279.355 88.7285 278.809 87.8552 278.712 86.8843C278.614 85.9091 278.961 84.9043 279.753 83.8656H279.758ZM283.802 87.1683L289.205 80.0922C289.857 79.24 289.832 78.5447 289.129 78.0063C288.426 77.4678 287.748 77.6247 287.096 78.4769L281.693 85.553C281.041 86.4052 281.066 87.1005 281.769 87.6389C282.472 88.1774 283.149 88.0205 283.802 87.1683Z" fill="black"/>
<path d="M286.906 94.8294C285.966 94.0154 285.487 93.1335 285.47 92.1796C285.453 91.2256 285.873 90.2505 286.741 89.2542L287.35 88.5504L289.18 90.1403L288.447 90.9882C287.757 91.7853 287.744 92.4764 288.413 93.0572C289.095 93.6465 289.79 93.5321 290.501 92.7095C290.937 92.205 291.2 91.6496 291.289 91.0476C291.39 90.4582 291.361 89.5976 291.204 88.4741C291.026 87.0665 291.018 85.9345 291.174 85.0865C291.365 84.2258 291.767 83.4415 292.377 82.7377C293.232 81.7498 294.134 81.2072 295.083 81.1054C296.031 81.0036 296.976 81.3598 297.916 82.1738C298.83 82.9666 299.296 83.84 299.317 84.794C299.334 85.7479 298.911 86.723 298.047 87.7194L297.607 88.2324L295.777 86.6425L296.328 86.0065C297.031 85.1967 297.056 84.5099 296.412 83.9503C295.756 83.3821 295.087 83.4881 294.405 84.2767C294.007 84.7346 293.774 85.2519 293.707 85.8327C293.618 86.4559 293.66 87.3124 293.825 88.402C294.024 89.8096 294.024 90.9373 293.821 91.7895C293.639 92.6417 293.211 93.4515 292.542 94.2274C291.665 95.2364 290.747 95.7961 289.781 95.9063C288.816 96.0123 287.854 95.6562 286.906 94.8294Z" fill="black"/>
<path d="M292.572 99.6924L290.713 97.9286L301.922 86.0743L303.781 87.8381L292.572 99.6924Z" fill="black"/>
<path d="M297.285 104.458L294.922 102.008L304.937 88.894L306.732 90.7553L298.699 100.888L309.095 93.2059L310.73 94.9017L297.285 104.462V104.458Z" fill="black"/>
<path d="M304.047 112.132L299.495 106.824L311.864 96.1948L316.417 101.503L314.651 103.021L311.767 99.6587L308.498 102.47L310.789 105.141L309.023 106.658L306.732 103.987L302.934 107.252L305.817 110.614L304.052 112.132H304.047Z" fill="black"/>
<path d="M321.727 140.279L320.774 138.202L335.595 131.401L336.917 134.285L329.125 140.708L337.996 136.638L338.949 138.715L324.128 145.516L323.052 143.163L332.551 135.315L321.731 140.279H321.727Z" fill="black"/>
<path d="M327.537 154.389L326.627 151.994L329.451 150.442L328.401 147.674L325.263 148.394L324.416 146.173L340.597 142.853L341.833 146.101L327.541 154.389H327.537ZM338.67 145.329L330.582 147.19L331.403 149.348L338.674 145.329H338.67Z" fill="black"/>
<path d="M328.528 157.599L327.732 155.161L343.222 150.078L344.018 152.516L328.528 157.599Z" fill="black"/>
<path d="M330.404 164.026L329.493 160.745L344.539 153.991L345.233 156.484L333.347 161.559L346.144 159.761L346.775 162.029L330.408 164.022L330.404 164.026Z" fill="black"/>
<path d="M332.691 173.998L331.221 167.16L347.16 163.725L348.63 170.564L346.352 171.056L345.42 166.723L341.206 167.63L341.948 171.073L339.669 171.565L338.928 168.122L334.033 169.178L334.965 173.511L332.686 174.002L332.691 173.998Z" fill="black"/>
</g>
<path d="M106.208 94.12L103.606 96.3134L91.8355 84.9009L93.7231 83.3088L102.84 92.3277L95.5607 81.7599L97.6988 79.9558L106.866 88.9315L99.5321 78.407L101.223 76.9794L110.468 90.529L108.029 92.5883L99.9016 84.7783L106.212 94.1199L106.208 94.12Z" fill="black"/>
<path d="M114.529 87.5182L112.476 89.0537L102.727 75.9705L104.781 74.435L114.529 87.5182Z" fill="black"/>
<path d="M118.619 84.9261C117.593 85.626 116.615 85.8629 115.692 85.6325C114.769 85.4063 113.936 84.746 113.194 83.6517L112.668 82.8803L114.67 81.5195L115.3 82.4461C115.895 83.3223 116.554 83.5106 117.287 83.0106C118.032 82.502 118.101 81.8012 117.489 80.8998C117.115 80.3463 116.647 79.9514 116.088 79.7106C115.542 79.4611 114.708 79.2673 113.584 79.1292C112.179 78.9408 111.086 78.6581 110.309 78.2852C109.527 77.8786 108.873 77.2874 108.348 76.516C107.614 75.4343 107.321 74.4215 107.467 73.4777C107.612 72.534 108.199 71.71 109.229 71.01C110.23 70.3275 111.192 70.1036 112.119 70.3297C113.042 70.5559 113.875 71.2162 114.617 72.3104L114.995 72.868L112.993 74.2289L112.524 73.5328C111.921 72.644 111.269 72.4429 110.562 72.9212C109.841 73.4125 109.776 74.0878 110.358 74.9473C110.697 75.4504 111.139 75.8077 111.681 76.0233C112.261 76.268 113.098 76.449 114.193 76.5706C115.602 76.7378 116.691 77.0333 117.465 77.4486C118.238 77.8427 118.913 78.4632 119.491 79.3143C120.242 80.4211 120.543 81.4549 120.398 82.4157C120.254 83.3807 119.662 84.2132 118.619 84.9219L118.619 84.9261Z" fill="black"/>
<path d="M128.519 78.4547L122.523 82.0451L114.156 68.0354L120.152 64.4451L121.346 66.4477L117.547 68.7206L119.757 72.4235L122.776 70.6174L123.97 72.62L120.951 74.4261L123.522 78.7293L127.321 76.4564L128.515 78.459L128.519 78.4547Z" fill="black"/>
</g>
</g>
<defs>
<filter id="filter0_b_2596_1993" x="-25.7805" y="-26.0029" width="445.516" height="260.029" filterUnits="userSpaceOnUse" color-interpolation-filters="sRGB">
<feFlood flood-opacity="0" result="BackgroundImageFix"/>
<feGaussianBlur in="BackgroundImageFix" stdDeviation="13.0014"/>
<feComposite in2="SourceAlpha" operator="in" result="effect1_backgroundBlur_2596_1993"/>
<feBlend mode="normal" in="SourceGraphic" in2="effect1_backgroundBlur_2596_1993" result="shape"/>
</filter>
<clipPath id="clip0_2596_1993">
<path d="M0.222412 183.55C0.222412 82.178 82.4004 0 183.772 0L210.183 0C311.554 0 393.733 82.178 393.733 183.55C393.733 197.066 382.775 208.023 369.259 208.023H24.6957C11.1795 208.023 0.222412 197.066 0.222412 183.55Z" fill="white"/>
</clipPath>
<clipPath id="clip1_2596_1993">
<rect width="365.774" height="170.939" fill="white" transform="translate(14.1213 27.7362)"/>
</clipPath>
<clipPath id="clip2_2596_1993">
<rect width="305.389" height="305.389" fill="white" transform="translate(43.2407 44.2963)"/>
</clipPath>
</defs>
</svg>
