<svg width="61" height="21" viewBox="0 0 61 21" fill="none" xmlns="http://www.w3.org/2000/svg">
<path d="M9.33764 0.752986H11.239L14.0603 14.6143H14.5919L17.311 0.752986H21.4407L24.1599 14.6143H24.6914L27.5127 0.752986H29.4141L26.4701 15.1663H22.3812L19.6416 1.30499H19.1101L16.3705 15.1663H12.2816L9.33764 0.752986ZM33.3832 3.4721C32.9334 3.4721 32.5586 3.3358 32.2587 3.06321C31.9725 2.77699 31.8294 2.42262 31.8294 2.0001C31.8294 1.57758 31.9725 1.23002 32.2587 0.957431C32.5586 0.684838 32.9334 0.548542 33.3832 0.548542C33.8466 0.548542 34.2282 0.684838 34.5281 0.957431C34.8279 1.23002 34.9778 1.57758 34.9778 2.0001C34.9778 2.42262 34.8279 2.77699 34.5281 3.06321C34.2282 3.3358 33.8466 3.4721 33.3832 3.4721ZM29.8463 15.1663V13.449H32.7085V6.51832L30.521 6.70232V4.98499L33.1787 4.78054C34.1328 4.69877 34.6098 5.13491 34.6098 6.08899V13.449H37.4721V15.1663H29.8463ZM47.336 12.4881C47.336 13.3604 47.0089 14.0623 46.3547 14.5939C45.7005 15.1118 44.6374 15.3708 43.1654 15.3708C39.976 15.3708 38.3814 14.0555 38.3814 11.425H40.3645C40.3645 13.006 41.3117 13.7965 43.2063 13.7965C43.9423 13.7965 44.4806 13.7011 44.8214 13.5103C45.1757 13.3059 45.3529 12.9788 45.3529 12.529C45.3529 12.3654 45.3325 12.2155 45.2916 12.0792C45.2507 11.9429 45.1689 11.8202 45.0463 11.7112C44.9372 11.6022 44.835 11.5136 44.7396 11.4454C44.6578 11.3773 44.5011 11.3023 44.2694 11.2205C44.0513 11.1251 43.8877 11.057 43.7787 11.0161C43.6697 10.9752 43.4584 10.9071 43.1449 10.8117C42.8314 10.7162 42.6066 10.6481 42.4703 10.6072C41.8706 10.4164 41.4003 10.2597 41.0596 10.137C40.7188 10.0007 40.3508 9.80988 39.9556 9.56454C39.574 9.31921 39.2945 9.02617 39.1174 8.68543C38.9402 8.34469 38.8516 7.94262 38.8516 7.47921C38.8516 6.6478 39.1923 5.99358 39.8738 5.51654C40.5553 5.02588 41.4957 4.78054 42.6951 4.78054C44.1944 4.78054 45.2848 5.11447 45.9663 5.78232C46.6477 6.43654 46.9885 7.25432 46.9885 8.23565H45.0054C45.0054 6.98173 44.2353 6.35476 42.6951 6.35476C41.4548 6.35476 40.8347 6.72958 40.8347 7.47921C40.8347 7.8881 41.0051 8.20158 41.3458 8.41965C41.6865 8.63773 42.3135 8.89669 43.2267 9.19654C43.3221 9.2238 43.5197 9.28514 43.8196 9.38054C44.1194 9.47595 44.3239 9.5441 44.4329 9.58499C44.542 9.62588 44.726 9.69402 44.9849 9.78943C45.2439 9.88484 45.4279 9.9598 45.5369 10.0143C45.6596 10.0688 45.8231 10.1574 46.0276 10.2801C46.232 10.3891 46.382 10.4914 46.4774 10.5868C46.5728 10.6822 46.6886 10.8048 46.8249 10.9548C46.9612 11.0911 47.0566 11.2342 47.1111 11.3841C47.1657 11.534 47.2134 11.7044 47.2543 11.8952C47.3088 12.0724 47.336 12.27 47.336 12.4881ZM48.7229 9.93254C48.7229 8.32425 49.1795 7.06351 50.0927 6.15032C51.0195 5.23714 52.2325 4.78054 53.7318 4.78054C55.2174 4.78054 56.4032 5.22351 57.2891 6.10943C58.175 6.98173 58.618 8.18795 58.618 9.7281V10.4641H50.6447C50.6856 11.4318 50.9718 12.2155 51.5033 12.8152C52.0485 13.4149 52.8799 13.7148 53.9976 13.7148C55.6331 13.7148 56.6281 13.006 56.9825 11.5885H58.9656C58.7611 12.5699 58.25 13.449 57.4322 14.2259C56.6281 14.9891 55.4832 15.3708 53.9976 15.3708C52.2393 15.3708 50.9173 14.8597 50.0313 13.8374C49.159 12.8152 48.7229 11.5136 48.7229 9.93254ZM50.6447 9.07388H56.6962C56.6962 8.31062 56.4373 7.67684 55.9193 7.17254C55.415 6.66825 54.6859 6.4161 53.7318 6.4161C52.7777 6.4161 52.0213 6.67506 51.4625 7.19299C50.9173 7.69728 50.6447 8.32425 50.6447 9.07388Z" fill="white" fill-opacity="0.8"/>
<g filter="url(#filter0_di_2596_1984)">
<circle cx="3.43026" cy="13.5326" r="1.96737" fill="#FFD72C"/>
</g>
<g filter="url(#filter1_di_2596_1984)">
<circle cx="3.43026" cy="8.25833" r="1.96737" fill="#FFAE2D"/>
</g>
<g filter="url(#filter2_di_2596_1984)">
<circle cx="3.43026" cy="2.98568" r="1.96737" fill="#FF532E"/>
</g>
<defs>
<filter id="filter0_di_2596_1984" x="0.155411" y="11.0048" width="6.54977" height="6.54971" filterUnits="userSpaceOnUse" color-interpolation-filters="sRGB">
<feFlood flood-opacity="0" result="BackgroundImageFix"/>
<feColorMatrix in="SourceAlpha" type="matrix" values="0 0 0 0 0 0 0 0 0 0 0 0 0 0 0 0 0 0 127 0" result="hardAlpha"/>
<feOffset dy="0.747131"/>
<feGaussianBlur stdDeviation="0.65374"/>
<feComposite in2="hardAlpha" operator="out"/>
<feColorMatrix type="matrix" values="0 0 0 0 1 0 0 0 0 0.843137 0 0 0 0 0.172549 0 0 0 0.26 0"/>
<feBlend mode="normal" in2="BackgroundImageFix" result="effect1_dropShadow_2596_1984"/>
<feBlend mode="normal" in="SourceGraphic" in2="effect1_dropShadow_2596_1984" result="shape"/>
<feColorMatrix in="SourceAlpha" type="matrix" values="0 0 0 0 0 0 0 0 0 0 0 0 0 0 0 0 0 0 127 0" result="hardAlpha"/>
<feOffset dy="0.747131"/>
<feGaussianBlur stdDeviation="0.43894"/>
<feComposite in2="hardAlpha" operator="arithmetic" k2="-1" k3="1"/>
<feColorMatrix type="matrix" values="0 0 0 0 1 0 0 0 0 1 0 0 0 0 1 0 0 0 1 0"/>
<feBlend mode="overlay" in2="shape" result="effect2_innerShadow_2596_1984"/>
</filter>
<filter id="filter1_di_2596_1984" x="0.155411" y="5.73061" width="6.54977" height="6.54971" filterUnits="userSpaceOnUse" color-interpolation-filters="sRGB">
<feFlood flood-opacity="0" result="BackgroundImageFix"/>
<feColorMatrix in="SourceAlpha" type="matrix" values="0 0 0 0 0 0 0 0 0 0 0 0 0 0 0 0 0 0 127 0" result="hardAlpha"/>
<feOffset dy="0.747131"/>
<feGaussianBlur stdDeviation="0.65374"/>
<feComposite in2="hardAlpha" operator="out"/>
<feColorMatrix type="matrix" values="0 0 0 0 1 0 0 0 0 0.682353 0 0 0 0 0.176471 0 0 0 0.5 0"/>
<feBlend mode="normal" in2="BackgroundImageFix" result="effect1_dropShadow_2596_1984"/>
<feBlend mode="normal" in="SourceGraphic" in2="effect1_dropShadow_2596_1984" result="shape"/>
<feColorMatrix in="SourceAlpha" type="matrix" values="0 0 0 0 0 0 0 0 0 0 0 0 0 0 0 0 0 0 127 0" result="hardAlpha"/>
<feOffset dy="0.747131"/>
<feGaussianBlur stdDeviation="0.43894"/>
<feComposite in2="hardAlpha" operator="arithmetic" k2="-1" k3="1"/>
<feColorMatrix type="matrix" values="0 0 0 0 1 0 0 0 0 1 0 0 0 0 1 0 0 0 1 0"/>
<feBlend mode="overlay" in2="shape" result="effect2_innerShadow_2596_1984"/>
</filter>
<filter id="filter2_di_2596_1984" x="0.155411" y="0.457962" width="6.54977" height="6.54971" filterUnits="userSpaceOnUse" color-interpolation-filters="sRGB">
<feFlood flood-opacity="0" result="BackgroundImageFix"/>
<feColorMatrix in="SourceAlpha" type="matrix" values="0 0 0 0 0 0 0 0 0 0 0 0 0 0 0 0 0 0 127 0" result="hardAlpha"/>
<feOffset dy="0.747131"/>
<feGaussianBlur stdDeviation="0.65374"/>
<feComposite in2="hardAlpha" operator="out"/>
<feColorMatrix type="matrix" values="0 0 0 0 1 0 0 0 0 0.32549 0 0 0 0 0.180392 0 0 0 0.5 0"/>
<feBlend mode="normal" in2="BackgroundImageFix" result="effect1_dropShadow_2596_1984"/>
<feBlend mode="normal" in="SourceGraphic" in2="effect1_dropShadow_2596_1984" result="shape"/>
<feColorMatrix in="SourceAlpha" type="matrix" values="0 0 0 0 0 0 0 0 0 0 0 0 0 0 0 0 0 0 127 0" result="hardAlpha"/>
<feOffset dy="0.747131"/>
<feGaussianBlur stdDeviation="0.43894"/>
<feComposite in2="hardAlpha" operator="arithmetic" k2="-1" k3="1"/>
<feColorMatrix type="matrix" values="0 0 0 0 1 0 0 0 0 1 0 0 0 0 1 0 0 0 1 0"/>
<feBlend mode="overlay" in2="shape" result="effect2_innerShadow_2596_1984"/>
</filter>
</defs>
</svg>
