<svg width="387" height="146" viewBox="0 0 387 146" fill="none" xmlns="http://www.w3.org/2000/svg">
<g filter="url(#filter0_i_8004_10112)">
<g clip-path="url(#clip0_8004_10112)">
<rect x="10" y="0.212799" width="378.025" height="112.907" rx="10.2643" transform="rotate(5.0509 10 0.212799)" fill="#FF532E"/>
<path d="M82.1372 100.607L76.6016 73.343L45.7148 70.6131L35.483 96.4832L21.4436 95.2424L51.176 21.1385L79.7948 23.6679L96.1766 101.848L82.1372 100.607ZM50.3477 58.8325L73.9988 60.9229L66.9523 26.1246L63.3885 25.8096L50.3477 58.8325ZM102.543 102.41L103.612 90.3148L118.732 91.6511L123.676 35.7093L111.406 35.3867L112.475 23.2911L130.047 23.9735C132.867 24.0777 134.934 24.9133 136.246 26.4806C137.631 28.0541 138.196 30.2809 137.942 33.1608L132.663 92.8824L147.675 94.2092L146.606 106.305L102.543 102.41ZM152.242 78.8311C152.993 70.3355 156.141 63.8656 161.685 59.4216C167.236 54.9056 174.115 53.0103 182.323 53.7358C190.531 54.4612 196.908 57.4193 201.456 62.6102C206.076 67.8075 208.026 74.4739 207.307 82.6096L206.906 87.1454L165.112 83.4515C164.881 87.7121 165.946 91.2528 168.309 94.0738C170.75 96.8291 174.635 98.4423 179.963 98.9132C187.666 99.594 192.496 97.0822 194.451 91.3777L208.383 92.609C207.008 97.4941 203.792 101.854 198.737 105.688C193.688 109.45 187.096 110.972 178.96 110.253C169.385 109.406 162.355 106.028 157.871 100.117C153.386 94.2061 151.51 87.1108 152.242 78.8311ZM165.857 75.0278L194.475 77.5573C194.762 74.3174 193.809 71.5485 191.618 69.2506C189.499 66.9591 186.063 65.6033 181.311 65.1833C176.559 64.7633 172.864 65.5251 170.225 67.4687C167.593 69.3402 166.137 71.86 165.857 75.0278ZM214.883 112.339L219.016 65.5772C219.258 62.8413 220.163 60.817 221.73 59.5043C223.369 58.198 225.553 57.7018 228.283 58.0156L261.577 61.829L260.508 73.9245L232.604 70.6963L228.815 113.571L214.883 112.339ZM287.406 107.648L307.048 108.295L305.979 120.391L280.829 119.256C278.087 119.086 276.059 118.218 274.747 116.651C273.434 115.084 272.902 112.896 273.15 110.088L276.223 75.3135L263.696 74.2062L264.765 62.1107L277.292 63.2179L278.323 51.5544L292.636 48.4659L291.224 64.4492L308.611 65.986L307.542 78.0815L290.155 76.5448L287.406 107.648ZM363.72 110.801C362.798 121.24 354.452 125.763 338.685 124.37C329.469 123.555 322.789 121.151 318.643 117.156C314.576 113.096 312.835 107.755 313.42 101.131L327.352 102.362C326.754 109.13 330.954 112.911 339.954 113.707C346.218 114.26 349.502 112.809 349.808 109.354C349.967 107.554 349.296 106.116 347.795 105.04C346.293 103.964 343.548 102.596 339.559 100.938C338.504 100.554 337.699 100.229 337.142 99.9622C330.224 96.9564 325.71 94.6708 323.599 93.1056C319.317 89.8248 317.36 85.6973 317.727 80.7232C318.141 76.0434 320.406 72.5793 324.523 70.331C328.647 68.0108 334.2 67.1593 341.184 67.7765C349.463 68.5083 355.421 70.8851 359.056 74.907C362.698 78.8568 364.277 83.5676 363.793 89.0394L349.862 87.8081C350.358 82.1923 347.115 79.0758 340.131 78.4585C334.731 77.9813 331.897 79.2546 331.63 82.2785C331.484 83.9344 332.338 85.3523 334.193 86.532C336.048 87.7118 339.422 89.3524 344.315 91.4538C351.305 94.466 355.79 96.6764 357.77 98.0849C362.195 101.378 364.178 105.617 363.72 110.801Z" fill="#EEEEEE"/>
</g>
</g>
<defs>
<filter id="filter0_i_8004_10112" x="0.0595703" y="0.212799" width="386.498" height="145.751" filterUnits="userSpaceOnUse" color-interpolation-filters="sRGB">
<feFlood flood-opacity="0" result="BackgroundImageFix"/>
<feBlend mode="normal" in="SourceGraphic" in2="BackgroundImageFix" result="shape"/>
<feColorMatrix in="SourceAlpha" type="matrix" values="0 0 0 0 0 0 0 0 0 0 0 0 0 0 0 0 0 0 127 0" result="hardAlpha"/>
<feOffset dx="-10" dy="11"/>
<feComposite in2="hardAlpha" operator="arithmetic" k2="-1" k3="1"/>
<feColorMatrix type="matrix" values="0 0 0 0 0 0 0 0 0 0 0 0 0 0 0 0 0 0 0.12 0"/>
<feBlend mode="normal" in2="shape" result="effect1_innerShadow_8004_10112"/>
</filter>
<clipPath id="clip0_8004_10112">
<rect x="10" y="0.212799" width="378.025" height="112.907" rx="10.2643" transform="rotate(5.0509 10 0.212799)" fill="white"/>
</clipPath>
</defs>
</svg>
