<svg width="924" height="341" viewBox="0 0 924 341" fill="none" xmlns="http://www.w3.org/2000/svg">
<g opacity="0.6" clip-path="url(#clip0_8004_10021)">
<path d="M661.598 877.385C659.14 877.385 651.381 871.126 614.757 805.131L614.421 804.537L615.041 804.226C621.508 801.123 627.87 797.891 634.155 794.581C623.551 768.876 609.558 736.292 591.505 695.769L591.246 695.2L591.815 694.916C738.932 623.412 851.339 512.395 885.196 405.179C895.438 372.698 898.154 341.433 893.395 312.651C889.05 295.506 883.23 278.645 875.885 262.198L877.049 261.629C885.713 277.223 891.559 294.083 894.585 311.849C915.044 391.421 904.724 478.958 864.065 563.468C817.716 659.823 737.174 741.412 635.836 795.175C640.88 807.407 645.277 818.398 648.976 828.018C667.003 874.876 663.667 876.531 662.399 877.152C662.192 877.255 661.96 877.359 661.623 877.359L661.598 877.385ZM616.231 805.106C654.045 873.169 660.666 876.557 661.804 876.014C664.391 874.721 657.666 851.731 634.673 795.796C628.594 799.003 622.465 802.106 616.257 805.106H616.231ZM592.953 695.846C609.765 733.551 624.094 766.781 635.319 793.986C826.199 692.536 932.424 496.206 896.266 325.064C898.542 350.484 895.283 377.586 886.437 405.592C869.988 457.726 834.734 511.826 784.506 562.072C732.958 613.637 666.719 659.875 592.953 695.821V695.846Z" fill="white"/>
<path d="M591.76 696.414L591.502 695.793C506.563 505.618 379.516 246.577 308.285 118.336L307.949 117.742L308.57 117.431C433.573 57.2547 571.25 46.9365 686.295 89.0886C729.385 104.863 767.535 127.413 799.711 156.092C832.998 185.754 859.018 221.286 877.046 261.705C899.884 302.848 903.143 352.629 886.408 405.617C869.959 457.751 834.705 511.85 784.477 562.096C732.799 613.791 666.353 660.132 592.355 696.103L591.76 696.388V696.414ZM309.76 118.311C380.965 246.628 507.571 504.79 592.407 694.655C739.24 623.152 851.388 512.29 885.193 405.203C901.798 352.552 898.591 303.133 875.907 262.274C840.68 183.349 773.2 122.319 685.881 90.304C571.327 48.333 434.297 58.5477 309.76 118.311Z" fill="white"/>
<path d="M884.729 407.195C854.338 339.105 796.091 286.402 720.696 258.783C621.635 222.502 503.072 231.397 395.424 283.221L394.855 282.057C502.814 230.079 621.739 221.157 721.136 257.568C796.867 285.316 855.373 338.252 885.919 406.677L884.729 407.195Z" fill="white"/>
<path d="M592.587 695.947L591.578 695.145C666.301 602.385 723.099 491.161 751.472 381.927C779.846 272.694 776.483 178.356 741.98 116.214L743.118 115.594C777.777 177.994 781.191 272.694 752.74 382.238C724.315 491.652 667.439 603.057 592.613 695.947H592.587Z" fill="white"/>
<path d="M592.719 695.665L591.451 695.432C633.326 475.724 609.505 192.711 538.352 64.5738L539.49 63.9531C610.772 192.323 634.645 475.698 592.719 695.665Z" fill="white"/>
<path d="M292.563 769.185C281.777 769.185 271.121 768.849 260.62 768.202C157.653 761.685 81.8447 723.697 47.1604 661.219C6.13931 569.26 10.7432 462.096 60.1702 359.379C109.546 256.715 197.795 170.807 308.599 117.458L309.142 117.199L309.426 117.742C380.657 246.009 507.729 505.101 592.694 695.302L592.953 695.871L592.384 696.13C492.599 743.713 387.408 769.211 292.589 769.211L292.563 769.185ZM308.599 118.88C80.7842 228.837 -35.9681 471.742 48.2984 660.624C82.7499 722.637 158.171 760.392 260.672 766.883C363.095 773.374 480.442 747.902 591.22 695.199C506.384 505.36 379.752 247.146 308.573 118.854L308.599 118.88Z" fill="white"/>
<path d="M169.035 751.703C133.601 672.312 137.61 579.733 180.286 491.007C222.937 402.333 299.159 328.114 394.858 282.031L395.427 283.195C198.417 378.024 97.3906 587.957 170.225 751.16L169.035 751.677V751.703Z" fill="white"/>
<path d="M591.765 696.103C402.954 587.206 191.331 394.238 120.074 265.894L121.212 265.273C192.391 393.436 403.756 586.198 592.411 694.965L591.765 696.077V696.103Z" fill="white"/>
<path d="M386.734 859.334C334.953 859.334 284.569 850.877 237.884 833.758C194.793 817.983 156.643 795.433 124.468 766.754C91.1802 737.093 65.1605 701.561 47.1329 661.167C24.2687 619.998 21.0357 570.243 37.77 517.282C54.2198 465.148 89.4731 411.048 139.702 360.802C191.379 309.082 257.825 262.74 331.823 226.769L332.418 226.484L332.677 227.105C417.642 417.28 544.662 676.321 615.867 804.51L616.203 805.105L615.583 805.415C541.3 841.18 462.517 859.334 386.708 859.334H386.734ZM331.797 228.243C184.965 299.746 72.7905 410.609 39.0115 517.695C22.4065 570.321 25.6137 619.739 48.2968 660.598V660.65C83.5243 739.524 151.005 800.579 238.323 832.568C352.851 874.539 489.907 864.325 614.445 804.562C543.266 676.27 416.659 418.108 331.797 228.243Z" fill="white"/>
<path d="M181.058 807.304C146.4 744.903 143.011 650.229 171.462 540.686C199.887 431.272 256.763 319.866 331.589 226.977L332.598 227.778C257.875 320.539 201.077 431.763 172.704 540.996C144.33 650.204 147.693 744.567 182.17 806.657L181.032 807.278L181.058 807.304Z" fill="white"/>
<path d="M384.689 858.92C313.406 730.576 289.533 447.201 331.46 227.234L332.727 227.467C290.852 447.175 314.674 730.162 385.801 858.299L384.663 858.92H384.689Z" fill="white"/>
<path d="M615.066 805.671L614.782 805.128C543.577 676.887 416.505 417.82 331.54 227.619L331.281 227.05L331.85 226.792C442.99 173.804 560.829 148.203 663.614 154.719C766.581 161.236 842.389 199.225 877.048 261.677C918.069 353.635 913.465 460.8 864.038 563.516C814.663 666.181 726.413 752.088 615.61 805.438L615.066 805.697V805.671ZM332.962 227.671C417.798 417.536 544.43 675.724 615.61 803.964C843.424 694.007 960.176 451.102 875.884 262.22C841.458 200.233 766.012 162.477 663.511 155.986C561.113 149.521 443.74 174.968 332.962 227.671Z" fill="white"/>
<path d="M529.327 640.837L528.758 639.674C725.768 544.845 826.794 334.912 753.96 171.709L755.15 171.191C790.584 250.582 786.575 343.161 743.899 431.887C701.248 520.562 625.025 594.78 529.327 640.863V640.837Z" fill="white"/>
<path d="M802.973 657.571C731.819 529.434 520.429 336.673 331.773 227.905L332.42 226.793C521.257 335.664 732.828 528.632 804.111 656.95L802.973 657.571Z" fill="white"/>
<path d="M896.652 462.818C862.149 400.702 784.504 342.077 677.968 297.779C571.458 253.48 448.602 228.706 332.082 228.008V226.715C448.783 227.413 571.794 252.239 678.459 296.589C785.254 340.991 863.132 399.823 897.764 462.197L896.626 462.818H896.652Z" fill="white"/>
<path d="M875.884 262.274C841.433 200.235 765.986 162.479 663.485 155.988C560.932 149.523 443.327 175.047 332.368 227.957L331.773 228.242L331.514 227.647C306.736 172.073 287.286 126.172 275.259 94.8809C257.232 48.0223 260.568 46.3673 261.836 45.7466C263.439 44.9191 267.784 42.7986 309.142 117.224C433.99 57.2803 571.433 47.0396 686.323 89.1399C729.414 104.915 767.564 127.465 799.739 156.144C833.027 185.805 859.047 221.337 877.074 261.756L875.91 262.325L875.884 262.274ZM631.646 153.713C642.431 153.713 653.088 154.049 663.589 154.695C760.658 160.85 833.57 194.934 870.66 251.154C834.242 177.659 769.064 120.793 685.858 90.3036C571.123 48.2809 433.808 58.5733 309.116 118.62L308.573 118.879L308.288 118.336C270.216 49.7808 263.543 46.2638 262.405 46.8586C258.628 48.7464 274.69 96.9239 332.42 226.483C432.024 179.082 536.982 153.687 631.646 153.687V153.713Z" fill="white"/>
<path d="M753.961 171.71C723.57 103.621 665.323 50.9176 589.928 23.299C490.893 -12.9828 372.33 -4.08691 264.682 47.7368L264.113 46.5731C372.072 -5.40578 490.997 -14.3275 590.394 22.0836C666.125 49.8315 724.63 102.793 755.15 171.193L753.961 171.71Z" fill="white"/>
<path d="M332.602 227.776L331.594 226.948C381.228 166.255 435.957 117.405 489.91 85.6486C542.338 54.7716 593.032 40.5227 636.484 44.4017C682.678 48.5393 719.535 73.1323 743.098 115.569L741.96 116.189C718.63 74.1667 682.109 49.7806 636.355 45.6947C593.161 41.8157 542.726 56.0388 490.531 86.7606C436.707 118.439 382.107 167.212 332.577 227.776H332.602Z" fill="white"/>
<path d="M332.728 227.489L331.461 227.23C357.739 93.4299 403.882 8.71208 454.912 0.669574C484.656 -4.03697 513.909 17.8407 539.489 63.9235L538.351 64.5441C513.055 19.0044 484.268 -2.64052 455.119 1.93672C404.657 9.90164 358.903 94.2057 332.754 227.463L332.728 227.489Z" fill="white"/>
<path d="M47.1591 661.219C38.4945 645.626 32.6492 628.817 29.6489 611.051C9.16422 531.479 19.51 443.917 60.169 359.38C106.518 263.025 187.06 181.436 288.397 127.673C283.354 115.467 278.983 104.477 275.284 94.8565C257.256 47.998 260.593 46.3429 261.86 45.7223C263.49 44.8948 267.835 42.7742 309.451 117.717L309.787 118.312L309.166 118.622C302.7 121.725 296.338 124.932 290.053 128.268C300.657 153.999 314.65 186.582 332.729 227.105L332.988 227.674L332.419 227.959C185.276 299.436 72.8426 410.48 39.0118 517.696C28.7436 550.176 26.0537 581.441 30.8128 610.223C35.158 627.368 40.9775 644.203 48.2972 660.65L47.1333 661.219H47.1591ZM288.889 128.863C97.9829 230.338 -8.26845 426.668 27.9418 597.836C25.6658 572.416 28.9247 545.288 37.7703 517.282C54.2201 465.148 89.4734 411.048 139.702 360.802C191.25 309.237 257.489 262.973 331.281 227.054C314.469 189.349 300.114 156.093 288.889 128.863ZM262.636 46.8084C262.636 46.8084 262.481 46.8084 262.429 46.8601C259.843 48.1531 266.568 71.1428 289.561 127.027C295.639 123.82 301.769 120.717 307.977 117.717C272.128 53.1959 264.317 46.8084 262.636 46.8084Z" fill="white"/>
<path d="M38.2861 516.223C2.85176 436.832 6.83489 344.253 49.5372 255.527C92.1877 166.852 168.41 92.6335 264.109 46.5508L264.678 47.7145C67.6682 142.569 -33.3585 352.502 39.45 515.705L38.2602 516.223H38.2861Z" fill="white"/>
<path d="M120.07 265.894C93.8696 218.725 89.0847 184.848 106.207 167.936C134.425 140.059 218.976 162.066 332.444 226.768L331.797 227.88C218.873 163.462 134.891 141.377 107.112 168.841C90.4555 185.314 95.3181 218.647 121.208 265.247L120.07 265.868V265.894Z" fill="white"/>
<path d="M26.3903 460.65C2.3622 417.386 1.06897 375.13 22.6141 338.46C42.297 304.972 80.5764 276.991 133.288 257.492C187.526 237.451 256.274 226.796 332.109 226.719V228.012C256.429 228.089 187.836 238.692 133.728 258.708C81.3006 278.103 43.2539 305.903 23.7263 339.107C2.41393 375.363 3.70715 417.179 27.5025 460.029L26.3644 460.65H26.3903Z" fill="white"/>
<path d="M461.326 922.999C454.498 922.999 447.877 922.792 442.471 922.378C423.15 920.93 397.751 918.06 379.31 915.215C367.981 913.483 353.265 909.733 341.703 906.681C333.763 904.587 323.934 901.38 315.244 898.561L310.148 896.906C294.681 891.915 276.266 883.614 270.99 881.183C258.575 875.468 242.332 867.089 230.589 860.314C222.313 855.556 210.208 848.134 201.104 841.669C187.887 832.282 172.523 820.438 161.919 811.516C152.841 803.861 142.495 794.241 135.537 787.001C124.286 775.26 110.242 759.434 100.594 747.59C83.9118 727.083 66.117 697.318 59.237 685.474C54.9435 678.052 50.4948 668.742 46.1755 659.717C45.8392 659.019 45.5289 658.346 45.1926 657.674C43.6925 654.778 42.2699 651.856 40.9508 648.907C34.6916 634.219 26.1305 614.074 21.837 598.454C20.9835 595.325 20.0006 591.912 18.9919 588.395C16.5865 580.016 13.8449 570.5 12.2154 562.819C9.29271 549.113 5.90446 529.33 3.78358 513.607C1.71442 498.35 0.550514 480.248 0.783295 467.473C0.835024 464.576 0.860888 461.396 0.912617 458.111C0.990211 449.707 1.09367 440.164 1.61096 432.613C2.15411 424.933 3.65425 405.486 6.11138 390.953C9.0082 373.807 14.6725 346.473 21.0611 325.863C30.993 293.9 40.6146 273.418 46.3824 261.212C51.2449 250.894 61.9528 229.766 78.894 204.32C97.801 175.926 117.484 154.41 117.665 154.203C128.916 142.204 145.676 125.679 160.367 112.155C164.893 107.965 170.765 103.414 176.455 98.9917C179.067 96.9746 181.576 95.0093 183.826 93.1991C197.276 82.3378 208.139 75.821 234.391 60.0464C235.348 59.4774 257.902 46.0302 293.595 31.8588C311.623 24.6956 331.331 18.4374 352.178 13.2654C363.74 10.3949 387.38 5.1453 415.805 2.3524C425.918 1.36972 438.022 0.568051 446.635 0.33531C453.024 0.154289 469.215 -0.181893 481.63 0.542191C496.321 1.39558 520.944 2.81788 550.636 8.81744C588.166 16.3945 614.677 26.092 621.919 28.8849C632.342 32.8932 644.188 37.548 653.112 41.7374C665.914 47.7628 682.157 56.1415 693.512 62.6065C713.169 73.7522 736.912 90.9751 751.293 102.328C767.407 115.051 808.79 150.557 845.285 205.354C880.926 258.885 895.85 304.838 902.212 324.44C907.437 340.525 912.351 359.843 914.731 373.626C918.067 393.021 922.025 421.933 923.008 444.897C923.292 451.258 924.068 473.395 922.438 490.385C922.18 493.204 921.895 496.307 921.637 499.514C920.912 507.815 920.111 517.202 919.024 524.598C917.654 534.089 914.834 551.958 911.575 565.095C909.661 572.775 906.118 587.102 902.963 597.135C899.626 607.842 894.608 622.039 890.522 632.461C877.667 665.148 861.683 692.068 861.528 692.327C850.354 710.687 838.793 729.669 826.248 744.875C824.464 747.047 822.524 749.452 820.532 751.96C815.773 757.908 810.859 764.063 806.359 768.795C794.047 781.777 776.873 798.689 763.656 810.844C760.734 813.533 739.499 831.609 715.574 847.125C687.77 865.176 666.613 875.365 658.802 878.908C640.334 887.286 612.401 899.958 570.681 910.043C556.663 913.431 536.437 916.922 510.572 920.413C502.606 921.499 492.493 921.965 483.57 922.378C481.423 922.482 479.354 922.585 477.414 922.689C472.267 922.947 466.68 923.077 461.223 923.077L461.326 922.999ZM60.4009 684.853C67.255 696.671 84.9981 726.385 101.629 746.814C111.251 758.632 125.269 774.433 136.494 786.147C143.4 793.362 153.72 802.956 162.773 810.559C173.325 819.455 188.689 831.273 201.88 840.635C210.958 847.074 223.011 854.47 231.262 859.202C242.978 865.952 259.195 874.33 271.559 880.02C282.396 885.011 298.328 891.734 310.562 895.691L315.658 897.346C324.322 900.165 334.125 903.345 342.039 905.44C353.549 908.492 368.24 912.215 379.517 913.948C397.932 916.767 423.28 919.637 442.575 921.085C452.248 921.81 465.93 921.887 477.44 921.292C479.38 921.189 481.449 921.085 483.596 921.008C492.493 920.594 502.58 920.129 510.495 919.043C536.307 915.551 556.482 912.06 570.474 908.698C612.065 898.665 639.921 886.019 658.362 877.666C666.147 874.149 687.227 863.986 714.954 845.988C738.801 830.497 759.958 812.499 762.88 809.835C776.071 797.681 793.219 780.794 805.505 767.838C809.98 763.132 814.868 757.003 819.601 751.081C821.619 748.573 823.533 746.142 825.343 743.969C837.836 728.841 849.371 709.886 860.519 691.577C860.674 691.318 876.762 664.087 889.409 631.917C893.496 621.522 898.488 607.376 901.824 596.696C904.954 586.688 908.497 572.413 910.411 564.733C913.644 551.673 916.438 533.83 917.835 524.365C918.895 516.995 919.723 507.608 920.421 499.332C920.706 496.126 920.964 493.023 921.223 490.204C922.826 473.291 922.05 451.258 921.792 444.897C920.809 422.011 916.878 393.151 913.515 373.781C911.136 360.05 906.247 340.81 901.048 324.777C894.686 305.2 879.84 259.376 844.276 206.001C807.885 151.359 766.631 115.956 750.569 103.285C736.24 91.9578 712.548 74.7866 692.943 63.6668C681.614 57.2276 665.423 48.8748 652.646 42.8494C643.774 38.66 631.929 34.0311 621.531 30.0227C614.315 27.2299 587.881 17.584 550.455 10.007C520.866 4.03331 496.295 2.611 481.63 1.75762C469.267 1.03353 453.101 1.36972 446.739 1.55074C438.152 1.78348 426.099 2.58514 415.986 3.56783C387.638 6.36072 364.076 11.5845 352.54 14.4549C331.745 19.627 312.088 25.8593 294.138 32.9967C258.549 47.1422 236.073 60.5377 235.141 61.1066C208.941 76.8554 198.103 83.3722 184.706 94.1817C182.455 95.9919 179.921 97.9573 177.308 99.9744C171.644 104.371 165.799 108.896 161.298 113.06C146.633 126.584 129.899 143.057 118.674 155.057C118.493 155.263 98.9649 176.572 80.0321 204.992C63.1426 230.335 52.4864 251.411 47.6239 261.704C41.882 273.91 32.2604 294.313 22.3543 326.199C15.9657 346.758 10.3273 374.04 7.43047 391.134C4.97334 405.589 3.4732 424.985 2.95591 432.665C2.43862 440.19 2.33516 449.707 2.25757 458.086C2.23171 461.396 2.17998 464.551 2.12825 467.473C1.89547 480.17 3.05937 498.22 5.10266 513.4C7.22355 529.097 10.6118 548.829 13.5086 562.509C15.1381 570.138 17.8539 579.628 20.2593 587.981C21.268 591.524 22.2508 594.937 23.1302 598.066C27.3979 613.608 35.9331 633.676 42.1665 648.339C43.5114 651.054 44.9081 654.002 46.3824 657.053C47.0031 658.217 47.6239 659.381 48.2446 660.519C82.722 722.583 158.143 760.339 260.644 766.83C363.222 773.346 480.802 747.771 591.761 694.887L592.304 696.051C481.164 749.038 363.326 774.614 260.54 768.123C163.238 761.968 90.1968 727.703 53.1847 671.225C55.5901 676.087 57.9955 680.715 60.3492 684.776L60.4009 684.853Z" fill="white"/>
<path d="M661.598 877.385C659.14 877.385 651.381 871.126 614.757 805.131L614.421 804.537L615.041 804.226C621.508 801.123 627.87 797.891 634.155 794.581C623.551 768.876 609.558 736.292 591.505 695.769L591.246 695.2L591.815 694.916C738.932 623.412 851.339 512.395 885.196 405.179C895.438 372.698 898.154 341.433 893.395 312.651C889.05 295.506 883.23 278.645 875.885 262.198L877.049 261.629C885.713 277.223 891.559 294.083 894.585 311.849C915.044 391.421 904.724 478.958 864.065 563.468C817.716 659.823 737.174 741.412 635.836 795.175C640.88 807.407 645.277 818.398 648.976 828.018C667.003 874.876 663.667 876.531 662.399 877.152C662.192 877.255 661.96 877.359 661.623 877.359L661.598 877.385ZM616.231 805.106C654.045 873.169 660.666 876.557 661.804 876.014C664.391 874.721 657.666 851.731 634.673 795.796C628.594 799.003 622.465 802.106 616.257 805.106H616.231ZM592.953 695.846C609.765 733.551 624.094 766.781 635.319 793.986C826.199 692.536 932.424 496.206 896.266 325.064C898.542 350.484 895.283 377.586 886.437 405.592C869.988 457.726 834.734 511.826 784.506 562.072C732.958 613.637 666.719 659.875 592.953 695.821V695.846Z" fill="white"/>
<path d="M292.563 769.185C281.777 769.185 271.121 768.849 260.62 768.202C157.653 761.685 81.8447 723.697 47.1604 661.219C6.13931 569.26 10.7432 462.096 60.1702 359.379C109.546 256.715 197.795 170.807 308.599 117.458L309.142 117.199L309.426 117.742C380.657 246.009 507.729 505.101 592.694 695.302L592.953 695.871L592.384 696.13C492.599 743.713 387.408 769.211 292.589 769.211L292.563 769.185ZM308.599 118.88C80.7842 228.837 -35.9681 471.742 48.2984 660.624C82.7499 722.637 158.171 760.392 260.672 766.883C363.095 773.374 480.442 747.902 591.22 695.199C506.384 505.36 379.752 247.146 308.573 118.854L308.599 118.88Z" fill="white"/>
<path d="M169.035 751.703C133.601 672.312 137.61 579.733 180.286 491.007C222.937 402.333 299.159 328.114 394.858 282.031L395.427 283.195C198.417 378.024 97.3906 587.957 170.225 751.16L169.035 751.677V751.703Z" fill="white"/>
<path d="M591.765 696.103C402.954 587.206 191.331 394.238 120.074 265.894L121.212 265.273C192.391 393.436 403.756 586.198 592.411 694.965L591.765 696.077V696.103Z" fill="white"/>
<path d="M386.734 859.334C334.953 859.334 284.569 850.877 237.884 833.758C194.793 817.983 156.643 795.433 124.468 766.754C91.1802 737.093 65.1605 701.561 47.1329 661.167C24.2687 619.998 21.0357 570.243 37.77 517.282C54.2198 465.148 89.4731 411.048 139.702 360.802C191.379 309.082 257.825 262.74 331.823 226.769L332.418 226.484L332.677 227.105C417.642 417.28 544.662 676.321 615.867 804.51L616.203 805.105L615.583 805.415C541.3 841.18 462.517 859.334 386.708 859.334H386.734ZM331.797 228.243C184.965 299.746 72.7905 410.609 39.0115 517.695C22.4065 570.321 25.6137 619.739 48.2968 660.598V660.65C83.5243 739.524 151.005 800.579 238.323 832.568C352.851 874.539 489.907 864.325 614.445 804.562C543.266 676.27 416.659 418.108 331.797 228.243Z" fill="white"/>
<path d="M181.062 807.3C146.403 744.899 143.015 650.226 171.466 540.682C199.891 431.268 256.767 319.862 331.593 226.973L332.602 227.774C257.879 320.535 201.081 431.759 172.708 540.992C144.334 650.2 147.697 744.563 182.174 806.653L181.036 807.274L181.062 807.3Z" fill="white"/>
<path d="M384.693 858.92C313.41 730.576 289.537 447.201 331.464 227.234L332.731 227.467C290.856 447.175 314.678 730.162 385.805 858.299L384.667 858.92H384.693Z" fill="white"/>
<path d="M591.76 696.414L591.502 695.793C506.563 505.618 379.516 246.577 308.285 118.336L307.949 117.742L308.57 117.431C433.573 57.2547 571.25 46.9365 686.295 89.0886C729.385 104.863 767.535 127.413 799.711 156.092C832.998 185.754 859.018 221.286 877.046 261.705C899.884 302.848 903.143 352.629 886.408 405.617C869.959 457.751 834.705 511.85 784.477 562.096C732.799 613.791 666.353 660.132 592.355 696.103L591.76 696.388V696.414ZM309.76 118.311C380.965 246.628 507.571 504.79 592.407 694.655C739.24 623.152 851.388 512.29 885.193 405.203C901.798 352.552 898.591 303.133 875.907 262.274C840.68 183.349 773.2 122.319 685.881 90.304C571.327 48.333 434.297 58.5477 309.76 118.311Z" fill="white"/>
<path d="M884.729 407.195C854.338 339.105 796.091 286.402 720.696 258.783C621.635 222.502 503.072 231.397 395.424 283.221L394.855 282.057C502.814 230.079 621.739 221.157 721.136 257.568C796.867 285.316 855.373 338.252 885.919 406.677L884.729 407.195Z" fill="white"/>
<path d="M592.587 695.947L591.578 695.145C666.301 602.385 723.099 491.161 751.472 381.927C779.846 272.694 776.483 178.356 741.98 116.214L743.118 115.594C777.777 177.994 781.191 272.694 752.74 382.238C724.315 491.652 667.439 603.057 592.613 695.947H592.587Z" fill="white"/>
<path d="M592.719 695.665L591.451 695.432C633.326 475.724 609.505 192.711 538.352 64.5738L539.49 63.9531C610.772 192.323 634.645 475.698 592.719 695.665Z" fill="white"/>
<path d="M615.062 805.674L614.778 805.131C543.573 676.891 416.501 417.824 331.536 227.623L331.277 227.054L331.846 226.795C442.986 173.808 560.825 148.206 663.61 154.723C766.577 161.24 842.385 199.229 877.044 261.681C918.065 353.639 913.461 460.804 864.034 563.52C814.659 666.185 726.409 752.092 615.606 805.442L615.062 805.7V805.674ZM332.959 227.675C417.794 417.54 544.427 675.727 615.606 803.968C843.42 694.01 960.172 451.106 875.88 262.224C841.454 200.237 766.008 162.481 663.507 155.99C561.109 149.525 443.736 174.972 332.959 227.675Z" fill="white"/>
<path d="M529.323 640.841L528.754 639.678C725.764 544.848 826.79 334.916 753.956 171.713L755.146 171.195C790.58 250.586 786.571 343.165 743.895 431.891C701.244 520.566 625.022 594.784 529.323 640.867V640.841Z" fill="white"/>
<path d="M427.776 433.781L427.207 432.617C542.278 377.225 601.275 254.648 558.754 159.353L559.944 158.836C602.749 254.751 543.468 378.104 427.776 433.807V433.781Z" fill="white"/>
<path d="M802.969 657.575C731.816 529.438 520.425 336.677 331.77 227.909L332.416 226.797C521.253 335.668 732.824 528.636 804.107 656.954L802.969 657.575Z" fill="white"/>
<path d="M896.648 462.822C862.145 400.706 784.5 342.081 677.964 297.782C571.454 253.484 448.598 228.71 332.078 228.012V226.719C448.779 227.417 571.79 252.243 678.455 296.593C785.25 340.995 863.128 399.827 897.76 462.201L896.622 462.822H896.648Z" fill="white"/>
<path d="M875.884 262.274C841.433 200.235 765.986 162.479 663.485 155.988C560.932 149.523 443.327 175.047 332.368 227.957L331.773 228.242L331.514 227.647C306.736 172.073 287.286 126.172 275.259 94.8809C257.232 48.0223 260.568 46.3673 261.836 45.7466C263.439 44.9191 267.784 42.7986 309.142 117.224C433.99 57.2803 571.433 47.0396 686.323 89.1399C729.414 104.915 767.564 127.465 799.739 156.144C833.027 185.805 859.047 221.337 877.074 261.756L875.91 262.325L875.884 262.274ZM631.646 153.713C642.431 153.713 653.088 154.049 663.589 154.695C760.658 160.85 833.57 194.934 870.66 251.154C834.242 177.659 769.064 120.793 685.858 90.3036C571.123 48.2809 433.808 58.5733 309.116 118.62L308.573 118.879L308.288 118.336C270.216 49.7808 263.543 46.2638 262.405 46.8586C258.628 48.7464 274.69 96.9239 332.42 226.483C432.024 179.082 536.982 153.687 631.646 153.687V153.713Z" fill="white"/>
<path d="M753.961 171.71C723.57 103.621 665.323 50.9176 589.928 23.299C490.893 -12.9828 372.33 -4.08691 264.682 47.7368L264.113 46.5731C372.072 -5.40578 490.997 -14.3275 590.394 22.0836C666.125 49.8315 724.63 102.793 755.15 171.193L753.961 171.71Z" fill="white"/>
<path d="M558.759 159.349C541.016 119.601 507.03 88.8279 463.009 72.7171C405.15 51.5118 335.91 56.7355 273.034 86.9919L272.465 85.8282C335.652 55.4166 405.279 50.1929 463.448 71.5017C507.806 87.7418 542.076 118.774 559.949 158.831L558.759 159.349Z" fill="white"/>
<path d="M332.602 227.776L331.594 226.948C381.228 166.255 435.957 117.405 489.91 85.6486C542.338 54.7716 593.032 40.5227 636.484 44.4017C682.678 48.5393 719.535 73.1323 743.098 115.569L741.96 116.189C718.63 74.1667 682.109 49.7806 636.355 45.6947C593.161 41.8157 542.726 56.0388 490.531 86.7606C436.707 118.439 382.107 167.212 332.577 227.776H332.602Z" fill="white"/>
<path d="M332.728 227.489L331.461 227.23C357.739 93.4299 403.882 8.71208 454.912 0.669574C484.656 -4.03697 513.909 17.8407 539.489 63.9235L538.351 64.5441C513.055 19.0044 484.268 -2.64052 455.119 1.93672C404.657 9.90164 358.903 94.2057 332.754 227.463L332.728 227.489Z" fill="white"/>
<path d="M47.1591 661.219C38.4945 645.626 32.6492 628.817 29.6489 611.051C9.16422 531.479 19.51 443.917 60.169 359.38C106.518 263.025 187.06 181.436 288.397 127.673C283.354 115.467 278.983 104.477 275.284 94.8565C257.256 47.998 260.593 46.3429 261.86 45.7223C263.49 44.8948 267.835 42.7742 309.451 117.717L309.787 118.312L309.166 118.622C302.7 121.725 296.338 124.932 290.053 128.268C300.657 153.999 314.65 186.582 332.729 227.105L332.988 227.674L332.419 227.959C185.276 299.436 72.8426 410.48 39.0118 517.696C28.7436 550.176 26.0537 581.441 30.8128 610.223C35.158 627.368 40.9775 644.203 48.2972 660.65L47.1333 661.219H47.1591ZM288.889 128.863C97.9829 230.338 -8.26845 426.668 27.9418 597.836C25.6658 572.416 28.9247 545.288 37.7703 517.282C54.2201 465.148 89.4734 411.048 139.702 360.802C191.25 309.237 257.489 262.973 331.281 227.054C314.469 189.349 300.114 156.093 288.889 128.863ZM262.636 46.8084C262.636 46.8084 262.481 46.8084 262.429 46.8601C259.843 48.1531 266.568 71.1428 289.561 127.027C295.639 123.82 301.769 120.717 307.977 117.717C272.128 53.1959 264.317 46.8084 262.636 46.8084Z" fill="white"/>
<path d="M38.2861 516.223C2.85176 436.832 6.83489 344.253 49.5372 255.527C92.1877 166.852 168.41 92.6335 264.109 46.5508L264.678 47.7145C67.6682 142.569 -33.3585 352.502 39.45 515.705L38.2602 516.223H38.2861Z" fill="white"/>
<path d="M140.298 360.776C97.4923 264.86 156.774 141.507 272.466 85.8047L273.035 86.9684C157.963 142.361 98.9665 264.938 141.488 360.232L140.298 360.75V360.776Z" fill="white"/>
<path d="M120.07 265.894C93.8696 218.725 89.0847 184.848 106.207 167.936C134.425 140.059 218.976 162.066 332.444 226.768L331.797 227.88C218.873 163.462 134.891 141.377 107.112 168.841C90.4555 185.314 95.3181 218.647 121.208 265.247L120.07 265.868V265.894Z" fill="white"/>
<path d="M26.3903 460.65C2.3622 417.386 1.06897 375.13 22.6141 338.46C42.297 304.972 80.5764 276.991 133.288 257.492C187.526 237.451 256.274 226.796 332.109 226.719V228.012C256.429 228.089 187.836 238.692 133.728 258.708C81.3006 278.103 43.2539 305.903 23.7263 339.107C2.41393 375.363 3.70715 417.179 27.5025 460.029L26.3644 460.65H26.3903Z" fill="white"/>
<path d="M462.026 922.999C456.285 922.999 450.827 922.843 446.353 922.533C424.963 921.085 400.184 918.473 383.217 915.913C374.139 914.542 360.767 911.672 347.498 908.207C342.274 906.836 324.091 902 310.15 896.906C292.899 890.596 268.56 880.019 248.127 869.985C238.893 865.46 227.849 858.633 218.098 852.633C215.512 851.03 213.029 849.504 210.701 848.082C199.295 841.151 185.147 830.29 172.836 820.618C164.145 813.765 153.282 803.887 145.859 797.06C130.599 782.992 107.424 758.295 88.207 731.116C71.3951 707.351 56.9368 684.284 41.0302 648.933C40.875 648.597 40.7198 648.235 40.5646 647.898C38.9869 644.278 37.5385 640.606 36.2452 636.908C28.8997 618.289 20.5196 596.152 16.0968 578.36C12.4499 563.724 8.23399 543.139 5.62168 527.106C4.43192 519.891 3.65598 511.124 2.90591 502.642C2.54381 498.711 2.20757 494.91 1.84547 491.47C0.371191 477.506 0.0866819 458.033 1.17299 443.009C1.37991 440.138 1.58682 436.983 1.79374 433.699C2.31103 425.398 2.90591 415.985 3.83703 408.563C5.64755 394.081 9.06166 375.152 10.9498 365.144C11.8809 360.127 17.3124 333.232 31.7965 295.114C35.1848 286.193 40.2542 274.323 44.3925 265.556C48.3239 257.281 54.5314 245.23 61.0493 233.335C64.2565 227.464 76.3611 206.207 96.8199 179.468C113.684 157.435 127.107 143.884 137.893 132.997C140.919 129.946 151.497 119.395 160.498 112.102C174.362 100.879 193.605 86.3714 208.348 75.9756C215.848 70.7002 226.246 64.6748 234.497 60.0199C240.549 56.5805 248.386 52.5981 255.292 49.0811C257.594 47.9174 259.818 46.7796 261.861 45.7193C262.818 45.2279 285.786 33.4357 322.539 21.5918C341.394 15.5146 361.439 10.6012 382.105 6.95494C443.637 -3.85459 495.081 0.851951 509.384 2.55872C527.489 4.70511 548 7.13596 576.71 14.6613C589.409 17.9972 613.023 24.1778 645.38 38.194C683.944 54.9255 718.628 75.8722 751.372 102.25C772.969 119.628 796.868 144.505 803.696 151.72C814.378 163.021 827.362 179.106 836.001 191.751L836.855 192.993C846.114 206.569 857.65 223.43 864.943 237.395L866.909 241.144C871.798 250.48 877.876 262.117 881.988 271.246C886.307 280.814 892.877 296.459 897.196 309.001C904.775 331.06 909.611 347.766 911.965 360.075C912.56 363.204 913.258 366.618 913.982 370.161C915.69 378.591 917.629 388.159 918.638 395.814C921.38 416.579 922.88 433.078 923.113 444.845C923.501 463.826 922.44 491.083 920.423 514.331C919.259 527.675 916.414 545.13 913.31 557.802C912.689 560.284 912.043 563 911.396 565.818C909.482 573.861 907.309 582.964 905.189 590.075C901.697 601.764 896.602 616.944 892.463 627.805C884.652 648.312 874.824 669.104 863.21 689.585C847.562 717.178 833.984 734.892 827.466 743.426C807.24 769.829 786.574 789.767 786.367 789.948C784.427 791.758 782.358 793.75 780.186 795.844C774.909 800.913 768.909 806.68 763.787 810.817C749.898 822.066 730.655 836.574 715.938 846.944C706.86 853.331 679.288 869.442 662.424 877.2L658.286 879.114C649.725 883.096 639.043 888.036 630.611 891.087C614.058 897.035 590.547 905.078 572.494 909.577C563.829 911.724 551.673 914.284 542.206 915.965C535.947 917.077 528.317 918.059 520.972 919.042C517.816 919.456 514.738 919.869 511.971 920.257C504.315 921.318 494.616 921.809 486.055 922.249C483.934 922.352 481.89 922.455 479.951 922.559C474.234 922.869 468.027 923.05 462.13 923.05L462.026 922.999ZM42.1941 648.416C58.0749 683.689 72.4814 706.678 89.2416 730.366C108.407 757.442 131.504 782.087 146.712 796.103C154.11 802.93 164.947 812.783 173.612 819.584C185.897 829.255 199.993 840.065 211.348 846.97C213.676 848.392 216.184 849.918 218.771 851.521C228.496 857.521 239.488 864.322 248.67 868.822C269.077 878.829 293.364 889.38 310.564 895.69C324.453 900.785 342.558 905.595 347.783 906.965C361.026 910.405 374.32 913.275 383.372 914.646C400.288 917.206 425.04 919.792 446.404 921.24C455.405 921.861 468.493 921.835 479.744 921.214C481.658 921.111 483.727 921.007 485.848 920.904C494.383 920.464 504.082 919.973 511.66 918.913C514.428 918.525 517.506 918.137 520.661 917.697C528.007 916.74 535.585 915.732 541.844 914.646C551.285 912.991 563.415 910.431 572.028 908.284C590.03 903.81 613.489 895.794 630.016 889.846C638.396 886.82 649.027 881.881 657.588 877.924L661.752 876.011C678.564 868.253 706.032 852.219 715.059 845.858C729.75 835.514 748.967 821.006 762.856 809.783C767.952 805.671 773.9 799.93 779.177 794.862C781.349 792.767 783.444 790.776 785.384 788.965C785.591 788.784 806.257 768.82 826.328 742.624C832.846 734.116 846.373 716.454 861.995 688.938C873.582 668.509 883.411 647.795 891.17 627.34C895.282 616.504 900.404 601.376 903.869 589.713C905.99 582.627 908.137 573.551 910.051 565.534C910.724 562.715 911.37 560 911.965 557.517C915.069 544.897 917.914 527.519 919.052 514.227C921.069 491.031 922.13 463.826 921.742 444.896C921.509 433.182 920.009 416.735 917.267 396.021C916.259 388.392 914.319 378.85 912.638 370.445C911.913 366.902 911.215 363.463 910.62 360.334C908.292 348.076 903.456 331.448 895.903 309.441C891.584 296.925 885.04 281.331 880.747 271.789C876.66 262.686 870.582 251.075 865.694 241.739L863.728 237.989C856.486 224.103 844.976 207.268 835.717 193.743L834.863 192.501C826.276 179.908 813.344 163.9 802.688 152.651C788.669 137.833 767.589 117.093 750.493 103.31C717.826 77.01 683.245 56.0892 644.785 39.4353C612.532 25.4449 588.969 19.2644 576.322 15.9543C547.69 8.45483 527.231 6.02398 509.177 3.87759C494.9 2.19668 443.637 -2.50987 382.26 8.27381C361.646 11.8942 341.679 16.8077 322.85 22.8589C286.2 34.677 263.31 46.4175 262.353 46.9089C260.309 47.9691 258.085 49.107 255.783 50.2707C248.903 53.7877 241.092 57.7701 235.04 61.1836C226.841 65.8385 216.443 71.838 208.994 77.0618C194.251 87.4317 175.06 101.939 161.197 113.137C152.247 120.377 141.721 130.877 138.694 133.928C127.935 144.789 114.563 158.314 97.751 180.295C77.3439 206.931 65.3169 228.137 62.1097 233.981C55.6177 245.877 49.3844 257.902 45.4789 266.151C41.3405 274.892 36.297 286.71 32.9087 295.606C18.4505 333.62 13.0448 360.437 12.1137 365.428C10.2256 375.41 6.81145 394.34 5.00093 408.77C4.06981 416.166 3.47493 425.553 2.95764 433.828C2.75072 437.112 2.54381 440.267 2.33689 443.138C1.25058 458.111 1.50923 477.48 2.9835 491.393C3.34561 494.832 3.68185 498.634 4.04395 502.564C4.79402 511.021 5.56995 519.761 6.75972 526.951C9.37203 542.932 13.5879 563.491 17.2348 578.102C20.5455 591.368 26.0546 607.091 31.6931 621.961C2.51795 500.935 114.175 343.085 302.339 241.868C311.987 236.696 321.815 231.654 331.825 226.792L332.394 227.956C147.851 317.639 28.4342 461.886 28.4342 582.033C28.4342 600.859 31.3568 619.09 37.435 636.417C38.961 640.296 40.4611 644.019 41.8578 647.536L42.2199 648.416H42.1941Z" fill="white"/>
</g>
<defs>
<clipPath id="clip0_8004_10021">
<rect width="923" height="923" fill="white" transform="translate(0.5)"/>
</clipPath>
</defs>
</svg>
