<svg width="190" height="44" viewBox="0 0 190 44" fill="none" xmlns="http://www.w3.org/2000/svg">
<path d="M1.7606 36.7319V43.6426H0V36.7319M44.3979 36.7319V43.6426H46.1585V36.7319M109.007 36.7319V43.6426H110.768V36.7319M7.15096 36.7319V43.6426H8.91156V36.7319M63.4053 36.7319V43.6426H65.1659V36.7319M69.3088 36.7319V43.6426H71.0694V36.7319M148.713 36.7319V43.6426H150.474V36.7319M165.264 36.7319V43.6426H167.024V36.7319M181.336 36.7319V43.6426H183.096V36.7319M187.239 36.7319V43.6426H189V36.7319M86.5734 36.7319V43.6426H88.334V36.7319M106.396 36.7319V43.6426H108.156V36.7319" fill="white"/>
<path d="M170.481 29.694V0.357422H189.165V3.85284H174.518V13.2572H187.085V16.7526H174.518V26.1986H189.165V29.694H170.481Z" fill="white"/>
<path d="M163.287 29.0281C162.593 29.7493 161.719 30.11 160.665 30.11C159.611 30.11 158.737 29.7632 158.044 29.0697C157.378 28.3484 157.045 27.4607 157.045 26.4065C157.045 25.3801 157.378 24.5201 158.044 23.8265C158.737 23.1053 159.611 22.7446 160.665 22.7446C161.692 22.7446 162.565 23.1053 163.287 23.8265C164.008 24.5201 164.369 25.3801 164.369 26.4065C164.369 27.4329 164.008 28.3068 163.287 29.0281Z" fill="white"/>
<path d="M130.752 0.357422H134.788L143.61 28.5704H144.734L153.555 0.357422H157.592L148.354 29.694H139.99L130.752 0.357422Z" fill="white"/>
<path d="M125.219 29.0281C124.526 29.7493 123.652 30.11 122.598 30.11C121.544 30.11 120.67 29.7632 119.976 29.0697C119.31 28.3484 118.978 27.4607 118.978 26.4065C118.978 25.3801 119.31 24.5201 119.976 23.8265C120.67 23.1053 121.544 22.7446 122.598 22.7446C123.624 22.7446 124.498 23.1053 125.219 23.8265C125.941 24.5201 126.301 25.3801 126.301 26.4065C126.301 27.4329 125.941 28.3068 125.219 29.0281Z" fill="white"/>
<path d="M94.998 29.694V0.357422H113.682V3.85284H99.0344V13.2572H111.601V16.7526H99.0344V26.1986H113.682V29.694H94.998Z" fill="white"/>
<path d="M87.8053 29.0281C87.1118 29.7493 86.2379 30.11 85.1837 30.11C84.1296 30.11 83.2557 29.7632 82.5622 29.0697C81.8964 28.3484 81.5635 27.4607 81.5635 26.4065C81.5635 25.3801 81.8964 24.5201 82.5622 23.8265C83.2557 23.1053 84.1296 22.7446 85.1837 22.7446C86.2102 22.7446 87.084 23.1053 87.8053 23.8265C88.5266 24.5201 88.8872 25.3801 88.8872 26.4065C88.8872 27.4329 88.5266 28.3068 87.8053 29.0281Z" fill="white"/>
<path d="M73.073 29.694L69.6192 18.6251H57.7597L54.3059 29.694H50.2695L59.5074 0.357422H67.8715L77.1094 29.694H73.073ZM58.8416 15.1297H68.5373L64.2512 1.48095H63.1277L58.8416 15.1297Z" fill="white"/>
<path d="M44.7389 29.0281C44.0454 29.7493 43.1715 30.11 42.1173 30.11C41.0632 30.11 40.1893 29.7632 39.4958 29.0697C38.83 28.3484 38.4971 27.4607 38.4971 26.4065C38.4971 25.3801 38.83 24.5201 39.4958 23.8265C40.1893 23.1053 41.0632 22.7446 42.1173 22.7446C43.1438 22.7446 44.0176 23.1053 44.7389 23.8265C45.4602 24.5201 45.8208 25.3801 45.8208 26.4065C45.8208 27.4329 45.4602 28.3068 44.7389 29.0281Z" fill="white"/>
<path d="M0.0498047 29.694V0.357422H8.12256L15.6544 28.5704H16.7779L24.3097 0.357422H32.3824V29.694H28.3461V4.22735L29.0118 1.48095H27.9299L20.2317 29.694H12.1589L4.5023 1.48095H3.37878L4.08618 4.22735V29.694H0.0498047Z" fill="white"/>
</svg>
