<svg width="273" height="44" viewBox="0 0 273 44" fill="none" xmlns="http://www.w3.org/2000/svg">
<path d="M9.89213 10.1322C11.5704 10.1322 13.0122 10.2504 14.2177 10.4867C15.4232 10.7231 16.5105 11.1486 17.4796 11.7631C18.4488 12.3541 19.1697 13.205 19.6424 14.3159C20.1388 15.4269 20.387 16.7978 20.387 18.4288C20.387 20.0598 20.1388 21.4307 19.6424 22.5417C19.1697 23.6526 18.4488 24.5154 17.4796 25.1299C16.5105 25.7209 15.4232 26.1345 14.2177 26.3709C13.0122 26.6072 11.5704 26.7254 9.89213 26.7254H5.95655V35.1284H2.51735V10.1322H9.89213ZM9.9985 23.7472C11.1331 23.7472 12.0786 23.6881 12.8349 23.5699C13.5913 23.4281 14.3004 23.1799 14.9623 22.8253C15.6478 22.4707 16.1441 21.9389 16.4514 21.2298C16.7823 20.497 16.9478 19.5634 16.9478 18.4288C16.9478 17.2942 16.7823 16.3724 16.4514 15.6633C16.1441 14.9305 15.6478 14.3869 14.9623 14.0323C14.3004 13.6777 13.5913 13.4414 12.8349 13.3232C12.0786 13.1814 11.1331 13.1105 9.9985 13.1105H5.95655V23.7472H9.9985ZM23.7331 35.1284V19.6698C23.7331 18.7952 23.934 18.1452 24.3359 17.7197C24.7613 17.2942 25.4114 17.0933 26.2859 17.1169L36.4617 17.4715V20.4498L27.1723 20.1307V35.1284H23.7331ZM37.5226 26.0518C37.5226 23.2626 38.3145 21.0762 39.8981 19.4925C41.5055 17.9088 43.6092 17.1169 46.2092 17.1169C48.7857 17.1169 50.8421 17.8851 52.3785 19.4216C53.9149 20.9343 54.6832 23.0262 54.6832 25.6972V26.9736H40.8554C40.9264 28.6519 41.4227 30.011 42.3446 31.051C43.2901 32.091 44.7319 32.6111 46.6702 32.6111C49.5066 32.6111 51.2321 31.3819 51.8467 28.9237H55.2859C54.9313 30.6255 54.045 32.1501 52.6267 33.4975C51.2321 34.8211 49.2466 35.483 46.6702 35.483C43.621 35.483 41.3282 34.5966 39.7918 32.8238C38.279 31.051 37.5226 28.7937 37.5226 26.0518ZM40.8554 24.5626H51.3503C51.3503 23.239 50.9012 22.1398 50.003 21.2653C49.1284 20.3907 47.8638 19.9534 46.2092 19.9534C44.5547 19.9534 43.2428 20.4025 42.2737 21.3007C41.3282 22.1753 40.8554 23.2626 40.8554 24.5626ZM77.0889 35.1284H73.6497V32.8593L74.2525 30.5901H73.2952C72.8697 32.0556 72.0542 33.2374 70.8487 34.1357C69.6669 35.0339 68.1068 35.483 66.1686 35.483C63.663 35.483 61.6539 34.6202 60.1411 32.8947C58.652 31.1456 57.9074 28.9355 57.9074 26.2645C57.9074 23.6171 58.652 21.4307 60.1411 19.7052C61.6539 17.9797 63.663 17.1169 66.1686 17.1169C68.1068 17.1169 69.6669 17.566 70.8487 18.4643C72.0542 19.3625 72.8697 20.5325 73.2952 21.9744H74.2525L73.6497 19.7407V9.06851H77.0889V35.1284ZM73.6497 26.2645C73.6497 24.2081 73.0706 22.6717 71.9124 21.6553C70.7778 20.6152 69.265 20.0952 67.3741 20.0952C65.5304 20.0952 64.0649 20.6034 62.9776 21.6198C61.8903 22.6362 61.3466 24.1844 61.3466 26.2645C61.3466 28.3682 61.8903 29.9401 62.9776 30.9801C64.0649 31.9965 65.5304 32.5047 67.3741 32.5047C69.265 32.5047 70.7778 31.9847 71.9124 30.9447C73.0706 29.9046 73.6497 28.3446 73.6497 26.2645ZM86.7112 14.8478C85.9312 14.8478 85.2812 14.6114 84.7612 14.1387C84.2648 13.6423 84.0166 13.0277 84.0166 12.295C84.0166 11.5622 84.2648 10.9595 84.7612 10.4867C85.2812 10.014 85.9312 9.77762 86.7112 9.77762C87.5149 9.77762 88.1767 10.014 88.6968 10.4867C89.2168 10.9595 89.4768 11.5622 89.4768 12.295C89.4768 13.0277 89.2168 13.6423 88.6968 14.1387C88.1767 14.6114 87.5149 14.8478 86.7112 14.8478ZM80.5774 35.1284V32.1501H85.5412V20.1307L81.7474 20.4498V17.4715L86.3567 17.1169C88.0113 16.9751 88.8386 17.7315 88.8386 19.3861V32.1501H93.8024V35.1284H80.5774ZM95.2491 26.2645C95.2491 23.5935 96.0764 21.4071 97.731 19.7052C99.3856 17.9797 101.608 17.1169 104.397 17.1169C106.5 17.1169 108.391 17.7197 110.07 18.9252C111.748 20.1307 112.681 21.9153 112.871 24.279H109.396C109.183 22.8371 108.628 21.7853 107.73 21.1234C106.831 20.438 105.72 20.0952 104.397 20.0952C102.529 20.0952 101.111 20.6743 100.142 21.8325C99.1729 22.9671 98.6883 24.4444 98.6883 26.2645C98.6883 28.1082 99.1729 29.6092 100.142 30.7674C101.111 31.9256 102.529 32.5047 104.397 32.5047C105.72 32.5047 106.831 32.1738 107.73 31.5119C108.628 30.8265 109.183 29.7628 109.396 28.3209H112.871C112.681 30.6846 111.748 32.4692 110.07 33.6747C108.391 34.8802 106.5 35.483 104.397 35.483C101.608 35.483 99.3856 34.6202 97.731 32.8947C96.0764 31.1692 95.2491 28.9591 95.2491 26.2645ZM121.322 32.5402L127.633 32.1501V35.1284L120.435 35.483C119.584 35.5302 118.946 35.3412 118.521 34.9157C118.095 34.4666 117.883 33.8047 117.883 32.9302V20.4498H113.947V17.4715H117.883V13.1459L121.322 12.0822V17.4715H126.924V20.4498H121.322V32.5402Z" fill="white"/>
<path d="M153.155 22.4842C153.155 18.7495 154.219 15.6767 156.346 13.2657C158.497 10.8547 161.404 9.6492 165.068 9.6492C168.306 9.6492 170.93 10.5474 172.939 12.3438C174.972 14.1166 176.178 16.5512 176.556 19.6477H173.117C172.833 17.4022 171.994 15.6767 170.599 14.4712C169.205 13.242 167.361 12.6275 165.068 12.6275C162.373 12.6275 160.282 13.5257 158.792 15.3221C157.327 17.0949 156.594 19.4822 156.594 22.4842C156.594 25.4861 157.327 27.8852 158.792 29.6817C160.258 31.4781 162.35 32.3763 165.068 32.3763C167.361 32.3763 169.205 31.7617 170.599 30.5326C171.994 29.3035 172.833 27.5661 173.117 25.3206H176.556C176.178 28.4407 174.972 30.899 172.939 32.6954C170.93 34.4682 168.306 35.3546 165.068 35.3546C161.404 35.3546 158.497 34.1491 156.346 31.7381C154.219 29.3271 153.155 26.2425 153.155 22.4842ZM180.023 35V19.5413C180.023 18.6668 180.224 18.0167 180.626 17.5913C181.051 17.1658 181.701 16.9649 182.576 16.9885L192.751 17.3431V20.3214L183.462 20.0023V35H180.023ZM209.706 17.3431H213.535L205.771 34.6454V39.6801C205.771 41.2875 204.92 42.0557 203.218 41.9848L196.02 41.6657V38.6874L202.296 38.9356V34.6454L194.531 17.3431H198.325L203.572 30.2489V31.9154H204.494V30.2489L209.706 17.3431ZM216.153 17.3431H219.592V19.6122L218.989 21.846H219.947C220.372 20.4041 221.176 19.2341 222.358 18.3358C223.539 17.4376 225.099 16.9885 227.038 16.9885C229.567 16.9885 231.576 17.8513 233.065 19.5768C234.578 21.3023 235.334 23.5005 235.334 26.1715C235.334 28.8425 234.578 31.0408 233.065 32.7663C231.576 34.4918 229.567 35.3546 227.038 35.3546C225.099 35.3546 223.539 34.9055 222.358 34.0072C221.176 33.109 220.372 31.9272 219.947 30.4617H218.989L219.592 32.7308V41.4884H216.153V17.3431ZM221.294 21.5268C220.159 22.5432 219.592 24.0915 219.592 26.1715C219.592 28.2516 220.159 29.8117 221.294 30.8517C222.452 31.8681 223.977 32.3763 225.868 32.3763C227.711 32.3763 229.177 31.8681 230.264 30.8517C231.351 29.8117 231.895 28.2516 231.895 26.1715C231.895 24.0915 231.351 22.5432 230.264 21.5268C229.177 20.4868 227.711 19.9668 225.868 19.9668C223.977 19.9668 222.452 20.4868 221.294 21.5268ZM243.802 32.4117L250.113 32.0217V35L242.915 35.3546C242.064 35.4018 241.426 35.2127 241.001 34.7873C240.575 34.3382 240.362 33.6763 240.362 32.8017V20.3214H236.427V17.3431H240.362V13.0175L243.802 11.9538V17.3431H249.404V20.3214H243.802V32.4117ZM251.885 26.1361C251.885 23.4651 252.76 21.2787 254.509 19.5768C256.258 17.8513 258.539 16.9885 261.352 16.9885C264.141 16.9885 266.41 17.8513 268.159 19.5768C269.908 21.2787 270.783 23.4651 270.783 26.1361C270.783 28.8307 269.908 31.0408 268.159 32.7663C266.41 34.4918 264.141 35.3546 261.352 35.3546C258.539 35.3546 256.258 34.5036 254.509 32.8017C252.76 31.0762 251.885 28.8544 251.885 26.1361ZM255.324 26.1361C255.324 27.9798 255.856 29.4807 256.92 30.639C257.984 31.7972 259.461 32.3763 261.352 32.3763C263.219 32.3763 264.673 31.7972 265.713 30.639C266.777 29.4807 267.308 27.9798 267.308 26.1361C267.308 24.316 266.777 22.8387 265.713 21.7041C264.673 20.5459 263.219 19.9668 261.352 19.9668C259.461 19.9668 257.984 20.5459 256.92 21.7041C255.856 22.8387 255.324 24.316 255.324 26.1361Z" fill="white"/>
<g filter="url(#filter0_di_7_2282)">
<circle cx="140.915" cy="33.5382" r="3.91511" fill="#FFD72C"/>
</g>
<g filter="url(#filter1_di_7_2282)">
<circle cx="140.915" cy="23.0421" r="3.91511" fill="#FFAE2D"/>
</g>
<g filter="url(#filter2_di_7_2282)">
<circle cx="140.915" cy="12.5499" r="3.91511" fill="#FF532E"/>
</g>
<defs>
<filter id="filter0_di_7_2282" x="134.398" y="28.5079" width="13.0339" height="13.0339" filterUnits="userSpaceOnUse" color-interpolation-filters="sRGB">
<feFlood flood-opacity="0" result="BackgroundImageFix"/>
<feColorMatrix in="SourceAlpha" type="matrix" values="0 0 0 0 0 0 0 0 0 0 0 0 0 0 0 0 0 0 127 0" result="hardAlpha"/>
<feOffset dy="1.48681"/>
<feGaussianBlur stdDeviation="1.30096"/>
<feComposite in2="hardAlpha" operator="out"/>
<feColorMatrix type="matrix" values="0 0 0 0 1 0 0 0 0 0.843137 0 0 0 0 0.172549 0 0 0 0.26 0"/>
<feBlend mode="normal" in2="BackgroundImageFix" result="effect1_dropShadow_7_2282"/>
<feBlend mode="normal" in="SourceGraphic" in2="effect1_dropShadow_7_2282" result="shape"/>
<feColorMatrix in="SourceAlpha" type="matrix" values="0 0 0 0 0 0 0 0 0 0 0 0 0 0 0 0 0 0 127 0" result="hardAlpha"/>
<feOffset dy="1.48681"/>
<feGaussianBlur stdDeviation="0.8735"/>
<feComposite in2="hardAlpha" operator="arithmetic" k2="-1" k3="1"/>
<feColorMatrix type="matrix" values="0 0 0 0 1 0 0 0 0 1 0 0 0 0 1 0 0 0 1 0"/>
<feBlend mode="overlay" in2="shape" result="effect2_innerShadow_7_2282"/>
</filter>
<filter id="filter1_di_7_2282" x="134.398" y="18.0118" width="13.0339" height="13.0339" filterUnits="userSpaceOnUse" color-interpolation-filters="sRGB">
<feFlood flood-opacity="0" result="BackgroundImageFix"/>
<feColorMatrix in="SourceAlpha" type="matrix" values="0 0 0 0 0 0 0 0 0 0 0 0 0 0 0 0 0 0 127 0" result="hardAlpha"/>
<feOffset dy="1.48681"/>
<feGaussianBlur stdDeviation="1.30096"/>
<feComposite in2="hardAlpha" operator="out"/>
<feColorMatrix type="matrix" values="0 0 0 0 1 0 0 0 0 0.682353 0 0 0 0 0.176471 0 0 0 0.5 0"/>
<feBlend mode="normal" in2="BackgroundImageFix" result="effect1_dropShadow_7_2282"/>
<feBlend mode="normal" in="SourceGraphic" in2="effect1_dropShadow_7_2282" result="shape"/>
<feColorMatrix in="SourceAlpha" type="matrix" values="0 0 0 0 0 0 0 0 0 0 0 0 0 0 0 0 0 0 127 0" result="hardAlpha"/>
<feOffset dy="1.48681"/>
<feGaussianBlur stdDeviation="0.8735"/>
<feComposite in2="hardAlpha" operator="arithmetic" k2="-1" k3="1"/>
<feColorMatrix type="matrix" values="0 0 0 0 1 0 0 0 0 1 0 0 0 0 1 0 0 0 1 0"/>
<feBlend mode="overlay" in2="shape" result="effect2_innerShadow_7_2282"/>
</filter>
<filter id="filter2_di_7_2282" x="134.398" y="7.51966" width="13.0339" height="13.0339" filterUnits="userSpaceOnUse" color-interpolation-filters="sRGB">
<feFlood flood-opacity="0" result="BackgroundImageFix"/>
<feColorMatrix in="SourceAlpha" type="matrix" values="0 0 0 0 0 0 0 0 0 0 0 0 0 0 0 0 0 0 127 0" result="hardAlpha"/>
<feOffset dy="1.48681"/>
<feGaussianBlur stdDeviation="1.30096"/>
<feComposite in2="hardAlpha" operator="out"/>
<feColorMatrix type="matrix" values="0 0 0 0 1 0 0 0 0 0.32549 0 0 0 0 0.180392 0 0 0 0.5 0"/>
<feBlend mode="normal" in2="BackgroundImageFix" result="effect1_dropShadow_7_2282"/>
<feBlend mode="normal" in="SourceGraphic" in2="effect1_dropShadow_7_2282" result="shape"/>
<feColorMatrix in="SourceAlpha" type="matrix" values="0 0 0 0 0 0 0 0 0 0 0 0 0 0 0 0 0 0 127 0" result="hardAlpha"/>
<feOffset dy="1.48681"/>
<feGaussianBlur stdDeviation="0.8735"/>
<feComposite in2="hardAlpha" operator="arithmetic" k2="-1" k3="1"/>
<feColorMatrix type="matrix" values="0 0 0 0 1 0 0 0 0 1 0 0 0 0 1 0 0 0 1 0"/>
<feBlend mode="overlay" in2="shape" result="effect2_innerShadow_7_2282"/>
</filter>
</defs>
</svg>
