<svg width="295" height="44" viewBox="0 0 295 44" fill="none" xmlns="http://www.w3.org/2000/svg">
<path d="M24.1808 28.5825C24.1808 33.0027 21.0488 35.26 14.785 35.3546V40.2474H12.2677V35.2836C8.88755 35 6.47657 34.0427 5.0347 32.4117C3.59284 30.7571 2.87191 28.488 2.87191 25.6043H6.31111C6.31111 27.8261 6.79567 29.4453 7.76479 30.4617C8.75755 31.4544 10.2585 32.0572 12.2677 32.2699V23.1933C9.45484 22.3423 7.37478 21.4205 6.02746 20.4277C4.68015 19.4113 4.00649 17.9104 4.00649 15.9249C4.00649 11.9538 6.76021 9.86194 12.2677 9.6492V4.75632H14.785V9.72011C17.6215 10.0274 19.7252 10.9847 21.0961 12.592C22.4671 14.1993 23.1525 16.0903 23.1525 18.2649H19.7133C19.7133 16.6812 19.2642 15.4285 18.366 14.5066C17.4915 13.5848 16.2978 13.0057 14.785 12.7693V20.7823C15.9196 21.1368 16.8296 21.4441 17.5151 21.7041C18.2242 21.9405 19.0515 22.2951 19.997 22.7678C20.9425 23.2405 21.6752 23.7251 22.1952 24.2215C22.7389 24.7179 23.1998 25.3442 23.578 26.1006C23.9798 26.857 24.1808 27.6843 24.1808 28.5825ZM7.44569 15.8894C7.44569 16.9058 7.80025 17.6976 8.50936 18.2649C9.24211 18.8086 10.4949 19.3759 12.2677 19.9668V12.6275C9.05301 12.7929 7.44569 13.8802 7.44569 15.8894ZM14.785 32.3763C16.7942 32.329 18.2833 32.0217 19.2524 31.4544C20.2452 30.8871 20.7416 29.9771 20.7416 28.7243C20.7416 27.4716 20.2334 26.5143 19.217 25.8524C18.2006 25.167 16.7233 24.5406 14.785 23.9733V32.3763ZM36.544 10.0038C38.2222 10.0038 39.6641 10.1219 40.8696 10.3583C42.0751 10.5947 43.1624 11.0202 44.1315 11.6347C45.1006 12.2256 45.8215 13.0766 46.2943 14.1875C46.7907 15.2985 47.0389 16.6694 47.0389 18.3004C47.0389 19.9313 46.7907 21.3023 46.2943 22.4132C45.8215 23.5242 45.1006 24.3869 44.1315 25.0015C43.1624 25.5924 42.0751 26.0061 40.8696 26.2425C39.6641 26.4788 38.2222 26.597 36.544 26.597H32.6084V35H29.1692V10.0038H36.544ZM36.6503 23.6187C37.7849 23.6187 38.7304 23.5596 39.4868 23.4415C40.2432 23.2996 40.9523 23.0514 41.6141 22.6969C42.2996 22.3423 42.796 21.8105 43.1033 21.1014C43.4342 20.3686 43.5997 19.435 43.5997 18.3004C43.5997 17.1658 43.4342 16.244 43.1033 15.5348C42.796 14.8021 42.2996 14.2584 41.6141 13.9039C40.9523 13.5493 40.2432 13.313 39.4868 13.1948C38.7304 13.0529 37.7849 12.982 36.6503 12.982H32.6084V23.6187H36.6503ZM50.2811 35V10.0038H58.8259C62.0878 10.0038 64.5697 10.512 66.2716 11.5284C67.9971 12.5447 68.8599 14.3648 68.8599 16.9885C68.8599 20.345 67.1935 22.2951 63.8606 22.8387V23.7606H66.9807C68.4462 23.7606 69.179 24.4697 69.179 25.8879V35H65.7398V25.2142H53.7203V35H50.2811ZM53.7203 22.236H58.8259C59.7714 22.236 60.5278 22.2123 61.0951 22.1651C61.686 22.1178 62.2769 22.0114 62.8679 21.846C63.4824 21.6805 63.9552 21.4323 64.2861 21.1014C64.617 20.7705 64.8888 20.3214 65.1016 19.7541C65.3143 19.1631 65.4207 18.4422 65.4207 17.5913C65.4207 16.7403 65.3143 16.0312 65.1016 15.4639C64.8888 14.8966 64.617 14.4475 64.2861 14.1166C63.9552 13.7857 63.4824 13.5375 62.8679 13.372C62.2769 13.2066 61.686 13.1002 61.0951 13.0529C60.5278 13.0057 59.7714 12.982 58.8259 12.982H53.7203V22.236ZM73.3666 35V10.0038H89.2862V12.982H76.8058V20.995H87.5134V23.9733H76.8058V32.0217H89.2862V35H73.3666ZM111.244 35L108.301 25.5688H98.1958L95.253 35H91.8138L99.685 10.0038H106.812L114.683 35H111.244ZM99.1177 22.5905H107.379L103.727 10.9611H102.77L99.1177 22.5905ZM132.199 12.982H126.597V32.0217H132.199V35H117.556V32.0217H123.158V12.982H117.556V10.0038H132.199V12.982Z" fill="white"/>
<path d="M177.763 28.5825C177.763 33.0972 174.489 35.3546 167.941 35.3546C163.781 35.3546 160.827 34.5273 159.077 32.8727C157.328 31.1944 156.454 28.7716 156.454 25.6043H159.893C159.893 28.2043 160.543 29.9889 161.843 30.9581C163.167 31.9035 165.223 32.3763 168.012 32.3763C170.14 32.3763 171.723 32.0926 172.763 31.5253C173.803 30.9581 174.323 30.0244 174.323 28.7243C174.323 28.2516 174.252 27.8261 174.111 27.4479C173.992 27.0461 173.744 26.6916 173.366 26.3843C173.011 26.0534 172.692 25.7815 172.409 25.5688C172.149 25.3561 171.688 25.1315 171.026 24.8951C170.388 24.6351 169.915 24.4579 169.608 24.3633C169.324 24.2451 168.757 24.0678 167.906 23.8315C167.079 23.5715 166.535 23.406 166.275 23.3351C165.093 22.9805 164.136 22.6732 163.403 22.4132C162.694 22.1532 161.926 21.8105 161.098 21.385C160.271 20.9596 159.633 20.5105 159.184 20.0377C158.735 19.565 158.356 18.9859 158.049 18.3004C157.742 17.5913 157.588 16.7994 157.588 15.9249C157.588 11.7411 160.602 9.6492 166.629 9.6492C170.057 9.6492 172.598 10.4883 174.252 12.1666C175.907 13.8448 176.734 15.8776 176.734 18.2649H173.295C173.295 16.374 172.669 14.9676 171.416 14.0457C170.187 13.1002 168.591 12.6275 166.629 12.6275C162.895 12.6275 161.027 13.7148 161.027 15.8894C161.027 16.9767 161.453 17.8158 162.304 18.4068C163.178 18.974 164.738 19.6241 166.984 20.3568C170.199 21.3732 172.314 22.1296 173.331 22.626C176.285 24.0915 177.763 26.077 177.763 28.5825ZM186.828 32.4117L193.139 32.0217V35L185.942 35.3546C185.091 35.4018 184.453 35.2127 184.027 34.7873C183.602 34.3382 183.389 33.6763 183.389 32.8017V20.3214H179.453V17.3431H183.389V13.0175L186.828 11.9538V17.3431H192.43V20.3214H186.828V32.4117ZM195.881 30.1071C195.881 27.0816 197.89 25.3324 201.909 24.8597L208.681 24.1506C208.539 21.2668 206.967 19.825 203.965 19.825C202.618 19.825 201.507 20.1677 200.632 20.8532C199.758 21.515 199.32 22.5432 199.32 23.9378H195.988C195.988 21.9523 196.709 20.2977 198.15 18.974C199.592 17.6504 201.53 16.9885 203.965 16.9885C206.447 16.9885 208.421 17.7095 209.886 19.1513C211.375 20.5932 212.12 22.5432 212.12 25.0015V32.0217H214.708V35H211.411C210.725 35 210.182 34.8109 209.78 34.4327C209.402 34.0545 209.213 33.5109 209.213 32.8017V31.9863L209.744 30.1071H208.823C207.948 33.6054 205.632 35.3546 201.873 35.3546C200.644 35.3546 199.604 35.1773 198.753 34.8227C197.902 34.4682 197.288 33.9954 196.909 33.4045C196.531 32.8136 196.259 32.2581 196.094 31.7381C195.952 31.2181 195.881 30.6744 195.881 30.1071ZM199.32 29.6107C199.32 30.5089 199.592 31.1944 200.136 31.6672C200.703 32.1399 201.448 32.3763 202.37 32.3763C204.261 32.3763 205.785 31.8326 206.943 30.7453C208.102 29.6344 208.681 28.2398 208.681 26.5616L202.511 27.1998C201.4 27.3416 200.585 27.5898 200.065 27.9443C199.569 28.2989 199.32 28.8544 199.32 29.6107ZM230.259 35L224.657 27.0579L220.899 29.0434V35H217.46V8.94009H220.899V25.427L229.692 20.7823L229.408 17.3431H232.883L233.096 20.6759C233.167 21.9287 232.635 22.8505 231.5 23.4415L227.246 25.6752L227.494 25.5688L234.159 35H230.259ZM242.334 14.7194C241.554 14.7194 240.904 14.483 240.384 14.0103C239.888 13.5139 239.64 12.8993 239.64 12.1666C239.64 11.4338 239.888 10.8311 240.384 10.3583C240.904 9.88557 241.554 9.6492 242.334 9.6492C243.138 9.6492 243.8 9.88557 244.32 10.3583C244.84 10.8311 245.1 11.4338 245.1 12.1666C245.1 12.8993 244.84 13.5139 244.32 14.0103C243.8 14.483 243.138 14.7194 242.334 14.7194ZM236.201 35V32.0217H241.164V20.0023L237.371 20.3214V17.3431L241.98 16.9885C243.635 16.8467 244.462 17.6031 244.462 19.2577V32.0217H249.426V35H236.201ZM261.95 19.9668C260.106 19.9668 258.629 20.6286 257.518 21.9523C256.407 23.2524 255.852 25.0724 255.852 27.4125V35H252.412V17.3431H255.852V20.215L255.249 22.4487H256.206C256.584 20.7705 257.341 19.4468 258.475 18.4777C259.634 17.4849 261.135 16.9885 262.978 16.9885C265.082 16.9885 266.725 17.6267 267.907 18.9031C269.112 20.1559 269.715 21.9996 269.715 24.4342V35H266.24V24.9306C266.24 23.1578 265.897 21.8932 265.212 21.1368C264.55 20.3568 263.463 19.9668 261.95 19.9668ZM292.215 17.3431H293.775V20.3214H292.322C291.447 20.3214 290.726 20.5223 290.159 20.9241C290.868 21.8223 291.223 22.9569 291.223 24.3278C291.223 26.1006 290.525 27.6134 289.131 28.8662C287.76 30.1189 285.715 31.2417 282.997 32.2345C284.391 32.0926 285.68 32.069 286.862 32.1635C288.067 32.2345 289.06 32.6245 289.84 33.3336C290.62 34.0191 291.01 34.9764 291.01 36.2055C291.01 37.0092 290.868 37.6946 290.584 38.2619C290.324 38.8528 289.863 39.3492 289.202 39.7511C288.563 40.1529 287.819 40.472 286.968 40.7084C286.141 40.9684 285.018 41.1575 283.6 41.2757C282.205 41.4175 280.775 41.512 279.309 41.5593C277.844 41.6066 276.012 41.6302 273.814 41.6302V38.6519C279.345 38.6519 283.009 38.4865 284.805 38.1556C286.625 37.8246 287.535 37.0446 287.535 35.8155C287.535 33.1681 283.505 32.9318 275.445 35.1064L274.842 32.8727C278.057 32.1399 281.023 31.3835 283.741 30.6035V29.6462C280.669 30.4971 278.033 30.4499 275.835 29.5044C273.66 28.5353 272.573 26.727 272.573 24.0797C272.573 21.7632 273.424 20.0023 275.126 18.7968C276.851 17.5913 279.073 16.9885 281.791 16.9885C284.273 16.9885 286.342 17.5558 287.996 18.6904C288.8 18.1231 289.485 17.7567 290.053 17.5913C290.643 17.4258 291.364 17.3431 292.215 17.3431ZM276.012 24.186C276.012 27.0461 277.974 28.4762 281.898 28.4762C285.822 28.4762 287.783 27.0461 287.783 24.186C287.783 21.3732 285.822 19.9668 281.898 19.9668C277.974 19.9668 276.012 21.3732 276.012 24.186Z" fill="white"/>
<g filter="url(#filter0_di_2_1972)">
<circle cx="144.915" cy="33.5379" r="3.91511" fill="#FFD72C"/>
</g>
<g filter="url(#filter1_di_2_1972)">
<circle cx="144.915" cy="23.0423" r="3.91511" fill="#FFAE2D"/>
</g>
<g filter="url(#filter2_di_2_1972)">
<circle cx="144.915" cy="12.5496" r="3.91511" fill="#FF532E"/>
</g>
<defs>
<filter id="filter0_di_2_1972" x="138.398" y="28.5077" width="13.0339" height="13.034" filterUnits="userSpaceOnUse" color-interpolation-filters="sRGB">
<feFlood flood-opacity="0" result="BackgroundImageFix"/>
<feColorMatrix in="SourceAlpha" type="matrix" values="0 0 0 0 0 0 0 0 0 0 0 0 0 0 0 0 0 0 127 0" result="hardAlpha"/>
<feOffset dy="1.48681"/>
<feGaussianBlur stdDeviation="1.30096"/>
<feComposite in2="hardAlpha" operator="out"/>
<feColorMatrix type="matrix" values="0 0 0 0 1 0 0 0 0 0.843137 0 0 0 0 0.172549 0 0 0 0.26 0"/>
<feBlend mode="normal" in2="BackgroundImageFix" result="effect1_dropShadow_2_1972"/>
<feBlend mode="normal" in="SourceGraphic" in2="effect1_dropShadow_2_1972" result="shape"/>
<feColorMatrix in="SourceAlpha" type="matrix" values="0 0 0 0 0 0 0 0 0 0 0 0 0 0 0 0 0 0 127 0" result="hardAlpha"/>
<feOffset dy="1.48681"/>
<feGaussianBlur stdDeviation="0.8735"/>
<feComposite in2="hardAlpha" operator="arithmetic" k2="-1" k3="1"/>
<feColorMatrix type="matrix" values="0 0 0 0 1 0 0 0 0 1 0 0 0 0 1 0 0 0 1 0"/>
<feBlend mode="overlay" in2="shape" result="effect2_innerShadow_2_1972"/>
</filter>
<filter id="filter1_di_2_1972" x="138.398" y="18.0121" width="13.0339" height="13.034" filterUnits="userSpaceOnUse" color-interpolation-filters="sRGB">
<feFlood flood-opacity="0" result="BackgroundImageFix"/>
<feColorMatrix in="SourceAlpha" type="matrix" values="0 0 0 0 0 0 0 0 0 0 0 0 0 0 0 0 0 0 127 0" result="hardAlpha"/>
<feOffset dy="1.48681"/>
<feGaussianBlur stdDeviation="1.30096"/>
<feComposite in2="hardAlpha" operator="out"/>
<feColorMatrix type="matrix" values="0 0 0 0 1 0 0 0 0 0.682353 0 0 0 0 0.176471 0 0 0 0.5 0"/>
<feBlend mode="normal" in2="BackgroundImageFix" result="effect1_dropShadow_2_1972"/>
<feBlend mode="normal" in="SourceGraphic" in2="effect1_dropShadow_2_1972" result="shape"/>
<feColorMatrix in="SourceAlpha" type="matrix" values="0 0 0 0 0 0 0 0 0 0 0 0 0 0 0 0 0 0 127 0" result="hardAlpha"/>
<feOffset dy="1.48681"/>
<feGaussianBlur stdDeviation="0.8735"/>
<feComposite in2="hardAlpha" operator="arithmetic" k2="-1" k3="1"/>
<feColorMatrix type="matrix" values="0 0 0 0 1 0 0 0 0 1 0 0 0 0 1 0 0 0 1 0"/>
<feBlend mode="overlay" in2="shape" result="effect2_innerShadow_2_1972"/>
</filter>
<filter id="filter2_di_2_1972" x="138.398" y="7.51942" width="13.0339" height="13.034" filterUnits="userSpaceOnUse" color-interpolation-filters="sRGB">
<feFlood flood-opacity="0" result="BackgroundImageFix"/>
<feColorMatrix in="SourceAlpha" type="matrix" values="0 0 0 0 0 0 0 0 0 0 0 0 0 0 0 0 0 0 127 0" result="hardAlpha"/>
<feOffset dy="1.48681"/>
<feGaussianBlur stdDeviation="1.30096"/>
<feComposite in2="hardAlpha" operator="out"/>
<feColorMatrix type="matrix" values="0 0 0 0 1 0 0 0 0 0.32549 0 0 0 0 0.180392 0 0 0 0.5 0"/>
<feBlend mode="normal" in2="BackgroundImageFix" result="effect1_dropShadow_2_1972"/>
<feBlend mode="normal" in="SourceGraphic" in2="effect1_dropShadow_2_1972" result="shape"/>
<feColorMatrix in="SourceAlpha" type="matrix" values="0 0 0 0 0 0 0 0 0 0 0 0 0 0 0 0 0 0 127 0" result="hardAlpha"/>
<feOffset dy="1.48681"/>
<feGaussianBlur stdDeviation="0.8735"/>
<feComposite in2="hardAlpha" operator="arithmetic" k2="-1" k3="1"/>
<feColorMatrix type="matrix" values="0 0 0 0 1 0 0 0 0 1 0 0 0 0 1 0 0 0 1 0"/>
<feBlend mode="overlay" in2="shape" result="effect2_innerShadow_2_1972"/>
</filter>
</defs>
</svg>
